<svg width="94" height="16" focusable="false" viewBox="0 0 94 16"><g opacity=".8"><path d="M80 3.5V1.3h-8V13h8v-2.2h-5.5V8h4.8V6h-4.8V3.5H80Zm-10.6 7c-.5.2-1.2.3-2 .3-.6 0-1.2-.2-1.7-.5A3.7 3.7 0 0 1 64.4 9a3.6 3.6 0 0 1 0-3.8A3.6 3.6 0 0 1 65.7 4a3.5 3.5 0 0 1 1.8-.5c.6 0 .9 0 1.3.2l1 .5.8.6h.1V2.3c-.4-.4-.9-.7-1.4-.9a6.5 6.5 0 0 0-4.2.1 5.8 5.8 0 0 0-2 1.3 6 6 0 0 0-1.3 1.9 6 6 0 0 0-.5 2.4 6 6 0 0 0 1.8 4.4c.6.5 1.3 1 2 1.3a6.3 6.3 0 0 0 2.3.4c.8 0 1.4-.1 2-.3.6-.2 1-.5 1.4-.9V9.5v.1a6.5 6.5 0 0 1-1.4.9Zm-15-4.2-4.7-5h-1v11.6h2.6V6.1L54 9l.4.5.4-.4L57.7 6v6.8h2.5V1.3h-1l-4.7 5Z"></path><path fill-rule="evenodd" d="M15.5 5.1a5.1 5.1 0 0 0-6-5L5.6.9C2.6 1.5 1 3.3 1 5.6V10A5 5 0 0 0 6 15l1.3-.1.8-.2c.6 0 1.6-.3 3-.6 2.4-.4 4.1-2 4.5-4.3V5.1Zm-3.2 3.3L10 9v2.3L4 12.4V6.6l2.4-.5v3.5l3.5-.7V5.5L6.5 6V4l5.8-1.2v5.8Zm20.1-3.3v-1h-2.2V13h2.4V8c0-1 .9-2 2-2s2 1 2 2v5h2.3V7.6c0-2.1-1.6-3.8-3.7-3.8a3.8 3.8 0 0 0-2.8 1.3Zm-6-4 2.4-.5v2.3l-2.4.4V1Z" clip-rule="evenodd"></path><path d="M28.8 4.1h-2.4V13h2.4V4.1Z"></path><path fill-rule="evenodd" d="m43.8 15.5 4-11.4h-2.4l-1.5 4.4-.5 1.3-.3-1.3L41.5 4h-2.4l3.1 8.8-1 3.1 2.6-.5Zm-21-5.5c0 .7.5 1 .8 1l1-.1.5 1.7c-.2.1-.9.5-2.1.5a2.6 2.6 0 0 1-2.6-2.6V6.3h-1.5V4.2h1.5v-2l2.3-.4v2.4H25v2h-2.1V10ZM87 3.5a.5.5 0 0 1 .5-.5h6a.5.5 0 0 1 .5.5v6a.5.5 0 1 1-1 0V4.7L84.9 13a.5.5 0 1 1-.8-.8L92.3 4h-4.8a.5.5 0 0 1-.5-.5Z" clip-rule="evenodd"></path></g></svg>
