<svg height="16" viewBox="0 0 80 16" width="80" xmlns="http://www.w3.org/2000/svg"><g opacity=".8"><path d="m80 3.537v-2.202h-7.976v11.585h7.976v-2.25h-5.474v-2.621h4.812v-2.069h-4.812v-2.443zm-10.647 6.929c-.493.217-1.13.337-1.864.337s-1.276-.156-1.805-.47a3.732 3.732 0 0 1 -1.3-1.298c-.324-.554-.48-1.191-.48-1.877s.156-1.335.48-1.877a3.635 3.635 0 0 1 1.3-1.299 3.466 3.466 0 0 1 1.805-.481c.65 0 .914.06 1.263.18.36.12.698.277.986.47.289.192.578.384.842.6l.12.085v-2.586l-.023-.024c-.385-.35-.855-.614-1.384-.818-.53-.205-1.155-.313-1.877-.313-.721 0-1.6.144-2.333.445a5.773 5.773 0 0 0 -1.937 1.251 5.929 5.929 0 0 0 -1.324 1.9c-.324.735-.48 1.565-.48 2.455s.156 1.72.48 2.454c.325.734.758 1.383 1.324 1.913.553.53 1.215.938 1.937 1.25a6.286 6.286 0 0 0 2.333.434c.819 0 1.384-.108 1.961-.313.59-.216 1.083-.505 1.468-.866l.024-.024v-2.49l-.12.096c-.41.337-.878.626-1.396.866zm-14.869-4.15-4.8-5.04-.024-.025h-.902v11.67h2.502v-6.847l2.827 3.08.385.409.397-.41 2.791-3.067v6.845h2.502v-11.679h-.902l-4.788 5.052z"/><path clip-rule="evenodd" d="m15.543 5.137c0-3.032-2.466-5.113-4.957-5.137-.36 0-.745.024-1.094.096-.157.024-3.85.758-3.85.758-3.032.602-4.62 2.466-4.704 4.788-.024.89-.024 4.27-.024 4.27.036 3.165 2.406 5.138 5.017 5.126.337 0 1.119-.109 1.287-.145.144-.024.385-.084.746-.144.661-.12 1.684-.325 3.067-.602 2.37-.409 4.103-2.009 4.44-4.33.156-1.023.084-4.692.084-4.692zm-3.213 3.308-2.346.457v2.31l-5.859 1.143v-5.75l2.346-.458v3.441l3.513-.686v-3.44l-3.513.685v-2.297l5.859-1.143v5.75zm20.09-3.296-.083-1.023h-2.13v8.794h2.346v-4.884c0-1.107.95-1.985 2.057-1.997 1.095 0 1.901.89 1.901 1.997v4.884h2.346v-5.245c-.012-2.105-1.588-3.777-3.67-3.765a3.764 3.764 0 0 0 -2.778 1.25l.012-.011zm-6.014-4.102 2.346-.458v2.298l-2.346.457z" fill-rule="evenodd"/><path d="m28.752 4.126h-2.346v8.794h2.346z"/><path clip-rule="evenodd" d="m43.777 15.483 4.043-11.357h-2.418l-1.54 4.355-.445 1.324-.36-1.324-1.54-4.355h-2.418l3.151 8.794-1.083 3.08zm-21.028-5.51c0 .722.541 1.034.878 1.034s.638-.048.95-.144l.518 1.708c-.217.145-.879.518-2.13.518a2.565 2.565 0 0 1 -2.562-2.587c-.024-1.082-.024-2.49 0-4.21h-1.54v-2.142h1.54v-1.912l2.346-.458v2.37h2.201v2.142h-2.2v3.693-.012z" fill-rule="evenodd"/></g></svg>
