<svg fill="none" height="24" viewBox="0 0 24 24" width="24" xmlns="http://www.w3.org/2000/svg"><g fill="#222f3e"><path clip-rule="evenodd" d="m16 11c-1.6569 0-3-1.34315-3-3s1.3431-3 3-3c1.3062 0 2.4175.83481 2.8293 2h2.1707v2h-2.1707c-.4118 1.1652-1.5231 2-2.8293 2zm0-2c-.5523 0-1-.44772-1-1s.4477-1 1-1 1 .44772 1 1-.4477 1-1 1z" fill-rule="evenodd"/><path d="m3 9h8v-2h-8z"/><path clip-rule="evenodd" d="m8 19c1.65685 0 3-1.3431 3-3s-1.34315-3-3-3c-1.30622 0-2.41746.8348-2.82929 2h-2.17071v2h2.17071c.41183 1.1652 1.52307 2 2.82929 2zm0-2c.55228 0 1-.4477 1-1s-.44772-1-1-1-1 .4477-1 1 .44772 1 1 1z" fill-rule="evenodd"/><path d="m21 17h-8v-2h8z"/></g></svg>