<svg width="24" height="24" viewBox="0 0 24 24" fill="none" xmlns="http://www.w3.org/2000/svg">
<path fill-rule="evenodd" clip-rule="evenodd" d="M12 15C12 14.4477 12.4477 14 13 14H19C19.5523 14 20 14.4477 20 15V15C20 15.5523 19.5523 16 19 16H13C12.4477 16 12 15.5523 12 15V15Z" fill="black"/>
<path opacity="0.2" fill-rule="evenodd" clip-rule="evenodd" d="M4 15C4 14.4477 4.44772 14 5 14H11C11.5523 14 12 14.4477 12 15V15C12 15.5523 11.5523 16 11 16H5C4.44772 16 4 15.5523 4 15V15Z" fill="black"/>
<path fill-rule="evenodd" clip-rule="evenodd" d="M12 19C12 18.4477 12.4477 18 13 18H19C19.5523 18 20 18.4477 20 19V19C20 19.5523 19.5523 20 19 20H13C12.4477 20 12 19.5523 12 19V19Z" fill="black"/>
<path opacity="0.2" fill-rule="evenodd" clip-rule="evenodd" d="M4 19C4 18.4477 4.44772 18 5 18H11C11.5523 18 12 18.4477 12 19V19C12 19.5523 11.5523 20 11 20H5C4.44772 20 4 19.5523 4 19V19Z" fill="black"/>
<path fill-rule="evenodd" clip-rule="evenodd" d="M12.2929 7.29289C12.6834 6.90237 13.3166 6.90237 13.7071 7.29289L16 9.58579L18.2929 7.29289C18.6834 6.90237 19.3166 6.90237 19.7071 7.29289C20.0976 7.68342 20.0976 8.31658 19.7071 8.70711L16 12.4142L12.2929 8.70711C11.9024 8.31658 11.9024 7.68342 12.2929 7.29289Z" fill="black"/>
<path fill-rule="evenodd" clip-rule="evenodd" d="M4.29289 11.7071C3.90237 11.3166 3.90237 10.6834 4.29289 10.2929L6.58579 8L4.29289 5.70711C3.90237 5.31658 3.90237 4.68342 4.29289 4.29289C4.68342 3.90237 5.31658 3.90237 5.70711 4.29289L9.41421 8L5.70711 11.7071C5.31658 12.0976 4.68342 12.0976 4.29289 11.7071Z" fill="black"/>
</svg>
