<svg fill="none" height="24" viewBox="0 0 24 24" width="24" xmlns="http://www.w3.org/2000/svg"><g fill="#222f3e"><path d="m2 7h2v-3h3v-2h-3a2 2 0 0 0 -2 2zm20 0h-2v-3h-3v-2h3a2 2 0 0 1 2 2zm0 2h-2v6h2zm0 8h-2v3h-3v2h3a2 2 0 0 0 2-2zm-20-8h2v6h-2zm0 8h2v3h3v2h-3a2 2 0 0 1 -2-2zm7 5v-2h6v2zm6-20v2h-6v-2zm-9 15h12l-4-5-3 3.75-2-2.5z"/><path d="m2 7h2v-3h3v-2h-3a2 2 0 0 0 -2 2zm20 0h-2v-3h-3v-2h3a2 2 0 0 1 2 2zm0 2h-2v6h2zm0 8h-2v3h-3v2h3a2 2 0 0 0 2-2zm-20-8h2v6h-2zm0 8h2v3h3v2h-3a2 2 0 0 1 -2-2zm7 5v-2h6v2zm6-20v2h-6v-2zm-9 15h12l-4-5-3 3.75-2-2.5z"/><path d="m6 17h12l-4-5-3 3.75-2-2.5z"/><path d="m6 17h12l-4-5-3 3.75-2-2.5z"/><path d="m6 17h12l-4-5-3 3.75-2-2.5z"/><path d="m6 17h12l-4-5-3 3.75-2-2.5z"/></g></svg>