<svg width="24" height="24" viewBox="0 0 24 24" fill="none" xmlns="http://www.w3.org/2000/svg">
<path fill-rule="evenodd" clip-rule="evenodd" d="M14.9708 5C15.6167 5 16.2228 5.31193 16.5982 5.83752L21 12L16.5982 18.1625C16.2228 18.6881 15.6167 19 14.9708 19H12V17H14.9708L18.5422 12L14.9708 7H5V10H3V7C3 5.89543 3.89543 5 5 5H14.9708Z" fill="black"/>
<path fill-rule="evenodd" clip-rule="evenodd" d="M6 12C5.44772 12 5 12.4477 5 13V15H3C2.44772 15 2 15.4477 2 16C2 16.5523 2.44772 17 3 17H5V19C5 19.5523 5.44772 20 6 20C6.55228 20 7 19.5523 7 19V17H9C9.55228 17 10 16.5523 10 16C10 15.4477 9.55228 15 9 15H7V13C7 12.4477 6.55228 12 6 12Z" fill="black"/>
</svg>
