<svg xmlns="http://www.w3.org/2000/svg" width="24" height="24" fill="none" viewBox="0 0 24 24">
  <path fill="#222F3E" d="M14.001 7c0 .896.494 1.791 1.482 2.18v.002l.176.07c.527.234.94.672 1.14 1.217l.028.074.034.071.025.053.032.072.039.069.043.07V14h-2V9h-2v5h-2V9H9v5H7V9H4v9h16v-6.222a2.307 2.307 0 0 0 1.043-.97l.039-.069.032-.072.025-.053.034-.071.027-.074c.156-.42.438-.776.8-1.025V18c0 .55-.196 1.02-.588 1.412A1.925 1.925 0 0 1 20 20H4c-.55 0-1.02-.196-1.412-.588A1.925 1.925 0 0 1 2 18V9c0-.55.196-1.02.588-1.412A1.925 1.925 0 0 1 4 7h10.001Z"/>
  <path fill="#222F3E" d="M18.676 4.226a.345.345 0 0 1 .648 0 4.147 4.147 0 0 0 2.45 2.45.345.345 0 0 1 0 .648l-.21.084a4.142 4.142 0 0 0-2.24 2.366l-.024.053c-.13.23-.47.23-.6 0l-.024-.053a4.149 4.149 0 0 0-.545-1.01l-.027-.037a4.15 4.15 0 0 0-1.668-1.319l-.21-.084a.346.346 0 0 1 0-.648 4.147 4.147 0 0 0 2.45-2.45Z"/>
</svg>
