<svg fill="none" height="24" viewBox="0 0 24 24" width="24" xmlns="http://www.w3.org/2000/svg"><g fill="#222f3e"><path d="m17.6758 3.22563c.1113-.30084.5371-.30084.6484 0 .4201 1.13515 1.315 2.03012 2.4502 2.45017.3008.11135.3008.53707 0 .64843l-.21.08398c-1.0352.44857-1.8464 1.30193-2.2402 2.36619l-.0244.05273c-.1296.23049-.47.23049-.5996 0l-.0244-.05273c-.3938-1.06426-1.205-1.91762-2.2402-2.36619l-.21-.08398c-.3008-.11136-.3008-.53708 0-.64843 1.1352-.42005 2.0301-1.31502 2.4502-2.45017z"/><path d="m5.50002 16.5c-.05955 0-.1191.0299-.14888.0998l-.06948.1895c-.25806.6883-.79404 1.2369-1.48883 1.4962l-.18859.0699c-.13896.0498-.13896.2394 0 .2892l.18859.0699c.68486.2593 1.23077.798 1.48883 1.4962l.06948.1895c.02978.0699.08933.0998.14888.0998.05956 0 .11911-.0299.14889-.0998l.06948-.1895c.25806-.6883.79404-1.2369 1.48883-1.4962l.18859-.0699c.13895-.0498.13895-.2394 0-.2892l-.18859-.0699c-.68486-.2593-1.23077-.798-1.48883-1.4962l-.06948-.1895c-.02978-.0699-.08933-.0998-.14889-.0998z"/><path d="m12 4c-4.41772 0-8 3.58228-8 8h-2c0-5.52228 4.47772-10 10-10z"/><path d="m22 12c0 5.5223-4.4777 10-10 10v-2c4.4177 0 8-3.5823 8-8z"/><path clip-rule="evenodd" d="m12.6631 15.7354c-.0637.1393-.1232.281-.1768.4257l-.0371.0801c-.2085.3698-.779.3429-.9355-.0801-.0536-.1448-.1141-.2863-.1778-.4257-.6383-1.397-1.7707-2.5113-3.18258-3.1231l-.31445-.126c-.45133-.167-.45133-.8056 0-.9726 1.70244-.6301 3.04473-1.97239 3.67483-3.67483.167-.45133.8056-.45133.9726 0 .5765 1.55758 1.7499 2.81203 3.2491 3.49703.1394.0637.2809.1242.4257.1778.4514.167.4514.8056 0 .9726l-.3144.126c-.0375.0162-.0743.0339-.1113.0508-1.3601.6213-2.451 1.7122-3.0723 3.0723zm-1.7305-3.7354c.3879-.3224.745-.6795 1.0674-1.0674.3222.3877.6788.7451 1.0664 1.0674-.3874.3221-.7443.679-1.0664 1.0664-.3223-.3876-.6797-.7442-1.0674-1.0664z" fill-rule="evenodd"/></g></svg>