<svg fill="none" height="24" viewBox="0 0 24 24" width="24" xmlns="http://www.w3.org/2000/svg"><g fill="#222f3e"><path d="m15.438 2.56-1.938 1.94h-4a5.5 5.5 0 1 0 0 11h3.5v2.5c2.614-1.976 6.75-3.96 6.988-7.638l.012-.362 1.784-1.785c.14.572.216 1.17.216 1.785 0 5.733-7.03 9.007-11 12v-4.5h-1.5a7.5 7.5 0 0 1 0-15c1.957 0 5.938.06 5.938.06z"/><path d="m8.5 8.5a1.5 1.5 0 1 1 0 3 1.5 1.5 0 0 1 0-3zm7 0a1.5 1.5 0 1 1 0 3 1.5 1.5 0 0 1 0-3zm3.176-6.274a.346.346 0 0 1 .649 0 4.147 4.147 0 0 0 2.45 2.45c.3.111.3.537 0 .648l-.21.084a4.147 4.147 0 0 0 -2.24 2.366l-.025.053c-.13.23-.47.23-.6 0l-.024-.053a4.147 4.147 0 0 0 -2.24-2.366l-.21-.084a.346.346 0 0 1 0-.648 4.147 4.147 0 0 0 2.45-2.45z"/></g></svg>