<svg fill="none" height="24" viewBox="0 0 24 24" width="24" xmlns="http://www.w3.org/2000/svg"><path d="m12.1025 3.00488c.5042.05133.8975.47744.8975.99512v3h5c1.1046 0 2 .89543 2 2v4h2v2h-2v4c0 1.1046-.8954 2-2 2h-12c-1.10457 0-2-.8954-2-2v-4h-2v-2h2v-4c0-1.10457.89543-2 2-2h5v-2h-3.59961v-2h4.59961zm-6.1025 15.99512h12v-10h-12zm3-7c.55228 0 1 .4477 1 1v2c0 .5523-.44772 1-1 1s-1-.4477-1-1v-2c0-.5523.44772-1 1-1zm6 0c.5523 0 1 .4477 1 1v2c0 .5523-.4477 1-1 1s-1-.4477-1-1v-2c0-.5523.4477-1 1-1z" fill="#222f3e"/></svg>