<svg fill="none" height="24" viewBox="0 0 24 24" width="24" xmlns="http://www.w3.org/2000/svg"><g fill="#222f3e"><path clip-rule="evenodd" d="m15.3524 12.5749c-.0106.0049-.0212.0098-.0318.0146z" fill-rule="evenodd"/><path clip-rule="evenodd" d="m15.3206 12.5895.0318-.0146c.0223-.0104.0447-.0207.0672-.0305l.2795-.112c.4012-.1485.4012-.7161 0-.8647-.1287-.0476-.2546-.1014-.3785-.158-1.3326-.6089-2.3758-1.72426-2.8883-3.10878-.1484-.40122-.7162-.40122-.8646 0-.5602 1.51329-1.75351 2.70668-3.26684 3.26678-.40111.1486-.40118.7162 0 .8647l.27954.112c1.17671.5099 2.1354 1.4121 2.7181 2.5462l.1112.2301c.0566.1239.1103.2498.158.3785.1392.3756.6462.3996.8316.0712l.033-.0712c.0238-.0642.0493-.128.0756-.191l.0816-.1875.1085-.224c.5661-1.1048 1.4892-1.9893 2.6226-2.5072zm-3.3206-1.5383c-.2866.3447-.6041.6623-.9489.9489.3446.2864.6625.6034.9489.948.2863-.3444.6036-.6617.948-.948-.3445-.2865-.6616-.6043-.948-.9489z" fill-rule="evenodd"/><path d="m12 4c.3446 0 .6855.01729 1.0225.05176.1616.01653.3227.03699.4824.06152l-.3037 1.97656c-.1261-.01936-.2535-.03569-.3819-.04882-.2677-.02739-.541-.04102-.8193-.04102-1.6592 0-3.16481.4905-4.54297 1.48926-1.40327 1.01697-2.5203 2.36388-3.34863 4.06254l-.00391.0087c-.03648.0731-.06243.1444-.0791.2149-.01665.0704-.02539.1448-.02539.2246 0 .0799.00874.1542.02539.2246.00833.0352.01921.0707.03223.1065l.04687.1084.00391.0087c.82832 1.6987 1.94536 3.0456 3.34863 4.0625 1.37816.9988 2.88377 1.4893 4.54297 1.4893.2783 0 .5516-.0136.8193-.041 1.3341-.1365 2.5712-.6131 3.7237-1.4483 1.2072-.8749 2.2009-1.9925 2.9814-3.3652.128-.2251.2504-.4577.3672-.6973l.0039-.0087c.0365-.0731.0624-.1444.0791-.2149.0167-.0704.0254-.1447.0254-.2246 0-.0798-.0087-.1542-.0254-.2246-.0167-.0705-.0426-.1418-.0791-.2149l-.0039-.0087c-.12-.2462-.2461-.4849-.3779-.7159-.1128-.1974-.2302-.3896-.3516-.5761l1.6758-1.09085c.1428.21954.2805.44431.4121.6748.154.26965.3008.54675.4395.83105.1012.2043.1789.4177.2314.6397.0532.225.0791.4543.0791.6855s-.0259.4605-.0791.6855c-.0525.2218-.1313.4347-.2324.6387-.1349.2766-.2765.5469-.4258.8096-.9151 1.6092-2.0979 2.946-3.5469 3.9961-1.4246 1.0324-2.9934 1.6444-4.6933 1.8183-.337.0345-.6779.0518-1.0225.0518-2.08889 0-4.00315-.629-5.71582-1.8701-1.68761-1.223-3.01176-2.8322-3.97363-4.8047l.00097-.001c-.10111-.204-.17994-.4169-.23242-.6387-.05325-.225-.0791-.4543-.0791-.6855s.02585-.4605.0791-.6855c.05255-.222.13112-.4354.23242-.6397.96186-1.97229 2.28516-3.58174 3.97266-4.80468 1.71267-1.24109 3.62693-1.87012 5.71582-1.87012z"/><path d="m16.6758 4.22559c.1114-.30079.537-.30079.6484 0 .4201 1.13515 1.3151 2.03015 2.4502 2.45019.3008.11136.3008.53707 0 .64844l-.2099.08398c-1.0353.44858-1.8465 1.30196-2.2403 2.36622l-.0244.05273c-.1296.23045-.47.23045-.5996 0l-.0244-.05273c-.3938-1.06426-1.205-1.91764-2.2403-2.36622l-.2099-.08398c-.3008-.11137-.3008-.53708 0-.64844 1.1351-.42004 2.0301-1.31504 2.4502-2.45019z"/></g></svg>