<svg fill="none" height="24" viewBox="0 0 24 24" width="24" xmlns="http://www.w3.org/2000/svg"><g fill="#222f3e"><path d="m15.352 12.575a4.49 4.49 0 0 1 -.031.014z" fill-rule="evenodd"/><path d="m15.32 12.59.032-.015.068-.03.28-.113a.461.461 0 0 0 0-.864 5.53 5.53 0 0 1 -3.268-3.268.461.461 0 0 0 -.865 0 5.53 5.53 0 0 1 -3.267 3.268.461.461 0 0 0 0 .864l.28.112a5.528 5.528 0 0 1 2.718 2.547l.11.23c.057.124.111.25.159.378a.46.46 0 0 0 .831.071l.033-.07c.024-.065.05-.129.076-.192l.082-.187.108-.224a5.529 5.529 0 0 1 2.623-2.508zm-3.32-1.54a7.315 7.315 0 0 1 -.949.95c.345.286.663.603.949.947a7.32 7.32 0 0 1 .948-.948 7.314 7.314 0 0 1 -.948-.949z" fill-rule="evenodd"/><path d="m12 4a10.044 10.044 0 0 1 1.505.113l-.305 1.977a7.636 7.636 0 0 0 -1.2-.09c-1.66 0-3.165.49-4.543 1.49-1.403 1.016-2.52 2.363-3.349 4.062l-.004.008a.99.99 0 0 0 -.104.44.97.97 0 0 0 .058.331l.046.109.004.008c.829 1.699 1.946 3.046 3.349 4.063 1.378.998 2.884 1.489 4.543 1.489.278 0 .552-.014.82-.041 1.333-.136 2.57-.613 3.723-1.448 1.207-.875 2.2-1.993 2.981-3.365a13.5 13.5 0 0 0 .368-.698l.003-.008a.99.99 0 0 0 .105-.44.968.968 0 0 0 -.105-.44l-.003-.008a12.463 12.463 0 0 0 -.73-1.292l1.676-1.091a13.654 13.654 0 0 1 .851 1.506 2.987 2.987 0 0 1 .232 2.01 2.985 2.985 0 0 1 -.232.64 15.11 15.11 0 0 1 -.426.809c-.915 1.609-2.098 2.946-3.547 3.996-1.425 1.032-2.994 1.644-4.694 1.818a9.878 9.878 0 0 1 -1.022.052c-2.089 0-4.003-.629-5.716-1.87-1.687-1.223-3.012-2.832-3.973-4.805a2.97 2.97 0 0 1 0-2.65c.962-1.972 2.286-3.582 3.973-4.805 1.713-1.24 3.627-1.87 5.716-1.87z"/><path d="m16.676 4.226a.345.345 0 0 1 .648 0 4.147 4.147 0 0 0 2.45 2.45.345.345 0 0 1 0 .648l-.21.084a4.147 4.147 0 0 0 -2.24 2.366l-.024.053c-.13.23-.47.23-.6 0l-.024-.053a4.147 4.147 0 0 0 -2.24-2.366l-.21-.084a.346.346 0 0 1 0-.648 4.147 4.147 0 0 0 2.45-2.45z"/></g></svg>