<svg fill="none" height="24" viewBox="0 0 24 24" width="24" xmlns="http://www.w3.org/2000/svg"><g fill="#222f3e"><path d="m22 22h-2.1l-1.075-3.05h-4.85l-1.075 3.05h-2.1l4.7-12h2zm-7.4-4.8h3.6l-1.8-5.1z" fill-rule="evenodd"/><path d="m8.9 4h5.166s-.794 2.5-2.641 5.7c-.696 1.206-2.074 2.9-2.074 2.9l2.399 2.45-.95 1.84-2.85-2.915-4.55 4.525-1.4-1.4 4.55-4.55s-1.112-1.25-1.587-2-.913-1.6-1.313-2.55h2.1c.333.65.667 1.217 1 1.7.333.484 1.2 1.45 1.2 1.45s1.121-1.32 1.713-2.312 1.037-1.938 1.337-2.838h-9v-2h4.9v-2h2zm9.276-1.774a.345.345 0 0 1 .648 0 4.147 4.147 0 0 0 2.45 2.45.345.345 0 0 1 0 .648l-.21.084a4.147 4.147 0 0 0 -2.24 2.366l-.024.053c-.13.23-.47.23-.6 0l-.024-.053a4.147 4.147 0 0 0 -2.24-2.366l-.21-.084a.346.346 0 0 1 0-.648 4.147 4.147 0 0 0 2.45-2.45z"/></g></svg>