<?xml version="1.0" encoding="UTF-8"?>
<svg width="24px" height="24px" viewBox="0 0 24 24" version="1.1" xmlns="http://www.w3.org/2000/svg" xmlns:xlink="http://www.w3.org/1999/xlink">
    <!-- Generator: Sketch 51.3 (57544) - http://www.bohemiancoding.com/sketch -->
    <title>icon-align-none</title>
    <desc>Created with Sketch.</desc>
    <defs></defs>
    <g stroke="none" stroke-width="1" fill="none" fill-rule="evenodd">
        <path d="M14.1591668,5 L12.9591668,7 L5,7 C4.44771525,7 4,6.55228475 4,6 C4,5.44771525 4.44771525,5 5,5 L14.1591668,5 Z M18.2408332,5 L19,5 C19.5522847,5 20,5.44771525 20,6 C20,6.55228475 19.5522847,7 19,7 L17.0408332,7 L18.2408332,5 Z M11.7591668,9 L10.5591668,11 L5,11 C4.44771525,11 4,10.5522847 4,10 C4,9.44771525 4.44771525,9 5,9 L11.7591668,9 Z M15.8408332,9 L19,9 C19.5522847,9 20,9.44771525 20,10 C20,10.5522847 19.5522847,11 19,11 L14.6408332,11 L15.8408332,9 Z M9.35916684,13 L8.15916684,15 L5,15 C4.44771525,15 4,14.5522847 4,14 C4,13.4477153 4.44771525,13 5,13 L9.35916684,13 Z M13.4408332,13 L19,13 C19.5522847,13 20,13.4477153 20,14 C20,14.5522847 19.5522847,15 19,15 L12.2408332,15 L13.4408332,13 Z M6.95916684,17 L5.75916684,19 L5,19 C4.44771525,19 4,18.5522847 4,18 C4,17.4477153 4.44771525,17 5,17 L6.95916684,17 Z M11.0408332,17 L19,17 C19.5522847,17 20,17.4477153 20,18 C20,18.5522847 19.5522847,19 19,19 L9.84083316,19 L11.0408332,17 Z M16.2427521,3.47100849 L17.5289915,4.24275212 L7.75724788,20.5289915 L6.47100849,19.7572479 L16.2427521,3.47100849 Z" fill="#000000"></path>
    </g>
</svg>