<svg fill="none" height="24" viewBox="0 0 24 24" width="24" xmlns="http://www.w3.org/2000/svg"><path d="m10.9697 2c1.0854.00018 2.1046.47567 2.8399 1.28516.7303.80404 1.1275 1.87505 1.1299 2.97461l.0898 9.82613v.0098c-.0002.669-.2407 1.3275-.6943 1.8272-.4569.5029-1.0985.8064-1.7901.8066-.6916-.0001-1.3331-.3037-1.79-.8066-.4519-.4975-.693-1.1523-.6953-1.8184l-.08987-9.82618 1.99997-.01855.0899 9.82613v.0088c0 .1977.0729.3701.1758.4834.1.1101.2136.1514.3095.1514.0958-.0002.2097-.0415.3096-.1514.1027-.1133.1748-.2859.1748-.4834l-.0898-9.81638v-.00879c-.0001-.63119-.2291-1.21983-.6104-1.63965-.3783-.4165-.8698-.6297-1.3594-.62988-.4896.00008-.98093.2134-1.35935.62988-.38134.41982-.61026 1.00846-.61035 1.63965l.08887 9.81637v.0088c0 1.065.38594 2.0694 1.04593 2.7959.657.7234 1.5264 1.1094 2.4101 1.1094.8836-.0001 1.7532-.3861 2.4102-1.1094.6598-.7265 1.0449-1.731 1.0449-2.7959l-.0977-9.06345 2-.02148.0977 9.08493c0 1.5366-.5536 3.0276-1.5645 4.1407-1.0139 1.1162-2.4111 1.7645-3.8906 1.7646-1.4795 0-2.87659-.6483-3.8906-1.7646-1.00901-1.1109-1.56318-2.5975-1.56543-4.1309l-.08887-9.82618v-.00977l.00488-.20605c.04647-1.02964.4384-2.02147 1.125-2.77734.7353-.80939 1.75452-1.28498 2.83982-1.28516z" fill="#222f3e"/></svg>