<?xml version="1.0" encoding="UTF-8"?>
<svg width="24px" height="24px" viewBox="0 0 24 24" version="1.1" xmlns="http://www.w3.org/2000/svg" xmlns:xlink="http://www.w3.org/1999/xlink">
    <!-- Generator: Sketch 51.2 (57519) - http://www.bohemiancoding.com/sketch -->
    <title>icon-bold</title>
    <desc>Created with Sketch.</desc>
    <defs></defs>
    <g stroke="none" stroke-width="1" fill="none" fill-rule="evenodd">
        <path d="M7.76133457,19 C7.50799997,19 7.32133517,18.9400006 7.20133457,18.82 C7.08133397,18.6999994 7.02133457,18.5133346 7.02133457,18.26 L7.001297,5.74 C7.001297,5.473332 7.08133397,5.2833339 7.20133457,5.17 C7.32133517,5.0566661 7.50799997,5 7.76133457,5 L12.78,5 C14.3400078,5 15.5033295,5.3166635 16.27,5.95 C17.0366705,6.5833365 17.42,7.4466612 17.42,8.54 C17.42,9.20667 17.2100021,9.8233305 16.79,10.39 C16.3699979,10.9566695 15.8533364,11.3533322 15.24,11.58 L15.26,11.66 C15.6466686,11.726667 16.0533312,11.9066652 16.48,12.2 C16.9066688,12.4933348 17.2666652,12.8766643 17.56,13.35 C17.8533348,13.8233357 18,14.359997 18,14.96 C18,16.2800066 17.5733376,17.2833299 16.72,17.97 C15.8666624,18.6566701 14.6000084,19 12.92,19 L7.76133457,19 Z M12.7296055,10.74 C13.4167255,10.74 13.9671144,10.5700017 14.3807887,10.23 C14.794463,9.8899983 15.001297,9.4600026 15.001297,8.94 C15.001297,7.7933276 14.2440741,7.22 12.7296055,7.22 L9.28,7.22 L9.28,10.74 L12.7296055,10.74 Z M13.319535,16.76 C14.0451201,16.76 14.603254,16.5900017 14.9939537,16.25 C15.3846533,15.9099983 15.5800002,15.4266698 15.5800002,14.8 C15.5800002,14.2133304 15.3567466,13.7633349 14.9102327,13.45 C14.4637189,13.1366651 13.8218648,12.98 12.9846513,12.98 L9.28,12.98 L9.28,16.76 L13.319535,16.76 Z" fill="#000000"></path>
    </g>
</svg>
