<?xml version="1.0" encoding="UTF-8"?>
<svg width="24px" height="24px" viewBox="0 0 24 24" version="1.1" xmlns="http://www.w3.org/2000/svg" xmlns:xlink="http://www.w3.org/1999/xlink">
    <!-- Generator: Sketch 51.2 (57519) - http://www.bohemiancoding.com/sketch -->
    <title>icon-border-width</title>
    <desc>Created with Sketch.</desc>
    <defs></defs>
    <g stroke="none" stroke-width="1" fill="none" fill-rule="evenodd">
        <path d="M5,14.84375 L19,14.84375 C19.5522847,14.84375 20,15.2914653 20,15.84375 L20,15.84375 C20,16.3960347 19.5522847,16.84375 19,16.84375 L5,16.84375 C4.44771525,16.84375 4,16.3960347 4,15.84375 L4,15.84375 C4,15.2914653 4.44771525,14.84375 5,14.84375 Z M4.5,18.5 L19.5,18.5 C19.7761424,18.5 20,18.7238576 20,19 L20,19 C20,19.2761424 19.7761424,19.5 19.5,19.5 L4.5,19.5 C4.22385763,19.5 4,19.2761424 4,19 L4,19 C4,18.7238576 4.22385763,18.5 4.5,18.5 Z M5,10.15625 L19,10.15625 C19.5522847,10.15625 20,10.6039653 20,11.15625 L20,12.15625 C20,12.7085347 19.5522847,13.15625 19,13.15625 L5,13.15625 C4.44771525,13.15625 4,12.7085347 4,12.15625 L4,11.15625 C4,10.6039653 4.44771525,10.15625 5,10.15625 Z M5,4.5 L19,4.5 C19.5522847,4.5 20,4.94771525 20,5.5 L20,7.5 C20,8.05228475 19.5522847,8.5 19,8.5 L5,8.5 C4.44771525,8.5 4,8.05228475 4,7.5 L4,5.5 C4,4.94771525 4.44771525,4.5 5,4.5 Z" fill="#000000"></path>
    </g>
</svg>