<svg xmlns="http://www.w3.org/2000/svg" width="24" height="24" viewBox="0 0 24 24">
  <path d="M3.791 7.02a1.08 1.08 0 0 0-.723.568C3 7.736 3 7.737 3 10.62v2.884l.075.299c.357 1.42 1.421 2.413 2.852 2.662.353.061.711.062 1.103.003.783-.118 1.409-.435 1.985-1.004l.312-.309.245.252c.68.7 1.458 1.052 2.428 1.097 1.211.058 2.412-.561 3.092-1.593.795-1.207.751-2.817-.107-3.932-.473-.615-1.252-1.108-2.036-1.29-.39-.09-1.122-.095-1.517-.012a3.43 3.43 0 0 0-1.78.959l-.292.287-.148-.168c-.44-.499-1.236-.944-1.922-1.076-.722-.137-1.547-.064-2.123.19l-.173.077-.01-1.104c-.01-1.256-.013-1.27-.286-1.543a.999.999 0 0 0-.907-.279Zm11.95 2.607c-.29.139-.451.362-.523.726-.041.207-.01.454.076.622.025.046.383.523.8 1.06l.754.977-.088.118-.74.957c-.356.461-.685.907-.729.992a1 1 0 0 0-.059.717c.073.25.332.516.605.618.252.095.56.096.774.004.208-.088.317-.208.931-1.003.284-.369.527-.674.54-.678.014-.006.294.336.625.759.332.427.65.803.713.844.376.248.916.227 1.251-.05.065-.052.161-.184.216-.292a.989.989 0 0 0 .022-.83c-.041-.092-.405-.605-.81-1.139l-.733-.971.087-.112c.878-1.131 1.395-1.827 1.461-1.972a.85.85 0 0 0 .085-.418c.002-.402-.149-.658-.486-.831-.197-.1-.237-.109-.5-.109-.455 0-.509.04-1.236.927-.33.401-.618.75-.642.773-.036.035-.14-.086-.632-.735-.381-.501-.633-.805-.715-.86a1.087 1.087 0 0 0-1.046-.094ZM6.844 11.59c.116.024.288.084.382.132.25.126.58.47.705.735.098.209.104.235.104.601 0 .376-.003.386-.12.633-.49 1.026-1.921 1.183-2.645.29-.237-.295-.293-.468-.294-.923 0-.366.004-.392.102-.6.2-.422.63-.77 1.069-.866a1.48 1.48 0 0 1 .697-.002Zm5.643 0c.456.097.856.413 1.069.845.115.233.118.245.118.607 0 .363-.003.374-.121.613-.449.909-1.526 1.19-2.338.611a1.416 1.416 0 0 1-.609-1.102 1.42 1.42 0 0 1 .492-1.206 1.52 1.52 0 0 1 1.389-.367Z"/>
</svg>
