<svg xmlns="http://www.w3.org/2000/svg" width="24" height="24" fill="none" viewBox="0 0 24 24">
  <path fill="#222F3E" d="M12.71 18.29A.966.966 0 0 0 12 18a.966.966 0 0 0-.71.29.966.966 0 0 0-.29.71v1a.96.96 0 0 0 .29.71.96.96 0 0 0 .71.29.966.966 0 0 0 .71-.29A.966.966 0 0 0 13 20v-1a.966.966 0 0 0-.29-.71ZM11.29 5.71A.96.96 0 0 0 12 6a.966.966 0 0 0 .71-.29A.966.966 0 0 0 13 5V4a.966.966 0 0 0-.29-.71A.966.966 0 0 0 12 3a.966.966 0 0 0-.71.29A.966.966 0 0 0 11 4v1a.96.96 0 0 0 .29.71Zm9.42 5.58A.966.966 0 0 0 20 11h-1a.966.966 0 0 0-.71.29.966.966 0 0 0-.29.71.96.96 0 0 0 .29.71.96.96 0 0 0 .71.29h1a.966.966 0 0 0 .71-.29A.966.966 0 0 0 21 12a.966.966 0 0 0-.29-.71Zm-15 1.42A.966.966 0 0 0 6 12a.966.966 0 0 0-.29-.71A.966.966 0 0 0 5 11H4a.966.966 0 0 0-.71.29A.966.966 0 0 0 3 12a.96.96 0 0 0 .29.71A.96.96 0 0 0 4 13h1a.966.966 0 0 0 .71-.29Zm12.946 4.54-.703-.719a.997.997 0 0 0-.71-.281.998.998 0 0 0-.712.281.998.998 0 0 0-.281.711 1 1 0 0 0 .281.711l.719.703a.92.92 0 0 0 .695.297.97.97 0 0 0 .711-.297.97.97 0 0 0 .297-.71.92.92 0 0 0-.297-.696ZM5.344 6.75l.703.719a.997.997 0 0 0 .71.281.997.997 0 0 0 .712-.281.997.997 0 0 0 .281-.711.997.997 0 0 0-.281-.711l-.719-.703a.92.92 0 0 0-.695-.297.97.97 0 0 0-.711.297.97.97 0 0 0-.297.71.92.92 0 0 0 .297.696Zm11.898 1a.997.997 0 0 0 .711-.281l.703-.719a.92.92 0 0 0 .297-.695.97.97 0 0 0-.297-.711.97.97 0 0 0-.71-.297.92.92 0 0 0-.696.297l-.719.703a.997.997 0 0 0-.281.71 1 1 0 0 0 .281.712.998.998 0 0 0 .711.281Zm-10.484 8.5a.997.997 0 0 0-.711.281l-.703.719a.92.92 0 0 0-.297.695.97.97 0 0 0 .297.711.97.97 0 0 0 .71.297.92.92 0 0 0 .696-.297l.719-.703a.997.997 0 0 0 .281-.71.998.998 0 0 0-.281-.712.997.997 0 0 0-.711-.281Z"/>
  <path fill="#222F3E" fill-rule="evenodd" d="M13.563 8.313A3.949 3.949 0 0 0 12 8c-.552 0-1.073.104-1.563.313a4.086 4.086 0 0 0-1.533 1.154c-.24.292-.437.616-.591.97A3.949 3.949 0 0 0 8 12c0 .552.104 1.073.313 1.563a4.085 4.085 0 0 0 2.124 2.124A3.95 3.95 0 0 0 12 16a3.95 3.95 0 0 0 1.563-.313 4.08 4.08 0 0 0 2.124-2.124A3.95 3.95 0 0 0 16 12a3.95 3.95 0 0 0-.313-1.563 4.082 4.082 0 0 0-2.124-2.124ZM14 12a2 2 0 1 1-4 0 2 2 0 0 1 4 0Z"/>
</svg>
