<?xml version="1.0" encoding="UTF-8"?>
<svg width="24px" height="24px" viewBox="0 0 24 24" version="1.1" xmlns="http://www.w3.org/2000/svg" xmlns:xlink="http://www.w3.org/1999/xlink">
    <!-- Generator: Sketch 51.2 (57519) - http://www.bohemiancoding.com/sketch -->
    <title>icon-brightness</title>
    <desc>Created with Sketch.</desc>
    <defs></defs>
    <g stroke="none" stroke-width="1" fill="none" fill-rule="evenodd">
        <path d="M12,17 C12.2812514,17 12.5182282,17.0963532 12.7109375,17.2890625 C12.9036468,17.4817718 13,17.7187486 13,18 L13,19 C13,19.2812514 12.9036468,19.5182282 12.7109375,19.7109375 C12.5182282,19.9036468 12.2812514,20 12,20 C11.7187486,20 11.4817718,19.9036468 11.2890625,19.7109375 C11.0963532,19.5182282 11,19.2812514 11,19 L11,18 C11,17.7187486 11.0963532,17.4817718 11.2890625,17.2890625 C11.4817718,17.0963532 11.7187486,17 12,17 Z M12,7 C11.7187486,7 11.4817718,6.9036468 11.2890625,6.7109375 C11.0963532,6.5182282 11,6.28125141 11,6 L11,5 C11,4.71874859 11.0963532,4.4817718 11.2890625,4.2890625 C11.4817718,4.0963532 11.7187486,4 12,4 C12.2812514,4 12.5182282,4.0963532 12.7109375,4.2890625 C12.9036468,4.4817718 13,4.71874859 13,5 L13,6 C13,6.28125141 12.9036468,6.5182282 12.7109375,6.7109375 C12.5182282,6.9036468 12.2812514,7 12,7 Z M19,11 C19.2812514,11 19.5182282,11.0963532 19.7109375,11.2890625 C19.9036468,11.4817718 20,11.7187486 20,12 C20,12.2812514 19.9036468,12.5182282 19.7109375,12.7109375 C19.5182282,12.9036468 19.2812514,13 19,13 L18,13 C17.7187486,13 17.4817718,12.9036468 17.2890625,12.7109375 C17.0963532,12.5182282 17,12.2812514 17,12 C17,11.7187486 17.0963532,11.4817718 17.2890625,11.2890625 C17.4817718,11.0963532 17.7187486,11 18,11 L19,11 Z M7,12 C7,12.2812514 6.9036468,12.5182282 6.7109375,12.7109375 C6.5182282,12.9036468 6.28125141,13 6,13 L5,13 C4.71874859,13 4.4817718,12.9036468 4.2890625,12.7109375 C4.0963532,12.5182282 4,12.2812514 4,12 C4,11.7187486 4.0963532,11.4817718 4.2890625,11.2890625 C4.4817718,11.0963532 4.71874859,11 5,11 L6,11 C6.28125141,11 6.5182282,11.0963532 6.7109375,11.2890625 C6.9036468,11.4817718 7,11.7187486 7,12 Z M16.953125,15.53125 L17.65625,16.25 C17.8541677,16.4375009 17.953125,16.6692695 17.953125,16.9453125 C17.953125,17.2213555 17.8541677,17.4583323 17.65625,17.65625 C17.4583323,17.8541677 17.2213555,17.953125 16.9453125,17.953125 C16.6692695,17.953125 16.4375009,17.8541677 16.25,17.65625 L15.53125,16.953125 C15.3437491,16.7552073 15.25,16.5182305 15.25,16.2421875 C15.25,15.9661445 15.3437491,15.7291677 15.53125,15.53125 C15.7291677,15.3437491 15.9661445,15.25 16.2421875,15.25 C16.5182305,15.25 16.7552073,15.3437491 16.953125,15.53125 Z M7.046875,8.46875 L6.34375,7.75 C6.14583234,7.56249906 6.046875,7.33073055 6.046875,7.0546875 C6.046875,6.77864445 6.14583234,6.54166766 6.34375,6.34375 C6.54166766,6.14583234 6.77864445,6.046875 7.0546875,6.046875 C7.33073055,6.046875 7.56249906,6.14583234 7.75,6.34375 L8.46875,7.046875 C8.65625094,7.24479266 8.75,7.48176945 8.75,7.7578125 C8.75,8.03385555 8.65625094,8.27083234 8.46875,8.46875 C8.27083234,8.65625094 8.03385555,8.75 7.7578125,8.75 C7.48176945,8.75 7.24479266,8.65625094 7.046875,8.46875 Z M16.953125,8.46875 C16.7552073,8.65625094 16.5182305,8.75 16.2421875,8.75 C15.9661445,8.75 15.7291677,8.65625094 15.53125,8.46875 C15.3437491,8.27083234 15.25,8.03385555 15.25,7.7578125 C15.25,7.48176945 15.3437491,7.24479266 15.53125,7.046875 L16.25,6.34375 C16.4375009,6.14583234 16.6692695,6.046875 16.9453125,6.046875 C17.2213555,6.046875 17.4583323,6.14583234 17.65625,6.34375 C17.8541677,6.54166766 17.953125,6.77864445 17.953125,7.0546875 C17.953125,7.33073055 17.8541677,7.56249906 17.65625,7.75 L16.953125,8.46875 Z M7.046875,15.53125 C7.24479266,15.3437491 7.48176945,15.25 7.7578125,15.25 C8.03385555,15.25 8.27083234,15.3437491 8.46875,15.53125 C8.65625094,15.7291677 8.75,15.9661445 8.75,16.2421875 C8.75,16.5182305 8.65625094,16.7552073 8.46875,16.953125 L7.75,17.65625 C7.56249906,17.8541677 7.33073055,17.953125 7.0546875,17.953125 C6.77864445,17.953125 6.54166766,17.8541677 6.34375,17.65625 C6.14583234,17.4583323 6.046875,17.2213555 6.046875,16.9453125 C6.046875,16.6692695 6.14583234,16.4375009 6.34375,16.25 L7.046875,15.53125 Z M12,8 C12.5520861,8 13.0729142,8.10416563 13.5625,8.3125 C14.0416691,8.52083437 14.4635398,8.80728984 14.828125,9.171875 C15.1927102,9.53646016 15.4791656,9.95833094 15.6875,10.4375 C15.8958344,10.9270858 16,11.4479139 16,12 C16,12.5520861 15.8958344,13.0729142 15.6875,13.5625 C15.4791656,14.0416691 15.1927102,14.4635398 14.828125,14.828125 C14.4635398,15.1927102 14.0416691,15.4791656 13.5625,15.6875 C13.0729142,15.8958344 12.5520861,16 12,16 C11.4479139,16 10.9270858,15.8958344 10.4375,15.6875 C9.95833094,15.4791656 9.53646016,15.1927102 9.171875,14.828125 C8.80728984,14.4635398 8.52083437,14.0416691 8.3125,13.5625 C8.10416563,13.0729142 8,12.5520861 8,12 C8,11.4479139 8.10416563,10.9270858 8.3125,10.4375 C8.52083437,9.95833094 8.80728984,9.53646016 9.171875,9.171875 C9.53646016,8.80728984 9.95833094,8.52083437 10.4375,8.3125 C10.9270858,8.10416563 11.4479139,8 12,8 Z M12,14.5 C12.6875034,14.5 13.2760392,14.2552108 13.765625,13.765625 C14.2552108,13.2760392 14.5,12.6875034 14.5,12 C14.5,11.3124966 14.2552108,10.7239608 13.765625,10.234375 C13.2760392,9.74478922 12.6875034,9.5 12,9.5 C11.3124966,9.5 10.7239608,9.74478922 10.234375,10.234375 C9.74478922,10.7239608 9.5,11.3124966 9.5,12 C9.5,12.6875034 9.74478922,13.2760392 10.234375,13.765625 C10.7239608,14.2552108 11.3124966,14.5 12,14.5 Z" fill="#000000"></path>
    </g>
</svg>