<svg xmlns="http://www.w3.org/2000/svg" width="24" height="24" viewBox="0 0 24 24">
  <g fill="none" fill-rule="evenodd">
    <polygon fill="#000" fill-rule="nonzero" points="5 6 5 18 6.999 18 6.999 20 3 20 3 4 21 4 21 6"/>
    <polygon fill="#000" points="13 11 11 13 5 13 5 11 11 11 11 6 13 6"/>
    <path fill="#000" fill-rule="nonzero" d="M18.3693324 8L19.476794 9.07823529 17.6074616 10.8982353 21.6524456 14.8364706C22.1158515 15.2876471 22.1158515 16.0141176 21.6524456 16.4576471L17.3325598 20.6635294C17.104784 20.8852941 16.7984648 21 16.5 21 16.2015352 21 15.895216 20.8852941 15.6674402 20.6635294L11.3475544 16.4576471C10.8841485 16.0141176 10.8841485 15.2876471 11.3475544 14.8364706L18.3693324 8zM17 12L14 15 20 15 17 12zM10.3796745 18.131685L10.5 18 10.5 18 10.6203255 18.131685 10.6203255 18.131685 10.8322512 18.3768369 10.8322512 18.3768369 11.0092874 18.5937874 11.0092874 18.5937874 11.2011178 18.843475C11.5916824 19.3698299 12 20.0407905 12 20.5454545 12 21.3454545 11.325 22 10.5 22 9.675 22 9 21.3454545 9 20.5454545 9 20.0407905 9.40831758 19.3698299 9.79888222 18.843475L9.99071258 18.5937874 9.99071258 18.5937874 10.1677488 18.3768369 10.1677488 18.3768369 10.3796745 18.131685 10.3796745 18.131685z"/>
  </g>
</svg>
