<svg xmlns="http://www.w3.org/2000/svg" width="24" height="24" viewBox="0 0 24 24">
  <path d="M7.28097108,2 L5.67011782,3.57588235 L8.38914673,6.23588235 L2.50553374,11.9917647 C1.83148875,12.6511765 1.83148875,13.7129412 2.50553374,14.3611765 L8.78900393,20.5082353 C9.12031417,20.8323529 9.56586933,21 10,21 C10.4341307,21 10.8796858,20.8323529 11.2109961,20.5082353 L17.4944663,14.3611765 C18.1685112,13.7129412 18.1685112,12.6511765 17.4944663,11.9917647 L7.28097108,2 Z M5,12 L9.5,8 L14,12 L5,12 Z M19,16 C19,16 17,18.3672727 17,19.8181818 C17,21.0181818 17.9,22 19,22 C20.1,22 21,21.0181818 21,19.8181818 C21,18.3672727 19,16 19,16 Z" transform="matrix(-1 0 0 1 23 0)"/>
</svg>
