<svg xmlns="http://www.w3.org/2000/svg" width="24" height="24" viewBox="0 0 24 24">
  <g fill="none" fill-rule="evenodd">
    <path fill="#000" fill-rule="nonzero" d="M5,6 L5,18 L7,18 L7,20 L5,20 C3.8954305,20 3,19.1045695 3,18 L3,6 C3,4.8954305 3.8954305,4 5,4 L19,4 C20.1045695,4 21,4.8954305 21,6 L5,6 Z"/>
    <path fill="#000" d="M13,11 L11,13 L5,13 L5,11 L11,11 L11,6 L13,6 L13,11 Z" opacity=".203"/>
    <path fill="#000" fill-rule="nonzero" d="M12.6306676,8 L11.523206,9.07823529 L13.3925384,10.8982353 L9.34755444,14.8364706 C8.88414852,15.2876471 8.88414852,16.0141176 9.34755444,16.4576471 L13.6674402,20.6635294 C13.895216,20.8852941 14.2015352,21 14.5,21 C14.7984648,21 15.104784,20.8852941 15.3325598,20.6635294 L19.6524456,16.4576471 C20.1158515,16.0141176 20.1158515,15.2876471 19.6524456,14.8364706 L12.6306676,8 Z M11,15 L14,12 L17,15 L11,15 Z M20.5,18 C20.5,18 19,19.5781818 19,20.5454545 C19,21.3454545 19.675,22 20.5,22 C21.325,22 22,21.3454545 22,20.5454545 C22,19.5781818 20.5,18 20.5,18 Z" transform="matrix(-1 0 0 1 31 0)"/>
  </g>
</svg>
