<svg xmlns="http://www.w3.org/2000/svg" width="24" height="24" viewBox="0 0 24 24">
  <g fill="none" fill-rule="evenodd">
    <path fill="#000" fill-rule="nonzero" d="M5 14L5 19 7 19 7 21 5 21C3.8954305 21 3 20.1045695 3 19L3 14C3.98631287 14 4.65297953 14 5 14zM13 7C13 5.66666667 13 5 13 5L19 5C20.1045695 5 21 5.8954305 21 7L13 7z" opacity=".2"/>
    <path fill="#000" fill-rule="nonzero" d="M13 5L13 7 5 7 5 14 3 14 3 7C3 5.8954305 3.8954305 5 5 5L13 5zM10.3796745 19.131685L10.5 19 10.5 19 10.6203255 19.131685 10.6203255 19.131685 10.8322512 19.3768369 10.8322512 19.3768369 11.0092874 19.5937874 11.0092874 19.5937874 11.2011178 19.843475C11.5916824 20.3698299 12 21.0407905 12 21.5454545 12 22.3454545 11.325 23 10.5 23 9.675 23 9 22.3454545 9 21.5454545 9 21.0407905 9.40831758 20.3698299 9.79888222 19.843475L9.99071258 19.5937874 9.99071258 19.5937874 10.1677488 19.3768369 10.1677488 19.3768369 10.3796745 19.131685 10.3796745 19.131685z"/>
    <polygon fill="#000" points="13 12 11 14 5 14 5 12 11 12 11 7 13 7"/>
    <path fill="#000" fill-rule="nonzero" d="M18.3693324,9 L19.476794,10.0782353 L17.6074616,11.8982353 L21.6524456,15.8364706 C22.1158515,16.2876471 22.1158515,17.0141176 21.6524456,17.4576471 L17.3325598,21.6635294 C17.104784,21.8852941 16.7984648,22 16.5,22 C16.2015352,22 15.895216,21.8852941 15.6674402,21.6635294 L11.3475544,17.4576471 C10.8841485,17.0141176 10.8841485,16.2876471 11.3475544,15.8364706 L18.3693324,9 Z M20,16 L17,13 L14,16 L20,16 Z"/>
  </g>
</svg>
