<svg xmlns="http://www.w3.org/2000/svg" width="24" height="24" viewBox="0 0 24 24"><g id="change-case" fill="none" fill-rule="evenodd"><path id="Path" fill="#000" d="M18.395624 18.2220996L18.361 17.5711423C17.905 18.3897796 17.107 18.8086172 16.005 18.8086172 13.782 18.8086172 12.68 17.2284569 12.68 14.0490982 12.68 10.8697395 13.782 9.28957916 15.967 9.28957916 17.107 9.28957916 17.829 9.63226453 18.361 10.4318637L18.3957106 9.777905C18.4188598 9.34176701 18.7792481 9 19.216 9 19.6462298 9 19.995 9.34877018 19.995 9.779L19.995 18.221C19.995 18.6512298 19.6462298 19 19.216 19 18.7792347 19 18.4188225 18.6582484 18.395624 18.2220996zM16.385 10.755511C15.112 10.755511 14.618 11.6693387 14.618 14.0490982 14.618 16.3907816 15.112 17.3426854 16.347 17.3426854 17.601 17.3426854 18.114 16.4098196 18.114 14.0871743 18.114 11.7264529 17.62 10.755511 16.385 10.755511zM10.005 15.656L5.521 15.656 4.7283049 18.288346C4.6010801 18.7108284 4.21200136 19 3.77077861 19L3.507 19C3.10491605 19 2.77896261 18.6740466 2.77896261 18.2719626 2.77896261 18.1944237 2.79134942 18.1173826 2.81565482 18.0437516L6.79537534 5.98753941C6.93063476 5.57778292 7.3134728 5.301 7.74497655 5.301L7.78102345 5.301C8.2125272 5.301 8.59536524 5.57778292 8.73062466 5.98753941L12.7103452 18.0437516C12.8363827 18.425571 12.6290304 18.8372703 12.247211 18.9633078 12.17358 18.9876132 12.0965389 19 12.019 19L11.7552214 19C11.3139986 19 10.9249199 18.7108284 10.7976951 18.288346L10.005 15.656zM9.682 14.155L7.763 7.676 5.844 14.155 9.682 14.155z"/></g></svg>