<?xml version="1.0" encoding="UTF-8"?>
<svg width="24px" height="24px" viewBox="0 0 24 24" version="1.1" xmlns="http://www.w3.org/2000/svg" xmlns:xlink="http://www.w3.org/1999/xlink">
    <!-- Generator: Sketch 51.2 (57519) - http://www.bohemiancoding.com/sketch -->
    <title>icon-character-count</title>
    <desc>Created with Sketch.</desc>
    <defs></defs>
    <g stroke="none" stroke-width="1" fill="none" fill-rule="evenodd">
        <path d="M4,11.5 L20,11.5 L20,12.5 L4,12.5 L4,11.5 Z M8.75,4.75 L8.75,10.046875 L7.703125,10.046875 L7.703125,5.796875 L6.65625,5.796875 L6.65625,4.75 L8.75,4.75 Z M10.953125,8.15625 L10.953125,9 L13.046875,9 L13.046875,10.046875 L9.90625,10.046875 L9.90625,7.65625 L12,6.65625 L12,5.796875 L9.90625,5.796875 L9.90625,4.75 L13.046875,4.75 L13.046875,7.15625 L10.953125,8.15625 Z M17.34375,4.75 L17.34375,10.046875 L14.15625,10.046875 L14.15625,9 L16.296875,9 L16.296875,7.953125 L14.15625,7.953125 L14.15625,6.84375 L16.296875,6.84375 L16.296875,5.796875 L14.15625,5.796875 L14.15625,4.75 L17.34375,4.75 Z M5.796875,16.40625 C5.82812516,15.9479144 5.98176945,15.6145844 6.2578125,15.40625 C6.53385555,15.1979156 6.94791391,15.09375 7.5,15.09375 C7.80208484,15.09375 8.06510305,15.130208 8.2890625,15.203125 C8.51302195,15.276042 8.69791594,15.3749994 8.84375,15.5 C9.00000078,15.6250006 9.10677055,15.7708325 9.1640625,15.9375 C9.22135445,16.1041675 9.25,16.3229153 9.25,16.59375 L9.25,18.34375 C9.25,18.5520844 9.25520828,18.6874997 9.265625,18.75 C9.27604172,18.8125003 9.32291625,18.8958328 9.40625,19 L8.25,19 C8.22916656,18.927083 8.21354172,18.8776043 8.203125,18.8515625 C8.19270828,18.8255207 8.17708344,18.776042 8.15625,18.703125 C7.97916578,18.8489591 7.8072925,18.9505205 7.640625,19.0078125 C7.4739575,19.0651045 7.27604281,19.09375 7.046875,19.09375 C6.61978953,19.09375 6.28125125,18.981772 6.03125,18.7578125 C5.78124875,18.533853 5.65625,18.2500017 5.65625,17.90625 C5.65625,17.5520816 5.77604047,17.2734385 6.015625,17.0703125 C6.25520953,16.8671865 6.65103891,16.729167 7.203125,16.65625 L7.796875,16.546875 C7.92187563,16.5260416 8.01302055,16.497396 8.0703125,16.4609375 C8.12760445,16.424479 8.15625,16.369792 8.15625,16.296875 C8.15625,16.2031245 8.10416719,16.1223962 8,16.0546875 C7.89583281,15.9869788 7.74479266,15.953125 7.546875,15.953125 C7.34895734,15.953125 7.19010477,15.989583 7.0703125,16.0625 C6.95052023,16.135417 6.87500016,16.2499992 6.84375,16.40625 L5.796875,16.40625 Z M8.09375,17.203125 C8.05208312,17.2239584 8.00000031,17.2447916 7.9375,17.265625 C7.87499969,17.2864584 7.79687547,17.296875 7.703125,17.296875 L7.296875,17.40625 C7.09895734,17.4479169 6.95052133,17.5078121 6.8515625,17.5859375 C6.75260367,17.6640629 6.703125,17.7499995 6.703125,17.84375 C6.703125,17.9687506 6.74999953,18.067708 6.84375,18.140625 C6.93750047,18.213542 7.07291578,18.25 7.25,18.25 C7.42708422,18.25 7.58854094,18.2109379 7.734375,18.1328125 C7.88020906,18.0546871 7.99999953,17.9270842 8.09375,17.75 L8.09375,17.203125 Z M10.09375,13.75 L11.25,13.75 L11.25,15.5 C11.4270842,15.3749994 11.5963534,15.2864586 11.7578125,15.234375 C11.9192716,15.1822914 12.0989573,15.15625 12.296875,15.15625 C12.7968775,15.15625 13.1979152,15.3359357 13.5,15.6953125 C13.8020848,16.0546893 13.953125,16.5208305 13.953125,17.09375 C13.953125,17.6979197 13.7942724,18.2005188 13.4765625,18.6015625 C13.1588526,19.0026062 12.7500025,19.203125 12.25,19.203125 C11.9999987,19.203125 11.7994799,19.1614588 11.6484375,19.078125 C11.4973951,18.9947912 11.3489591,18.8541677 11.203125,18.65625 L11.203125,19.09375 L10.09375,19.09375 L10.09375,13.75 Z M11.203125,17.09375 C11.203125,17.427085 11.2786451,17.6953115 11.4296875,17.8984375 C11.5807299,18.1015635 11.7708322,18.203125 12,18.203125 C12.2291678,18.203125 12.4192701,18.1015635 12.5703125,17.8984375 C12.7213549,17.6953115 12.796875,17.427085 12.796875,17.09375 C12.796875,16.7499983 12.7265632,16.4817718 12.5859375,16.2890625 C12.4453118,16.0963532 12.2500013,16 12,16 C11.7708322,16 11.5807299,16.1015615 11.4296875,16.3046875 C11.2786451,16.5078135 11.203125,16.7708317 11.203125,17.09375 Z M17.296875,16.59375 C17.2760416,16.4270825 17.2057298,16.2942713 17.0859375,16.1953125 C16.9661452,16.0963537 16.8020844,16.046875 16.59375,16.046875 C16.3437487,16.046875 16.1484382,16.1432282 16.0078125,16.3359375 C15.8671868,16.5286468 15.796875,16.8020816 15.796875,17.15625 C15.796875,17.5312519 15.8671868,17.8151032 16.0078125,18.0078125 C16.1484382,18.2005218 16.3437487,18.296875 16.59375,18.296875 C16.8020844,18.296875 16.9661452,18.2447922 17.0859375,18.140625 C17.2057298,18.0364578 17.2760416,17.8750011 17.296875,17.65625 L18.40625,17.703125 C18.3229162,18.1718773 18.1171891,18.5390612 17.7890625,18.8046875 C17.4609359,19.0703138 17.0468775,19.203125 16.546875,19.203125 C15.9739555,19.203125 15.5156267,19.018231 15.171875,18.6484375 C14.8281233,18.278644 14.65625,17.796878 14.65625,17.203125 C14.65625,16.5781219 14.8307274,16.080731 15.1796875,15.7109375 C15.5286476,15.341144 15.999997,15.15625 16.59375,15.15625 C17.0937525,15.15625 17.5052067,15.286457 17.828125,15.546875 C18.1510433,15.807293 18.3229166,16.1770809 18.34375,16.65625 L17.296875,16.65625 L17.296875,16.59375 Z" fill="#000000"></path>
    </g>
</svg>