<svg xmlns="http://www.w3.org/2000/svg" width="16" height="16" fill="none" viewBox="0 0 16 16">
  <path fill="#222F3E" d="M9.111 12.667V14H6.89v-1.333h2.22Zm.556-2.134v1.334H6.333v-1.334h3.334Zm1-4.666a2.47 2.47 0 0 0-.772-1.782A2.739 2.739 0 0 0 8 3.333c-.716 0-1.397.273-1.895.752a2.47 2.47 0 0 0-.772 1.782c0 .395.066.845.629 1.386.425.408.872.95 1.024 1.678a.666.666 0 1 1-1.305.271c-.07-.338-.29-.65-.643-.988C4.157 7.368 4 6.538 4 5.867c0-1.035.428-2.021 1.181-2.744A4.072 4.072 0 0 1 8 2c1.052 0 2.067.401 2.819 1.123A3.803 3.803 0 0 1 12 5.867a3.12 3.12 0 0 1-1.04 2.347h.002c-.401.385-.571.644-.643.988a.667.667 0 1 1-1.305-.271c.15-.722.537-1.21 1.024-1.678l.027-.024a1.79 1.79 0 0 0 .602-1.362Z"/>
</svg>
