<svg fill="none" height="16" viewBox="0 0 16 16" width="16" xmlns="http://www.w3.org/2000/svg"><path d="m8 2.5a6 6 0 1 1 0 12 6 6 0 0 1 0-12zm-4.618 6.667a4.67 4.67 0 0 0 3.144 3.76c-.036-.062-.075-.126-.111-.193a8.836 8.836 0 0 1 -1.057-3.567zm7.26 0a8.836 8.836 0 0 1 -1.057 3.567c-.036.067-.075.13-.112.194a4.67 4.67 0 0 0 3.145-3.761zm-3.945 0a7.506 7.506 0 0 0 1.303 3.599 7.506 7.506 0 0 0 1.303-3.599zm-.169-5.097a4.67 4.67 0 0 0 -3.146 3.762h1.977a8.838 8.838 0 0 1 1.056-3.564c.037-.069.076-.134.113-.198zm1.472.164a7.52 7.52 0 0 0 -1.302 3.599h2.604a7.52 7.52 0 0 0 -1.302-3.599zm1.585.035a8.85 8.85 0 0 1 1.056 3.564h1.977a4.67 4.67 0 0 0 -3.147-3.762c.038.064.077.13.114.198z" fill="#222f3e" fill-rule="evenodd"/></svg>