<svg xmlns="http://www.w3.org/2000/svg" width="16" height="16" fill="none" viewBox="0 0 16 16">
  <path fill="#222F3E" d="M9.582 12v2H6.637v-2h2.945ZM8.5 10V9c0-.066.007-.132.02-.196.155-.775.557-1.295 1.023-1.761l.038-.036C9.845 6.769 10 6.403 10 6a2 2 0 0 0-4 0l.004.13c.007.125.027.237.067.349.053.144.156.334.386.564.406.406.867.977 1.023 1.76.005.02.008.042.011.062l.136 1a1 1 0 1 1-1.981.27l-.132-.96c-.048-.21-.187-.434-.471-.718-.771-.771-.991-1.541-1.034-2.187L4 6a4 4 0 0 1 8 0c0 .881-.334 1.796-1.044 2.456l.001.001c-.3.3-.405.476-.457.67V10a1 1 0 1 1-2 0Z"/>
</svg>
