<svg xmlns="http://www.w3.org/2000/svg" width="16" height="16" fill="none" viewBox="0 0 16 16">
  <path fill="#222F3E" fill-rule="evenodd" d="M8 2a6 6 0 1 1 0 12A6 6 0 0 1 8 2Zm-4.041 8.333a4.678 4.678 0 0 0 2.567 2.095c-.036-.063-.075-.127-.111-.194a8.918 8.918 0 0 1-.767-1.9H3.96Zm6.393 0a8.919 8.919 0 0 1-.767 1.9c-.036.068-.075.132-.112.195a4.678 4.678 0 0 0 2.568-2.095h-1.69Zm-3.312 0A7.28 7.28 0 0 0 8 12.266a7.28 7.28 0 0 0 .96-1.933H7.04ZM3.442 7a4.681 4.681 0 0 0 0 2H5.39a8.843 8.843 0 0 1 0-2H3.443Zm3.292 0a7.494 7.494 0 0 0 0 2h2.532a7.488 7.488 0 0 0 0-2H6.734Zm3.875 0a8.84 8.84 0 0 1 .001 2h1.948a4.68 4.68 0 0 0 0-2h-1.949ZM6.528 3.571a4.679 4.679 0 0 0-2.569 2.096h1.69a8.937 8.937 0 0 1 .766-1.898c.037-.069.076-.134.113-.198ZM8 3.734c-.128.185-.272.41-.415.672a7.611 7.611 0 0 0-.544 1.26h1.918A7.611 7.611 0 0 0 8 3.735Zm1.585.035c.28.515.56 1.152.766 1.898h1.69a4.678 4.678 0 0 0-2.57-2.096c.038.064.077.13.114.198Z"/>
</svg>
