<svg fill="none" height="24" viewBox="0 0 24 24" width="24" xmlns="http://www.w3.org/2000/svg"><g fill="#222f3e"><path d="m14.25 3.25c.162 0 .322.007.481.017l-1.981 1.983h-3.5a5.5 5.5 0 0 0 0 11h3.5v2.197l4.39-3.017.028-.02.03-.018a5.495 5.495 0 0 0 2.54-4.28l.012-.362c0-.16-.009-.32-.023-.477l1.7-1.7a7.497 7.497 0 0 1 -3.154 8.505l-7.523 5.172v-4h-1.5a7.5 7.5 0 0 1 0-15z"/><path d="m12.382 7.331a1 1 0 0 1 1.486 1.338l-.748.831h.005a1 1 0 0 1 .743 1.669l-2.25 2.5a1 1 0 0 1 -1.486-1.338l.748-.831h-.005a1 1 0 0 1 -.743-1.669zm6.294-5.105a.345.345 0 0 1 .648 0 4.147 4.147 0 0 0 2.45 2.45.345.345 0 0 1 0 .648l-.21.084a4.147 4.147 0 0 0 -2.24 2.366l-.024.053c-.13.23-.47.23-.6 0l-.024-.053a4.147 4.147 0 0 0 -2.24-2.366l-.21-.084a.346.346 0 0 1 0-.648 4.147 4.147 0 0 0 2.45-2.45z"/></g></svg>