<svg xmlns="http://www.w3.org/2000/svg" width="16" height="16" fill="none" viewBox="0 0 16 16">
  <path fill="#222F3E" fill-rule="evenodd" d="M8 2a6 6 0 1 1 0 12A6 6 0 0 1 8 2Zm-.918 7A6.364 6.364 0 0 0 8 11.388 6.364 6.364 0 0 0 8.918 9H7.082ZM4.126 9a4.004 4.004 0 0 0 1.547 2.252A8.238 8.238 0 0 1 5.062 9h-.936Zm6.812 0a8.237 8.237 0 0 1-.612 2.252A4.003 4.003 0 0 0 11.874 9h-.936ZM5.675 4.746A4.004 4.004 0 0 0 4.126 7h.936c.106-.86.338-1.615.613-2.254Zm2.19.088A6.375 6.375 0 0 0 7.081 7h1.836A6.375 6.375 0 0 0 8 4.612a6.79 6.79 0 0 0-.136.222Zm2.46-.088A8.29 8.29 0 0 1 10.938 7h.936a4.003 4.003 0 0 0-1.55-2.254Z"/>
</svg>
