<svg xmlns="http://www.w3.org/2000/svg" width="16" height="16" fill="none" viewBox="0 0 16 16">
  <path fill="#222F3E" d="M10.43 2.264a3.57 3.57 0 0 1 1.791.48.597.597 0 0 1 .123.938l-1.42 1.412a6.626 6.626 0 0 0-.18.186c.038.042.093.098.18.186l.13.127c.087.087.144.142.186.18a6.48 6.48 0 0 0 .187-.18l1.327-1.321a.603.603 0 0 1 .98.195 3.557 3.557 0 0 1-2.276 4.754l1.556 1.55a1.732 1.732 0 0 1 0 2.457 1.751 1.751 0 0 1-2.468 0L8 10.693l-2.546 2.535a1.751 1.751 0 0 1-2.469 0 1.732 1.732 0 0 1 0-2.458l3.356-3.34-1.83-1.822H3.14a.6.6 0 0 1-.57-.408l-.54-1.613a.595.595 0 0 1 .146-.61l.54-.538.063-.055a.602.602 0 0 1 .55-.09l1.62.538c.245.081.41.31.41.567v1.364L6.893 6.29a3.562 3.562 0 0 1 3.538-4.025ZM9.319 9.38l-.47.467 2.545 2.534a.547.547 0 0 0 .772 0 .541.541 0 0 0 0-.767l-2.3-2.29c-.004 0-.009 0-.013-.002a3.585 3.585 0 0 1-.095-.016l-.022-.003a8.841 8.841 0 0 0-.283-.054h-.001c-.03.027-.069.067-.133.13ZM3.286 3.56l.286.854h.588v-.585l-.858-.285-.016.016ZM8.06 5.817c0 .158.015.312.045.46.025.126.047.237.06.326a1.109 1.109 0 0 1-.025.538c-.024.083-.057.15-.086.205-.09.169-.247.314-.355.422l-.08.079-.005.005-.006.005-3.774 3.758a.542.542 0 0 0 0 .768.548.548 0 0 0 .771 0l4.018-4 .064-.058a1.132 1.132 0 0 1 .207-.142 1.045 1.045 0 0 1 .425-.129l.02-.001c.158-.015.316 0 .461.04a2.398 2.398 0 0 0 .63.084 2.365 2.365 0 0 0 2.367-2.26l-.522.521c-.1.1-.2.2-.292.277a1.154 1.154 0 0 1-.39.228 1.146 1.146 0 0 1-.706 0 1.153 1.153 0 0 1-.39-.228c-.092-.078-.192-.178-.292-.277l-.129-.128c-.1-.1-.2-.199-.278-.29a1.147 1.147 0 0 1-.228-.39 1.13 1.13 0 0 1 0-.7l.046-.118c.053-.11.12-.2.182-.272.078-.091.179-.191.278-.29l.76-.757A2.365 2.365 0 0 0 8.06 5.817Z"/>
</svg>
