<svg xmlns="http://www.w3.org/2000/svg" width="24" height="24" viewBox="0 0 24 24"><g id="checklist" fill="none" fill-rule="evenodd"><path id="shape" fill="#000" d="M11,17 L19,17 C19.5522847,17 20,17.4477153 20,18 L20,18 C20,18.5522847 19.5522847,19 19,19 L11,19 C10.4477153,19 10,18.5522847 10,18 L10,18 C10,17.4477153 10.4477153,17 11,17 Z M11,11 L19,11 C19.5522847,11 20,11.4477153 20,12 L20,12 C20,12.5522847 19.5522847,13 19,13 L11,13 C10.4477153,13 10,12.5522847 10,12 L10,12 C10,11.4477153 10.4477153,11 11,11 Z M11,5 L19,5 C19.5522847,5 20,5.44771525 20,6 C20,6.55228475 19.5522847,7 19,7 L11,7 C10.4477153,7 10,6.55228475 10,6 C10,5.44771525 10.4477153,5 11,5 Z M7.19052007,15.9292136 C7.38526922,15.6160719 7.79592019,15.5280325 8.09661032,15.7429155 C8.38169986,15.9466497 8.45597492,16.3447451 8.27093858,16.6422693 L6.13866461,20.0708024 C5.91654204,20.4279585 5.42699571,20.4812261 5.13797064,20.174443 L3.80604956,18.760687 C3.56631772,18.5062257 3.56445967,18.1018394 3.80167932,17.8450348 C4.05269007,17.5733004 4.47333508,17.5710795 4.72701898,17.8403501 L5.49498615,18.6555021 L7.19052007,15.9292136 Z M7.19052007,9.92921359 C7.38526922,9.61607187 7.79592019,9.5280325 8.09661032,9.74291547 C8.38169986,9.94664975 8.45597492,10.3447451 8.27093858,10.6422693 L6.13866461,14.0708024 C5.91654204,14.4279585 5.42699571,14.4812261 5.13797064,14.174443 L3.80604956,12.760687 C3.56631772,12.5062257 3.56445967,12.1018394 3.80167932,11.8450348 C4.05269007,11.5733004 4.47333508,11.5710795 4.72701898,11.8403501 L5.49498615,12.6555021 L7.19052007,9.92921359 Z M7.19052007,3.92921359 C7.38526922,3.61607187 7.79592019,3.5280325 8.09661032,3.74291547 C8.38169986,3.94664975 8.45597492,4.34474508 8.27093858,4.64226932 L6.13866461,8.0708024 C5.91654204,8.42795846 5.42699571,8.48122611 5.13797064,8.17444298 L3.80604956,6.760687 C3.56631772,6.50622573 3.56445967,6.1018394 3.80167932,5.84503476 C4.05269007,5.57330042 4.47333508,5.57107954 4.72701898,5.8403501 L5.49498615,6.65550214 L7.19052007,3.92921359 Z"/></g></svg>
