<svg xmlns="http://www.w3.org/2000/svg" width="24" height="24" viewBox="0 0 24 24"><g id="checklist-rtl" fill="none" fill-rule="evenodd" stroke="none" stroke-width="1"><path id="Path" fill="#000" d="M5 17L13 17C13.5522847 17 14 17.4477153 14 18L14 18C14 18.5522847 13.5522847 19 13 19L5 19C4.44771525 19 4 18.5522847 4 18L4 18C4 17.4477153 4.44771525 17 5 17zM5 11L13 11C13.5522847 11 14 11.4477153 14 12L14 12C14 12.5522847 13.5522847 13 13 13L5 13C4.44771525 13 4 12.5522847 4 12L4 12C4 11.4477153 4.44771525 11 5 11zM5 5L13 5C13.5522847 5 14 5.44771525 14 6L14 6C14 6.55228475 13.5522847 7 13 7L5 7C4.44771525 7 4 6.55228475 4 6L4 6C4 5.44771525 4.44771525 5 5 5zM19.1905201 15.9292136C19.3852692 15.6160719 19.7959202 15.5280325 20.0966103 15.7429155 20.3816999 15.9466497 20.4559749 16.3447451 20.2709386 16.6422693L18.1386646 20.0708024C17.916542 20.4279585 17.4269957 20.4812261 17.1379706 20.174443L15.8060496 18.760687C15.5663177 18.5062257 15.5644597 18.1018394 15.8016793 17.8450348 16.0526901 17.5733004 16.4733351 17.5710795 16.727019 17.8403501L17.4949861 18.6555021 19.1905201 15.9292136zM19.1905201 9.92921359C19.3852692 9.61607187 19.7959202 9.5280325 20.0966103 9.74291547 20.3816999 9.94664975 20.4559749 10.3447451 20.2709386 10.6422693L18.1386646 14.0708024C17.916542 14.4279585 17.4269957 14.4812261 17.1379706 14.174443L15.8060496 12.760687C15.5663177 12.5062257 15.5644597 12.1018394 15.8016793 11.8450348 16.0526901 11.5733004 16.4733351 11.5710795 16.727019 11.8403501L17.4949861 12.6555021 19.1905201 9.92921359zM19.1905201 3.92921359C19.3852692 3.61607187 19.7959202 3.5280325 20.0966103 3.74291547 20.3816999 3.94664975 20.4559749 4.34474508 20.2709386 4.64226932L18.1386646 8.0708024C17.916542 8.42795846 17.4269957 8.48122611 17.1379706 8.17444298L15.8060496 6.760687C15.5663177 6.50622573 15.5644597 6.1018394 15.8016793 5.84503476 16.0526901 5.57330042 16.4733351 5.57107954 16.727019 5.8403501L17.4949861 6.65550214 19.1905201 3.92921359z"/></g></svg>