<?xml version="1.0" encoding="UTF-8"?>
<svg width="24px" height="26px" viewBox="0 0 24 26" version="1.1" xmlns="http://www.w3.org/2000/svg" xmlns:xlink="http://www.w3.org/1999/xlink">
    <!-- Generator: Sketch 51.2 (57519) - http://www.bohemiancoding.com/sketch -->
    <title>icon-code-sample</title>
    <desc>Created with Sketch.</desc>
    <defs></defs>
    <g stroke="none" stroke-width="1" fill="none" fill-rule="evenodd">
        <path d="M7.125,10.96875 C7.125,11.3645853 7.04947992,11.7369774 6.8984375,12.0859375 C6.74739508,12.4348976 6.53645969,12.739582 6.265625,13 C6.53645969,13.260418 6.74739508,13.5651024 6.8984375,13.9140625 C7.04947992,14.2630226 7.125,14.6354147 7.125,15.03125 L7.125,16.65625 C7.125,16.989585 7.24479047,17.2760405 7.484375,17.515625 C7.72395953,17.7552095 8.010415,17.875 8.34375,17.875 L8.34375,17.875 C8.56811568,17.875 8.75,18.0568843 8.75,18.28125 L8.75,19.09375 C8.75,19.3181157 8.56811568,19.5 8.34375,19.5 C7.56249609,19.5 6.89323195,19.221357 6.3359375,18.6640625 C5.77864305,18.106768 5.5,17.4375039 5.5,16.65625 L5.5,15.03125 C5.5,14.697915 5.38020953,14.4114595 5.140625,14.171875 C4.90104047,13.9322905 4.614585,13.8125 4.28125,13.8125 L4.28125,13.8125 C4.05688432,13.8125 3.875,13.6306157 3.875,13.40625 L3.875,12.59375 C3.875,12.3693843 4.05688432,12.1875 4.28125,12.1875 C4.614585,12.1875 4.90104047,12.0677095 5.140625,11.828125 C5.38020953,11.5885405 5.5,11.302085 5.5,10.96875 L5.5,9.34375 C5.5,8.56249609 5.77864305,7.89323195 6.3359375,7.3359375 C6.89323195,6.77864305 7.56249609,6.5 8.34375,6.5 L8.34375,6.5 C8.56811568,6.5 8.75,6.68188432 8.75,6.90625 L8.75,7.71875 C8.75,7.94311568 8.56811568,8.125 8.34375,8.125 C8.010415,8.125 7.72395953,8.24479047 7.484375,8.484375 C7.24479047,8.72395953 7.125,9.010415 7.125,9.34375 L7.125,10.96875 Z M16.875,10.96875 L16.875,9.34375 C16.875,9.010415 16.7552095,8.72395953 16.515625,8.484375 C16.2760405,8.24479047 15.989585,8.125 15.65625,8.125 L15.65625,8.125 C15.4318843,8.125 15.25,7.94311568 15.25,7.71875 L15.25,6.90625 C15.25,6.68188432 15.4318843,6.5 15.65625,6.5 C16.4375039,6.5 17.106768,6.77864305 17.6640625,7.3359375 C18.221357,7.89323195 18.5,8.56249609 18.5,9.34375 L18.5,10.96875 C18.5,11.302085 18.6197905,11.5885405 18.859375,11.828125 C19.0989595,12.0677095 19.385415,12.1875 19.71875,12.1875 L19.71875,12.1875 C19.9431157,12.1875 20.125,12.3693843 20.125,12.59375 L20.125,13.40625 C20.125,13.6306157 19.9431157,13.8125 19.71875,13.8125 C19.385415,13.8125 19.0989595,13.9322905 18.859375,14.171875 C18.6197905,14.4114595 18.5,14.697915 18.5,15.03125 L18.5,16.65625 C18.5,17.4375039 18.221357,18.106768 17.6640625,18.6640625 C17.106768,19.221357 16.4375039,19.5 15.65625,19.5 L15.65625,19.5 C15.4318843,19.5 15.25,19.3181157 15.25,19.09375 L15.25,18.28125 C15.25,18.0568843 15.4318843,17.875 15.65625,17.875 C15.989585,17.875 16.2760405,17.7552095 16.515625,17.515625 C16.7552095,17.2760405 16.875,16.989585 16.875,16.65625 L16.875,15.03125 C16.875,14.6354147 16.9505201,14.2630226 17.1015625,13.9140625 C17.2526049,13.5651024 17.4635403,13.260418 17.734375,13 C17.4635403,12.739582 17.2526049,12.4348976 17.1015625,12.0859375 C16.9505201,11.7369774 16.875,11.3645853 16.875,10.96875 Z M13.625,10.578125 C13.625,11.0260439 13.4661474,11.4088526 13.1484375,11.7265625 C12.8307276,12.0442724 12.4479189,12.203125 12,12.203125 C11.5520811,12.203125 11.1692724,12.0442724 10.8515625,11.7265625 C10.5338526,11.4088526 10.375,11.0260439 10.375,10.578125 C10.375,10.1302061 10.5338526,9.74739742 10.8515625,9.4296875 C11.1692724,9.11197758 11.5520811,8.953125 12,8.953125 C12.4479189,8.953125 12.8307276,9.11197758 13.1484375,9.4296875 C13.4661474,9.74739742 13.625,10.1302061 13.625,10.578125 Z M12,12.984375 C12.4479189,12.984375 12.8307276,13.1432276 13.1484375,13.4609375 C13.4661474,13.7786474 13.625,14.1614561 13.625,14.609375 C13.625,15.5260463 13.458335,16.2187477 13.125,16.6875 C12.7812483,17.1562523 12.406252,17.4869782 12,17.6796875 C11.593748,17.8723968 11.2187517,17.9739583 10.875,17.984375 L10.875,17.984375 C10.6073523,17.992739 10.3836006,17.782548 10.3752366,17.5149003 C10.3750789,17.5098537 10.375,17.504805 10.375,17.4997559 L10.375,17.03125 C10.7395852,16.9999998 11.0598945,16.9244798 11.3359375,16.8046875 C11.6119805,16.6848952 11.8437491,16.494793 12.03125,16.234375 C11.4062469,16.2031248 10.9739595,16.0338557 10.734375,15.7265625 C10.4947905,15.4192693 10.375,15.0468772 10.375,14.609375 C10.375,14.1614561 10.5338526,13.7786474 10.8515625,13.4609375 C11.1692724,13.1432276 11.5520811,12.984375 12,12.984375 Z" fill="#000000"></path>
    </g>
</svg>