<?xml version="1.0" encoding="UTF-8"?>
<svg width="24px" height="24px" viewBox="0 0 24 24" version="1.1" xmlns="http://www.w3.org/2000/svg" xmlns:xlink="http://www.w3.org/1999/xlink">
    <!-- Generator: Sketch 51.2 (57519) - http://www.bohemiancoding.com/sketch -->
    <title>icon-color-levels</title>
    <desc>Created with Sketch.</desc>
    <defs></defs>
    <g stroke="none" stroke-width="1" fill="none" fill-rule="evenodd">
        <path d="M17.515625,11.390625 C17.6718758,11.8385439 17.7916662,12.2916644 17.875,12.75 C17.9583338,13.2083356 17.9947917,13.6666644 17.984375,14.125 C17.9739583,14.5833356 17.9166672,15.0364561 17.8125,15.484375 C17.7083328,15.9322939 17.5416678,16.3697895 17.3125,16.796875 C17.052082,17.2760441 16.7343769,17.7135397 16.359375,18.109375 C15.9843731,18.5052103 15.5651065,18.8437486 15.1015625,19.125 C14.6380185,19.4062514 14.1458359,19.6197909 13.625,19.765625 C13.0937473,19.9218758 12.5520861,20 12,20 C11.4479139,20 10.9062527,19.9218758 10.375,19.765625 C9.85416406,19.6197909 9.36198148,19.4062514 8.8984375,19.125 C8.43489352,18.8437486 8.01562687,18.5052103 7.640625,18.109375 C7.26562313,17.7135397 6.94791797,17.2760441 6.6875,16.796875 C6.45833219,16.3697895 6.29166719,15.9322939 6.1875,15.484375 C6.08333281,15.0364561 6.02604172,14.5833356 6.015625,14.125 C6.00520828,13.6666644 6.04166625,13.2083356 6.125,12.75 C6.20833375,12.2916644 6.32812422,11.8385439 6.484375,11.390625 C6.74479297,10.6718714 7.06770641,9.97396172 7.453125,9.296875 C7.84896031,8.61978828 8.28645594,7.97135727 8.765625,7.3515625 C9.24479406,6.73176773 9.76041391,6.14062781 10.3125,5.578125 C10.8645861,5.01562219 11.4270805,4.48958578 12,4 C12.5729195,4.48958578 13.1354139,5.01562219 13.6875,5.578125 C14.2395861,6.14062781 14.7552059,6.73176773 15.234375,7.3515625 C15.7135441,7.97135727 16.1510397,8.61978828 16.546875,9.296875 C16.9322936,9.97396172 17.255207,10.6718714 17.515625,11.390625 Z M15.546875,15.859375 C15.9010434,15.1822883 16.0468753,14.5052117 15.984375,13.828125 C15.9218747,13.1510383 15.8020842,12.5625025 15.625,12.0625 C15.552083,11.8541656 15.4661463,11.6406261 15.3671875,11.421875 C15.2682287,11.2031239 15.1614589,10.9791678 15.046875,10.75 C15.1822923,11.3020861 15.2421876,11.911455 15.2265625,12.578125 C15.2109374,13.244795 15.0260434,13.911455 14.671875,14.578125 C14.4635406,14.984377 14.2031266,15.3489567 13.890625,15.671875 C13.5677067,16.00521 13.2135436,16.2890613 12.828125,16.5234375 C12.4427064,16.7578137 12.0312522,16.9374994 11.59375,17.0625 C11.1562478,17.1875006 10.7083356,17.25 10.25,17.25 C10.1458328,17.25 10.0416672,17.2473959 9.9375,17.2421875 C9.83333281,17.2369791 9.72916719,17.2239584 9.625,17.203125 C9.96875172,17.4531263 10.343748,17.6484368 10.75,17.7890625 C11.156252,17.9296882 11.5729145,18 12,18 C12.7291703,18 13.4166634,17.8046895 14.0625,17.4140625 C14.7083366,17.0234355 15.2031233,16.5052116 15.546875,15.859375 Z" fill="#000000"></path>
    </g>
</svg>