<svg xmlns="http://www.w3.org/2000/svg" width="24" height="24" viewBox="0 0 24 24"><g id="comment-show" fill="none" fill-rule="evenodd" stroke="none" stroke-width="1"><path id="Shape" fill="#000" fill-rule="nonzero" d="M9,19.0913481 L12.0206038,17 L19,17 C19.5507153,17 20,16.5507153 20,16 L20,6 C20,5.44928475 19.5507153,5 19,5 L5,5 C4.44928475,5 4,5.44928475 4,6 L4,16 C4,16.5507153 4.44928475,17 5,17 L9,17 L9,19.0913481 Z M7,22.9086519 L7,19 L5,19 C3.34471525,19 2,17.6552847 2,16 L2,6 C2,4.34471525 3.34471525,3 5,3 L19,3 C20.6552847,3 22,4.34471525 22,6 L22,16 C22,17.6552847 20.6552847,19 19,19 L12.6453962,19 L7,22.9086519 Z"/></g></svg>
