<svg fill="none" height="24" viewBox="0 0 24 24" width="24" xmlns="http://www.w3.org/2000/svg"><g fill="#222f3e"><path d="m19.575 14.128a1.519 1.519 0 0 1 1.075.444l.925.911c.134.148.238.313.313.494.075.18.112.36.112.542 0 .18-.033.365-.1.554a1.32 1.32 0 0 1 -.325.505l-5.5 5.422h-3.075v-3.031l5.525-5.422c.15-.148.317-.255.5-.32.184-.066.367-.1.55-.1zm-5.075 6.457v.936h.95l4.025-4.006-.925-.913z" fill-rule="evenodd"/><path d="m10 12.857h-8v-1.971h8zm4-3.943h-12v-1.972h12zm0-3.942h-12v-1.972h12zm4.15-1.732c.12-.32.581-.32.702 0a4.445 4.445 0 0 0 2.648 2.602.365.365 0 0 1 0 .689l-.227.09a4.44 4.44 0 0 0 -2.421 2.513l-.027.056a.378.378 0 0 1 -.648 0l-.027-.056a4.44 4.44 0 0 0 -2.421-2.513l-.227-.09a.365.365 0 0 1 0-.689 4.446 4.446 0 0 0 2.648-2.602z"/></g></svg>