<svg xmlns="http://www.w3.org/2000/svg" width="24" height="24" fill="none" viewBox="0 0 24 24">
  <path fill="#222F3E" fill-rule="evenodd" d="M12 4c1.104 0 2.14.208 3.11.625.979.417 1.83.987 2.554 1.71a8.006 8.006 0 0 1 1.711 2.556c.417.968.625 2.005.625 3.109s-.208 2.14-.625 3.11a8.007 8.007 0 0 1-1.71 2.554 8.007 8.007 0 0 1-2.556 1.711A7.785 7.785 0 0 1 12 20a7.785 7.785 0 0 1-3.11-.625 8.006 8.006 0 0 1-2.554-1.71 8.006 8.006 0 0 1-1.711-2.556A7.785 7.785 0 0 1 4 12c0-1.104.208-2.14.625-3.11a8.023 8.023 0 0 1 1.71-2.554 8.005 8.005 0 0 1 2.556-1.711A7.785 7.785 0 0 1 12 4Zm-6 8c0 .833.156 1.61.469 2.328.312.73.742 1.367 1.289 1.914a6.047 6.047 0 0 0 1.914 1.29A5.773 5.773 0 0 0 12 18V6c-.833 0-1.61.156-2.328.469a6.048 6.048 0 0 0-1.914 1.289 6.048 6.048 0 0 0-1.29 1.914A5.775 5.775 0 0 0 6 12Z"/>
</svg>
