<svg xmlns="http://www.w3.org/2000/svg" width="24" height="24" viewBox="0 0 24 24">
  <path fill-rule="evenodd" d="M7.2265625,4.515625 C8.05469164,4.58854203 8.78645516,4.94270516 9.421875,5.578125 C9.77604344,5.93229344 10.0442699,6.32812281 10.2265625,6.765625 C10.4088551,7.20312719 10.5,7.63020625 10.5,8.046875 L10.5,8.5 L11.5,9.5 L15.5,5.515625 C15.7500013,5.26562375 16.0520816,5.07812562 16.40625,4.953125 C16.7604184,4.82812437 17.1249981,4.765625 17.5,4.765625 C17.8750019,4.765625 18.2395816,4.82812437 18.59375,4.953125 C18.9479184,5.07812562 19.2499987,5.26562375 19.5,5.515625 L17.009,7.99942436 L21,8 L21,21 L15,21 L15,10.0034244 L13.5,11.5 L14,12 L14,15.9894244 L11.5,13.5 L10.5,14.5 L10.5,14.953125 C10.5,15.3697937 10.4088551,15.7968728 10.2265625,16.234375 C10.0442699,16.6718772 9.77604344,17.0677066 9.421875,17.421875 C8.78645516,18.0572948 8.05469164,18.411458 7.2265625,18.484375 C6.39843336,18.557292 5.71875266,18.3281277 5.1875,17.796875 C4.95833219,17.5677072 4.78645891,17.2994807 4.671875,16.9921875 C4.55729109,16.6848943 4.5,16.364585 4.5,16.03125 C4.5,15.6145812 4.59114492,15.1901063 4.7734375,14.7578125 C4.95573008,14.3255187 5.22395656,13.9270852 5.578125,13.5625 C5.99479375,13.1458312 6.46093492,12.8489592 6.9765625,12.671875 C7.49219008,12.4947908 7.98958094,12.442708 8.46875,12.515625 L9.5,11.5 L8.46875,10.484375 C7.98958094,10.557292 7.49219008,10.5052092 6.9765625,10.328125 C6.46093492,10.1510408 5.99479375,9.85416875 5.578125,9.4375 C5.22395656,9.07291484 4.95573008,8.67448133 4.7734375,8.2421875 C4.59114492,7.80989367 4.5,7.38541875 4.5,6.96875 C4.5,6.635415 4.55729109,6.3151057 4.671875,6.0078125 C4.78645891,5.7005193 4.95833219,5.43229281 5.1875,5.203125 C5.71875266,4.67187234 6.39843336,4.44270797 7.2265625,4.515625 Z M19.5,9.5 L16.5,9.5 L16.5,19.5 L19.5,19.5 L19.5,9.5 Z M8.046875,13.8125 C7.92187438,13.8125 7.79427148,13.8281248 7.6640625,13.859375 C7.53385352,13.8906252 7.40625062,13.9322914 7.28125,13.984375 C7.14583266,14.0468753 7.01302148,14.1223954 6.8828125,14.2109375 C6.79600651,14.2699656 6.71498837,14.33478 6.63975703,14.4053818 L6.53125,14.515625 C6.41666609,14.6302089 6.31510461,14.7499994 6.2265625,14.875 C6.13802039,15.0000006 6.06250031,15.1354159 6,15.28125 C5.94791641,15.4062506 5.90625016,15.5338535 5.875,15.6640625 C5.84374984,15.7942715 5.828125,15.9166661 5.828125,16.03125 C5.828125,16.1562506 5.84895812,16.2942701 5.890625,16.4453125 C5.93229188,16.5963549 6.01562438,16.7343744 6.140625,16.859375 C6.26562562,16.9843756 6.40364508,17.0677081 6.5546875,17.109375 C6.70572992,17.1510419 6.83854109,17.171875 6.953125,17.171875 C7.07812562,17.171875 7.20312438,17.1562502 7.328125,17.125 C7.45312562,17.0937498 7.57812438,17.0520836 7.703125,17 C7.84895906,16.9374997 7.98437438,16.8645837 8.109375,16.78125 C8.23437562,16.6979162 8.35416609,16.5989589 8.46875,16.484375 C8.58333391,16.3697911 8.68489539,16.2473965 8.7734375,16.1171875 C8.86197961,15.9869785 8.93749969,15.8489591 9,15.703125 C9.05208359,15.5781244 9.09374984,15.4531256 9.125,15.328125 C9.15625016,15.2031244 9.171875,15.0781256 9.171875,14.953125 C9.171875,14.8281244 9.15104188,14.6901049 9.109375,14.5390625 C9.06770812,14.3880201 8.98437563,14.2500006 8.859375,14.125 C8.73437437,13.9999994 8.59635492,13.9166669 8.4453125,13.875 C8.29427008,13.8333331 8.16145891,13.8125 8.046875,13.8125 Z M11.5,10.09375 C11.1041647,10.09375 10.7682305,10.2317695 10.4921875,10.5078125 C10.2161445,10.7838555 10.078125,11.1145814 10.078125,11.5 C10.078125,11.8854186 10.2161445,12.2161445 10.4921875,12.4921875 C10.7682305,12.7682305 11.1041647,12.90625 11.5,12.90625 C11.8854186,12.90625 12.2161445,12.7682305 12.4921875,12.4921875 C12.7682305,12.2161445 12.90625,11.8854186 12.90625,11.5 C12.90625,11.1145814 12.7682305,10.7838555 12.4921875,10.5078125 C12.2161445,10.2317695 11.8854186,10.09375 11.5,10.09375 Z M6.953125,5.828125 C6.83854109,5.828125 6.70572992,5.84895812 6.5546875,5.890625 C6.40364508,5.93229187 6.26562562,6.01562437 6.140625,6.140625 C6.01562438,6.26562562 5.93229188,6.40364508 5.890625,6.5546875 C5.84895812,6.70572992 5.828125,6.84374937 5.828125,6.96875 C5.828125,7.08333391 5.84374984,7.20572852 5.875,7.3359375 C5.90625016,7.46614648 5.94791641,7.59374937 6,7.71875 C6.06250031,7.86458406 6.13802039,7.99999937 6.2265625,8.125 C6.28559057,8.20833375 6.35040503,8.28935187 6.42100679,8.36805544 L6.53125,8.484375 C6.63541719,8.59895891 6.75260352,8.70052039 6.8828125,8.7890625 C7.01302148,8.87760461 7.14583266,8.95312469 7.28125,9.015625 C7.40625062,9.06770859 7.53385352,9.10937484 7.6640625,9.140625 C7.79427148,9.17187516 7.92187438,9.1875 8.046875,9.1875 C8.16145891,9.1875 8.29427008,9.16666687 8.4453125,9.125 C8.59635492,9.08333312 8.73437437,9.00000062 8.859375,8.875 C8.98437563,8.74999937 9.06770812,8.61197992 9.109375,8.4609375 C9.15104188,8.30989508 9.171875,8.17187562 9.171875,8.046875 C9.171875,7.92187437 9.15625016,7.79687562 9.125,7.671875 C9.09374984,7.54687437 9.05208359,7.42187562 9,7.296875 C8.93749969,7.15104094 8.86197961,7.01302148 8.7734375,6.8828125 C8.68489539,6.75260352 8.58333391,6.63020891 8.46875,6.515625 C8.35416609,6.40104109 8.23437562,6.30208375 8.109375,6.21875 C7.98437438,6.13541625 7.84895906,6.06250031 7.703125,6 C7.57812438,5.94791641 7.45312562,5.90625016 7.328125,5.875 C7.20312438,5.84374984 7.07812562,5.828125 6.953125,5.828125 Z"/>
</svg>
