<svg xmlns="http://www.w3.org/2000/svg" width="24" height="24" viewBox="0 0 24 24">
  <path fill-rule="evenodd" d="M22,3 L22,8 L9.00742436,8 L12,11 L13.9944244,9 L17.984375,9 L14,13 L15,14 L15.453125,14 C15.8697938,14 16.2968728,14.0911449 16.734375,14.2734375 C17.1718772,14.4557301 17.5677066,14.7239566 17.921875,15.078125 C18.5572948,15.7135448 18.911458,16.4453084 18.984375,17.2734375 C19.057292,18.1015666 18.8281277,18.7812473 18.296875,19.3125 C18.0677072,19.5416678 17.7994807,19.7135411 17.4921875,19.828125 C17.1848943,19.9427089 16.864585,20 16.53125,20 C16.1145813,20 15.6901063,19.9088551 15.2578125,19.7265625 C14.8255187,19.5442699 14.4270852,19.2760434 14.0625,18.921875 C13.6458313,18.5052063 13.3489592,18.0390651 13.171875,17.5234375 C12.9947908,17.0078099 12.942708,16.5104191 13.015625,16.03125 L12,15 L10.984375,16.03125 C11.057292,16.5104191 11.0052092,17.0078099 10.828125,17.5234375 C10.6510408,18.0390651 10.3541688,18.5052063 9.9375,18.921875 C9.57291484,19.2760434 9.17448133,19.5442699 8.7421875,19.7265625 C8.30989367,19.9088551 7.88541875,20 7.46875,20 C7.135415,20 6.8151057,19.9427089 6.5078125,19.828125 C6.2005193,19.7135411 5.93229281,19.5416678 5.703125,19.3125 C5.17187234,18.7812473 4.94270797,18.1015666 5.015625,17.2734375 C5.08854203,16.4453084 5.44270516,15.7135448 6.078125,15.078125 C6.43229344,14.7239566 6.82812281,14.4557301 7.265625,14.2734375 C7.70312719,14.0911449 8.13020625,14 8.546875,14 L9,14 L10,13 L6.015625,9 C5.76562375,8.74999875 5.57812563,8.44791844 5.453125,8.09375 C5.32812438,7.73958156 5.265625,7.37500188 5.265625,7 C5.265625,6.62499813 5.32812438,6.26041844 5.453125,5.90625 C5.57812563,5.55208156 5.76562375,5.25000125 6.015625,5 L7.99942436,6.989 L8,3 L22,3 Z M8.546875,15.328125 C8.42187438,15.328125 8.29687563,15.3437498 8.171875,15.375 C8.04687438,15.4062502 7.92187563,15.4479164 7.796875,15.5 C7.65104094,15.5625003 7.51302148,15.6380204 7.3828125,15.7265625 C7.25260352,15.8151046 7.13020891,15.9166661 7.015625,16.03125 C6.90104109,16.1458339 6.80208375,16.2656244 6.71875,16.390625 C6.63541625,16.5156256 6.56250031,16.6510409 6.5,16.796875 C6.44791641,16.9218756 6.40625016,17.0468744 6.375,17.171875 C6.34374984,17.2968756 6.328125,17.4218744 6.328125,17.546875 C6.328125,17.6614589 6.34895813,17.7942701 6.390625,17.9453125 C6.43229188,18.0963549 6.51562438,18.2343744 6.640625,18.359375 C6.76562563,18.4843756 6.90364508,18.5677081 7.0546875,18.609375 C7.20572992,18.6510419 7.34374938,18.671875 7.46875,18.671875 C7.58333391,18.671875 7.70572852,18.6562502 7.8359375,18.625 C7.96614648,18.5937498 8.09374938,18.5520836 8.21875,18.5 C8.36458406,18.4374997 8.49999938,18.3619796 8.625,18.2734375 C8.70833375,18.2144094 8.78935188,18.149595 8.86805544,18.0789932 L8.984375,17.96875 C9.09895891,17.8645828 9.20052039,17.7473965 9.2890625,17.6171875 C9.37760461,17.4869785 9.45312469,17.3541673 9.515625,17.21875 C9.56770859,17.0937494 9.60937484,16.9661465 9.640625,16.8359375 C9.67187516,16.7057285 9.6875,16.5781256 9.6875,16.453125 C9.6875,16.3385411 9.66666688,16.2057299 9.625,16.0546875 C9.58333313,15.9036451 9.50000063,15.7656256 9.375,15.640625 C9.24999938,15.5156244 9.11197992,15.4322919 8.9609375,15.390625 C8.80989508,15.3489581 8.67187563,15.328125 8.546875,15.328125 Z M15.453125,15.328125 C15.3281244,15.328125 15.1901049,15.3489581 15.0390625,15.390625 C14.8880201,15.4322919 14.7500006,15.5156244 14.625,15.640625 C14.4999994,15.7656256 14.4166669,15.9036451 14.375,16.0546875 C14.3333331,16.2057299 14.3125,16.3385411 14.3125,16.453125 C14.3125,16.5781256 14.3281248,16.7057285 14.359375,16.8359375 C14.3906252,16.9661465 14.4322914,17.0937494 14.484375,17.21875 C14.5468753,17.3541673 14.6223954,17.4869785 14.7109375,17.6171875 C14.7699656,17.7039935 14.83478,17.7850116 14.9053818,17.860243 L15.015625,17.96875 C15.1302089,18.0833339 15.2499994,18.1848954 15.375,18.2734375 C15.5000006,18.3619796 15.6354159,18.4374997 15.78125,18.5 C15.9062506,18.5520836 16.0338535,18.5937498 16.1640625,18.625 C16.2942715,18.6562502 16.4166661,18.671875 16.53125,18.671875 C16.6562506,18.671875 16.7942701,18.6510419 16.9453125,18.609375 C17.0963549,18.5677081 17.2343744,18.4843756 17.359375,18.359375 C17.4843756,18.2343744 17.5677081,18.0963549 17.609375,17.9453125 C17.6510419,17.7942701 17.671875,17.6614589 17.671875,17.546875 C17.671875,17.4218744 17.6562502,17.2968756 17.625,17.171875 C17.5937498,17.0468744 17.5520836,16.9218756 17.5,16.796875 C17.4374997,16.6510409 17.3645838,16.5156256 17.28125,16.390625 C17.1979163,16.2656244 17.0989589,16.1458339 16.984375,16.03125 C16.8697911,15.9166661 16.7473965,15.8151046 16.6171875,15.7265625 C16.4869785,15.6380204 16.3489591,15.5625003 16.203125,15.5 C16.0781244,15.4479164 15.9531256,15.4062502 15.828125,15.375 C15.7031244,15.3437498 15.5781256,15.328125 15.453125,15.328125 Z M12,11.59375 C11.6145814,11.59375 11.2838555,11.7317695 11.0078125,12.0078125 C10.7317695,12.2838555 10.59375,12.6145814 10.59375,13 C10.59375,13.3958353 10.7317695,13.7317695 11.0078125,14.0078125 C11.2838555,14.2838555 11.6145814,14.421875 12,14.421875 C12.3854186,14.421875 12.7161445,14.2838555 12.9921875,14.0078125 C13.2682305,13.7317695 13.40625,13.3958353 13.40625,13 C13.40625,12.6145814 13.2682305,12.2838555 12.9921875,12.0078125 C12.7161445,11.7317695 12.3854186,11.59375 12,11.59375 Z M20.5,4.5 L9.5,4.5 L9.5,6.5 L20.5,6.5 L20.5,4.5 Z"/>
</svg>
