<svg fill="none" height="24" viewBox="0 0 24 24" width="24" xmlns="http://www.w3.org/2000/svg"><g fill="#222f3e"><path d="m17.34 14.5c.206.083.4.171.58.263.18.091.366.203.555.337l1.494-.45 1.031 1.7-1.186 1c.035.2.052.417.052.65s-.017.45-.052.65l1.186 1-1.031 1.7-1.494-.45a4.516 4.516 0 0 1 -.555.337 7.14 7.14 0 0 1 -.58.263l-.31 1.5h-2.06l-.309-1.5a7.388 7.388 0 0 1 -.58-.263 4.516 4.516 0 0 1 -.555-.337l-1.494.45-1.032-1.7 1.185-1a3.855 3.855 0 0 1 -.051-.65c0-.233.017-.45.051-.65l-1.185-1 1.031-1.7 1.494.45c.19-.134.375-.246.555-.337.18-.092.374-.18.58-.263l.309-1.5h2.062zm-1.34 1.5c-.567 0-1.052.196-1.456.588a1.897 1.897 0 0 0 -.606 1.412c0 .55.202 1.02.606 1.412s.889.588 1.456.588 1.052-.196 1.456-.588.605-.862.605-1.412-.201-1.02-.605-1.412a2.017 2.017 0 0 0 -1.456-.588z" fill-rule="evenodd"/><path d="m19 7.586v4.414h-2v-3h-4v-4h-6v14h3v2h-3c-1.103 0-2-.897-2-2v-14c0-1.102.897-2 2-2h7.414z"/></g></svg>