<?xml version="1.0" encoding="UTF-8"?>
<svg width="24px" height="24px" viewBox="0 0 24 24" version="1.1" xmlns="http://www.w3.org/2000/svg" xmlns:xlink="http://www.w3.org/1999/xlink">
    <!-- Generator: Sketch 51.2 (57519) - http://www.bohemiancoding.com/sketch -->
    <title>icon-drag</title>
    <desc>Created with Sketch.</desc>
    <defs></defs>
    <g stroke="none" stroke-width="1" fill="none" fill-rule="evenodd">
        <path d="M13,5 L15,5 L15,7 L13,7 L13,5 Z M13,9 L15,9 L15,11 L13,11 L13,9 Z M9,9 L11,9 L11,11 L9,11 L9,9 Z M13,13 L15,13 L15,15 L13,15 L13,13 Z M9,13 L11,13 L11,15 L9,15 L9,13 Z M9,17 L11,17 L11,19 L9,19 L9,17 Z M13,17 L15,17 L15,19 L13,19 L13,17 Z M9,5 L11,5 L11,7 L9,7 L9,5 Z" fill="#000000"></path>
    </g>
</svg>