<?xml version="1.0" encoding="UTF-8"?>
<svg width="24px" height="24px" viewBox="0 0 24 24" version="1.1" xmlns="http://www.w3.org/2000/svg" xmlns:xlink="http://www.w3.org/1999/xlink">
    <!-- Generator: Sketch 51.3 (57544) - http://www.bohemiancoding.com/sketch -->
    <title>icon-duplicate</title>
    <desc>Created with Sketch.</desc>
    <defs></defs>
    <g stroke="none" stroke-width="1" fill="none" fill-rule="evenodd">
        <path d="M16,3 L16,5 L6,5 L6,16 L4,16 L4,5 C4,3.85343369 4.9,3 6,3 L16,3 Z M19,11 L17,11 L17,9 L10,9 L10,19 L17,19 L19,19 C19,20.1519231 18.1,21 17,21 L10,21 C8.9,21 8,20.1519231 8,19 L8,9 C8,7.84807692 8.9,7 10,7 L17,7 C18.1,7 19,7.84807692 19,9 L19,11 Z" fill="#000000" fill-rule="nonzero"></path>
        <path d="M17,14 L18,14 C18.5522847,14 19,14.4477153 19,15 C19,15.5522847 18.5522847,16 18,16 L17,16 L17,17 C17,17.5522847 16.5522847,18 16,18 C15.4477153,18 15,17.5522847 15,17 L15,16 L14,16 C13.4477153,16 13,15.5522847 13,15 C13,14.4477153 13.4477153,14 14,14 L15,14 L15,13 C15,12.4477153 15.4477153,12 16,12 C16.5522847,12 17,12.4477153 17,13 L17,14 Z" fill="#000000" fill-rule="nonzero"></path>
    </g>
</svg>