<svg xmlns="http://www.w3.org/2000/svg" width="24" height="24" viewBox="0 0 24 24"><g id="edit-block" fill="none" fill-rule="evenodd" stroke="none" stroke-width="1"><path id="Shape" fill="#000" fill-rule="nonzero" d="M14.6846031,3.96428973 L14.6846031,17.257975 C14.6846031,17.591785 14.5891308,17.9186315 14.4094493,18.1999562 L11.4346031,22.8576296 L8.45975683,18.1999562 C8.28007529,17.9186315 8.18460306,17.591785 8.18460306,17.257975 L8.18460306,3.96428973 C8.18460306,2.99779142 8.96810475,2.21428973 9.93460306,2.21428973 L12.9346031,2.21428973 C13.9011014,2.21428973 14.6846031,2.99779142 14.6846031,3.96428973 Z M13.1846031,5.21428973 L13.1846031,3.96428973 C13.1846031,3.82621854 13.0726743,3.71428973 12.9346031,3.71428973 L9.93460306,3.71428973 C9.79653188,3.71428973 9.68460306,3.82621854 9.68460306,3.96428973 L9.68460306,5.21428973 L13.1846031,5.21428973 L13.1846031,5.21428973 Z M13.1846031,6.71428973 L9.68460306,6.71428973 L9.68460306,15.2142897 L13.1846031,15.2142897 L13.1846031,6.71428973 L13.1846031,6.71428973 Z M13.1846031,16.7142897 L9.68460306,16.7142897 L9.68460306,17.257975 C9.68460306,17.3056622 9.69824195,17.3523545 9.72391074,17.3925438 L11.4346031,20.0709498 L13.1452954,17.3925438 C13.1709642,17.3523545 13.1846031,17.3056622 13.1846031,17.257975 L13.1846031,16.7142897 L13.1846031,16.7142897 Z" transform="rotate(45 11.43 12.54)"/></g></svg>