<?xml version="1.0" encoding="UTF-8"?>
<svg width="24px" height="24px" viewBox="0 0 24 24" version="1.1" xmlns="http://www.w3.org/2000/svg" xmlns:xlink="http://www.w3.org/1999/xlink">
    <!-- Generator: Sketch 51.3 (57544) - http://www.bohemiancoding.com/sketch -->
    <title>icon-emoji</title>
    <desc>Created with Sketch.</desc>
    <defs></defs>
    <g stroke="none" stroke-width="1" fill="none" fill-rule="evenodd">
        <path d="M9,11 C9.55,11 10,10.55 10,10 C10,9.45 9.55,9 9,9 C8.45,9 8,9.45 8,10 C8,10.55 8.45,11 9,11 Z M15,11 C15.55,11 16,10.55 16,10 C16,9.45 15.55,9 15,9 C14.45,9 14,9.45 14,10 C14,10.55 14.45,11 15,11 Z M12,16.5 C14.14,16.5 15.92,15 16.38,13 L7.62,13 C8.08,15 9.86,16.5 12,16.5 Z M12,4 C7.57,4 4,7.58 4,12 C4,16.42 7.57,20 12,20 C16.43,20 20,16.42 20,12 C20,7.58 16.42,4 12,4 Z M12,18.5 C8.41,18.5 5.5,15.59 5.5,12 C5.5,8.41 8.41,5.5 12,5.5 C15.59,5.5 18.5,8.41 18.5,12 C18.5,15.59 15.59,18.5 12,18.5 Z" fill="#000000" fill-rule="nonzero"></path>
    </g>
</svg>