<svg xmlns="http://www.w3.org/2000/svg" width="24" height="24" viewBox="0 0 24 24">
  <path fill-rule="evenodd" d="M9.493 3.013c-.092.016-.18.044-.264.083-.092.047-.857.793-2.624 2.564C3.75 8.518 3.999 8.22 4.009 8.787c.023 1.21.246 2.831.578 4.193.484 1.985 1.16 3.21 2.046 3.705.283.158.442.203 1.13.317.984.162 1.546.222 2.28.24 1.208.028 1.703-.078 2.18-.47.229-.187.299-.348.417-.952.06-.297.11-.543.112-.546.055.029.108.061.159.098.084.056.229.131.32.166.162.062.207.063 1.778.072l1.614.008v-1.84h-2.76l-.098-.152a6.762 6.762 0 0 1-.5-1.072c-.12-.34-.236-.515-.417-.638a.842.842 0 0 0-.59-.146.852.852 0 0 0-.758.531c-.039.09-.179.722-.353 1.604-.271 1.368-.293 1.456-.356 1.48-.107.04-.885.03-1.394-.018-.8-.076-1.798-.242-1.912-.315a1.074 1.074 0 0 1-.181-.193c-.6-.785-1.097-2.539-1.29-4.542-.02-.205-.035-.41-.043-.616v-.155l1.962-.007 1.962-.008.138-.067c.187-.099.34-.251.438-.438l.067-.138.008-2.022.007-2.022.678.008c.65.009.684.013.808.08.386.204.65.676.722 1.097a.942.942 0 0 0 .245.522c.225.246.33.279 1.051.326 1.171.076 1.86.245 2.463.603.427.253.793.743.944 1.263.33 1.137.488 3.997.353 6.376-.104 1.817-.408 3.367-.767 3.904l-.092.139h-.7c-.386 0-.737-.01-.782-.023-.167-.048-.245-.314-.157-.528a.549.549 0 0 1 .334-.28c.179-.024.36-.035.54-.031h.43v-1.845l-.607.014c-.674.017-.898.058-1.237.227-.83.417-1.338 1.216-1.337 2.106 0 .198.014.272.074.403.041.088.092.18.113.204a.93.93 0 0 1 .092.19c.246.666.78 1.173 1.415 1.349.162.044.32.052 1.165.052.927 0 .988-.004 1.182-.065a1.94 1.94 0 0 0 .985-.72c.586-.792.973-2.262 1.144-4.352.234-2.879.059-6.217-.407-7.704-.445-1.423-1.597-2.455-3.191-2.859a6.93 6.93 0 0 0-1.272-.19 7.189 7.189 0 0 1-.44-.038 5.53 5.53 0 0 1-.072-.225c-.169-.566-.528-1.018-1.117-1.404a3.065 3.065 0 0 0-.481-.254c-.424-.163-.582-.179-1.85-.188a26.544 26.544 0 0 0-1.29.012Zm-.78 3.92v.773h-1.56l.772-.773c.426-.425.777-.772.78-.772.006 0 .008.347.008.772Zm7.068 3.534c-.468.125-.822.535-.956 1.108-.046.2-.047.575 0 .65.013.023.117.034.292.034.648 0 1.08.156 1.498.538.134.122.255.221.27.221.073 0 .237-.32.307-.599.142-.562.121-1.147-.055-1.495-.1-.196-.335-.404-.523-.459a2.077 2.077 0 0 0-.833.002Z" clip-rule="evenodd"/>
</svg>
