<svg fill="none" height="24" viewBox="0 0 24 24" width="24" xmlns="http://www.w3.org/2000/svg"><g fill="#222f3e"><path d="m11.6 3.104a4 4 0 0 1 2.952 6.698 6.753 6.753 0 0 1 1.73 1.239c1.07-.097 2.19-.015 3.497.224a1 1 0 0 1 .817.894l.004.09v7.877a1.001 1.001 0 0 1 -1.143.99c-1.494-.216-2.592-.233-3.665-.031-1.082.204-2.204.642-3.734 1.43l-.035.014a1.071 1.071 0 0 1 -.23.076 1.001 1.001 0 0 1 -.617-.076l-.034-.014c-1.53-.788-2.653-1.226-3.735-1.43-1.073-.202-2.17-.185-3.665.03a1 1 0 0 1 -1.142-.989v-7.877l.004-.09a1 1 0 0 1 .816-.894c1.305-.238 2.422-.321 3.49-.225a6.82 6.82 0 0 1 1.263-.981c.154-.093.313-.178.473-.258a4 4 0 0 1 2.954-6.697zm-4.09 10.04c-.861-.174-1.764-.191-2.91-.04v5.896c1.132-.1 2.147-.075 3.177.12.924.173 1.83.48 2.823.917v-5.69c-1.206-.632-2.151-1.014-3.09-1.203zm11.09-.04c-1.146-.151-2.05-.134-2.91.04-.94.189-1.885.571-3.09 1.203v5.69c.991-.437 1.898-.744 2.822-.918 1.03-.194 2.045-.22 3.178-.119zm-7.03-2a4.623 4.623 0 0 0 -2.113.527c.69.255 1.39.586 2.143.982.75-.395 1.448-.725 2.136-.98a4.623 4.623 0 0 0 -2.167-.53zm.03-6a2 2 0 1 0 0 4 2 2 0 0 0 0-4z" fill-rule="evenodd"/><path d="m18.676 2.226a.345.345 0 0 1 .648 0 4.147 4.147 0 0 0 2.45 2.45.345.345 0 0 1 0 .648l-.21.084a4.147 4.147 0 0 0 -2.24 2.366l-.024.053c-.13.23-.47.23-.6 0l-.024-.053a4.147 4.147 0 0 0 -2.24-2.366l-.21-.084a.346.346 0 0 1 0-.648 4.147 4.147 0 0 0 2.45-2.45z"/></g></svg>