<svg xmlns="http://www.w3.org/2000/svg" width="24" height="24" viewBox="0 0 24 24">
  <g fill="none" fill-rule="evenodd">
    <path fill="#000" fill-rule="nonzero" d="M14.414,3 L18,7.086 L18,8 L17,8 L13,8 L13,5 L7,5 L7,19 L16.001,19 L16.001,18.9995 C16.001,18.4474914 16.4484914,18 17.0005,18 C17.5525086,18 18,18.4474914 18,18.9995 L18,19 L18,19 C18,20.0528636 17.1826921,20.9180289 16.1490673,20.994505 L16,21 L7,21 C5.94713636,21 5.08197107,20.1826921 5.00549502,19.1490673 L5,19 L5,5 C5,3.94809091 5.81730785,3.08205785 6.85093266,3.00550094 L7,3 L14.414,3 Z"/>
    <path fill="#000" fill-rule="nonzero" d="M18.1,12 C18.5970563,12 19,12.4477153 19,13 C19,13.5128358 18.6525638,13.9355072 18.204959,13.9932723 L18.1,14 L10.9,14 C10.4029437,14 10,13.5522847 10,13 C10,12.4871642 10.3474362,12.0644928 10.795041,12.0067277 L10.9,12 L18.1,12 Z"/>
    <path fill="#000" fill-rule="nonzero" d="M16.4452998,9.16794971 C16.872005,8.88347957 17.4378254,8.97022855 17.7617627,9.35199704 L17.8320503,9.4452998 L20.2018504,13 L17.8320503,16.5547002 C17.5256978,17.0142289 16.9048285,17.1384028 16.4452998,16.8320503 C16.0185946,16.5475802 15.8810474,15.9919194 16.1088578,15.5460663 L16.1679497,15.4452998 L17.797,12.999 L16.1679497,10.5547002 C15.8834796,10.127995 15.9702286,9.56217462 16.351997,9.23823728 L16.4452998,9.16794971 Z"/>
  </g>
</svg>
