<svg fill="none" height="24" viewBox="0 0 24 24" width="24" xmlns="http://www.w3.org/2000/svg"><g fill="#222f3e"><path d="m22 14.51-7.621 7.49-4.595-4.515 1.513-1.488 3.082 3.027 6.107-6z"/><path d="m15.026 15.81h-2.485l-1.244-3.505h-5.677l-1.24 3.505h-2.38l5.243-13.81h2.541zm-8.648-5.524h4.217l-2.055-5.736h-.107z" fill-rule="evenodd"/><path d="m18.15 2.24c.12-.32.581-.32.702 0a4.445 4.445 0 0 0 2.648 2.602.365.365 0 0 1 0 .689l-.227.09a4.44 4.44 0 0 0 -2.421 2.513l-.027.056a.378.378 0 0 1 -.648 0l-.027-.056a4.44 4.44 0 0 0 -2.421-2.513l-.227-.09a.365.365 0 0 1 0-.689 4.446 4.446 0 0 0 2.648-2.602z"/></g></svg>