<svg width="24" height="24" viewBox="0 0 24 24" fill="none" xmlns="http://www.w3.org/2000/svg">
<path d="M19 13C19.5523 13 20 13.4477 20 14V14C20 14.5523 19.5523 15 19 15L5 15C4.44772 15 4 14.5523 4 14V14C4 13.4477 4.44772 13 5 13L19 13Z" fill="black"/>
<path fill-rule="evenodd" clip-rule="evenodd" d="M19.0938 4V10H18.0469V5.04688H16.5V4H19.0938Z" fill="black"/>
<path d="M12 18C12.5523 18 13 18.4477 13 19V19C13 19.5523 12.5523 20 12 20L5 20C4.44772 20 4 19.5523 4 19V19C4 18.4477 4.44772 18 5 18L12 18Z" fill="black"/>
<path d="M14 8C14.5523 8 15 8.44772 15 9V9C15 9.55228 14.5523 10 14 10L5 10C4.44772 10 4 9.55228 4 9V9C4 8.44772 4.44772 8 5 8L14 8Z" fill="black"/>
</svg>
