<?xml version="1.0" encoding="UTF-8"?>
<svg width="24px" height="24px" viewBox="0 0 24 24" version="1.1" xmlns="http://www.w3.org/2000/svg" xmlns:xlink="http://www.w3.org/1999/xlink">
    <!-- Generator: Sketch 51.3 (57544) - http://www.bohemiancoding.com/sketch -->
    <title>icon-fullscreen</title>
    <desc>Created with Sketch.</desc>
    <defs></defs>
    <g stroke="none" stroke-width="1" fill="none" fill-rule="evenodd">
        <path d="M15.3203862,9.93650271 L14.0634973,8.67961382 L16.9653333,5.77777778 L14.6666667,5.77777778 C14.1757469,5.77777778 13.7777778,5.37980867 13.7777778,4.88888889 C13.7777778,4.39796911 14.1757469,4 14.6666667,4 L19.1111111,4 C19.6020309,4 20,4.39796911 20,4.88888889 L20,9.33333333 C20,9.82425311 19.6020309,10.2222222 19.1111111,10.2222222 C18.6201913,10.2222222 18.2222222,9.82425311 18.2222222,9.33333333 L18.2222222,7.03466667 L15.3203862,9.93650271 Z M15.3203862,14.0634973 L18.2222222,16.9653333 L18.2222222,14.6666667 C18.2222222,14.1757469 18.6201913,13.7777778 19.1111111,13.7777778 C19.6020309,13.7777778 20,14.1757469 20,14.6666667 L20,19.1111111 C20,19.6020309 19.6020309,20 19.1111111,20 L14.6666667,20 C14.1757469,20 13.7777778,19.6020309 13.7777778,19.1111111 C13.7777778,18.6201913 14.1757469,18.2222222 14.6666667,18.2222222 L16.9653333,18.2222222 L14.0634973,15.3203862 L15.3203862,14.0634973 Z M9.93650271,15.3203862 L7.03466667,18.2222222 L9.33333333,18.2222222 C9.82425311,18.2222222 10.2222222,18.6201913 10.2222222,19.1111111 C10.2222222,19.6020309 9.82425311,20 9.33333333,20 L4.88888889,20 C4.39796911,20 4,19.6020309 4,19.1111111 L4,14.6666667 C4,14.1757469 4.39796911,13.7777778 4.88888889,13.7777778 C5.37980867,13.7777778 5.77777778,14.1757469 5.77777778,14.6666667 L5.77777778,16.9653333 L8.67961382,14.0634973 L9.93650271,15.3203862 Z M8.67961382,9.93650271 L5.77777778,7.03466667 L5.77777778,9.33333333 C5.77777778,9.82425311 5.37980867,10.2222222 4.88888889,10.2222222 C4.39796911,10.2222222 4,9.82425311 4,9.33333333 L4,4.88888889 C4,4.39796911 4.39796911,4 4.88888889,4 L9.33333333,4 C9.82425311,4 10.2222222,4.39796911 10.2222222,4.88888889 C10.2222222,5.37980867 9.82425311,5.77777778 9.33333333,5.77777778 L7.03466667,5.77777778 L9.93650271,8.67961382 L8.67961382,9.93650271 Z" fill="#000000" fill-rule="nonzero"></path>
    </g>
</svg>