<svg xmlns="http://www.w3.org/2000/svg" width="24" height="24" viewBox="0 0 24 24"><g id="gallery" fill="none" fill-rule="evenodd" stroke="none" stroke-width="1"><path id="Shape" fill="#000" fill-rule="nonzero" d="M5,15.7393398 L7.26966991,13.4696699 C7.56256313,13.1767767 8.03743687,13.1767767 8.33033009,13.4696699 L10.9,16.0393398 L16.0030032,10.9363366 C16.2958965,10.6434434 16.7707702,10.6434434 17.0636634,10.9363366 L19,12.8726732 L19,8 L5,8 L5,15.7393398 Z M5,17.8606602 L5,19 L7.93933983,19 L9.83933983,17.1 L7.8,15.0606602 L5,17.8606602 Z M19,14.9939935 L16.5333333,12.5273268 L10.0606602,19 L19,19 L19,14.9939935 Z M4,6 L20,6 C20.5522847,6 21,6.44771525 21,7 L21,20 C21,20.5522847 20.5522847,21 20,21 L4,21 C3.44771525,21 3,20.5522847 3,20 L3,7 C3,6.44771525 3.44771525,6 4,6 Z M10,13 C8.8954305,13 8,12.1045695 8,11 C8,9.8954305 8.8954305,9 10,9 C11.1045695,9 12,9.8954305 12,11 C12,12.1045695 11.1045695,13 10,13 Z M4.5,4 L19.5,4 C19.7761424,4 20,4.22385763 20,4.5 C20,4.77614237 19.7761424,5 19.5,5 L4.5,5 C4.22385763,5 4,4.77614237 4,4.5 C4,4.22385763 4.22385763,4 4.5,4 Z M6.5,2 L17.5,2 C17.7761424,2 18,2.22385763 18,2.5 C18,2.77614237 17.7761424,3 17.5,3 L6.5,3 C6.22385763,3 6,2.77614237 6,2.5 C6,2.22385763 6.22385763,2 6.5,2 Z"/></g></svg>