<svg fill="none" height="24" viewBox="0 0 24 24" width="24" xmlns="http://www.w3.org/2000/svg"><g fill="#222f3e"><path d="m12 2c1.315 0 2.57.256 3.72.718l-.189.082a2.288 2.288 0 0 0 -1.423 1.482 8 8 0 1 0 5.607 5.607 2.305 2.305 0 0 0 1.328-1.081l.039-.069.032-.072.025-.053.034-.071.027-.074c.024-.066.051-.13.081-.192a9.968 9.968 0 0 1 .719 3.723c0 5.523-4.477 10-10 10s-10-4.477-10-10 4.477-10 10-10z"/><path d="m12.08 11a1 1 0 0 1 1 1v.072a1 1 0 0 1 -1 1h-.08a1 1 0 0 1 -1-1v-.072a1 1 0 0 1 1-1z"/><path d="m12 6.5a5.5 5.5 0 1 1 0 11 5.5 5.5 0 0 1 0-11zm0 2a3.5 3.5 0 1 0 0 7 3.5 3.5 0 0 0 0-7z" fill-rule="evenodd"/><path d="m18.676 2.226a.345.345 0 0 1 .648 0 4.147 4.147 0 0 0 2.45 2.45.345.345 0 0 1 0 .648l-.21.084a4.147 4.147 0 0 0 -2.24 2.366l-.024.053c-.13.23-.47.23-.6 0l-.024-.053a4.146 4.146 0 0 0 -2.24-2.366l-.21-.084a.336.336 0 0 1 -.224-.31.357.357 0 0 1 .064-.22l.007-.008a.334.334 0 0 1 .08-.072l.014-.01a.363.363 0 0 1 .059-.028l.117-.047a5.16 5.16 0 0 0 .202-.089l.086-.041a4.163 4.163 0 0 0 2.045-2.273z"/></g></svg>