<svg fill="none" height="24" viewBox="0 0 24 24" width="24" xmlns="http://www.w3.org/2000/svg"><g fill="#222f3e"><path d="m14.848 4.147c-1.133 0-2.216.47-3.013 1.3l-5.36 5.591a.802.802 0 0 0 -.222.554v4.513l7.922-8.26.677.73.678.727-4.408 4.597h4.628l2.11-2.207.001-.002a4.455 4.455 0 0 0 1.019-1.712l1.828.664a6.518 6.518 0 0 1 -1.491 2.503v.001l-5.35 5.599a2.7 2.7 0 0 1 -.878.613 2.598 2.598 0 0 1 -1.032.214h-5.8c-.143 0-.285-.02-.423-.053l-2.378 2.48-1.356-1.455 2.368-2.472a2.028 2.028 0 0 1 -.047-.429v-6.05c0-.757.289-1.48.797-2.011l5.36-5.59a6.054 6.054 0 0 1 4.37-1.89v2.046zm-7.203 13.38h4.311a.76.76 0 0 0 .553-.238l1.285-1.344h-4.632z" fill-rule="evenodd"/><path d="m18.79 2.227a.329.329 0 0 1 .625 0c.406 1.145 1.27 2.047 2.367 2.47.29.112.29.542 0 .654l-.203.084a4.112 4.112 0 0 0 -2.164 2.386l-.023.054a.328.328 0 0 1 -.58 0l-.023-.054a4.113 4.113 0 0 0 -2.165-2.386l-.202-.084c-.29-.112-.29-.542 0-.654 1.096-.423 1.961-1.325 2.367-2.47z"/></g></svg>