<?xml version="1.0" encoding="UTF-8"?>
<svg width="24px" height="24px" viewBox="0 0 24 24" version="1.1" xmlns="http://www.w3.org/2000/svg" xmlns:xlink="http://www.w3.org/1999/xlink">
    <!-- Generator: Sketch 51.2 (57519) - http://www.bohemiancoding.com/sketch -->
    <title>icon-indent</title>
    <desc>Created with Sketch.</desc>
    <defs></defs>
    <g stroke="none" stroke-width="1" fill="none" fill-rule="evenodd">
        <path d="M7,5 L19,5 C19.5522847,5 20,5.44771525 20,6 L20,6 C20,6.55228475 19.5522847,7 19,7 L7,7 C6.44771525,7 6,6.55228475 6,6 L6,6 C6,5.44771525 6.44771525,5 7,5 Z M12,9 L19,9 C19.5522847,9 20,9.44771525 20,10 L20,10 C20,10.5522847 19.5522847,11 19,11 L12,11 C11.4477153,11 11,10.5522847 11,10 L11,10 C11,9.44771525 11.4477153,9 12,9 Z M12,13 L19,13 C19.5522847,13 20,13.4477153 20,14 L20,14 C20,14.5522847 19.5522847,15 19,15 L12,15 C11.4477153,15 11,14.5522847 11,14 L11,14 C11,13.4477153 11.4477153,13 12,13 Z M7,17 L19,17 C19.5522847,17 20,17.4477153 20,18 C20,18.5522847 19.5522847,19 19,19 L7,19 C6.44771525,19 6,18.5522847 6,18 C6,17.4477153 6.44771525,17 7,17 Z M4.44540608,13.1679497 L6.19733064,12 L4.44540608,10.8320503 C3.98587739,10.5256978 3.86170352,9.90482849 4.16805598,9.4452998 C4.47440844,8.98577112 5.09527778,8.86159725 5.55480647,9.16794971 L8.55480647,11.1679497 C9.14853954,11.5637718 9.14853954,12.4362282 8.55480647,12.8320503 L5.55480647,14.8320503 C5.09527778,15.1384028 4.47440844,15.0142289 4.16805598,14.5547002 C3.86170352,14.0951715 3.98587739,13.4743022 4.44540608,13.1679497 Z" fill="#000000"></path>
    </g>
</svg>