<svg xmlns="http://www.w3.org/2000/svg" width="24" height="24" viewBox="0 0 24 24"><g id="insert-time" fill="none" fill-rule="evenodd"><path id="Oval" fill="#000" fill-rule="nonzero" d="M12,19 C15.8659932,19 19,15.8659932 19,12 C19,8.13400675 15.8659932,5 12,5 C8.13400675,5 5,8.13400675 5,12 C5,15.8659932 8.13400675,19 12,19 Z M12,21 C7.02943725,21 3,16.9705627 3,12 C3,7.02943725 7.02943725,3 12,3 C16.9705627,3 21,7.02943725 21,12 C21,16.9705627 16.9705627,21 12,21 Z"/><path id="Shape" fill="#000" fill-rule="nonzero" d="M16,12 L13,12 L13,7 C13,6.44771525 12.5522847,6 12,6 L12,6 C11.4477153,6 11,6.44771525 11,7 L11,14 L16,14 C16.5522847,14 17,13.5522847 17,13 L17,13 C17,12.4477153 16.5522847,12 16,12 Z"/></g></svg>