<svg xmlns="http://www.w3.org/2000/svg" width="24" height="24" viewBox="0 0 24 24">
  <path d="M12,3 C16.9705627,3 21,7.02943725 21,12 C21,16.9705627 16.9705627,21 12,21 C7.02943725,21 3,16.9705627 3,12 C3,7.02943725 7.02943725,3 12,3 Z M16.3256633,16.2960671 L16.3148752,16.3197349 C15.8199864,17.3526933 15.1304379,18.2992547 14.2486303,19.1565497 C15.5206562,18.7577647 16.6464432,18.02896 17.5262096,17.0706658 L17.5229874,17.0677163 L17.3146097,16.9022484 C17.0123899,16.673578 16.6828422,16.4714349 16.3256633,16.2960671 Z M7.67610581,16.2985131 L7.61676456,16.3268792 C7.20508697,16.5361951 6.83206512,16.7823003 6.497198,17.0647746 L6.497198,17.0647746 L6.48124702,17.0787761 C7.35806816,18.0310674 8.47821642,18.7558411 9.74305931,19.1544646 C8.85894825,18.2921803 8.16934806,17.3391609 7.67610581,16.2985131 Z M11.2506696,15.461593 C10.4616368,15.5017344 9.74155711,15.6072655 9.08929047,15.7772298 C9.58706858,16.7804073 10.3055135,17.6876003 11.2493426,18.5032107 Z M12.7507296,15.4621604 L12.7521183,18.4944809 C13.6947334,17.6810035 14.4127906,16.7770164 14.9098676,15.7782429 C14.2572681,15.6085164 13.5377225,15.5028095 12.7507296,15.4621604 Z M6.77572707,12.7510397 L4.5370798,12.750487 C4.6500066,13.8871241 5.01669713,14.9490991 5.57969217,15.8789526 L5.7583638,15.7335991 C6.18044788,15.4065622 6.64244884,15.1248182 7.1438863,14.8879642 C6.94733874,14.2082034 6.82456227,13.49534 6.77572707,12.7510397 Z M19.4629202,12.750487 L17.2293775,12.7505664 C17.1803258,13.4951999 17.0569275,14.2084066 16.8597382,14.8895223 C17.4550483,15.1677167 17.9965813,15.509907 18.4831361,15.9152778 L18.4257579,15.8699369 C18.9856694,14.9422369 19.3503582,13.8834523 19.4629202,12.750487 Z M15.7255735,12.75069 L12.75,12.75 L12.7507789,13.960427 C13.7278669,14.0060507 14.6272708,14.1420726 15.4475999,14.3696292 C15.5899592,13.8526444 15.6825432,13.3129085 15.7255735,12.75069 Z M11.25,12.75 L8.27947585,12.750945 C8.32223448,13.3125211 8.41416179,13.8516067 8.55563718,14.368667 C9.37402833,14.1404096 10.2727016,14.0049176 11.2502825,13.9599296 L11.25,12.75 Z M5.79579606,7.78670236 L5.76506885,7.83018091 C5.09701984,8.82710484 4.66173188,9.99314258 4.5369799,11.2505192 L6.77619982,11.2504124 C6.83635008,10.3426587 7.00652263,9.48156321 7.28573067,8.66833348 C6.74461645,8.42595544 6.2475992,8.13198308 5.79579606,7.78670236 Z M8.70315574,9.16362291 L8.64912282,9.32350902 C8.45475155,9.93388001 8.33195027,10.5757791 8.28006291,11.2500092 L11.25,11.25 L11.2502825,9.53156751 C10.3310826,9.48926614 9.48164715,9.36694786 8.70315574,9.16362291 Z M15.2994675,9.15962033 L15.1949345,9.18843913 C14.4435786,9.37614932 13.628524,9.49008505 12.7507789,9.53107007 L12.75,11.25 L15.7249523,11.2498726 C15.6680853,10.5151764 15.5265459,9.81877027 15.2994675,9.15962033 Z M18.20918,7.79200613 L18.0138533,7.93569323 C17.6136342,8.21718321 17.1810698,8.46145479 16.7165129,8.66879624 C16.9975878,9.48206595 17.1684541,10.3429291 17.2288674,11.250363 L19.4630201,11.2505192 C19.3366723,9.97705821 18.8917929,8.79728787 18.20918,7.79200613 Z M9.35900758,7.73329008 L9.33579292,7.77468769 C9.92172633,7.90946858 10.5597634,7.99475475 11.2506696,8.02990404 L11.2491148,5.50151914 C10.4636607,6.18137128 9.83430701,6.92446025 9.35900758,7.73329008 Z M12.751721,5.50974171 L12.7507296,8.02933671 C13.4397864,7.99374605 14.077138,7.90828224 14.6635275,7.77355224 C14.1851011,6.95174472 13.5486544,6.19849944 12.751721,5.50974171 Z M9.75011358,4.84310045 L9.67330891,4.86789569 C8.56681106,5.22862799 7.57339464,5.8396892 6.75994014,6.63419885 C7.09976082,6.88825872 7.47508021,7.1080276 7.88611151,7.29381993 C8.36018391,6.40964074 8.9820527,5.59232489 9.75011358,4.84310045 Z M14.2389571,4.83989277 L14.3198542,4.91855908 C15.0556481,5.64739501 15.6543146,6.43965039 16.1144104,7.29360355 C16.5257762,7.1101714 16.9027741,6.89205164 17.245535,6.64070212 C16.4092925,5.82125574 15.3829936,5.19726001 14.2389571,4.83989277 Z"/>
</svg>
