<svg xmlns="http://www.w3.org/2000/svg" width="24" height="24" viewBox="0 0 24 24">
  <path d="M21 5C21.5522847 5 22 5.44771525 22 6 22 6.51283584 21.6139598 6.93550716 21.1166211 6.99327227L21 7 13 7C12.4477153 7 12 6.55228475 12 6 12 5.48716416 12.3860402 5.06449284 12.8833789 5.00672773L13 5 21 5zM21 9C21.5522847 9 22 9.44771525 22 10 22 10.5128358 21.6139598 10.9355072 21.1166211 10.9932723L21 11 13 11C12.4477153 11 12 10.5522847 12 10 12 9.48716416 12.3860402 9.06449284 12.8833789 9.00672773L13 9 21 9zM21 13C21.5522847 13 22 13.4477153 22 14 22 14.5128358 21.6139598 14.9355072 21.1166211 14.9932723L21 15 13 15C12.4477153 15 12 14.5522847 12 14 12 13.4871642 12.3860402 13.0644928 12.8833789 13.0067277L13 13 21 13zM21 17C21.5522847 17 22 17.4477153 22 18 22 18.5128358 21.6139598 18.9355072 21.1166211 18.9932723L21 19 13 19C12.4477153 19 12 18.5522847 12 18 12 17.4871642 12.3860402 17.0644928 12.8833789 17.0067277L13 17 21 17zM7 3.58578644L10.7071068 7.29289322C11.0976311 7.68341751 11.0976311 8.31658249 10.7071068 8.70710678 10.3466228 9.06759074 9.77939176 9.09532028 9.38710056 8.79029539L9.29289322 8.70710678 8 7.41478644 8 16.5847864 9.29289322 15.2928932C9.65337718 14.9324093 10.2206082 14.9046797 10.6128994 15.2097046L10.7071068 15.2928932C11.0675907 15.6533772 11.0953203 16.2206082 10.7902954 16.6128994L10.7071068 16.7071068 7 20.4142136 3.29289322 16.7071068C2.90236893 16.3165825 2.90236893 15.6834175 3.29289322 15.2928932 3.65337718 14.9324093 4.22060824 14.9046797 4.61289944 15.2097046L4.70710678 15.2928932 6 16.5847864 6 7.41478644 4.70710678 8.70710678C4.34662282 9.06759074 3.77939176 9.09532028 3.38710056 8.79029539L3.29289322 8.70710678C2.93240926 8.34662282 2.90467972 7.77939176 3.20970461 7.38710056L3.29289322 7.29289322 7 3.58578644z"/>
</svg>
