<svg xmlns="http://www.w3.org/2000/svg" width="48" height="48" viewBox="0 0 48 48"><g id="list-num-lower-greek-rtl" fill="none" fill-rule="evenodd" stroke="none" stroke-width="1"><rect id="Rectangle-2" width="22" height="4" x="8" y="12" fill="#000" opacity=".2"/><rect id="Rectangle-2-Copy" width="22" height="4" x="8" y="22" fill="#000" opacity=".2"/><rect id="Rectangle-2-Copy-2" width="22" height="4" x="8" y="32" fill="#000" opacity=".2"/><path id="Path-4" fill="#000" d="M37.3637695,16.0705566 C36.1933594,16.0705566 35.4794922,15.1865234 35.4794922,13.704834 C35.4794922,12.2480469 36.1975098,11.3474121 37.3347168,11.3474121 C37.9697266,11.3474121 38.4304199,11.6628418 38.654541,12.2563477 L38.729248,12.2563477 L38.729248,11.4221191 L39.9038086,11.4221191 L39.9038086,14.576416 C39.9038086,14.9665527 40.0324707,15.0869141 40.2814941,15.0869141 C40.3520508,15.0869141 40.439209,15.0744629 40.4973145,15.0537109 L40.4973145,15.9709473 C40.3769531,16.0124512 40.1279297,16.0415039 39.907959,16.0415039 C39.3186035,16.0415039 38.9450684,15.8132324 38.8164062,15.3193359 L38.7790527,15.2114258 L38.7043457,15.2114258 C38.505127,15.7426758 37.9946289,16.0705566 37.3637695,16.0705566 Z M37.666748,15.0620117 C38.3017578,15.0620117 38.7084961,14.5349121 38.7084961,13.7131348 C38.7084961,12.8996582 38.314209,12.3601074 37.7124023,12.3601074 C37.1105957,12.3601074 36.720459,12.8747559 36.720459,13.7089844 C36.720459,14.5432129 37.0939941,15.0620117 37.666748,15.0620117 Z"/><path id="Path" fill="#000" d="M33.2653809,16.1120605 C32.8212891,16.1120605 32.5307617,15.809082 32.5307617,15.3898926 C32.5307617,14.9707031 32.8212891,14.671875 33.2653809,14.671875 C33.713623,14.671875 34,14.9707031 34,15.3898926 C34,15.809082 33.713623,16.1120605 33.2653809,16.1120605 Z"/><path id="Path-2" fill="#000" d="M36.0646973,21.8537598 C36.0646973,20.3637695 36.7910156,19.5751953 38.123291,19.5751953 C39.302002,19.5751953 40.0739746,20.1977539 40.0739746,21.21875 C40.0739746,21.7873535 39.7543945,22.2854004 39.2438965,22.5053711 L39.2438965,22.5800781 C40.0947266,22.7875977 40.5305176,23.3479004 40.5305176,24.2443848 C40.5305176,25.3525391 39.8083496,26.0705566 38.6918945,26.0705566 C38.0610352,26.0705566 37.5546875,25.7717285 37.347168,25.298584 L37.2724609,25.298584 L37.2724609,27.519043 L36.0646973,27.519043 L36.0646973,21.8537598 Z M37.782959,23.1071777 L37.782959,22.185791 L38.0651855,22.185791 C38.6462402,22.185791 38.9699707,21.8869629 38.9699707,21.3847656 C38.9699707,20.8742676 38.6503906,20.5629883 38.1398926,20.5629883 C37.5629883,20.5629883 37.2683105,20.9448242 37.2683105,21.6794434 L37.2683105,23.7753906 C37.2683105,24.6262207 37.6875,25.0620117 38.3640137,25.0620117 C38.9160156,25.0620117 39.2937012,24.6801758 39.2937012,24.119873 C39.2937012,23.4599609 38.8662109,23.1071777 38.0817871,23.1071777 L37.782959,23.1071777 Z"/><path id="Path" fill="#000" d="M33.2653809,26.1120605 C32.8212891,26.1120605 32.5307617,25.809082 32.5307617,25.3898926 C32.5307617,24.9707031 32.8212891,24.671875 33.2653809,24.671875 C33.713623,24.671875 34,24.9707031 34,25.3898926 C34,25.809082 33.713623,26.1120605 33.2653809,26.1120605 Z"/><path id="Path-3" fill="#000" d="M37.0981445,34.6262207 L34.840332,29.8574219 L36.1601562,29.8574219 L37.8535156,33.3935547 L39.5551758,29.8574219 L40.7380371,29.8574219 L38.5175781,34.5390625 L38.5673828,34.6345215 C38.9658223,35.4397013 39.1650391,36.038735 39.1650391,36.4316406 C39.1650391,36.8411479 39.0432955,37.1614165 38.7998047,37.3924561 C38.5563139,37.6234956 38.2215191,37.7390137 37.7954102,37.7390137 C36.9182899,37.7390137 36.4797363,37.3253622 36.4797363,36.4980469 C36.4797363,36.022133 36.6637351,35.4397007 37.0317383,34.7507324 L37.0981445,34.6262207 Z M37.7788086,35.5102539 C37.527017,35.9197612 37.401123,36.2338042 37.401123,36.4523926 C37.401123,36.7650569 37.5284004,36.9213867 37.782959,36.9213867 C38.0568861,36.9213867 38.1938477,36.7733576 38.1938477,36.4772949 C38.1938477,36.2614735 38.0555027,35.9391297 37.7788086,35.5102539 Z"/><path id="Path" fill="#000" d="M33.2653809,36.1120605 C32.8212891,36.1120605 32.5307617,35.809082 32.5307617,35.3898926 C32.5307617,34.9707031 32.8212891,34.671875 33.2653809,34.671875 C33.713623,34.671875 34,34.9707031 34,35.3898926 C34,35.809082 33.713623,36.1120605 33.2653809,36.1120605 Z"/></g></svg>