<?xml version="1.0" encoding="UTF-8"?>
<svg width="48px" height="48px" viewBox="0 0 48 48" version="1.1" xmlns="http://www.w3.org/2000/svg" xmlns:xlink="http://www.w3.org/1999/xlink">
    <!-- Generator: Sketch 51.2 (57519) - http://www.bohemiancoding.com/sketch -->
    <title>icon-list-num-default</title>
    <desc>Created with Sketch.</desc>
    <defs></defs>
    <g stroke="none" stroke-width="1" fill="none" fill-rule="evenodd">
        <rect fill="#000000" opacity="0.2" x="18" y="12" width="22" height="4"></rect>
        <rect fill="#000000" opacity="0.2" x="18" y="22" width="22" height="4"></rect>
        <rect fill="#000000" opacity="0.2" x="18" y="32" width="22" height="4"></rect>
        <path d="M10.0544434,17 L10.0544434,12.2312012 L9.97973633,12.2312012 L8.51049805,13.2438965 L8.51049805,12.0776367 L10.0585938,11.0109863 L11.3078613,11.0109863 L11.3078613,17 L10.0544434,17 Z M13.6113281,17.1120605 C13.1672363,17.1120605 12.876709,16.809082 12.876709,16.3898926 C12.876709,15.9707031 13.1672363,15.671875 13.6113281,15.671875 C14.0595703,15.671875 14.3459473,15.9707031 14.3459473,16.3898926 C14.3459473,16.809082 14.0595703,17.1120605 13.6113281,17.1120605 Z M8.53540039,22.8039551 C8.53540039,21.6459961 9.42358398,20.8574219 10.7185059,20.8574219 C11.9677734,20.8574219 12.8393555,21.5754395 12.8393555,22.6047363 C12.8393555,23.2563477 12.4865723,23.8166504 11.4489746,24.7919922 L10.3034668,25.8835449 L10.3034668,25.958252 L12.9265137,25.958252 L12.9265137,27 L8.60595703,27 L8.60595703,26.1242676 L10.560791,24.2109375 C11.4033203,23.3891602 11.6149902,23.0778809 11.6149902,22.6877441 C11.6149902,22.2062988 11.2248535,21.8659668 10.677002,21.8659668 C10.0959473,21.8659668 9.69750977,22.2478027 9.69750977,22.7998047 L9.69750977,22.824707 L8.53540039,22.824707 L8.53540039,22.8039551 Z M14.885498,27.1120605 C14.4414062,27.1120605 14.1508789,26.809082 14.1508789,26.3898926 C14.1508789,25.9707031 14.4414062,25.671875 14.885498,25.671875 C15.3337402,25.671875 15.6201172,25.9707031 15.6201172,26.3898926 C15.6201172,26.809082 15.3337402,27.1120605 14.885498,27.1120605 Z M10.0668945,34.4018555 L10.0668945,33.4680176 L10.7973633,33.4680176 C11.3659668,33.4680176 11.7519531,33.1359863 11.7519531,32.6462402 C11.7519531,32.1647949 11.378418,31.857666 10.7932129,31.857666 C10.2121582,31.857666 9.82617188,32.1855469 9.79296875,32.7043457 L8.63500977,32.7043457 C8.67651367,31.5712891 9.51904297,30.8574219 10.826416,30.8574219 C12.0549316,30.8574219 12.9389648,31.5297852 12.9389648,32.4719238 C12.9389648,33.1650391 12.5031738,33.7045898 11.8349609,33.8415527 L11.8349609,33.9162598 C12.6567383,34.0075684 13.1713867,34.5554199 13.1713867,35.3439941 C13.1713867,36.394043 12.1835938,37.1535645 10.8181152,37.1535645 C9.48168945,37.1535645 8.5769043,36.4147949 8.52294922,35.2858887 L9.72241211,35.2858887 C9.75976562,35.7922363 10.1872559,36.1118164 10.8305664,36.1118164 C11.4572754,36.1118164 11.8930664,35.7590332 11.8930664,35.2485352 C11.8930664,34.7255859 11.4821777,34.4018555 10.8098145,34.4018555 L10.0668945,34.4018555 Z M14.831543,37.1120605 C14.3874512,37.1120605 14.0969238,36.809082 14.0969238,36.3898926 C14.0969238,35.9707031 14.3874512,35.671875 14.831543,35.671875 C15.2797852,35.671875 15.5661621,35.9707031 15.5661621,36.3898926 C15.5661621,36.809082 15.2797852,37.1120605 14.831543,37.1120605 Z" fill="#000000"></path>
    </g>
</svg>