<svg xmlns="http://www.w3.org/2000/svg" width="48" height="48" viewBox="0 0 48 48"><g id="list-num-lower-alpha-rtl" fill="none" fill-rule="evenodd" stroke="none" stroke-width="1"><rect id="Rectangle-2" width="22" height="4" x="8" y="12" fill="#000" opacity=".2"/><rect id="Rectangle-2-Copy" width="22" height="4" x="8" y="22" fill="#000" opacity=".2"/><rect id="Rectangle-2-Copy-2" width="22" height="4" x="8" y="32" fill="#000" opacity=".2"/><path id="Path-2" fill="#000" d="M36.498291,16.0705566 C35.6184082,16.0705566 35,15.5310059 35,14.692627 C35,13.8625488 35.6350098,13.3811035 36.7722168,13.3146973 L37.8803711,13.248291 L37.8803711,12.8747559 C37.8803711,12.4929199 37.6064453,12.2770996 37.1083984,12.2770996 C36.6726074,12.2770996 36.3820801,12.4265137 36.2824707,12.7004395 L35.170166,12.7004395 C35.2490234,11.8537598 36.0251465,11.3225098 37.1748047,11.3225098 C38.3867188,11.3225098 39.0715332,11.8952637 39.0715332,12.8747559 L39.0715332,16 L37.901123,16 L37.901123,15.4023438 L37.826416,15.4023438 C37.5898438,15.8215332 37.0917969,16.0705566 36.498291,16.0705566 Z M36.8967285,15.1616211 C37.4570312,15.1616211 37.8803711,14.8046875 37.8803711,14.3398438 L37.8803711,14.0036621 L36.954834,14.0617676 C36.4360352,14.0991211 36.1828613,14.2858887 36.1828613,14.6137695 C36.1828613,14.9541016 36.4775391,15.1616211 36.8967285,15.1616211 Z"/><path id="Path" fill="#000" d="M33.130127,16.1120605 C32.6860352,16.1120605 32.3955078,15.809082 32.3955078,15.3898926 C32.3955078,14.9707031 32.6860352,14.671875 33.130127,14.671875 C33.5783691,14.671875 33.8647461,14.9707031 33.8647461,15.3898926 C33.8647461,15.809082 33.5783691,16.1120605 33.130127,16.1120605 Z"/><path id="Path-3" fill="#000" d="M37.65625,26.0705566 C37.0087891,26.0705566 36.4899902,25.7800293 36.2451172,25.2819824 L36.1704102,25.2819824 L36.1704102,26 L35,26 L35,19.6748047 L36.2077637,19.6748047 L36.2077637,22.1525879 L36.2824707,22.1525879 C36.5148926,21.6503906 37.029541,21.3474121 37.65625,21.3474121 C38.814209,21.3474121 39.5114746,22.2314453 39.5114746,23.7089844 C39.5114746,25.1782227 38.8059082,26.0705566 37.65625,26.0705566 Z M37.2370605,22.3601074 C36.6020508,22.3601074 36.1994629,22.8789062 36.1953125,23.7131348 C36.1994629,24.5432129 36.5979004,25.0620117 37.2370605,25.0620117 C37.8803711,25.0620117 38.2705078,24.5473633 38.2705078,23.7089844 C38.2705078,22.8747559 37.8762207,22.3601074 37.2370605,22.3601074 Z"/><path id="Path" fill="#000" d="M33.2421875 26.1120605C32.7980957 26.1120605 32.5075684 25.809082 32.5075684 25.3898926 32.5075684 24.9707031 32.7980957 24.671875 33.2421875 24.671875 33.6904297 24.671875 33.9768066 24.9707031 33.9768066 25.3898926 33.9768066 25.809082 33.6904297 26.1120605 33.2421875 26.1120605zM39.2749023 33.0366211L38.1459961 33.0366211C38.0629883 32.6008301 37.751709 32.3144531 37.2370605 32.3144531 36.5854492 32.3144531 36.2202148 32.8000488 36.2202148 33.7006836 36.2202148 34.6137695 36.5895996 35.107666 37.2370605 35.107666 37.730957 35.107666 38.0546875 34.8669434 38.1459961 34.4145508L39.2749023 34.4145508C39.175293 35.4396973 38.4282227 36.0996094 37.2370605 36.0996094 35.8093262 36.0996094 35 35.2363281 35 33.7006836 35 32.1816406 35.8051758 31.3225098 37.2370605 31.3225098 38.4489746 31.3225098 39.175293 31.994873 39.2749023 33.0366211zM33.088623 36.1120605C32.6445312 36.1120605 32.3540039 35.809082 32.3540039 35.3898926 32.3540039 34.9707031 32.6445312 34.671875 33.088623 34.671875 33.5368652 34.671875 33.8232422 34.9707031 33.8232422 35.3898926 33.8232422 35.809082 33.5368652 36.1120605 33.088623 36.1120605z"/></g></svg>