<svg xmlns="http://www.w3.org/2000/svg" width="48" height="48" viewBox="0 0 48 48"><g id="list-num-lower-roman-rtl" fill="none" fill-rule="evenodd" stroke="none" stroke-width="1"><rect id="Rectangle-2" width="22" height="4" x="8" y="12" fill="#000" opacity=".2"/><rect id="Rectangle-2-Copy" width="22" height="4" x="8" y="22" fill="#000" opacity=".2"/><rect id="Rectangle-2-Copy-2" width="22" height="4" x="8" y="32" fill="#000" opacity=".2"/><g id="Group" fill="#000" transform="matrix(-1 0 0 1 42 9)"><path id=".-.-." d="M9.14550781,7 L9.14550781,5.76513672 L10.3803711,5.76513672 L10.3803711,7 L9.14550781,7 Z M9.14550781,17 L9.14550781,15.7651367 L10.3803711,15.7651367 L10.3803711,17 L9.14550781,17 Z M9.14550781,27 L9.14550781,25.7651367 L10.3803711,25.7651367 L10.3803711,27 L9.14550781,27 Z"/><rect id="Rectangle" width="1.5" height="5" x="6" y="12" fill-rule="nonzero"/><rect id="Rectangle-Copy-6" width="1.5" height="5" x="6" y="22" fill-rule="nonzero"/><rect id="Rectangle-Copy-2" width="1.5" height="5" x="3" y="12" fill-rule="nonzero"/><rect id="Rectangle-Copy-7" width="1.5" height="5" x="3" y="22" fill-rule="nonzero"/><rect id="Rectangle-Copy-10" width="1.5" height="5" x="0" y="22" fill-rule="nonzero"/><rect id="Rectangle-Copy-4" width="1.5" height="5" x="6" y="2" fill-rule="nonzero"/><rect id="Rectangle-Copy" width="1.5" height="1" x="6" y="10" fill-rule="nonzero"/><rect id="Rectangle-Copy-8" width="1.5" height="1" x="6" y="20" fill-rule="nonzero"/><rect id="Rectangle-Copy-3" width="1.5" height="1" x="3" y="10" fill-rule="nonzero"/><rect id="Rectangle-Copy-9" width="1.5" height="1" x="3" y="20" fill-rule="nonzero"/><rect id="Rectangle-Copy-11" width="1.5" height="1" x="0" y="20" fill-rule="nonzero"/><rect id="Rectangle-Copy-5" width="1.5" height="1" x="6" y="0" fill-rule="nonzero"/></g></g></svg>