<?xml version="1.0" encoding="UTF-8"?>
<svg width="48px" height="48px" viewBox="0 0 48 48" version="1.1" xmlns="http://www.w3.org/2000/svg" xmlns:xlink="http://www.w3.org/1999/xlink">
    <!-- Generator: Sketch 51.2 (57519) - http://www.bohemiancoding.com/sketch -->
    <title>icon-list-num-upper-alpha</title>
    <desc>Created with Sketch.</desc>
    <defs></defs>
    <g stroke="none" stroke-width="1" fill="none" fill-rule="evenodd">
        <rect fill="#000000" opacity="0.2" x="18" y="12" width="22" height="4"></rect>
        <rect fill="#000000" opacity="0.2" x="18" y="22" width="22" height="4"></rect>
        <rect fill="#000000" opacity="0.2" x="18" y="32" width="22" height="4"></rect>
        <path d="M12.5737305,17 L12.1213379,15.5722656 L10.0170898,15.5722656 L9.55639648,17 L8.29882812,17 L10.3781738,11.0109863 L11.8515625,11.0109863 L13.9309082,17 L12.5737305,17 Z M11.0380859,12.2561035 L10.2868652,14.6052246 L11.8557129,14.6052246 L11.112793,12.2561035 L11.0380859,12.2561035 Z M15.703125,17.1120605 C15.2590332,17.1120605 14.9685059,16.809082 14.9685059,16.3898926 C14.9685059,15.9707031 15.2590332,15.671875 15.703125,15.671875 C16.1513672,15.671875 16.4377441,15.9707031 16.4377441,16.3898926 C16.4377441,16.809082 16.1513672,17.1120605 15.703125,17.1120605 Z M11.4157715,27 L8.72631836,27 L8.72631836,21.0109863 L11.3452148,21.0109863 C12.5073242,21.0109863 13.2004395,21.5795898 13.2004395,22.505127 C13.2004395,23.1401367 12.7314453,23.6921387 12.1171875,23.7834473 L12.1171875,23.8581543 C12.9099121,23.9162598 13.4868164,24.513916 13.4868164,25.2858887 C13.4868164,26.3359375 12.6940918,27 11.4157715,27 Z M9.97973633,21.9697266 L9.97973633,23.4929199 L10.921875,23.4929199 C11.5983887,23.4929199 11.9677734,23.2148438 11.9677734,22.7333984 C11.9677734,22.2561035 11.623291,21.9697266 11.0256348,21.9697266 L9.97973633,21.9697266 Z M9.97973633,26.0412598 L11.0961914,26.0412598 C11.8183594,26.0412598 12.2084961,25.7382812 12.2084961,25.1779785 C12.2084961,24.630127 11.8059082,24.3395996 11.0671387,24.3395996 L9.97973633,24.3395996 L9.97973633,26.0412598 Z M15.3710938,27.1120605 C14.927002,27.1120605 14.6364746,26.809082 14.6364746,26.3898926 C14.6364746,25.9707031 14.927002,25.671875 15.3710938,25.671875 C15.8193359,25.671875 16.1057129,25.9707031 16.1057129,26.3898926 C16.1057129,26.809082 15.8193359,27.1120605 15.3710938,27.1120605 Z M11.2705078,37.1535645 C9.53564453,37.1535645 8.46069336,35.9541016 8.46069336,34.003418 C8.46069336,32.0568848 9.53149414,30.8574219 11.2705078,30.8574219 C12.6899414,30.8574219 13.7773438,31.7995605 13.8686523,33.1027832 L12.6484375,33.1027832 C12.5280762,32.4138184 11.984375,31.9614258 11.2705078,31.9614258 C10.3283691,31.9614258 9.74316406,32.7416992 9.74316406,34.003418 C9.74316406,35.2651367 10.3283691,36.0495605 11.2746582,36.0495605 C11.9926758,36.0495605 12.5322266,35.6262207 12.6525879,34.9663086 L13.8728027,34.9663086 C13.769043,36.2612305 12.7148438,37.1535645 11.2705078,37.1535645 Z M15.777832,37.1120605 C15.3337402,37.1120605 15.0432129,36.809082 15.0432129,36.3898926 C15.0432129,35.9707031 15.3337402,35.671875 15.777832,35.671875 C16.2260742,35.671875 16.5124512,35.9707031 16.5124512,36.3898926 C16.5124512,36.809082 16.2260742,37.1120605 15.777832,37.1120605 Z" fill="#000000"></path>
    </g>
</svg>