<svg xmlns="http://www.w3.org/2000/svg" width="48" height="48" viewBox="0 0 48 48"><g id="list-num-upper-alpha-rtl" fill="none" fill-rule="evenodd" stroke="none" stroke-width="1"><rect id="Rectangle-2" width="22" height="4" x="8" y="12" fill="#000" opacity=".2"/><rect id="Rectangle-2-Copy" width="22" height="4" x="8" y="22" fill="#000" opacity=".2"/><rect id="Rectangle-2-Copy-2" width="22" height="4" x="8" y="32" fill="#000" opacity=".2"/><path id="A.-B.-C." fill="#000" d="M39.2749023,17 L38.8225098,15.5722656 L36.7182617,15.5722656 L36.2575684,17 L35,17 L37.0793457,11.0109863 L38.5527344,11.0109863 L40.6320801,17 L39.2749023,17 Z M37.7392578,12.2561035 L36.9880371,14.6052246 L38.5568848,14.6052246 L37.8139648,12.2561035 L37.7392578,12.2561035 Z M33.4042969,17.1120605 C32.9602051,17.1120605 32.6696777,16.809082 32.6696777,16.3898926 C32.6696777,15.9707031 32.9602051,15.671875 33.4042969,15.671875 C33.8525391,15.671875 34.138916,15.9707031 34.138916,16.3898926 C34.138916,16.809082 33.8525391,17.1120605 33.4042969,17.1120605 Z M38.1169434,27 L35.4274902,27 L35.4274902,21.0109863 L38.0463867,21.0109863 C39.2084961,21.0109863 39.9016113,21.5795898 39.9016113,22.505127 C39.9016113,23.1401367 39.4326172,23.6921387 38.8183594,23.7834473 L38.8183594,23.8581543 C39.611084,23.9162598 40.1879883,24.513916 40.1879883,25.2858887 C40.1879883,26.3359375 39.3952637,27 38.1169434,27 Z M36.6809082,21.9697266 L36.6809082,23.4929199 L37.6230469,23.4929199 C38.2995605,23.4929199 38.6689453,23.2148438 38.6689453,22.7333984 C38.6689453,22.2561035 38.3244629,21.9697266 37.7268066,21.9697266 L36.6809082,21.9697266 Z M36.6809082,26.0412598 L37.7973633,26.0412598 C38.5195312,26.0412598 38.909668,25.7382812 38.909668,25.1779785 C38.909668,24.630127 38.5070801,24.3395996 37.7683105,24.3395996 L36.6809082,24.3395996 L36.6809082,26.0412598 Z M33.0722656,27.1120605 C32.6281738,27.1120605 32.3376465,26.809082 32.3376465,26.3898926 C32.3376465,25.9707031 32.6281738,25.671875 33.0722656,25.671875 C33.5205078,25.671875 33.8068848,25.9707031 33.8068848,26.3898926 C33.8068848,26.809082 33.5205078,27.1120605 33.0722656,27.1120605 Z M37.9716797,37.1535645 C36.2368164,37.1535645 35.1618652,35.9541016 35.1618652,34.003418 C35.1618652,32.0568848 36.232666,30.8574219 37.9716797,30.8574219 C39.3911133,30.8574219 40.4785156,31.7995605 40.5698242,33.1027832 L39.3496094,33.1027832 C39.229248,32.4138184 38.6855469,31.9614258 37.9716797,31.9614258 C37.029541,31.9614258 36.4443359,32.7416992 36.4443359,34.003418 C36.4443359,35.2651367 37.029541,36.0495605 37.9758301,36.0495605 C38.6938477,36.0495605 39.2333984,35.6262207 39.3537598,34.9663086 L40.5739746,34.9663086 C40.4702148,36.2612305 39.4160156,37.1535645 37.9716797,37.1535645 Z M33.4790039,37.1120605 C33.0349121,37.1120605 32.7443848,36.809082 32.7443848,36.3898926 C32.7443848,35.9707031 33.0349121,35.671875 33.4790039,35.671875 C33.9272461,35.671875 34.213623,35.9707031 34.213623,36.3898926 C34.213623,36.809082 33.9272461,37.1120605 33.4790039,37.1120605 Z"/></g></svg>