<?xml version="1.0" encoding="UTF-8"?>
<svg width="48px" height="48px" viewBox="0 0 48 48" version="1.1" xmlns="http://www.w3.org/2000/svg" xmlns:xlink="http://www.w3.org/1999/xlink">
    <!-- Generator: Sketch 51.2 (57519) - http://www.bohemiancoding.com/sketch -->
    <title>icon-list-num-lower-alpha</title>
    <desc>Created with Sketch.</desc>
    <defs></defs>
    <g stroke="none" stroke-width="1" fill="none" fill-rule="evenodd">
        <rect fill="#000000" opacity="0.2" x="18" y="12" width="22" height="4"></rect>
        <rect fill="#000000" opacity="0.2" x="18" y="22" width="22" height="4"></rect>
        <rect fill="#000000" opacity="0.2" x="18" y="32" width="22" height="4"></rect>
        <path d="M10.2578125,15.1616211 C10.8181152,15.1616211 11.2414551,14.8046875 11.2414551,14.3398438 L11.2414551,14.0036621 L10.315918,14.0617676 C9.79711914,14.0991211 9.54394531,14.2858887 9.54394531,14.6137695 C9.54394531,14.9541016 9.83862305,15.1616211 10.2578125,15.1616211 Z M9.859375,16.0705566 C8.97949219,16.0705566 8.36108398,15.5310059 8.36108398,14.692627 C8.36108398,13.8625488 8.99609375,13.3811035 10.1333008,13.3146973 L11.2414551,13.248291 L11.2414551,12.8747559 C11.2414551,12.4929199 10.9675293,12.2770996 10.4694824,12.2770996 C10.0336914,12.2770996 9.74316406,12.4265137 9.64355469,12.7004395 L8.53125,12.7004395 C8.61010742,11.8537598 9.38623047,11.3225098 10.5358887,11.3225098 C11.7478027,11.3225098 12.4326172,11.8952637 12.4326172,12.8747559 L12.4326172,16 L11.262207,16 L11.262207,15.4023438 L11.1875,15.4023438 C10.9509277,15.8215332 10.4528809,16.0705566 9.859375,16.0705566 Z M14.4912109,16.1120605 C14.0471191,16.1120605 13.7565918,15.809082 13.7565918,15.3898926 C13.7565918,14.9707031 14.0471191,14.671875 14.4912109,14.671875 C14.9394531,14.671875 15.2258301,14.9707031 15.2258301,15.3898926 C15.2258301,15.809082 14.9394531,16.1120605 14.4912109,16.1120605 Z M11.3037109,26.0705566 C10.65625,26.0705566 10.1374512,25.7800293 9.89257812,25.2819824 L9.81787109,25.2819824 L9.81787109,26 L8.64746094,26 L8.64746094,19.6748047 L9.85522461,19.6748047 L9.85522461,22.1525879 L9.92993164,22.1525879 C10.1623535,21.6503906 10.677002,21.3474121 11.3037109,21.3474121 C12.4616699,21.3474121 13.1589355,22.2314453 13.1589355,23.7089844 C13.1589355,25.1782227 12.4533691,26.0705566 11.3037109,26.0705566 Z M10.8845215,22.3601074 C10.2495117,22.3601074 9.84692383,22.8789062 9.84277344,23.7131348 C9.84692383,24.5432129 10.2453613,25.0620117 10.8845215,25.0620117 C11.527832,25.0620117 11.9179688,24.5473633 11.9179688,23.7089844 C11.9179688,22.8747559 11.5236816,22.3601074 10.8845215,22.3601074 Z M14.8896484,26.1120605 C14.4455566,26.1120605 14.1550293,25.809082 14.1550293,25.3898926 C14.1550293,24.9707031 14.4455566,24.671875 14.8896484,24.671875 C15.3378906,24.671875 15.6242676,24.9707031 15.6242676,25.3898926 C15.6242676,25.809082 15.3378906,26.1120605 14.8896484,26.1120605 Z M12.6567383,33.0366211 L11.527832,33.0366211 C11.4448242,32.6008301 11.1335449,32.3144531 10.6188965,32.3144531 C9.96728516,32.3144531 9.60205078,32.8000488 9.60205078,33.7006836 C9.60205078,34.6137695 9.97143555,35.107666 10.6188965,35.107666 C11.112793,35.107666 11.4365234,34.8669434 11.527832,34.4145508 L12.6567383,34.4145508 C12.5571289,35.4396973 11.8100586,36.0996094 10.6188965,36.0996094 C9.19116211,36.0996094 8.38183594,35.2363281 8.38183594,33.7006836 C8.38183594,32.1816406 9.18701172,31.3225098 10.6188965,31.3225098 C11.8308105,31.3225098 12.5571289,31.994873 12.6567383,33.0366211 Z M14.470459,36.1120605 C14.0263672,36.1120605 13.7358398,35.809082 13.7358398,35.3898926 C13.7358398,34.9707031 14.0263672,34.671875 14.470459,34.671875 C14.9187012,34.671875 15.2050781,34.9707031 15.2050781,35.3898926 C15.2050781,35.809082 14.9187012,36.1120605 14.470459,36.1120605 Z" fill="#000000"></path>
    </g>
</svg>