<svg width="24" height="24" viewBox="0 0 24 24" fill="none" xmlns="http://www.w3.org/2000/svg">
<path fill-rule="evenodd" clip-rule="evenodd" d="M9.01727 4.81514C9.10619 4.34243 9.51904 4 10 4H20C20.5523 4 21 4.44772 21 5C21 5.55228 20.5523 6 20 6H10.8295L8.34934 19.1849C8.27713 19.5688 7.98799 19.8755 7.60902 19.9702C7.23004 20.0649 6.83062 19.9302 6.5863 19.6254L3.21976 15.4255C2.87434 14.9946 2.94366 14.3652 3.3746 14.0198C3.80553 13.6744 4.43489 13.7437 4.78031 14.1746L6.78603 16.6769L9.01727 4.81514ZM18.7071 10.2929C19.0977 10.6834 19.0977 11.3166 18.7071 11.7071L16.9142 13.5L18.7071 15.2929C19.0977 15.6834 19.0977 16.3166 18.7071 16.7071C18.3166 17.0976 17.6834 17.0976 17.2929 16.7071L15.5 14.9142L13.7071 16.7071C13.3166 17.0976 12.6834 17.0976 12.2929 16.7071C11.9024 16.3166 11.9024 15.6834 12.2929 15.2929L14.0858 13.5L12.2929 11.7071C11.9024 11.3166 11.9024 10.6834 12.2929 10.2929C12.6834 9.90237 13.3166 9.90237 13.7071 10.2929L15.5 12.0858L17.2929 10.2929C17.6834 9.90237 18.3166 9.90237 18.7071 10.2929Z" fill="black"/>
</svg>
