<svg height="24" viewBox="0 0 24 24" width="24" xmlns="http://www.w3.org/2000/svg"><path d="m12.01 21a8.79 8.79 0 0 1 -3.504-.703 9.077 9.077 0 0 1 -2.87-1.934 9.074 9.074 0 0 1 -1.933-2.87 8.796 8.796 0 0 1 -.703-3.503c0-1.243.234-2.407.703-3.493a9.075 9.075 0 0 1 4.804-4.793 8.796 8.796 0 0 1 3.503-.704c1.243 0 2.407.234 3.493.703a9.109 9.109 0 0 1 4.793 4.793 8.747 8.747 0 0 1 .704 3.504v1.406c0 .857-.3 1.587-.902 2.19a2.98 2.98 0 0 1 -2.192.904c-.531 0-1.02-.133-1.465-.398a3.788 3.788 0 0 1 -1.14-1.055 4.83 4.83 0 0 1 -1.508 1.066 4.305 4.305 0 0 1 -1.793.387c-1.245 0-2.306-.44-3.184-1.318-.877-.878-1.316-1.94-1.316-3.187s.44-2.307 1.318-3.182c.878-.876 1.94-1.313 3.187-1.313s2.307.439 3.182 1.316c.876.878 1.313 1.939 1.313 3.184v1.406c0 .393.137.726.41.998.274.272.606.409.996.409s.723-.137.996-.409c.274-.272.41-.605.41-.998v-1.406c0-2.031-.71-3.758-2.132-5.18s-3.15-2.133-5.18-2.133c-2.031 0-3.758.711-5.18 2.133s-2.133 3.15-2.133 5.18c0 2.031.711 3.758 2.133 5.18s3.149 2.133 5.18 2.133h4.5v1.687zm-.01-6.188c.781 0 1.445-.273 1.992-.82a2.71 2.71 0 0 0 .82-1.992c0-.781-.273-1.445-.82-1.992a2.712 2.712 0 0 0 -1.992-.82c-.781 0-1.445.273-1.992.82a2.712 2.712 0 0 0 -.82 1.992c0 .781.273 1.445.82 1.992a2.71 2.71 0 0 0 1.992.82z"/></svg>