<svg height="24" viewBox="0 0 24 24" width="24" xmlns="http://www.w3.org/2000/svg"><path d="m4 13.665 1 .002v-.002zm16 .724h-1zm-11.678-4.083c.634-1.256 2.11-2.306 3.818-2.306v-2c-2.505 0-4.65 1.512-5.605 3.407l1.786.9zm3.818-2.306c1.967 0 3.6 1.384 4.031 2.837l1.917-.57c-.683-2.302-3.096-4.267-5.947-4.267v2zm8.082 6.813-9.787-5.499-.98 1.744 9.787 5.498.98-1.744zm-9.787-5.499c-3.327-1.87-7.435.535-7.435 4.351h2c0-2.286 2.462-3.727 4.456-2.607l.98-1.744zm-7.435 4.35a4.973 4.973 0 0 0 .91 2.874l1.633-1.153a2.973 2.973 0 0 1 -.543-1.718zm15.815 1.623a2.269 2.269 0 0 1 -2.083 1.37v2a4.269 4.269 0 0 0 3.919-2.576zm-2.083 1.37h-8.741v2h8.741zm-8.741 0a2.99 2.99 0 0 1 -2.448-1.272l-1.633 1.153a4.986 4.986 0 0 0 4.082 2.118v-2zm12.66-.576c.23-.534.35-1.111.349-1.694l-2 .003c0 .309-.062.614-.185.897zm.349-1.691c0-3.062-3.128-5.128-5.944-3.926l.786 1.84a2.268 2.268 0 0 1 3.158 2.084h2zm-5.944-3.926-10.721 4.578.785 1.84 10.723-4.58-.786-1.839z"/></svg>