<svg xmlns="http://www.w3.org/2000/svg" width="24" height="24" viewBox="0 0 24 24"><g id="ordered-list-rtl" fill="none" fill-rule="evenodd" stroke="none" stroke-width="1"><path id="Shape" fill="#000" d="M6,17 L14,17 C14.5522847,17 15,17.4477153 15,18 C15,18.5522847 14.5522847,19 14,19 L6,19 C5.44771525,19 5,18.5522847 5,18 C5,17.4477153 5.44771525,17 6,17 Z M6,11 L14,11 C14.5522847,11 15,11.4477153 15,12 C15,12.5522847 14.5522847,13 14,13 L6,13 C5.44771525,13 5,12.5522847 5,12 C5,11.4477153 5.44771525,11 6,11 Z M6,5 L14,5 C14.5522847,5 15,5.44771525 15,6 C15,6.55228475 14.5522847,7 14,7 L6,7 C5.44771525,7 5,6.55228475 5,6 C5,5.44771525 5.44771525,5 6,5 Z M19,4 L19,7.5 C19,7.77614237 18.7761424,8 18.5,8 C18.2238576,8 18,7.77614237 18,7.5 L18,5 L17.5,5 C17.2238576,5 17,4.77614237 17,4.5 C17,4.22385763 17.2238576,4 17.5,4 L19,4 Z M18,12.7875 C18,12.9048605 18.0951395,13 18.2125,13 L19.5,13 C19.7761424,13 20,13.2238576 20,13.5 C20,13.7761424 19.7761424,14 19.5,14 L17.9125,14 C17.4085402,14 17,13.5914598 17,13.0875 L17,12.8680005 C17,12.4511559 17.2585728,12.0780352 17.6488766,11.9316713 L18.7859932,11.5052526 C18.9147198,11.4569801 19,11.3339207 19,11.1964406 C19,11.0757331 18.9021472,10.9778804 18.7814397,10.9778804 C18.7781816,10.9778804 18.774924,10.9779532 18.7716691,10.9780989 L17.5281613,11.0337449 C17.2492271,11.046227 17.0129875,10.8302248 17.0005054,10.5512907 C17.0001685,10.5437618 17,10.5362263 17,10.5286898 C17,10.2367025 17.2367025,10 17.5286898,10 L19.0875,10 C19.5914598,10 20,10.4085402 20,10.9125 L20,11.1319995 C20,11.5488441 19.7414272,11.9219648 19.3511234,12.0683287 L18.19897,12.5003863 C18.0792882,12.5452669 18,12.6596798 18,12.7875 Z M20,17 L20,19 C20,19.5522847 19.5522847,20 19,20 L17.5024898,20 C17.2249724,20 17,19.7750276 17,19.4975102 C17,19.2199927 17.2249724,18.9950203 17.5024898,18.9950203 L18.7024898,18.9950203 C18.8668002,18.9950203 19,18.8618205 19,18.6975102 C19,18.5331998 18.8668002,18.4 18.7024898,18.4 L17.4,18.4 C17.1790861,18.4 17,18.2209139 17,18 C17,17.7790861 17.1790861,17.6 17.4,17.6 L18.7020319,17.6 C18.8665951,17.6 19,17.4665951 19,17.3020319 C19,17.1374687 18.8665951,17.0040638 18.7020319,17.0040638 L17.5020319,17.0040638 C17.2247673,17.0040638 17,16.7792965 17,16.5020319 C17,16.2247673 17.2247673,16 17.5020319,16 L19,16 C19.5522847,16 20,16.4477153 20,17 Z"/></g></svg>