<?xml version="1.0" encoding="UTF-8"?>
<svg width="24px" height="24px" viewBox="0 0 24 24" version="1.1" xmlns="http://www.w3.org/2000/svg" xmlns:xlink="http://www.w3.org/1999/xlink">
    <!-- Generator: Sketch 51.2 (57519) - http://www.bohemiancoding.com/sketch -->
    <title>icon-ordered-list</title>
    <desc>Created with Sketch.</desc>
    <defs></defs>
    <g stroke="none" stroke-width="1" fill="none" fill-rule="evenodd">
        <path d="M10,17 L18,17 C18.5522847,17 19,17.4477153 19,18 L19,18 C19,18.5522847 18.5522847,19 18,19 L10,19 C9.44771525,19 9,18.5522847 9,18 L9,18 C9,17.4477153 9.44771525,17 10,17 Z M10,11 L18,11 C18.5522847,11 19,11.4477153 19,12 L19,12 C19,12.5522847 18.5522847,13 18,13 L10,13 C9.44771525,13 9,12.5522847 9,12 L9,12 C9,11.4477153 9.44771525,11 10,11 Z M10,5 L18,5 C18.5522847,5 19,5.44771525 19,6 L19,6 C19,6.55228475 18.5522847,7 18,7 L10,7 C9.44771525,7 9,6.55228475 9,6 L9,6 C9,5.44771525 9.44771525,5 10,5 Z M6,4 L6,7.5 C6,7.77614237 5.77614237,8 5.5,8 L5.5,8 C5.22385763,8 5,7.77614237 5,7.5 L5,5 L4.5,5 C4.22385763,5 4,4.77614237 4,4.5 L4,4.5 C4,4.22385763 4.22385763,4 4.5,4 L6,4 Z M5,12.7875 L5,12.7875 C5,12.9048605 5.09513949,13 5.2125,13 L6.5,13 C6.77614237,13 7,13.2238576 7,13.5 L7,13.5 C7,13.7761424 6.77614237,14 6.5,14 L4.9125,14 C4.40854017,14 4,13.5914598 4,13.0875 L4,12.8680005 C4,12.4511559 4.25857283,12.0780352 4.64887656,11.9316713 L5.78599318,11.5052526 C5.91471976,11.4569801 6,11.3339207 6,11.1964406 L6,11.1964406 C6,11.0757331 5.90214724,10.9778804 5.78143974,10.9778804 C5.77818164,10.9778804 5.77492395,10.9779532 5.77166911,10.9780989 L4.52816128,11.0337449 C4.24922709,11.046227 4.01298752,10.8302248 4.00050543,10.5512907 C4.00016852,10.5437618 4,10.5362263 4,10.5286898 L4,10.5286898 C4,10.2367025 4.2367025,10 4.52868984,10 L6.0875,10 C6.59145983,10 7,10.4085402 7,10.9125 L7,11.1319995 C7,11.5488441 6.74142717,11.9219648 6.35112344,12.0683287 L5.19896995,12.5003863 C5.07928815,12.5452669 5,12.6596798 5,12.7875 Z M7,17 L7,19 C7,19.5522847 6.55228475,20 6,20 L4.50248984,20 C4.22497236,20 4,19.7750276 4,19.4975102 L4,19.4975102 C4,19.2199927 4.22497236,18.9950203 4.50248984,18.9950203 L5.70248984,18.9950203 C5.86680016,18.9950203 6,18.8618205 6,18.6975102 L6,18.6975102 C6,18.5331998 5.86680016,18.4 5.70248984,18.4 L4.4,18.4 C4.1790861,18.4 4,18.2209139 4,18 L4,18 C4,17.7790861 4.1790861,17.6 4.4,17.6 L5.70203192,17.6 C5.86659515,17.6 6,17.4665951 6,17.3020319 L6,17.3020319 C6,17.1374687 5.86659515,17.0040638 5.70203192,17.0040638 L4.50203192,17.0040638 C4.22476735,17.0040638 4,16.7792965 4,16.5020319 L4,16.5020319 C4,16.2247673 4.22476735,16 4.50203192,16 L6,16 C6.55228475,16 7,16.4477153 7,17 Z" fill="#000000"></path>
    </g>
</svg>