<?xml version="1.0" encoding="UTF-8"?>
<svg width="24px" height="24px" viewBox="0 0 24 24" version="1.1" xmlns="http://www.w3.org/2000/svg" xmlns:xlink="http://www.w3.org/1999/xlink">
    <!-- Generator: Sketch 51.2 (57519) - http://www.bohemiancoding.com/sketch -->
    <title>icon-orientation</title>
    <desc>Created with Sketch.</desc>
    <defs></defs>
    <g stroke="none" stroke-width="1" fill="none" fill-rule="evenodd">
        <path d="M7.34,6.41 L0.86,12.9 L7.35,19.38 L13.84,12.9 L7.34,6.41 Z M3.69,12.9 L7.35,9.24 L11,12.9 L7.34,16.56 L3.69,12.9 Z M12.018815,6 L14.7834217,8.66692564 C15.0850723,8.97921314 15.0761715,9.46585826 14.7632887,9.76768614 C14.4504058,10.069514 13.9459364,10.0781003 13.6222108,9.78710777 L9.24028305,5.56000539 C8.91990565,5.25056295 8.91990565,4.74926569 9.24028305,4.43982326 L13.6222108,0.212720875 C13.9459364,-0.0782716489 14.4504058,-0.0696853636 14.7632887,0.232142509 C15.0761715,0.533970382 15.0850723,1.02061551 14.7834217,1.33290301 L12.0186373,4 L13,4 C15.3,4 17.61,4.88 19.36,6.64 C22.88,10.15 22.88,15.85 19.36,19.36 C17.61,21.12 15.3,22 13,22 C11.51,22 10.02,21.62 8.67,20.88 L10.16,19.39 C11.06,19.79 12.03,20 13,20 C14.79,20 16.58,19.32 17.95,17.95 C20.68,15.22 20.68,10.78 17.95,8.05 C16.58,6.68 14.79,6 13,6 L12.018815,6 Z" fill="#000000" fill-rule="nonzero"></path>
    </g>
</svg>