<svg xmlns="http://www.w3.org/2000/svg" width="24" height="24" fill="none" viewBox="0 0 24 24">
  <path fill="#222F3E" d="M8.5 13.5c.55 0 1.02.196 1.412.588.392.392.588.862.588 1.412V19c0 .55-.196 1.02-.588 1.412A1.925 1.925 0 0 1 8.5 21H5c-.55 0-1.02-.196-1.412-.588A1.925 1.925 0 0 1 3 19v-3.5c0-.55.196-1.02.588-1.412A1.925 1.925 0 0 1 5 13.5h3.5Zm10.5 0c.55 0 1.02.196 1.412.588.392.392.588.862.588 1.412V19c0 .55-.196 1.02-.588 1.412A1.925 1.925 0 0 1 19 21h-3.5c-.55 0-1.02-.196-1.412-.588A1.925 1.925 0 0 1 13.5 19v-3.5c0-.55.196-1.02.588-1.412A1.925 1.925 0 0 1 15.5 13.5H19ZM5 19h3.5v-3.5H5V19Zm10.5 0H19v-3.5h-3.5V19Zm1.067-15.7a.461.461 0 0 1 .866 0 5.529 5.529 0 0 0 3.266 3.267.461.461 0 0 1 0 .866l-.28.11a5.53 5.53 0 0 0-2.986 3.156l-.034.07a.461.461 0 0 1-.798 0l-.034-.07a5.53 5.53 0 0 0-2.986-3.155l-.28-.111a.461.461 0 0 1 0-.866 5.529 5.529 0 0 0 3.266-3.266ZM8.5 3c.55 0 1.02.196 1.412.588.392.392.588.862.588 1.412v3.5c0 .55-.196 1.02-.588 1.412A1.925 1.925 0 0 1 8.5 10.5H5c-.55 0-1.02-.196-1.412-.588A1.925 1.925 0 0 1 3 8.5V5c0-.55.196-1.02.588-1.412A1.925 1.925 0 0 1 5 3h3.5ZM5 8.5h3.5V5H5v3.5Z"/>
</svg>
