<?xml version="1.0" encoding="UTF-8"?>
<svg width="24px" height="24px" viewBox="0 0 24 24" version="1.1" xmlns="http://www.w3.org/2000/svg" xmlns:xlink="http://www.w3.org/1999/xlink">
    <!-- Generator: Sketch 51.2 (57519) - http://www.bohemiancoding.com/sketch -->
    <title>icon-outdent</title>
    <desc>Created with Sketch.</desc>
    <defs></defs>
    <g stroke="none" stroke-width="1" fill="none" fill-rule="evenodd">
        <path d="M7,5 L19,5 C19.5522847,5 20,5.44771525 20,6 L20,6 C20,6.55228475 19.5522847,7 19,7 L7,7 C6.44771525,7 6,6.55228475 6,6 L6,6 C6,5.44771525 6.44771525,5 7,5 Z M12,9 L19,9 C19.5522847,9 20,9.44771525 20,10 L20,10 C20,10.5522847 19.5522847,11 19,11 L12,11 C11.4477153,11 11,10.5522847 11,10 L11,10 C11,9.44771525 11.4477153,9 12,9 Z M12,13 L19,13 C19.5522847,13 20,13.4477153 20,14 L20,14 C20,14.5522847 19.5522847,15 19,15 L12,15 C11.4477153,15 11,14.5522847 11,14 L11,14 C11,13.4477153 11.4477153,13 12,13 Z M7,17 L19,17 C19.5522847,17 20,17.4477153 20,18 C20,18.5522847 19.5522847,19 19,19 L7,19 C6.44771525,19 6,18.5522847 6,18 C6,17.4477153 6.44771525,17 7,17 Z M8.5547002,13.1679497 C9.01422888,13.4743022 9.13840275,14.0951715 8.83205029,14.5547002 C8.52569784,15.0142289 7.90482849,15.1384028 7.4452998,14.8320503 L4.4452998,12.8320503 C3.85156673,12.4362282 3.85156673,11.5637718 4.4452998,11.1679497 L7.4452998,9.16794971 C7.90482849,8.86159725 8.52569784,8.98577112 8.83205029,9.4452998 C9.13840275,9.90482849 9.01422888,10.5256978 8.5547002,10.8320503 L6.80277564,12 L8.5547002,13.1679497 Z" fill="#000000"></path>
    </g>
</svg>