<?xml version="1.0" encoding="UTF-8"?>
<svg width="24px" height="24px" viewBox="0 0 24 24" version="1.1" xmlns="http://www.w3.org/2000/svg" xmlns:xlink="http://www.w3.org/1999/xlink">
    <!-- Generator: Sketch 51.2 (57519) - http://www.bohemiancoding.com/sketch -->
    <title>icon-page-break</title>
    <desc>Created with Sketch.</desc>
    <defs></defs>
    <g stroke="none" stroke-width="1" fill="none" fill-rule="evenodd">
        <path d="M5,11 L5,11 C5.55228475,11 6,11.4477153 6,12 L6,12 C6,12.5522847 5.55228475,13 5,13 L5,13 C4.44771525,13 4,12.5522847 4,12 L4,12 C4,11.4477153 4.44771525,11 5,11 Z M8,11 L9,11 C9.55228475,11 10,11.4477153 10,12 L10,12 C10,12.5522847 9.55228475,13 9,13 L8,13 C7.44771525,13 7,12.5522847 7,12 L7,12 C7,11.4477153 7.44771525,11 8,11 Z M12,11 L12,11 C12.5522847,11 13,11.4477153 13,12 L13,12 C13,12.5522847 12.5522847,13 12,13 L12,13 C11.4477153,13 11,12.5522847 11,12 L11,12 C11,11.4477153 11.4477153,11 12,11 Z M15,11 L16,11 C16.5522847,11 17,11.4477153 17,12 L17,12 C17,12.5522847 16.5522847,13 16,13 L15,13 C14.4477153,13 14,12.5522847 14,12 L14,12 C14,11.4477153 14.4477153,11 15,11 Z M19,11 L19,11 C19.5522847,11 20,11.4477153 20,12 L20,12 C20,12.5522847 19.5522847,13 19,13 L19,13 C18.4477153,13 18,12.5522847 18,12 L18,12 C18,11.4477153 18.4477153,11 19,11 Z" fill="#000000"></path>
        <path d="M7,3 L7,8 L17,8 L17,3 C17,2.44771525 17.4477153,2 18,2 L18,2 C18.5522847,2 19,2.44771525 19,3 L19,10 L5,10 L5,3 C5,2.44771525 5.44771525,2 6,2 L6,2 C6.55228475,2 7,2.44771525 7,3 Z" fill="#000000"></path>
        <path d="M6,22 L6,22 C5.44771525,22 5,21.5522847 5,21 L5,14 L19,14 L19,21 C19,21.5522847 18.5522847,22 18,22 L18,22 C17.4477153,22 17,21.5522847 17,21 L17,16 L7,16 L7,21 C7,21.5522847 6.55228475,22 6,22 Z" fill="#000000"></path>
    </g>
</svg>