<svg xmlns="http://www.w3.org/2000/svg" width="24" height="24" viewBox="0 0 24 24">
  <path fill-rule="evenodd" d="M12,1 C13.3062521,1 14.4175144,1.8348501 14.8293257,3.00008893 L18,3 C19.0543618,3 19.9181651,3.81587779 19.9945143,4.85073766 L20,5 L20,7 L18,7 L18,5 L16,5 L16,6 C16,6.55228475 15.5522847,7 15,7 L9,7 C8.44771525,7 8,6.55228475 8,6 L8,5 L6,5 L6,18 L18,18 L18,14 L20,14 L20,18 C20,19.0543618 19.1841222,19.9181651 18.1492623,19.9945143 L18,20 L6,20 C4.9456382,20 4.08183488,19.1841222 4.00548574,18.1492623 L4,18 L4,5 C4,3.9456382 4.81587779,3.08183488 5.85073766,3.00548574 L6,3 L9.17067428,3.00008893 C9.58248558,1.8348501 10.6937479,1 12,1 Z M22,8 L22,13 L8,13 L8,8 L22,8 Z M20.5,9.5 L9.5,9.5 L9.5,11.5 L20.5,11.5 L20.5,9.5 Z M12,3 C11.4477153,3 11,3.44771525 11,4 C11,4.55228475 11.4477153,5 12,5 C12.5522847,5 13,4.55228475 13,4 C13,3.44771525 12.5522847,3 12,3 Z"/>
</svg>
