<svg fill="none" height="24" viewBox="0 0 24 24" width="24" xmlns="http://www.w3.org/2000/svg"><path clip-rule="evenodd" d="m18.0002 2c.5523 0 1 .44772 1 1v3.64941c0 .55229-.4477 1-1 1h-1.5782l2.5196 7.01269c.1099.3062.064.6469-.1231.9131-.1872.2662-.4928.4248-.8183.4248h-5v6h-2v-6h-5.00003c-.32544-.0001-.63112-.1586-.81836-.4248-.18699-.2661-.2329-.607-.12304-.9131l2.51953-7.01269h-1.57813c-.55218-.00011-1-.44778-1-1v-3.64941c0-.55221.44782-.99989 1-1zm-11.00003 3.64941h2c.32549 0 .63109.1586.81836.42481.18707.26615.23297.60689.12305.91308l-2.51953 7.0127h9.15625l-2.5195-7.0127c-.1099-.30613-.064-.64697.123-.91308.1872-.26621.4929-.42474.8184-.42481h2v-1.64941h-10.00003z" fill="#222f3e" fill-rule="evenodd"/></svg>