<?xml version="1.0" encoding="UTF-8"?>
<svg width="24px" height="24px" viewBox="0 0 24 24" version="1.1" xmlns="http://www.w3.org/2000/svg" xmlns:xlink="http://www.w3.org/1999/xlink">
    <!-- Generator: Sketch 51.2 (57519) - http://www.bohemiancoding.com/sketch -->
    <title>icon-preview</title>
    <desc>Created with Sketch.</desc>
    <defs></defs>
    <g stroke="none" stroke-width="1" fill="none" fill-rule="evenodd">
        <path d="M3.49800109,12.5365636 C4.016594,13.3094343 4.62945889,14.0830507 5.32998517,14.8022577 C7.28883633,16.8133448 9.5234467,18 12,18 C14.4765533,18 16.7111637,16.8133448 18.6700148,14.8022577 C19.3705411,14.0830507 19.983406,13.3094343 20.5019989,12.5365636 C20.6369995,12.3353691 20.7522209,12.1549634 20.8472636,12 C20.7522209,11.8450366 20.6369995,11.6646309 20.5019989,11.4634364 C19.983406,10.6905657 19.3705411,9.91694933 18.6700148,9.19774235 C16.7111637,7.18665516 14.4765533,6 12,6 C9.5234467,6 7.28883633,7.18665516 5.32998517,9.19774235 C4.62945889,9.91694933 4.016594,10.6905657 3.49800109,11.4634364 C3.36300045,11.6646309 3.24777914,11.8450366 3.15273641,12 C3.24777914,12.1549634 3.36300045,12.3353691 3.49800109,12.5365636 Z M1.11259458,11.5390102 C1.24259572,11.288758 1.48492337,10.8741084 1.83722618,10.3490636 C2.41948554,9.48130933 3.10633656,8.61430067 3.89728755,7.80225765 C6.19980003,5.43834484 8.90837149,4 12,4 C15.0916285,4 17.8002,5.43834484 20.1027124,7.80225765 C20.8936634,8.61430067 21.5805145,9.48130933 22.1627738,10.3490636 C22.5150766,10.8741084 22.7574043,11.288758 22.8874054,11.5390102 C23.0375315,11.8280029 23.0375315,12.1719971 22.8874054,12.4609898 C22.7574043,12.711242 22.5150766,13.1258916 22.1627738,13.6509364 C21.5805145,14.5186907 20.8936634,15.3856993 20.1027124,16.1977423 C17.8002,18.5616552 15.0916285,20 12,20 C8.90837149,20 6.19980003,18.5616552 3.89728755,16.1977423 C3.10633656,15.3856993 2.41948554,14.5186907 1.83722618,13.6509364 C1.48492337,13.1258916 1.24259572,12.711242 1.11259458,12.4609898 C0.962468473,12.1719971 0.962468473,11.8280029 1.11259458,11.5390102 Z M13.1778781,8.1762437 C12.4833529,8.48981554 12,9.18846121 12,10 C12,11.1045695 12.8954305,12 14,12 C14.8115388,12 15.5101845,11.5166471 15.8237563,10.8221219 C15.9383283,11.194496 16,11.5900459 16,12 C16,14.209139 14.209139,16 12,16 C9.790861,16 8,14.209139 8,12 C8,9.790861 9.790861,8 12,8 C12.4099541,8 12.805504,8.06167174 13.1778781,8.1762437 Z" fill="#000000" fill-rule="nonzero"></path>
    </g>
</svg>