<svg fill="none" height="24" viewBox="0 0 24 24" width="24" xmlns="http://www.w3.org/2000/svg"><g fill="#222f3e"><path d="m14.333 22h-3.666v-2h3.666z"/><path d="m15.25 18.4004h-5.5v-2h5.5z"/><path d="m12.8213 2.00781c1.6015.07799 3.1245.7371 4.2685 1.86035 1.2209 1.19875 1.9102 2.82893 1.9102 4.53223-.0001 1.40721-.5461 2.84451-1.6748 3.86331l-.2334.2373c-.5066.5354-.7516.9557-.8623 1.499-.1104.5408-.6379.8902-1.1787.7803-.5412-.1103-.8905-.6386-.7803-1.1797.2402-1.179.8552-1.9791 1.6543-2.7637l.0381-.0361c.678-.5991 1.037-1.48395 1.0371-2.40041 0-1.16097-.4696-2.27884-1.3115-3.10547-.7898-.77535-1.8468-1.23453-2.9639-1.28906l-.2246-.00586c-1.1993 0-2.3459.46777-3.18848 1.29492-.84194.82663-1.31152 1.9445-1.31152 3.10547.00004.69895.11852 1.49724 1.0752 2.43651.69733.6847 1.4124 1.5762 1.6543 2.7637.1102.5411-.2391 1.0694-.78028 1.1797-.54086.1099-1.0683-.2395-1.17871-.7803-.12475-.6124-.50987-1.1611-1.09571-1.7363-1.4263-1.4004-1.67474-2.76242-1.6748-3.86331 0-1.7033.68928-3.33348 1.91016-4.53223 1.22033-1.19815 2.87184-1.86816 4.58984-1.86816z"/></g></svg>