<?xml version="1.0" encoding="UTF-8"?>
<svg width="24px" height="24px" viewBox="0 0 24 24" version="1.1" xmlns="http://www.w3.org/2000/svg" xmlns:xlink="http://www.w3.org/1999/xlink">
    <!-- Generator: Sketch 51.2 (57519) - http://www.bohemiancoding.com/sketch -->
    <title>icon-reload</title>
    <desc>Created with Sketch.</desc>
    <defs></defs>
    <g stroke="none" stroke-width="1" fill="none" fill-rule="evenodd">
        <g transform="translate(11.500000, 12.500000) rotate(-45.000000) translate(-11.500000, -12.500000) translate(-1.000000, 1.000000)" fill="#000000" fill-rule="nonzero">
            <path d="M19.7895837,13.725 L17.3695837,9.539 C17.3285837,9.47 17.2835837,9.405 17.2285837,9.35 C17.0605837,9.164 16.8315837,9.045 16.5785837,9.023 C16.2525837,8.999 15.9345837,9.127 15.7245837,9.377 L12.5115837,13.209 C12.1565837,13.632 12.2115837,14.263 12.6345837,14.617 C13.0575837,14.972 13.6895837,14.917 14.0425837,14.494 L15.4985837,12.759 C14.9455837,15.592 12.6815837,18.1 9.69658369,18.8 C7.16858369,19.394 4.55358369,18.654 2.70258369,16.823 C2.30958369,16.434 1.67758369,16.437 1.28858369,16.831 C0.899583686,17.224 0.903583686,17.856 1.29658369,18.245 C3.10858369,20.035 5.49558369,21 7.96558369,21 C8.69258369,21 9.42658369,20.916 10.1545837,20.745 C13.7595837,19.9 16.5325837,16.944 17.3685837,13.533 L18.0575837,14.725 C18.2435837,15.046 18.5785837,15.225 18.9235837,15.225 C19.0935837,15.225 19.2665837,15.182 19.4235837,15.09 C19.9025837,14.814 20.0665837,14.203 19.7895837,13.725 Z" transform="translate(10.461792, 15.010071) scale(-1, 1) translate(-10.461792, -15.010071) "></path>
            <path d="M12.971546,9.389 C12.547546,9.035 11.917546,9.089 11.563546,9.513 L9.84054602,11.568 C9.87254602,10.286 10.236546,9.019 10.925546,7.871 C12.036546,6.017 13.853546,4.677 15.908546,4.195 C18.603546,3.562 21.416546,4.462 23.250546,6.54 C23.615546,6.954 24.246546,6.994 24.661546,6.629 C25.075546,6.264 25.115546,5.632 24.750546,5.218 C22.428546,2.585 18.865546,1.446 15.451546,2.249 C12.872546,2.852 10.597546,4.526 9.20954602,6.842 C8.58554602,7.883 8.18054602,9.004 7.98054602,10.154 L7.41454602,9.21 C7.12954602,8.737 6.51554602,8.584 6.04154602,8.868 C5.56854602,9.152 5.41454602,9.766 5.69954602,10.24 L8.26054602,14.502 C8.42654602,14.779 8.71654602,14.959 9.03854602,14.984 C9.06454602,14.986 9.09054602,14.987 9.11654602,14.987 C9.41054602,14.987 9.69154602,14.857 9.88354602,14.63 L13.095546,10.799 C13.450546,10.373 13.395546,9.743 12.971546,9.389 Z" transform="translate(15.278273, 8.491434) scale(-1, 1) translate(-15.278273, -8.491434) "></path>
        </g>
    </g>
</svg>