<?xml version="1.0" encoding="UTF-8"?>
<svg width="24px" height="24px" viewBox="0 0 24 24" version="1.1" xmlns="http://www.w3.org/2000/svg" xmlns:xlink="http://www.w3.org/1999/xlink">
    <!-- Generator: Sketch 51.2 (57519) - http://www.bohemiancoding.com/sketch -->
    <title>icon-remove-formatting</title>
    <desc>Created with Sketch.</desc>
    <defs></defs>
    <g stroke="none" stroke-width="1" fill="none" fill-rule="evenodd">
        <path d="M13.248329,6 C13.2458567,6.07144628 13.235622,6.14372705 13.2170188,6.21581444 C13.2168183,6.2165913 13.2166169,6.21736792 13.2164145,6.21814429 L10.6011521,16.2522124 C10.4863583,16.6926458 10.0886277,17 9.63348019,17 L9.3671875,17 C8.92408791,17 8.56488472,16.6407968 8.56488472,16.1976972 C8.56488472,16.1292066 8.57365488,16.0609979 8.59098125,15.9947351 L11.2044005,6 L8,6 C7.44771525,6 7,5.55228475 7,5 C7,4.44771525 7.44771525,4 8,4 L17,4 C17.5522847,4 18,4.44771525 18,5 C18,5.55228475 17.5522847,6 17,6 L13.248329,6 Z M5,18 L12,18 C12.5522847,18 13,18.4477153 13,19 C13,19.5522847 12.5522847,20 12,20 L5,20 C4.44771525,20 4,19.5522847 4,19 C4,18.4477153 4.44771525,18 5,18 Z M18.046875,19.515625 L16.5,17.96875 L14.953125,19.515625 C14.6856121,19.7831379 14.2518879,19.7831379 13.984375,19.515625 C13.7168621,19.2481121 13.7168621,18.8143879 13.984375,18.546875 L15.53125,17 L13.984375,15.453125 C13.7168621,15.1856121 13.7168621,14.7518879 13.984375,14.484375 C14.2518879,14.2168621 14.6856121,14.2168621 14.953125,14.484375 L16.5,16.03125 L18.046875,14.484375 C18.3143879,14.2168621 18.7481121,14.2168621 19.015625,14.484375 C19.2831379,14.7518879 19.2831379,15.1856121 19.015625,15.453125 L17.46875,17 L19.015625,18.546875 C19.2831379,18.8143879 19.2831379,19.2481121 19.015625,19.515625 C18.7481121,19.7831379 18.3143879,19.7831379 18.046875,19.515625 Z" fill="#000000"></path>
    </g>
</svg>