<?xml version="1.0" encoding="UTF-8"?>
<svg width="24px" height="24px" viewBox="0 0 24 24" version="1.1" xmlns="http://www.w3.org/2000/svg" xmlns:xlink="http://www.w3.org/1999/xlink">
    <!-- Generator: Sketch 51.3 (57544) - http://www.bohemiancoding.com/sketch -->
    <title>icon-remove</title>
    <desc>Created with Sketch.</desc>
    <defs></defs>
    <g stroke="none" stroke-width="1" fill="none" fill-rule="evenodd">
        <path d="M16,7 L19,7 C19.5522847,7 20,7.44771525 20,8 C20,8.55228475 19.5522847,9 19,9 L18,9 L18,18 C18,19.6568542 16.6568542,21 15,21 L9,21 C7.34314575,21 6,19.6568542 6,18 L6,9 L5,9 C4.44771525,9 4,8.55228475 4,8 C4,7.44771525 4.44771525,7 5,7 L8,7 L8,6 C8,4.34314575 9.34314575,3 11,3 L13,3 C14.6568542,3 16,4.34314575 16,6 L16,7 Z M14,7 L14,6 C14,5.44771525 13.5522847,5 13,5 L11,5 C10.4477153,5 10,5.44771525 10,6 L10,7 L14,7 Z M16,9 L8,9 L8,18 C8,18.5522847 8.44771525,19 9,19 L15,19 C15.5522847,19 16,18.5522847 16,18 L16,9 Z M9,12 C9,11.4477153 9.44771525,11 10,11 C10.5522847,11 11,11.4477153 11,12 L11,16 C11,16.5522847 10.5522847,17 10,17 C9.44771525,17 9,16.5522847 9,16 L9,12 Z M13,12 C13,11.4477153 13.4477153,11 14,11 C14.5522847,11 15,11.4477153 15,12 L15,16 C15,16.5522847 14.5522847,17 14,17 C13.4477153,17 13,16.5522847 13,16 L13,12 Z" fill="#000000" fill-rule="nonzero"></path>
    </g>
</svg>