<?xml version="1.0" encoding="UTF-8"?>
<svg width="10px" height="10px" viewBox="0 0 10 10" version="1.1" xmlns="http://www.w3.org/2000/svg" xmlns:xlink="http://www.w3.org/1999/xlink">
    <!-- Generator: Sketch 51.2 (57519) - http://www.bohemiancoding.com/sketch -->
    <title>icon-resize-handle</title>
    <desc>Created with Sketch.</desc>
    <defs></defs>
    <g stroke="none" stroke-width="1" fill="none" fill-rule="evenodd">
        <path d="M8.14644661,1.14644661 C8.34170876,0.951184464 8.65829124,0.951184464 8.85355339,1.14644661 C9.04881554,1.34170876 9.04881554,1.65829124 8.85355339,1.85355339 L1.85355339,8.85355339 C1.65829124,9.04881554 1.34170876,9.04881554 1.14644661,8.85355339 C0.951184464,8.65829124 0.951184464,8.34170876 1.14644661,8.14644661 L8.14644661,1.14644661 Z" fill="#000000" fill-rule="nonzero"></path>
        <path d="M8.14644661,5.14644661 C8.34170876,4.95118446 8.65829124,4.95118446 8.85355339,5.14644661 C9.04881554,5.34170876 9.04881554,5.65829124 8.85355339,5.85355339 L5.85355339,8.85355339 C5.65829124,9.04881554 5.34170876,9.04881554 5.14644661,8.85355339 C4.95118446,8.65829124 4.95118446,8.34170876 5.14644661,8.14644661 L8.14644661,5.14644661 Z" fill="#000000" fill-rule="nonzero"></path>
    </g>
</svg>