<?xml version="1.0" encoding="UTF-8"?>
<svg width="24px" height="24px" viewBox="0 0 24 24" version="1.1" xmlns="http://www.w3.org/2000/svg" xmlns:xlink="http://www.w3.org/1999/xlink">
    <!-- Generator: Sketch 51.2 (57519) - http://www.bohemiancoding.com/sketch -->
    <title>icon-rotate-left</title>
    <desc>Created with Sketch.</desc>
    <defs></defs>
    <g stroke="none" stroke-width="1" fill="none" fill-rule="evenodd">
        <path d="M4.71060328,10 L9,10 C9.55228475,10 10,10.4477153 10,11 C10,11.5522847 9.55228475,12 9,12 L3,12 C2.44771525,12 2,11.5522847 2,11 L2,10.226441 C1.9999942,10.2244677 1.9999942,10.2224959 2,10.2205243 L2,5 C2,4.44771525 2.44771525,4 3,4 C3.55228475,4 4,4.44771525 4,5 L4,7.93114856 L6.47388159,5.63560855 C9.34150707,2.80815342 13.7526341,2.19519048 17.2967096,4.1302184 C20.8463154,6.06826582 22.6726718,10.0964583 21.7711958,14.0089926 C20.8704523,17.9183474 17.4646792,20.7646539 13.4208553,20.9945235 C11.020317,21.1309812 8.68694248,20.3254337 6.90057643,18.777835 C6.4831532,18.416205 6.43792388,17.7846575 6.79955392,17.3672343 C7.16118396,16.9498111 7.79273143,16.9045818 8.21015466,17.2662118 C9.60538513,18.4749544 11.4290068,19.1045207 13.3073493,18.997747 C16.4668733,18.8181451 19.1219973,16.5991785 19.8222589,13.5599436 C20.5217879,10.5238881 19.1032997,7.39528536 16.3382817,5.88561466 C13.5677334,4.37292446 10.1167372,4.85246921 7.85623324,7.08066545 L4.71060328,10 Z" fill="#000000" fill-rule="nonzero"></path>
    </g>
</svg>