<?xml version="1.0" encoding="UTF-8"?>
<svg width="24px" height="24px" viewBox="0 0 24 24" version="1.1" xmlns="http://www.w3.org/2000/svg" xmlns:xlink="http://www.w3.org/1999/xlink">
    <!-- Generator: Sketch 51.2 (57519) - http://www.bohemiancoding.com/sketch -->
    <title>icon-rtl</title>
    <desc>Created with Sketch.</desc>
    <defs></defs>
    <g stroke="none" stroke-width="1" fill="none" fill-rule="evenodd">
        <path d="M8,5 L16,5 L16,7 L14,7 L14,19 L12,19 L12,7 L10,7 L10,19 L8,19 L8,12 C7.52083094,12 7.06771047,11.9062509 6.640625,11.71875 C6.21353953,11.5416658 5.84114742,11.2942724 5.5234375,10.9765625 C5.20572758,10.6588526 4.95833422,10.2864605 4.78125,9.859375 C4.59374906,9.43228953 4.5,8.97916906 4.5,8.5 C4.5,8.02083094 4.59374906,7.56771047 4.78125,7.140625 C4.95833422,6.71353953 5.20572758,6.34114742 5.5234375,6.0234375 C5.84114742,5.70572758 6.21353953,5.45833422 6.640625,5.28125 C7.06771047,5.09374906 7.52083094,5 8,5 Z M20.0547002,16.168056 C20.5142289,16.4744084 20.6384028,17.0952778 20.3320503,17.5548065 C20.0256978,18.0143352 19.4048285,18.138509 18.9452998,17.8321566 L15.9452998,15.8321566 C15.3515667,15.4363345 15.3515667,14.563878 15.9452998,14.168056 L18.9452998,12.168056 C19.4048285,11.8617035 20.0256978,11.9858774 20.3320503,12.4454061 C20.6384028,12.9049348 20.5142289,13.5258041 20.0547002,13.8321566 L18.3027756,15.0001063 L20.0547002,16.168056 Z" fill="#000000"></path>
    </g>
</svg>