<?xml version="1.0" encoding="UTF-8"?>
<svg width="24px" height="24px" viewBox="0 0 24 24" version="1.1" xmlns="http://www.w3.org/2000/svg" xmlns:xlink="http://www.w3.org/1999/xlink">
    <!-- Generator: Sketch 51.2 (57519) - http://www.bohemiancoding.com/sketch -->
    <title>icon-save</title>
    <desc>Created with Sketch.</desc>
    <defs></defs>
    <g stroke="none" stroke-width="1" fill="none" fill-rule="evenodd">
        <path d="M5,16 L19,16 C20.1045695,16 21,16.8954305 21,18 L21,20 C21,21.1045695 20.1045695,22 19,22 L5,22 C3.8954305,22 3,21.1045695 3,20 L3,18 C3,16.8954305 3.8954305,16 5,16 Z M5,18 L5,20 L19,20 L19,18 L5,18 Z M15,18 L17,18 L17,20 L15,20 L15,18 Z M11,11.5857864 L8.70710678,9.29289322 C8.31658249,8.90236893 7.68341751,8.90236893 7.29289322,9.29289322 C6.90236893,9.68341751 6.90236893,10.3165825 7.29289322,10.7071068 L11.2928932,14.7071068 C11.6834175,15.0976311 12.3165825,15.0976311 12.7071068,14.7071068 L16.7071068,10.7071068 C17.0976311,10.3165825 17.0976311,9.68341751 16.7071068,9.29289322 C16.3165825,8.90236893 15.6834175,8.90236893 15.2928932,9.29289322 L13,11.5857864 L13,4 C13,3.44771525 12.5522847,3 12,3 C11.4477153,3 11,3.44771525 11,4 L11,11.5857864 Z" fill="#000000" fill-rule="nonzero"></path>
    </g>
</svg>