<?xml version="1.0" encoding="UTF-8"?>
<svg width="24px" height="24px" viewBox="0 0 24 24" version="1.1" xmlns="http://www.w3.org/2000/svg" xmlns:xlink="http://www.w3.org/1999/xlink">
    <!-- Generator: Sketch 51.2 (57519) - http://www.bohemiancoding.com/sketch -->
    <title>icon-settings</title>
    <desc>Created with Sketch.</desc>
    <defs></defs>
    <g stroke="none" stroke-width="1" fill="none" fill-rule="evenodd">
        <path d="M11,6 L19,6 C19.5522847,6 20,6.44771525 20,7 L20,7 C20,7.55228475 19.5522847,8 19,8 L11,8 L11,8.25 C11,8.45833437 10.9270841,8.63541594 10.78125,8.78125 C10.6354159,8.92708406 10.4583344,9 10.25,9 L7.75,9 C7.54166563,9 7.36458406,8.92708406 7.21875,8.78125 C7.07291594,8.63541594 7,8.45833437 7,8.25 L7,8 L5,8 C4.44771525,8 4,7.55228475 4,7 L4,7 C4,6.44771525 4.44771525,6 5,6 L7,6 L7,5.75 C7,5.54166563 7.07291594,5.36458406 7.21875,5.21875 C7.36458406,5.07291594 7.54166563,5 7.75,5 L10.25,5 C10.4583344,5 10.6354159,5.07291594 10.78125,5.21875 C10.9270841,5.36458406 11,5.54166563 11,5.75 L11,6 Z M8,8 L10,8 L10,6 L8,6 L8,8 Z M17,10.75 L17,11 L19,11 C19.5522847,11 20,11.4477153 20,12 L20,12 C20,12.5522847 19.5522847,13 19,13 L17,13 L17,13.25 C17,13.4583344 16.9270841,13.6354159 16.78125,13.78125 C16.6354159,13.9270841 16.4583344,14 16.25,14 L13.75,14 C13.5416656,14 13.3645841,13.9270841 13.21875,13.78125 C13.0729159,13.6354159 13,13.4583344 13,13.25 L13,13 L5,13 C4.44771525,13 4,12.5522847 4,12 L4,12 C4,11.4477153 4.44771525,11 5,11 L13,11 L13,10.75 C13,10.5416656 13.0729159,10.3645841 13.21875,10.21875 C13.3645841,10.0729159 13.5416656,10 13.75,10 L16.25,10 C16.4583344,10 16.6354159,10.0729159 16.78125,10.21875 C16.9270841,10.3645841 17,10.5416656 17,10.75 Z M14,13 L16,13 L16,11 L14,11 L14,13 Z M11,15.75 L11,16 L19,16 C19.5522847,16 20,16.4477153 20,17 L20,17 C20,17.5522847 19.5522847,18 19,18 L11,18 L11,18.25 C11,18.4583344 10.9270841,18.6354159 10.78125,18.78125 C10.6354159,18.9270841 10.4583344,19 10.25,19 L7.75,19 C7.54166563,19 7.36458406,18.9270841 7.21875,18.78125 C7.07291594,18.6354159 7,18.4583344 7,18.25 L7,18 L5,18 C4.44771525,18 4,17.5522847 4,17 L4,17 C4,16.4477153 4.44771525,16 5,16 L7,16 L7,15.75 C7,15.5416656 7.07291594,15.3645841 7.21875,15.21875 C7.36458406,15.0729159 7.54166563,15 7.75,15 L10.25,15 C10.4583344,15 10.6354159,15.0729159 10.78125,15.21875 C10.9270841,15.3645841 11,15.5416656 11,15.75 Z M8,18 L10,18 L10,16 L8,16 L8,18 Z" fill="#000000"></path>
    </g>
</svg>