<svg xmlns="http://www.w3.org/2000/svg" width="24" height="24" fill="none" viewBox="0 0 24 24">
  <path fill="#222F3E" fill-rule="evenodd" d="m16 6 4 4-8 9-8-9 4-4h8Zm-4 10.172L17.484 10l-.125-.125H12v-.25h5.11l-.25-.25H12v-.25h4.61l-.25-.25H12v-.25h4.11l-.25-.25H12v-.25h3.61l-.25-.25H12v-.047H8.687L6.517 10l.109.125H12v.25H6.86l.218.25H12v.25H7.297l.219.25H12v.25H7.734l.235.25H12v.25H8.187l.22.25H12v.25H8.625l.234.25H12v.25H9.078l.219.25H12v.25H9.516l.218.25H12v.25H9.969l.219.25H12v.25h-1.594l.219.25H12v.25h-1.14l.218.25H12v.25h-.703l.219.25H12v.25h-.266l.235.25H12v.047Z"/>
</svg>
