<svg xmlns="http://www.w3.org/2000/svg" width="24" height="24" viewBox="0 0 24 24"><g id="sort-asc" fill="none" fill-rule="evenodd" stroke="none" stroke-width="1"><path id="Path" fill="#000" d="M4 8L9 8C9.55228475 8 10 8.44771525 10 9 10 9.55228475 9.55228475 10 9 10L4 10C3.44771525 10 3 9.55228475 3 9 3 8.44771525 3.44771525 8 4 8zM4 16L12 16C12.5522847 16 13 16.4477153 13 17 13 17.5522847 12.5522847 18 12 18L4 18C3.44771525 18 3 17.5522847 3 17 3 16.4477153 3.44771525 16 4 16zM4 12L11 12C11.5522847 12 12 12.4477153 12 13 12 13.5522847 11.5522847 14 11 14L4 14C3.44771525 14 3 13.5522847 3 13 3 12.4477153 3.44771525 12 4 12z"/><path id="Path" fill="#000" fill-rule="nonzero" d="M16,8.41421356 L13.7071068,10.7071068 C13.3165825,11.0976311 12.6834175,11.0976311 12.2928932,10.7071068 C11.9023689,10.3165825 11.9023689,9.68341751 12.2928932,9.29289322 L16.2928932,5.29289322 C16.6834175,4.90236893 17.3165825,4.90236893 17.7071068,5.29289322 L21.7071068,9.29289322 C22.0976311,9.68341751 22.0976311,10.3165825 21.7071068,10.7071068 C21.3165825,11.0976311 20.6834175,11.0976311 20.2928932,10.7071068 L18,8.41421356 L18,18 C18,18.5522847 17.5522847,19 17,19 C16.4477153,19 16,18.5522847 16,18 L16,8.41421356 Z"/></g></svg>