<svg xmlns="http://www.w3.org/2000/svg" width="24" height="24" viewBox="0 0 24 24"><g id="sort-dsc" fill="none" fill-rule="evenodd" stroke="none" stroke-width="1"><path id="Path" fill="#000" d="M4 16L9 16C9.55228475 16 10 15.5522847 10 15 10 14.4477153 9.55228475 14 9 14L4 14C3.44771525 14 3 14.4477153 3 15 3 15.5522847 3.44771525 16 4 16zM4 8L12 8C12.5522847 8 13 7.55228475 13 7 13 6.44771525 12.5522847 6 12 6L4 6C3.44771525 6 3 6.44771525 3 7 3 7.55228475 3.44771525 8 4 8zM4 12L11 12C11.5522847 12 12 11.5522847 12 11 12 10.4477153 11.5522847 10 11 10L4 10C3.44771525 10 3 10.4477153 3 11 3 11.5522847 3.44771525 12 4 12z"/><path id="Path" fill="#000" fill-rule="nonzero" d="M16,15.5857864 L13.7071068,13.2928932 C13.3165825,12.9023689 12.6834175,12.9023689 12.2928932,13.2928932 C11.9023689,13.6834175 11.9023689,14.3165825 12.2928932,14.7071068 L16.2928932,18.7071068 C16.6834175,19.0976311 17.3165825,19.0976311 17.7071068,18.7071068 L21.7071068,14.7071068 C22.0976311,14.3165825 22.0976311,13.6834175 21.7071068,13.2928932 C21.3165825,12.9023689 20.6834175,12.9023689 20.2928932,13.2928932 L18,15.5857864 L18,6 C18,5.44771525 17.5522847,5 17,5 C16.4477153,5 16,5.44771525 16,6 L16,15.5857864 Z"/></g></svg>