<svg fill="none" height="16" viewBox="0 0 16 16" width="16" xmlns="http://www.w3.org/2000/svg"><g fill="#222f3e"><path d="m2.667 2h10.666c.368 0 .667.298.667.667v10.666a.667.667 0 0 1 -.667.667h-10.666a.667.667 0 0 1 -.667-.667v-10.666c0-.369.298-.667.667-.667zm.666 8.493 2.18-2.18a.5.5 0 0 1 .707 0l1.713 1.713 2.736-2.735a.5.5 0 0 1 .707 0l1.29 1.29v-5.247h-9.332v7.16zm0 1.414v.76h1.96l1.933-1.934-1.36-1.36zm7.69-3.555 1.644 1.644v2.67h-5.96l4.315-4.314z" fill-rule="evenodd"/><path d="m8.667 6.333a1 1 0 1 1 -2 0 1 1 0 0 1 2 0z"/></g></svg>