<svg fill="none" height="16" viewBox="0 0 16 16" width="16" xmlns="http://www.w3.org/2000/svg"><g fill="#222f3e"><path d="m8.254 8.041a.986.986 0 0 1 1.913-.47 3.971 3.971 0 0 1 -1.048 3.755l-1.755 1.754a3.143 3.143 0 0 1 -4.444-4.444l.578-.577a.985.985 0 0 1 1.392 1.393l-.577.577a1.172 1.172 0 0 0 1.659 1.658l1.754-1.754a2.001 2.001 0 0 0 .528-1.892z"/><path d="m7.746 7.959a.986.986 0 0 1 -1.913.47 3.971 3.971 0 0 1 1.047-3.756l1.756-1.753a3.143 3.143 0 0 1 4.444 4.444l-.578.577a.985.985 0 0 1 -1.392-1.393l.577-.577a1.172 1.172 0 0 0 -1.659-1.658l-1.754 1.754a2.001 2.001 0 0 0 -.528 1.892z"/></g></svg>