<svg fill="none" height="16" viewBox="0 0 16 16" width="16" xmlns="http://www.w3.org/2000/svg"><g fill="#222f3e" fill-rule="evenodd"><path d="m3.45 12.55a2.674 2.674 0 0 1 0-3.783l.537-.537a.667.667 0 1 1 .943.944l-.537.537a1.34 1.34 0 1 0 1.896 1.895l1.631-1.632a2.11 2.11 0 0 0 .557-1.996.667.667 0 0 1 1.296-.318 3.445 3.445 0 0 1 -.91 3.257l-1.631 1.633a2.674 2.674 0 0 1 -3.782 0z"/><path d="m12.55 3.45a2.674 2.674 0 0 1 0 3.781l-.537.537a.667.667 0 1 1 -.943-.943l.537-.537a1.34 1.34 0 1 0 -1.897-1.895l-1.63 1.632a2.11 2.11 0 0 0 -.557 1.995.667.667 0 1 1 -1.296.318 3.445 3.445 0 0 1 .91-3.257l1.631-1.631a2.674 2.674 0 0 1 3.782 0z"/></g></svg>