<svg xmlns="http://www.w3.org/2000/svg" width="16" height="16" fill="none" viewBox="0 0 16 16">
  <path fill="#222F3E" d="M3.2 12.8h.686V14H2.6a.6.6 0 0 1-.6-.6v-1.286h1.2v.686ZM7.486 14H4.914v-1.2h2.572V14ZM13.4 9.2a.6.6 0 1 1 0 1.2h-2.152l2.576 2.576a.6.6 0 1 1-.848.848L10.4 11.248V13.4a.6.6 0 1 1-1.2 0V9.2h4.2ZM3.2 11.085H2v-2.57h1.2v2.57Zm0-3.599H2V4.914h1.2v2.572Zm10.8 0h-1.2V4.914H14v2.572ZM3.886 3.2H3.2v.686H2V2.6a.6.6 0 0 1 .6-.6h1.286v1.2ZM13.4 2a.6.6 0 0 1 .6.6v1.286h-1.2V3.2h-.686V2H13.4ZM7.486 3.2H4.914V2h2.572v1.2Zm3.599 0h-2.57V2h2.57v1.2Z"/>
</svg>
