<?xml version="1.0" encoding="UTF-8"?>
<svg width="24px" height="24px" viewBox="0 0 24 24" version="1.1" xmlns="http://www.w3.org/2000/svg" xmlns:xlink="http://www.w3.org/1999/xlink">
    <!-- Generator: Sketch 51.2 (57519) - http://www.bohemiancoding.com/sketch -->
    <title>icon-sourcecode</title>
    <desc>Created with Sketch.</desc>
    <defs></defs>
    <g stroke="none" stroke-width="1" fill="none" fill-rule="evenodd">
        <path d="M10.6689782,9.21845958 C10.9812657,8.91680892 11.4679109,8.92570969 11.7697387,9.23859257 C12.0715666,9.55147544 12.0801529,10.0559448 11.7891604,10.3796704 L7.56205798,14.7615982 C7.25261554,15.0819756 6.75131828,15.0819756 6.44187585,14.7615982 L2.21477346,10.3796704 C1.92378094,10.0559448 1.93236723,9.55147544 2.2341951,9.23859257 C2.53602297,8.92570969 3.0226681,8.91680892 3.3349556,9.21845958 L7.00196691,13.0197819 L10.6689782,9.21845958 Z" fill="#000000" fill-rule="nonzero" transform="translate(7.001967, 11.999914) rotate(90.000000) translate(-7.001967, -11.999914) "></path>
        <path d="M20.6689782,9.21845958 C20.9812657,8.91680892 21.4679109,8.92570969 21.7697387,9.23859257 C22.0715666,9.55147544 22.0801529,10.0559448 21.7891604,10.3796704 L17.562058,14.7615982 C17.2526155,15.0819756 16.7513183,15.0819756 16.4418758,14.7615982 L12.2147735,10.3796704 C11.9237809,10.0559448 11.9323672,9.55147544 12.2341951,9.23859257 C12.536023,8.92570969 13.0226681,8.91680892 13.3349556,9.21845958 L17.0019669,13.0197819 L20.6689782,9.21845958 Z" fill="#000000" fill-rule="nonzero" transform="translate(17.001967, 11.999914) scale(-1, 1) rotate(90.000000) translate(-17.001967, -11.999914) "></path>
    </g>
</svg>