<?xml version="1.0" encoding="UTF-8"?>
<svg width="24px" height="24px" viewBox="0 0 24 24" version="1.1" xmlns="http://www.w3.org/2000/svg" xmlns:xlink="http://www.w3.org/1999/xlink">
    <!-- Generator: Sketch 51.2 (57519) - http://www.bohemiancoding.com/sketch -->
    <title>icon-spell-check</title>
    <desc>Created with Sketch.</desc>
    <defs></defs>
    <g stroke="none" stroke-width="1" fill="none" fill-rule="evenodd">
        <path d="M6,8 L6,11 L5,11 L5,5 C5,4.72916531 5.09895734,4.49479266 5.296875,4.296875 C5.49479266,4.09895734 5.72916531,4 6,4 L8,4 C8.27083469,4 8.50520734,4.09895734 8.703125,4.296875 C8.90104266,4.49479266 9,4.72916531 9,5 L9,11 L8,11 L8,8 L6,8 Z M6,5 L6,7 L8,7 L8,5 L6,5 Z M19,5 L16,5 L16,10 L19,10 L19,11 L16,11 C15.7291653,11 15.4947927,10.9010427 15.296875,10.703125 C15.0989573,10.5052073 15,10.2708347 15,10 L15,5 C15,4.72916531 15.0989573,4.49479266 15.296875,4.296875 C15.4947927,4.09895734 15.7291653,4 16,4 L19,4 L19,5 Z M14,6.5 C14,6.77083469 13.9531255,7.00520734 13.859375,7.203125 C13.7656245,7.40104266 13.5833347,7.5 13.3125,7.5 C13.5833347,7.5 13.7656245,7.59895734 13.859375,7.796875 C13.9531255,7.99479266 14,8.22916531 14,8.5 L14,10 C14,10.2708347 13.9010427,10.5052073 13.703125,10.703125 C13.5052073,10.9010427 13.2708347,11 13,11 L10,11 L10,4 L13,4 C13.2708347,4 13.5052073,4.09895734 13.703125,4.296875 C13.9010427,4.49479266 14,4.72916531 14,5 L14,6.5 Z M13,10 L13,8 L11,8 L11,10 L13,10 Z M13,7 L13,5 L11,5 L11,7 L13,7 Z M16,12 L17,13 L10.5,20 L7,15.5 L8.28125,14.40625 L10.5,16.71875 L16,12 Z" fill="#000000"></path>
    </g>
</svg>