<svg fill="none" height="24" viewBox="0 0 24 24" width="24" xmlns="http://www.w3.org/2000/svg"><g fill="#222f3e"><path d="m17.5 17a1.5 1.5 0 1 1 0 3 1.5 1.5 0 0 1 0-3z"/><path d="m17.5 14a4.5 4.5 0 1 1 0 9 4.5 4.5 0 0 1 0-9zm0 2a2.5 2.5 0 1 0 0 5 2.5 2.5 0 0 0 0-5z" fill-rule="evenodd"/><path d="m19 7.586v4.59a6.515 6.515 0 0 0 -2-.155v-3.021h-3v-4h-7v14h4.021a6.47 6.47 0 0 0 .478 2h-4.499c-1.103 0-2-.897-2-2v-14c0-1.102.897-2 2-2h7.414z"/><path d="m12 15.038a6.459 6.459 0 0 0 -.824 1.962h-2.176v-2h3zm3-2.54c-.336.14-.657.31-.962.502h-3.038v-2h4zm-4-3.498h-2v-2h2z"/><path d="m17.5 23a4.5 4.5 0 1 0 0-9 4.5 4.5 0 0 0 0 9zm-2.5-4.5a2.5 2.5 0 1 1 5 0 2.5 2.5 0 0 1 -5 0zm2.5-1.5a1.5 1.5 0 1 1 0 3 1.5 1.5 0 0 1 0-3z" fill-rule="evenodd"/></g></svg>