<svg xmlns="http://www.w3.org/2000/svg" width="24" height="24" fill="none" viewBox="0 0 24 24">
  <path fill="#222F3E" fill-rule="evenodd" d="M14 3c.302 0 .588.069.845.188-1.31 1.065-1.096 3.31.638 3.992v.002l.176.07c.104.046.202.103.296.164A2 2 0 0 1 14 9h-4a2 2 0 0 1-2-2H6v13h12V9.778a2.38 2.38 0 0 0 2 0V21a1 1 0 0 1-1 1H5a1 1 0 0 1-1-1V6a1 1 0 0 1 1-1h3a2 2 0 0 1 2-2h4Zm-4 4h4V5h-4v2Z"/>
  <path fill="#222F3E" d="M15 16a1 1 0 1 1 0 2H9a1 1 0 1 1 0-2h6Zm0-4a1 1 0 1 1 0 2H9a1 1 0 1 1 0-2h6Zm3.676-9.774a.345.345 0 0 1 .648 0 4.147 4.147 0 0 0 2.45 2.45.345.345 0 0 1 0 .648l-.21.084a4.144 4.144 0 0 0-2.087 2.008l-.04.085c-.04.09-.078.18-.113.273l-.024.053-.058.075a.333.333 0 0 1-.067.051c-.012.007-.025.01-.037.016l-.038.014a.346.346 0 0 1-.083.014.353.353 0 0 1-.084-.006.346.346 0 0 1-.078-.025.226.226 0 0 1-.035-.017.332.332 0 0 1-.043-.032l-.022-.019a.336.336 0 0 1-.055-.07l-.024-.054a4.147 4.147 0 0 0-2.24-2.366l-.21-.084a.346.346 0 0 1 0-.648 4.147 4.147 0 0 0 2.45-2.45Z"/>
</svg>
