<?xml version="1.0" encoding="UTF-8"?>
<svg width="24px" height="24px" viewBox="0 0 24 24" version="1.1" xmlns="http://www.w3.org/2000/svg" xmlns:xlink="http://www.w3.org/1999/xlink">
    <!-- Generator: Sketch 51.2 (57519) - http://www.bohemiancoding.com/sketch -->
    <title>icon-table-row-properties</title>
    <desc>Created with Sketch.</desc>
    <defs></defs>
    <g stroke="none" stroke-width="1" fill="none" fill-rule="evenodd">
        <path d="M4,5 L20,5 L20,19 L4,19 L4,5 Z M14,15 L10,15 L10,18 L14,18 L14,15 Z M14,7 L10,7 L10,10 L14,10 L14,7 Z M9,7 L5,7 L5,10 L9,10 L9,7 Z M15,10 L19,10 L19,7 L15,7 L15,10 Z M5,15 L5,18 L9,18 L9,15 L5,15 Z M15,18 L19,18 L19,15 L15,15 L15,18 Z" fill="#000000"></path>
    </g>
</svg>