<svg xmlns="http://www.w3.org/2000/svg" width="24" height="24" viewBox="0 0 24 24"><g id="table-insert-column-before" fill="none" fill-rule="evenodd" stroke="none" stroke-width="1"><path id="Shape" fill="#000" fill-rule="nonzero" d="M4,20 C3.44771525,20 3,19.5522847 3,19 C3,18.4477153 3.44771525,18 4,18 L13,18 L13,6 L4,6 C3.44771525,6 3,5.55228475 3,5 C3,4.44771525 3.44771525,4 4,4 L19,4 C20.1045695,4 21,4.8954305 21,6 L21,18 C21,19.1045695 20.1045695,20 19,20 L4,20 Z M19,13 L15,13 L15,18 L19,18 L19,13 Z M19,6 L15,6 L15,11 L19,11 L19,6 Z"/><path id="Combined-Shape" fill="#000" fill-rule="nonzero" d="M7,8 C7.55228475,8 8,8.44771525 8,9 L8,9 L8,11 L10,11 C10.5128358,11 10.9355072,11.3860402 10.9932723,11.8833789 L11,12 C11,12.5522847 10.5522847,13 10,13 L10,13 L8,13 L8,15 C8,15.5128358 7.61395981,15.9355072 7.11662113,15.9932723 L7,16 C6.44771525,16 6,15.5522847 6,15 L6,15 L6,13 L4,13 C3.48716416,13 3.06449284,12.6139598 3.00672773,12.1166211 L3,12 C3,11.4477153 3.44771525,11 4,11 L4,11 L6,11 L6,9 C6,8.48716416 6.38604019,8.06449284 6.88337887,8.00672773 Z"/></g></svg>