<svg xmlns="http://www.w3.org/2000/svg" width="24" height="24" viewBox="0 0 24 24"><g id="table-insert-row-above" fill="none" fill-rule="evenodd" stroke="none" stroke-width="1"><path id="Shape" fill="#000" fill-rule="nonzero" d="M21,18 C21,19.1045695 20.1045695,20 19,20 L5,20 C3.8954305,20 3,19.1045695 3,18 L3,5 C3,4.44771525 3.44771525,4 4,4 C4.55228475,4 5,4.44771525 5,5 L5,12 L19,12 L19,5 C19,4.44771525 19.4477153,4 20,4 C20.5522847,4 21,4.44771525 21,5 L21,18 Z M11,14 L5,14 L5,18 L11,18 L11,14 Z M19,14 L13,14 L13,18 L19,18 L19,14 Z"/><path id="Path" fill="#000" fill-rule="nonzero" d="M11.8833789,3.00672773 L12,3 C12.5128358,3 12.9355072,3.38604019 12.9932723,3.88337887 L13,4 L12.9993333,6 L14.9166667,6 C15.4295025,6 15.8521738,6.38604019 15.9099389,6.88337887 L15.9166667,7 C15.9166667,7.51283584 15.5306265,7.93550716 15.0332878,7.99327227 L14.9166667,8 L12.9993333,8 L13,10 C13,10.5128358 12.6139598,10.9355072 12.1166211,10.9932723 L12,11 C11.4871642,11 11.0644928,10.6139598 11.0067277,10.1166211 L11,10 L10.9993333,8 L9.08333333,8 C8.57049749,8 8.14782617,7.61395981 8.09006106,7.11662113 L8.08333333,7 C8.08333333,6.48716416 8.46937352,6.06449284 8.96671221,6.00672773 L9.08333333,6 L10.9993333,6 L11,4 C11,3.48716416 11.3860402,3.06449284 11.8833789,3.00672773 L12,3 L11.8833789,3.00672773 Z"/></g></svg>