<svg xmlns="http://www.w3.org/2000/svg" width="24" height="24" viewBox="0 0 24 24">
  <g fill="none" fill-rule="evenodd">
    <path fill="#000" fill-rule="nonzero" d="M13,4 L13,13 L3,13 L3,6 C3,4.8954305 3.8954305,4 5,4 L13,4 Z M11,6 L5,6 L5,11 L11,11 L11,6 Z"/>
    <path fill="#000" fill-rule="nonzero" d="M13 4L19 4C20.1045695 4 21 4.8954305 21 6L21 13 13 13 13 11 19 11 19 6 13 6 13 4zM3 13L3 18C3 19.1045695 3.8954305 20 5 20L13 20 13 13 11 13 11 18 5 18 5 13 3 13z" opacity=".2"/>
    <circle cx="15" cy="17" r="1" fill="#000"/>
    <circle cx="18" cy="17" r="1" fill="#000"/>
    <circle cx="21" cy="17" r="1" fill="#000"/>
  </g>
</svg>
