<svg xmlns="http://www.w3.org/2000/svg" width="24" height="24" viewBox="0 0 24 24"><g id="table-insert-column-after" fill="none" fill-rule="evenodd" stroke="none" stroke-width="1"><path id="Shape" fill="#000" fill-rule="nonzero" d="M5,20 C3.8954305,20 3,19.1045695 3,18 L3,6 C3,4.8954305 3.8954305,4 5,4 L20,4 C20.5522847,4 21,4.44771525 21,5 C21,5.55228475 20.5522847,6 20,6 L11,6 L11,18 L20,18 C20.5522847,18 21,18.4477153 21,19 C21,19.5522847 20.5522847,20 20,20 L5,20 Z M9,13 L5,13 L5,18 L9,18 L9,13 Z M9,6 L5,6 L5,11 L9,11 L9,6 Z"/><path id="Path" fill="#000" fill-rule="nonzero" d="M16.8833789,8.00672773 L17,8 C17.5128358,8 17.9355072,8.38604019 17.9932723,8.88337887 L18,9 L18,11 L20,11 C20.5128358,11 20.9355072,11.3860402 20.9932723,11.8833789 L21,12 C21,12.5128358 20.6139598,12.9355072 20.1166211,12.9932723 L20,13 L18,13 L18,15 C18,15.5128358 17.6139598,15.9355072 17.1166211,15.9932723 L17,16 C16.4871642,16 16.0644928,15.6139598 16.0067277,15.1166211 L16,15 L16,13 L14,13 C13.4871642,13 13.0644928,12.6139598 13.0067277,12.1166211 L13,12 C13,11.4871642 13.3860402,11.0644928 13.8833789,11.0067277 L14,11 L16,11 L16,9 C16,8.48716416 16.3860402,8.06449284 16.8833789,8.00672773 L17,8 L16.8833789,8.00672773 Z"/></g></svg>