<svg xmlns="http://www.w3.org/2000/svg" width="24" height="24" viewBox="0 0 24 24"><g id="table-delete-row" fill="none" fill-rule="evenodd" stroke="none" stroke-width="1"><path id="Shape" fill="#000" fill-rule="nonzero" d="M19,4 C20.1045695,4 21,4.8954305 21,6 L21,18 C21,19.1045695 20.1045695,20 19,20 L5,20 C3.8954305,20 3,19.1045695 3,18 L3,6 C3,4.8954305 3.8954305,4 5,4 L19,4 Z M5,18 L19,18 L19,6 L5,6 L5,11 L10.5,11 L10.5,13 L5,13 L5,18 Z"/><polygon id="Path" fill="#000" fill-rule="nonzero" points="16.39 8.55 17.45 9.61 15.06 12 17.45 14.39 16.39 15.45 14 13.06 11.61 15.45 10.55 14.39 12.94 12 10.55 9.61 11.61 8.55 14 10.94"/></g></svg>