<svg xmlns="http://www.w3.org/2000/svg" width="24" height="24" viewBox="0 0 24 24"><g id="table-insert-row-above" fill="none" fill-rule="evenodd" stroke="none" stroke-width="1"><path id="Shape" fill="#000" fill-rule="nonzero" d="M6,4 C6.55228475,4 7,4.44771525 7,5 C7,5.55228475 6.55228475,6 6,6 L5,6 L5,12 L19,12 L19,6 L18,6 C17.4477153,6 17,5.55228475 17,5 C17,4.44771525 17.4477153,4 18,4 L20,4 C20.5522847,4 21,4.44771525 21,5 L21,18 C21,19.1045695 20.1045695,20 19,20 L5,20 C3.8954305,20 3,19.1045695 3,18 L3,5 C3,4.44771525 3.44771525,4 4,4 L6,4 Z M11,14 L5,14 L5,18 L11,18 L11,14 Z M19,14 L13,14 L13,18 L19,18 L19,14 Z M12,3 C12.5128358,3 12.9355072,3.38604019 12.9932723,3.88337887 L13,4 L13,6 L14.9166667,6 C15.4689514,6 15.9166667,6.44771525 15.9166667,7 C15.9166667,7.51283584 15.5306265,7.93550716 15.0332878,7.99327227 L14.9166667,8 L13,8 L13,10 C13,10.5522847 12.5522847,11 12,11 C11.4871642,11 11.0644928,10.6139598 11.0067277,10.1166211 L11,10 L11,8 L9.08333333,8 C8.53104858,8 8.08333333,7.55228475 8.08333333,7 C8.08333333,6.48716416 8.46937352,6.06449284 8.96671221,6.00672773 L9.08333333,6 L11,6 L11,4 C11,3.44771525 11.4477153,3 12,3 Z"/></g></svg>