<svg xmlns="http://www.w3.org/2000/svg" width="24" height="24" viewBox="0 0 24 24">
  <path d="M18,4 C19.1045695,4 20,4.8954305 20,6 L20,19 C20,20.1045695 19.1045695,21 18,21 L6,21 C4.8954305,21 4,20.1045695 4,19 L4,6 C4,4.8954305 4.8954305,4 6,4 L18,4 Z M18,16 L10,16 L10,19 L18,19 L18,16 Z M7,16 C6.44771525,16 6,16.4477153 6,17 L6,17 L6,18 C6,18.5522847 6.44771525,19 7,19 C7.55228475,19 8,18.5522847 8,18 L8,18 L8,17 C8,16.4477153 7.55228475,16 7,16 Z M18,11 L10,11 L10,14 L18,14 L18,11 Z M7,11 C6.44771525,11 6,11.4477153 6,12 L6,12 L6,13 C6,13.5522847 6.44771525,14 7,14 C7.55228475,14 8,13.5522847 8,13 L8,13 L8,12 C8,11.4477153 7.55228475,11 7,11 Z M18,6 L10,6 L10,9 L18,9 L18,6 Z M7,6 C6.44771525,6 6,6.44771525 6,7 L6,7 L6,8 C6,8.55228475 6.44771525,9 7,9 C7.55228475,9 8,8.55228475 8,8 L8,8 L8,7 C8,6.44771525 7.55228475,6 7,6 Z" transform="matrix(-1 0 0 1 24 0)"/>
</svg>
