<?xml version="1.0" encoding="UTF-8"?>
<svg width="24px" height="24px" viewBox="0 0 24 24" version="1.1" xmlns="http://www.w3.org/2000/svg" xmlns:xlink="http://www.w3.org/1999/xlink">
    <!-- Generator: Sketch 51.2 (57519) - http://www.bohemiancoding.com/sketch -->
    <title>icon-table-insert-row-after</title>
    <desc>Created with Sketch.</desc>
    <defs></defs>
    <g stroke="none" stroke-width="1" fill="none" fill-rule="evenodd">
        <path d="M9.203125,14.4765625 L9.203125,14.4765625 C9.203125,14.187476 9.43747595,13.953125 9.7265625,13.953125 L11.453125,13.953125 L11.453125,12.25 C11.453125,11.9479693 11.6979693,11.703125 12,11.703125 L12,11.703125 C12.3020307,11.703125 12.546875,11.9479693 12.546875,12.25 L12.546875,13.953125 L14.2734375,13.953125 C14.562524,13.953125 14.796875,14.187476 14.796875,14.4765625 L14.796875,14.4765625 C14.796875,14.765649 14.562524,15 14.2734375,15 L12.546875,15 L12.546875,16.703125 C12.546875,17.0051557 12.3020307,17.25 12,17.25 L12,17.25 C11.6979693,17.25 11.453125,17.0051557 11.453125,16.703125 L11.453125,15 L9.7265625,15 C9.43747595,15 9.203125,14.765649 9.203125,14.4765625 Z M4,5 L20,5 L20,19 L4,19 L4,5 Z M10,7 L10,10 L14,10 L14,7 L10,7 Z M5,7 L5,10 L9,10 L9,7 L5,7 Z M19,18 L19,10.953125 L5,10.953125 L5,18 L19,18 Z M19,10 L19,7 L15,7 L15,10 L19,10 Z" fill="#000000"></path>
    </g>
</svg>