<svg xmlns="http://www.w3.org/2000/svg" width="24" height="24" viewBox="0 0 24 24"><g id="table-split-cells" fill="none" fill-rule="evenodd" stroke="none" stroke-width="1"><path id="Shape" fill="#000" fill-rule="nonzero" d="M19,4 C20.1045695,4 21,4.8954305 21,6 L21,18 C21,19.1045695 20.1045695,20 19,20 L5,20 C3.8954305,20 3,19.1045695 3,18 L3,6 C3,4.8954305 3.8954305,4 5,4 L19,4 Z M8,15.5 L5,15.5 L5,18 L8,18 L8,15.5 Z M19,10.5 L10,10.5 L10,18 L19,18 L19,10.5 Z M16.4696699,11.4696699 L17.5303301,12.5303301 L15.561,14.5 L17.5303301,16.4696699 L16.4696699,17.5303301 L14.5,15.561 L12.5303301,17.5303301 L11.4696699,16.4696699 L13.439,14.5 L11.4696699,12.5303301 L12.5303301,11.4696699 L14.5,13.439 L16.4696699,11.4696699 Z M8,10.5 L5,10.5 L5,13.5 L8,13.5 L8,10.5 Z M19,6 L15,6 L15,8.5 L19,8.5 L19,6 Z M8,6 L5,6 L5,8.5 L8,8.5 L8,6 Z M13,6 L10,6 L10,8.5 L13,8.5 L13,6 Z"/></g></svg>