<?xml version="1.0" encoding="UTF-8"?>
<svg width="24px" height="24px" viewBox="0 0 24 24" version="1.1" xmlns="http://www.w3.org/2000/svg" xmlns:xlink="http://www.w3.org/1999/xlink">
    <!-- Generator: Sketch 51.2 (57519) - http://www.bohemiancoding.com/sketch -->
    <title>icon-table-insert-row-above</title>
    <desc>Created with Sketch.</desc>
    <defs></defs>
    <g stroke="none" stroke-width="1" fill="none" fill-rule="evenodd">
        <path d="M14.796875,10.5234375 L14.796875,10.5234375 C14.796875,10.812524 14.562524,11.046875 14.2734375,11.046875 L12.546875,11.046875 L12.546875,12.75 C12.546875,13.0520307 12.3020307,13.296875 12,13.296875 L12,13.296875 C11.6979693,13.296875 11.453125,13.0520307 11.453125,12.75 L11.453125,11.046875 L9.7265625,11.046875 C9.43747595,11.046875 9.203125,10.812524 9.203125,10.5234375 L9.203125,10.5234375 C9.203125,10.234351 9.43747595,10 9.7265625,10 L11.453125,10 L11.453125,8.296875 C11.453125,7.99484428 11.6979693,7.75 12,7.75 L12,7.75 C12.3020307,7.75 12.546875,7.99484428 12.546875,8.296875 L12.546875,10 L14.2734375,10 C14.562524,10 14.796875,10.234351 14.796875,10.5234375 Z M4,5 L20,5 L20,19 L4,19 L4,5 Z M9,18 L9,15 L5,15 L5,18 L9,18 Z M14,18 L14,15 L10,15 L10,18 L14,18 Z M19,18 L19,15 L15,15 L15,18 L19,18 Z M19,14.046875 L19,7 L5,7 L5,14.046875 L19,14.046875 Z" fill="#000000"></path>
    </g>
</svg>