<svg xmlns="http://www.w3.org/2000/svg" width="24" height="24" viewBox="0 0 24 24"><g id="table-row-properties" fill="none" fill-rule="evenodd" stroke="none" stroke-width="1"><path id="Shape" fill="#000" fill-rule="nonzero" d="M19,4 C20.1045695,4 21,4.8954305 21,6 L21,18 C21,19.1045695 20.1045695,20 19,20 L5,20 C3.8954305,20 3,19.1045695 3,18 L3,6 C3,4.8954305 3.8954305,4 5,4 L19,4 Z M5,15 L5,18 L11,18 L11,15 L5,15 Z M19,15 L13,15 L13,18 L19,18 L19,15 Z M19,6 L13,6 L13,9 L19,9 L19,6 Z M5,9 L11,9 L11,6 L5,6 L5,9 Z"/></g></svg>