<svg xmlns="http://www.w3.org/2000/svg" width="24" height="24" viewBox="0 0 24 24"><g id="table-delete-row" fill="none" fill-rule="evenodd" stroke="none" stroke-width="1"><path id="Shape" fill="#000" fill-rule="nonzero" d="M19,4 C20.1045695,4 21,4.8954305 21,6 L21,18 C21,19.1045695 20.1045695,20 19,20 L5,20 C3.8954305,20 3,19.1045695 3,18 L3,6 C3,4.8954305 3.8954305,4 5,4 L19,4 Z M19,6 L5,6 L5,9 L7.5,9 L7.5,11 L5,11 L5,13 L7.5,13 L7.5,15 L5,15 L5,18 L19,18 L19,15 L16.5,15 L16.5,13 L19,13 L19,11 L16.5,11 L16.5,9 L19,9 L19,6 Z M14.3246525,7.78954454 L15.5086808,8.71045546 L12.95,12 L15.5086808,15.2895445 L14.3246525,16.2104555 L12,13.221 L9.6753475,16.2104555 L8.49131917,15.2895445 L11.049,12 L8.49131917,8.71045546 L9.6753475,7.78954454 L12,10.778 L14.3246525,7.78954454 Z"/></g></svg>