<svg xmlns="http://www.w3.org/2000/svg" width="24" height="24" viewBox="0 0 24 24"><g id="table-insert-row-after" fill="none" fill-rule="evenodd" stroke="none" stroke-width="1"><path id="Shape" fill="#000" fill-rule="nonzero" d="M21,20 C21,20.5522847 20.5522847,20 20,20 C19.4477153,20 19,19.5522847 19,19 L19,12 L5,12 L5,19 C5,19.5522847 4.55228475,20 4,20 C3.44771525,20 3,19.5522847 3,19 L3,6 C3,4.8954305 3.8954305,4 5,4 L19,4 C20.1045695,4 21,4.8954305 21,6 L21,20 Z M11,6 L5,6 L5,10 L11,10 L11,6 Z M19,6 L13,6 L13,10 L19,10 L19,6 Z"/><path id="Path" fill="#000" fill-rule="nonzero" d="M11.8833789,13.0067277 L12,13 C12.5128358,13 12.9355072,13.3860402 12.9932723,13.8833789 L13,14 L13,16 L15,16 C15.5128358,16 15.9355072,16.3860402 15.9932723,16.8833789 L16,17 C16,17.5128358 15.6139598,17.9355072 15.1166211,17.9932723 L15,18 L13,18 L13,20 C13,20.5128358 12.6139598,20.9355072 12.1166211,20.9932723 L12,21 C11.4871642,21 11.0644928,20.6139598 11.0067277,20.1166211 L11,20 L11,18 L9,18 C8.48716416,18 8.06449284,17.6139598 8.00672773,17.1166211 L8,17 C8,16.4871642 8.38604019,16.0644928 8.88337887,16.0067277 L9,16 L11,16 L11,14 C11,13.4871642 11.3860402,13.0644928 11.8833789,13.0067277 L12,13 L11.8833789,13.0067277 Z"/></g></svg>