<svg xmlns="http://www.w3.org/2000/svg" width="24" height="24" viewBox="0 0 24 24"><g id="table-insert-row-after" fill="none" fill-rule="evenodd" stroke="none" stroke-width="1"><path id="Shape" fill="#000" fill-rule="nonzero" d="M12,13 C12.5128358,13 12.9355072,13.3860402 12.9932723,13.8833789 L13,14 L13,16 L15,16 C15.5522847,16 16,16.4477153 16,17 C16,17.5128358 15.6139598,17.9355072 15.1166211,17.9932723 L15,18 L13,18 L13,20 C13,20.5522847 12.5522847,21 12,21 C11.4871642,21 11.0644928,20.6139598 11.0067277,20.1166211 L11,20 L11,18 L9,18 C8.44771525,18 8,17.5522847 8,17 C8,16.4871642 8.38604019,16.0644928 8.88337887,16.0067277 L9,16 L11,16 L11,14 C11,13.4477153 11.4477153,13 12,13 Z M18,20 C17.4477153,20 17,19.5522847 17,19 C17,18.4477153 17.4477153,18 18,18 L19,18 L19,12 L5,12 L5,18 L6,18 C6.55228475,18 7,18.4477153 7,19 C7,19.5522847 6.55228475,20 6,20 L4,20 C3.44771525,20 3,19.5522847 3,19 L3,6 C3,4.8954305 3.8954305,4 5,4 L19,4 C20.1045695,4 21,4.8954305 21,6 L21,19 C21,19.5128358 20.6139598,19.9355072 20.1166211,19.9932723 L20,20 L18,20 Z M11,6 L5,6 L5,10 L11,10 L11,6 Z M19,6 L13,6 L13,10 L19,10 L19,6 Z"/></g></svg>