<svg xmlns="http://www.w3.org/2000/svg" width="24" height="24" viewBox="0 0 24 24">
  <g fill="none" fill-rule="evenodd">
    <path fill="#000" fill-rule="nonzero" d="M21,13 L3,13 L3,6 C3,4.8954305 3.8954305,4 5,4 L19,4 C20.1045695,4 21,4.8954305 21,6 L21,13 Z M11,11 L11,6 L5,6 L5,11 L11,11 Z M19,11 L19,6 L13,6 L13,11 L19,11 Z"/>
    <path fill="#000" fill-rule="nonzero" d="M3,13 L3,18 C3,19.1045695 3.8954305,20 5,20 L13,20 L13,13 L11,13 L11,18 L5,18 L5,13 L3,13 Z" opacity=".2"/>
    <circle cx="15" cy="17" r="1" fill="#000"/>
    <circle cx="18" cy="17" r="1" fill="#000"/>
    <circle cx="21" cy="17" r="1" fill="#000"/>
  </g>
</svg>
