<svg xmlns="http://www.w3.org/2000/svg" width="24" height="24" viewBox="0 0 24 24"><g id="table-delete-table" fill="none" fill-rule="evenodd" stroke="none" stroke-width="1"><path id="Rectangle" fill="#000" fill-rule="nonzero" d="M19,4 C20.1045695,4 21,4.8954305 21,6 L21,18 C21,19.1045695 20.1045695,20 19,20 L5,20 C3.8954305,20 3,19.1045695 3,18 L3,6 C3,4.8954305 3.8954305,4 5,4 L19,4 Z M5,6 L5,18 L19,18 L19,6 L5,6 Z"/><polygon id="Path" fill="#000" fill-rule="nonzero" points="14.39 8.55 15.45 9.61 13.06 12 15.45 14.39 14.39 15.45 12 13.06 9.61 15.45 8.55 14.39 10.94 12 8.55 9.61 9.61 8.55 12 10.94"/></g></svg>