<svg xmlns="http://www.w3.org/2000/svg" width="24" height="24" viewBox="0 0 24 24"><g id="table-insert-column-before" fill="none" fill-rule="evenodd" stroke="none" stroke-width="1"><path id="Shape" fill="#000" fill-rule="nonzero" d="M19,4 C20.1045695,4 21,4.8954305 21,6 L21,18 C21,19.1045695 20.1045695,20 19,20 L4,20 C3.44771525,20 3,19.5522847 3,19 L3,17 C3,16.4477153 3.44771525,16 4,16 C4.55228475,16 5,16.4477153 5,17 L5,18 L13,18 L13,6 L5,6 L5,7 C5,7.55228475 4.55228475,8 4,8 C3.44771525,8 3,7.55228475 3,7 L3,5 C3,4.44771525 3.44771525,4 4,4 L19,4 Z M19,13 L15,13 L15,18 L19,18 L19,13 Z M8,8 C8.51283584,8 8.93550716,8.38604019 8.99327227,8.88337887 L9,9 L9,11 L11,11 C11.5522847,11 12,11.4477153 12,12 C12,12.5128358 11.6139598,12.9355072 11.1166211,12.9932723 L11,13 L9,13 L9,15 C9,15.5522847 8.55228475,16 8,16 C7.48716416,16 7.06449284,15.6139598 7.00672773,15.1166211 L7,15 L7,13 L5,13 C4.44771525,13 4,12.5522847 4,12 C4,11.4871642 4.38604019,11.0644928 4.88337887,11.0067277 L5,11 L7,11 L7,9 C7,8.44771525 7.44771525,8 8,8 Z M19,6 L15,6 L15,11 L19,11 L19,6 Z"/></g></svg>