<svg xmlns="http://www.w3.org/2000/svg" width="24" height="24" viewBox="0 0 24 24">
  <g fill="none" fill-rule="evenodd">
    <path fill="#000" fill-rule="nonzero" d="M13,4 L13,13 L3,13 L3,6 C3,4.8954305 3.8954305,4 5,4 L13,4 Z M11,6 L5,6 L5,11 L11,11 L11,6 Z"/>
    <path fill="#000" fill-rule="nonzero" d="M13,4 L19,4 C20.1045695,4 21,4.8954305 21,6 L21,13 L13,13 L13,11 L19,11 L19,6 L13,6 L13,4 Z" opacity=".2"/>
    <polygon fill="#000" points="18 20.007 15.355 21.641 16.091 18.62 13.72 16.609 16.82 16.376 18 13.5 19.18 16.376 22.28 16.609 19.909 18.62 20.645 21.641"/>
    <path fill="#000" fill-rule="nonzero" d="M3,13 L3,18 C3,19.1045695 3.8954305,20 5,20 L13,20 L13,13 L11,13 L11,18 L5,18 L5,13 L3,13 Z" opacity=".2"/>
  </g>
</svg>
