<svg xmlns="http://www.w3.org/2000/svg" width="24" height="24" viewBox="0 0 24 24"><g id="table-insert-column-after" fill="none" fill-rule="evenodd" stroke="none" stroke-width="1"><path id="Shape" fill="#000" fill-rule="nonzero" d="M20,4 C20.5522847,4 21,4.44771525 21,5 L21,7 C21,7.55228475 20.5522847,8 20,8 C19.4477153,8 19,7.55228475 19,7 L19,6 L11,6 L11,18 L19,18 L19,17 C19,16.4477153 19.4477153,16 20,16 C20.5522847,16 21,16.4477153 21,17 L21,19 C21,19.5128358 20.6139598,19.9355072 20.1166211,19.9932723 L20,20 L5,20 C3.8954305,20 3,19.1045695 3,18 L3,6 C3,4.8954305 3.8954305,4 5,4 L20,4 Z M9,13 L5,13 L5,18 L9,18 L9,13 Z M16,8 C16.5128358,8 16.9355072,8.38604019 16.9932723,8.88337887 L17,9 L17,11 L19,11 C19.5522847,11 20,11.4477153 20,12 C20,12.5128358 19.6139598,12.9355072 19.1166211,12.9932723 L19,13 L17,13 L17,15 C17,15.5522847 16.5522847,16 16,16 C15.4871642,16 15.0644928,15.6139598 15.0067277,15.1166211 L15,15 L15,13 L13,13 C12.4477153,13 12,12.5522847 12,12 C12,11.4871642 12.3860402,11.0644928 12.8833789,11.0067277 L13,11 L15,11 L15,9 C15,8.44771525 15.4477153,8 16,8 Z M9,6 L5,6 L5,11 L9,11 L9,6 Z"/></g></svg>