<svg xmlns="http://www.w3.org/2000/svg" width="24" height="24" viewBox="0 0 24 24"><g id="table-delete-column" fill="none" fill-rule="evenodd" stroke="none" stroke-width="1"><path id="Shape" fill="#000" fill-rule="nonzero" d="M19,4 C20.1045695,4 21,4.8954305 21,6 L21,18 C21,19.1045695 20.1045695,20 19,20 L5,20 C3.8954305,20 3,19.1045695 3,18 L3,6 C3,4.8954305 3.8954305,4 5,4 L19,4 Z M15,8 L13,8 L13,6 L11,6 L11,8 L9,8 L9,6 L5,6 L5,18 L9,18 L9,16 L11,16 L11,18 L13,18 L13,16 L15,16 L15,18 L19,18 L19,6 L15,6 L15,8 Z M15.2895445,8.49131917 L16.2104555,9.6753475 L13.221,12 L16.2104555,14.3246525 L15.2895445,15.5086808 L12,12.95 L8.71045546,15.5086808 L7.78954454,14.3246525 L10.778,12 L7.78954454,9.6753475 L8.71045546,8.49131917 L12,11.049 L15.2895445,8.49131917 Z"/></g></svg>