<?xml version="1.0" encoding="UTF-8"?>
<svg width="24px" height="24px" viewBox="0 0 24 24" version="1.1" xmlns="http://www.w3.org/2000/svg" xmlns:xlink="http://www.w3.org/1999/xlink">
    <!-- Generator: Sketch 51.2 (57519) - http://www.bohemiancoding.com/sketch -->
    <title>icon-template</title>
    <desc>Created with Sketch.</desc>
    <defs></defs>
    <g stroke="none" stroke-width="1" fill="none" fill-rule="evenodd">
        <g transform="translate(3.000000, 3.000000)" fill="#000000" fill-rule="nonzero">
            <path d="M16,16 L16,15 L2,15 L2,16 L16,16 Z M6,13 L6,9 C4.27827837,7.70870878 3.57601328,5.46057187 4.25658351,3.41886117 C4.93715374,1.37715047 6.84784796,3.74700271e-16 9,0 C11.152152,-3.74700271e-16 13.0628463,1.37715047 13.7434165,3.41886117 C14.4239867,5.46057187 13.7217216,7.70870878 12,9 L12,13 L16,13 C17.1045695,13 18,13.8954305 18,15 L18,18 L0,18 L0,15 C-1.31838984e-16,13.8954305 0.8954305,13 2,13 L6,13 Z M10,13 L10,8.001 L10.799,7.401 C11.8325397,6.62651776 12.2544071,5.27748956 11.8462474,4.05215988 C11.4380878,2.82683021 10.2915212,2.00025033 9,2.00025033 C7.70847876,2.00025033 6.5619122,2.82683021 6.15375256,4.05215988 C5.74559291,5.27748956 6.16746027,6.62651776 7.201,7.401 L8,8.001 L8,13 L10,13 Z"></path>
        </g>
    </g>
</svg>