<svg width="24" height="24" viewBox="0 0 24 24" fill="none" xmlns="http://www.w3.org/2000/svg">
<path fill-rule="evenodd" clip-rule="evenodd" d="M14 5C14.5523 5 15 5.44772 15 6C15 6.55228 14.5523 7 14 7H10V18C10 18.5523 9.55228 19 9 19C8.44772 19 8 18.5523 8 18V7H4C3.44772 7 3 6.55228 3 6C3 5.44772 3.44772 5 4 5H14Z" fill="black"/>
<path fill-rule="evenodd" clip-rule="evenodd" d="M17 9C16.4477 9 16 9.44772 16 10V12H14C13.4477 12 13 12.4477 13 13C13 13.5523 13.4477 14 14 14H16V16C16 16.5523 16.4477 17 17 17C17.5523 17 18 16.5523 18 16V14H20C20.5523 14 21 13.5523 21 13C21 12.4477 20.5523 12 20 12H18V10C18 9.44772 17.5523 9 17 9Z" fill="black"/>
</svg>
