<svg xmlns="http://www.w3.org/2000/svg" width="24" height="24" viewBox="0 0 24 24">
  <g id="text-color" fill="none" fill-rule="evenodd">
    <rect class="tox-icon-text-color__color" width="18" height="3" x="3" y="18" fill="#000"/>
    <path id="shape" fill="#000" d="M8.65997607,16 L7.92201533,16 C7.64587295,16 7.42201533,15.7761424 7.42201533,15.5 C7.42201533,15.4513377 7.42911918,15.4029361 7.44310218,15.3563261 L10.1431022,6.35632606 C10.2065498,6.14483408 10.4012112,6 10.6220153,6 L13.3779847,6 C13.5987888,6 13.7934502,6.14483408 13.8568978,6.35632606 L16.5568978,15.3563261 C16.6362467,15.6208225 16.486155,15.8995642 16.2216586,15.9789131 C16.1750486,15.9928961 16.126647,16 16.0779847,16 L15.3400239,16 C15.1195731,16 14.9251354,15.8556208 14.8613861,15.6445885 L14.1698639,13.3554115 C14.1061146,13.1443792 13.9116769,13 13.6912261,13 L10.3087739,13 C10.0883231,13 9.89388544,13.1443792 9.83013611,13.3554115 L9.13861389,15.6445885 C9.07486456,15.8556208 8.88042694,16 8.65997607,16 Z M11.3301361,8.35541149 L10.7259694,10.3554115 C10.6461154,10.6197559 10.7956744,10.8987838 11.0600188,10.9786378 C11.1069084,10.9928024 11.1556249,11 11.2046073,11 L12.7953927,11 C13.0715351,11 13.2953927,10.7761424 13.2953927,10.5 C13.2953927,10.4510176 13.2881951,10.4023011 13.2740306,10.3554115 L12.6698639,8.35541149 C12.6061146,8.14437924 12.4116769,8 12.1912261,8 L11.8087739,8 C11.5883231,8 11.3938854,8.14437924 11.3301361,8.35541149 Z"/>
  </g>
</svg>
