<?xml version="1.0" encoding="UTF-8"?>
<svg width="24px" height="24px" viewBox="0 0 24 24" version="1.1" xmlns="http://www.w3.org/2000/svg" xmlns:xlink="http://www.w3.org/1999/xlink">
    <!-- Generator: Sketch 51.2 (57519) - http://www.bohemiancoding.com/sketch -->
    <title>icon-toc</title>
    <desc>Created with Sketch.</desc>
    <defs></defs>
    <g stroke="none" stroke-width="1" fill="none" fill-rule="evenodd">
        <path d="M5,5 L5,5 C5.55228475,5 6,5.44771525 6,6 L6,6 C6,6.55228475 5.55228475,7 5,7 L5,7 C4.44771525,7 4,6.55228475 4,6 L4,6 C4,5.44771525 4.44771525,5 5,5 Z M8,5 L19,5 C19.5522847,5 20,5.44771525 20,6 L20,6 C20,6.55228475 19.5522847,7 19,7 L8,7 C7.44771525,7 7,6.55228475 7,6 L7,6 C7,5.44771525 7.44771525,5 8,5 Z M5,13 L5,13 C5.55228475,13 6,13.4477153 6,14 L6,14 C6,14.5522847 5.55228475,15 5,15 L5,15 C4.44771525,15 4,14.5522847 4,14 L4,14 C4,13.4477153 4.44771525,13 5,13 Z M8,13 L19,13 C19.5522847,13 20,13.4477153 20,14 L20,14 C20,14.5522847 19.5522847,15 19,15 L8,15 C7.44771525,15 7,14.5522847 7,14 L7,14 C7,13.4477153 7.44771525,13 8,13 Z M8,9 L8,9 C8.55228475,9 9,9.44771525 9,10 L9,10 C9,10.5522847 8.55228475,11 8,11 L8,11 C7.44771525,11 7,10.5522847 7,10 L7,10 C7,9.44771525 7.44771525,9 8,9 Z M11,9 L19,9 C19.5522847,9 20,9.44771525 20,10 L20,10 C20,10.5522847 19.5522847,11 19,11 L11,11 C10.4477153,11 10,10.5522847 10,10 L10,10 C10,9.44771525 10.4477153,9 11,9 Z M8,17 L8,17 C8.55228475,17 9,17.4477153 9,18 L9,18 C9,18.5522847 8.55228475,19 8,19 L8,19 C7.44771525,19 7,18.5522847 7,18 L7,18 C7,17.4477153 7.44771525,17 8,17 Z M11,17 L19,17 C19.5522847,17 20,17.4477153 20,18 L20,18 C20,18.5522847 19.5522847,19 19,19 L11,19 C10.4477153,19 10,18.5522847 10,18 L10,18 C10,17.4477153 10.4477153,17 11,17 Z" fill="#000000"></path>
    </g>
</svg>