<svg width="24" height="24" viewBox="0 0 24 24" fill="none" xmlns="http://www.w3.org/2000/svg">
<path fill-rule="evenodd" clip-rule="evenodd" d="M17 5C17.5523 5 18 5.44772 18 6C18 6.55228 17.5523 7 17 7H13V18C13 18.5523 12.5523 19 12 19C11.4477 19 11 18.5523 11 18V7H7C6.44772 7 6 6.55228 6 6C6 5.44772 6.44772 5 7 5H17Z" fill="black"/>
<path d="M17.5 14L18.2833 12.2833L20 11.5L18.2833 10.7167L17.5 9L16.7167 10.7167L15 11.5L16.7167 12.2833L17.5 14Z" fill="black"/>
<path d="M7 14L7.9375 16.0625L10 17L7.9375 17.9375L7 20L6.0625 17.9375L4 17L6.0625 16.0625L7 14Z" fill="black"/>
</svg>
