<?xml version="1.0" encoding="UTF-8"?>
<svg width="24px" height="24px" viewBox="0 0 24 24" version="1.1" xmlns="http://www.w3.org/2000/svg" xmlns:xlink="http://www.w3.org/1999/xlink">
    <!-- Generator: Sketch 51.2 (57519) - http://www.bohemiancoding.com/sketch -->
    <title>icon-undo</title>
    <desc>Created with Sketch.</desc>
    <defs></defs>
    <g stroke="none" stroke-width="1" fill="none" fill-rule="evenodd">
        <path d="M6.41421356,8 L12,8 C15.7301326,8 18.1580194,10.0404407 18.8101533,13.1203201 C19.3752736,15.7892534 18.4333056,18.7241691 16.5129223,19.8606006 C16.0376257,20.1418684 15.424309,19.984577 15.1430412,19.5092804 C14.8617734,19.0339838 15.0190648,18.4206672 15.4943614,18.1393994 C16.5951958,17.487955 17.2551961,15.4315738 16.8535339,13.5346149 C16.3941253,11.3649338 14.7700132,10 12,10 L6.41421356,10 L9.70710678,13.2928932 C10.0976311,13.6834175 10.0976311,14.3165825 9.70710678,14.7071068 C9.31658249,15.0976311 8.68341751,15.0976311 8.29289322,14.7071068 L3.29289322,9.70710678 C2.90236893,9.31658249 2.90236893,8.68341751 3.29289322,8.29289322 L8.29289322,3.29289322 C8.68341751,2.90236893 9.31658249,2.90236893 9.70710678,3.29289322 C10.0976311,3.68341751 10.0976311,4.31658249 9.70710678,4.70710678 L6.41421356,8 Z" fill="#000000" fill-rule="nonzero"></path>
    </g>
</svg>