<?xml version="1.0" encoding="UTF-8"?>
<svg width="24px" height="24px" viewBox="0 0 24 24" version="1.1" xmlns="http://www.w3.org/2000/svg" xmlns:xlink="http://www.w3.org/1999/xlink">
    <!-- Generator: Sketch 51.2 (57519) - http://www.bohemiancoding.com/sketch -->
    <title>icon-unlink</title>
    <desc>Created with Sketch.</desc>
    <defs></defs>
    <g stroke="none" stroke-width="1" fill="none" fill-rule="evenodd">
        <path d="M6.19,12.345 C6.56860324,11.9673813 7.18139676,11.9673813 7.56,12.345 C7.7414263,12.5261954 7.84336998,12.7720877 7.84336998,13.0285 C7.84336998,13.2849123 7.7414263,13.5308046 7.56,13.712 L5.505,15.764 C5.14184108,16.1264311 4.93775923,16.6184301 4.93775923,17.1315 C4.93775923,17.6445699 5.14184108,18.1365689 5.505,18.499 C6.26220647,19.2542374 7.48779353,19.2542374 8.245,18.499 L13.039,13.712 C13.2204263,13.5308046 13.32237,13.2849123 13.32237,13.0285 C13.32237,12.7720877 13.2204263,12.5261954 13.039,12.345 C12.8572673,12.1637644 12.755129,11.9176576 12.755129,11.661 C12.755129,11.4043424 12.8572673,11.1582356 13.039,10.977 C13.4176032,10.5993813 14.0303968,10.5993813 14.409,10.977 C14.9538916,11.5206667 15.2601117,12.2587726 15.2601117,13.0285 C15.2601117,13.7982274 14.9538916,14.5363333 14.409,15.08 L9.614,19.867 C8.09981452,21.3780248 5.64818548,21.3780248 4.134,19.867 C3.40768216,19.1421379 2.99951846,18.1581397 2.99951846,17.132 C2.99951846,16.1058603 3.40768216,15.1218621 4.134,14.397 L6.19,12.344 L6.19,12.345 Z M17.81,11.655 C17.4313968,12.0326187 16.8186032,12.0326187 16.44,11.655 C16.2585737,11.4738046 16.15663,11.2279123 16.15663,10.9715 C16.15663,10.7150877 16.2585737,10.4691954 16.44,10.288 L18.495,8.236 C18.8581589,7.87356893 19.0622408,7.38156986 19.0622408,6.8685 C19.0622408,6.35543014 18.8581589,5.86343107 18.495,5.501 C17.7377935,4.74576265 16.5122065,4.74576265 15.755,5.501 L10.962,10.288 C10.7805737,10.4691954 10.67863,10.7150877 10.67863,10.9715 C10.67863,11.2279123 10.7805737,11.4738046 10.962,11.655 C11.1437327,11.8362356 11.245871,12.0823424 11.245871,12.339 C11.245871,12.5956576 11.1437327,12.8417644 10.962,13.023 C10.5833968,13.4006187 9.97060324,13.4006187 9.592,13.023 C9.0471084,12.4793333 8.74088831,11.7412274 8.74088831,10.9715 C8.74088831,10.2017726 9.0471084,9.4636667 9.592,8.92 L14.387,4.133 C15.9011855,2.62197522 18.3528145,2.62197522 19.867,4.133 C20.5933178,4.85786214 21.0014815,5.84186028 21.0014815,6.868 C21.0014815,7.89413972 20.5933178,8.87813786 19.867,9.603 L17.81,11.656 L17.81,11.655 Z M7.6102056,6.34243864 C7.90309882,6.63533186 7.90309882,7.1102056 7.6102056,7.40309882 C7.31731238,7.69599203 6.84243864,7.69599203 6.54954542,7.40309882 L3.36756491,4.2211183 C3.07467169,3.92822508 3.07467169,3.45335135 3.36756491,3.16045813 C3.66045813,2.86756491 4.13533186,2.86756491 4.42822508,3.16045813 L7.6102056,6.34243864 Z M5.10500178,8.59764246 C5.51921534,8.59764246 5.85500178,8.9334289 5.85500178,9.34764246 C5.85500178,9.76185603 5.51921534,10.0976425 5.10500178,10.0976425 L2.98368143,10.0976425 C2.56946787,10.0976425 2.23368143,9.76185603 2.23368143,9.34764246 C2.23368143,8.9334289 2.56946787,8.59764246 2.98368143,8.59764246 L5.10500178,8.59764246 Z M10.0976425,5.10500178 C10.0976425,5.51921534 9.76185603,5.85500178 9.34764246,5.85500178 C8.9334289,5.85500178 8.59764246,5.51921534 8.59764246,5.10500178 L8.59764246,2.98368143 C8.59764246,2.56946787 8.9334289,2.23368143 9.34764246,2.23368143 C9.76185603,2.23368143 10.0976425,2.56946787 10.0976425,2.98368143 L10.0976425,5.10500178 Z M16.095487,16.9490404 C15.8025938,16.6561471 15.8025938,16.1812734 16.095487,15.8883802 C16.3883802,15.595487 16.8632539,15.595487 17.1561471,15.8883802 L20.3381277,19.0703607 C20.6310209,19.3632539 20.6310209,19.8381277 20.3381277,20.1310209 C20.0452344,20.4239141 19.5703607,20.4239141 19.2774675,20.1310209 L16.095487,16.9490404 Z M13.9009433,18.893584 C13.9009433,18.4793704 14.2367298,18.143584 14.6509433,18.143584 C15.0651569,18.143584 15.4009433,18.4793704 15.4009433,18.893584 L15.4009433,21.0149044 C15.4009433,21.4291179 15.0651569,21.7649044 14.6509433,21.7649044 C14.2367298,21.7649044 13.9009433,21.4291179 13.9009433,21.0149044 L13.9009433,18.893584 Z M18.893584,15.4009433 C18.4793704,15.4009433 18.143584,15.0651569 18.143584,14.6509433 C18.143584,14.2367298 18.4793704,13.9009433 18.893584,13.9009433 L21.0149044,13.9009433 C21.4291179,13.9009433 21.7649044,14.2367298 21.7649044,14.6509433 C21.7649044,15.0651569 21.4291179,15.4009433 21.0149044,15.4009433 L18.893584,15.4009433 Z" fill="#000000" fill-rule="nonzero"></path>
    </g>
</svg>