<?xml version="1.0" encoding="UTF-8"?>
<svg width="24px" height="24px" viewBox="0 0 24 24" version="1.1" xmlns="http://www.w3.org/2000/svg" xmlns:xlink="http://www.w3.org/1999/xlink">
    <!-- Generator: Sketch 51.2 (57519) - http://www.bohemiancoding.com/sketch -->
    <title>icon-unordered-list</title>
    <desc>Created with Sketch.</desc>
    <defs></defs>
    <g stroke="none" stroke-width="1" fill="none" fill-rule="evenodd">
        <path d="M11,5 L19,5 C19.5522847,5 20,5.44771525 20,6 L20,6 C20,6.55228475 19.5522847,7 19,7 L11,7 C10.4477153,7 10,6.55228475 10,6 L10,6 C10,5.44771525 10.4477153,5 11,5 Z M11,11 L19,11 C19.5522847,11 20,11.4477153 20,12 L20,12 C20,12.5522847 19.5522847,13 19,13 L11,13 C10.4477153,13 10,12.5522847 10,12 L10,12 C10,11.4477153 10.4477153,11 11,11 Z M11,17 L19,17 C19.5522847,17 20,17.4477153 20,18 L20,18 C20,18.5522847 19.5522847,19 19,19 L11,19 C10.4477153,19 10,18.5522847 10,18 L10,18 C10,17.4477153 10.4477153,17 11,17 Z M4.5,6 C4.5,5.58593543 4.64648291,5.23242334 4.93945312,4.93945312 C5.23242334,4.64648291 5.58593543,4.5 6,4.5 C6.41406457,4.5 6.76757666,4.64648291 7.06054688,4.93945312 C7.35351709,5.23242334 7.5,5.58593543 7.5,6 C7.5,6.41406457 7.35351709,6.76757666 7.06054688,7.06054688 C6.76757666,7.35351709 6.41406457,7.5 6,7.5 C5.58593543,7.5 5.23242334,7.35351709 4.93945312,7.06054688 C4.64648291,6.76757666 4.5,6.41406457 4.5,6 Z M4.5,12 C4.5,11.5859354 4.64648291,11.2324233 4.93945312,10.9394531 C5.23242334,10.6464829 5.58593543,10.5 6,10.5 C6.41406457,10.5 6.76757666,10.6464829 7.06054688,10.9394531 C7.35351709,11.2324233 7.5,11.5859354 7.5,12 C7.5,12.4140646 7.35351709,12.7675767 7.06054688,13.0605469 C6.76757666,13.3535171 6.41406457,13.5 6,13.5 C5.58593543,13.5 5.23242334,13.3535171 4.93945312,13.0605469 C4.64648291,12.7675767 4.5,12.4140646 4.5,12 Z M4.5,18 C4.5,17.5859354 4.64648291,17.2324233 4.93945312,16.9394531 C5.23242334,16.6464829 5.58593543,16.5 6,16.5 C6.41406457,16.5 6.76757666,16.6464829 7.06054688,16.9394531 C7.35351709,17.2324233 7.5,17.5859354 7.5,18 C7.5,18.4140646 7.35351709,18.7675767 7.06054688,19.0605469 C6.76757666,19.3535171 6.41406457,19.5 6,19.5 C5.58593543,19.5 5.23242334,19.3535171 4.93945312,19.0605469 C4.64648291,18.7675767 4.5,18.4140646 4.5,18 Z" fill="#000000"></path>
    </g>
</svg>