<svg fill="none" height="24" viewBox="0 0 24 24" width="24" xmlns="http://www.w3.org/2000/svg"><g fill="#222f3e"><path clip-rule="evenodd" d="m20.9004 19.9238.4844.461-1.4141 1.414-5.7988-5.7988h-1.1719v6h-2v-6h-5c-.32538-.0001-.63116-.1586-.81836-.4248-.18694-.2661-.23286-.607-.12305-.9131l2.05469-5.72069c-1.84257-1.84257-3.66119-3.6612-5.52734-5.52735l1.40234-1.40234zm-13.47852-5.9238h4.75002l-3.49514-3.4951z" fill-rule="evenodd"/><path d="m18 2c.5523 0 1 .44772 1 1v3.64941c0 .55229-.4477 1-1 1h-1.5781l2.5195 7.01269c.0602.1676.0718.3452.041.5156l-3.0928-3.0927-1.831-5.0977c-.1098-.30608-.0639-.64699.123-.91308.1872-.26616.493-.42468.8184-.42481h2v-1.64941h-9.19531l-1.9834-1.9834c.05802-.01049.11768-.01658.17871-.0166z"/></g></svg>