<svg xmlns="http://www.w3.org/2000/svg" width="24" height="24" viewBox="0 0 24 24"><g id="Artboard" fill="none" fill-rule="evenodd" stroke="none" stroke-width="1"><path id="Rectangle" fill="#000" fill-rule="nonzero" d="M6,4 L18,4 C19.1045695,4 20,4.8954305 20,6 L20,18 C20,19.1045695 19.1045695,20 18,20 L6,20 C4.8954305,20 4,19.1045695 4,18 L4,6 C4,4.8954305 4.8954305,4 6,4 Z M6,5 C5.44771525,5 5,5.44771525 5,6 L5,18 C5,18.5522847 5.44771525,19 6,19 L18,19 C18.5522847,19 19,18.5522847 19,18 L19,6 C19,5.44771525 18.5522847,5 18,5 L6,5 Z"/></g></svg>