<?xml version="1.0" encoding="UTF-8"?>
<svg width="24px" height="24px" viewBox="0 0 24 24" version="1.1" xmlns="http://www.w3.org/2000/svg" xmlns:xlink="http://www.w3.org/1999/xlink">
    <!-- Generator: Sketch 51.2 (57519) - http://www.bohemiancoding.com/sketch -->
    <title>icon-upload</title>
    <desc>Created with Sketch.</desc>
    <defs></defs>
    <g stroke="none" stroke-width="1" fill="none" fill-rule="evenodd">
        <path d="M18,19 L18,17 C18,16.4477153 18.4477153,16 19,16 C19.5522847,16 20,16.4477153 20,17 L20,20 C20,20.5522847 19.5522847,21 19,21 L5,21 C4.44771525,21 4,20.5522847 4,20 L4,17 C4,16.4477153 4.44771525,16 5,16 C5.55228475,16 6,16.4477153 6,17 L6,19 L18,19 Z M11,6.41421356 L8.70710678,8.70710678 C8.31658249,9.09763107 7.68341751,9.09763107 7.29289322,8.70710678 C6.90236893,8.31658249 6.90236893,7.68341751 7.29289322,7.29289322 L11.2928932,3.29289322 C11.6834175,2.90236893 12.3165825,2.90236893 12.7071068,3.29289322 L16.7071068,7.29289322 C17.0976311,7.68341751 17.0976311,8.31658249 16.7071068,8.70710678 C16.3165825,9.09763107 15.6834175,9.09763107 15.2928932,8.70710678 L13,6.41421356 L13,16 C13,16.5522847 12.5522847,17 12,17 C11.4477153,17 11,16.5522847 11,16 L11,6.41421356 Z" fill="#000000" fill-rule="nonzero"></path>
    </g>
</svg>