<svg xmlns="http://www.w3.org/2000/svg" width="24" height="24" fill="none" viewBox="0 0 24 24">
  <path fill="#222F3E" d="M11 18.727c0 .545.448.986 1 .986s1-.441 1-.986v-3.112l1.455.933a1.008 1.008 0 0 0 1.383-.289.978.978 0 0 0-.293-1.364L12 12.624l-3.545 2.271a.978.978 0 0 0-.293 1.364c.301.456.92.586 1.383.29L11 15.614v3.112Z"/>
  <path fill="#222F3E" d="M9.6 3.941a1 1 0 0 1 .832.446l1.303 1.954H18.4a2.6 2.6 0 0 1 2.6 2.6v8.172a2.6 2.6 0 0 1-2.6 2.6H16v-2h2.4a.6.6 0 0 0 .6-.6V8.94a.6.6 0 0 0-.6-.6h-7.2a1 1 0 0 1-.832-.445L9.064 5.942H5.6a.6.6 0 0 0-.6.6v10.57a.6.6 0 0 0 .6.601H8v2H5.6a2.6 2.6 0 0 1-2.6-2.6V6.54a2.6 2.6 0 0 1 2.6-2.6h4Z"/>
</svg>
