<svg fill="none" height="24" viewBox="0 0 24 24" width="24" xmlns="http://www.w3.org/2000/svg"><g fill="#222f3e"><path d="m11.852 5.148a3.92 3.92 0 0 1 5.545 5.545l-.781.782a1 1 0 0 1 -1.414-1.415l.781-.78a1.921 1.921 0 0 0 -2.717-2.718l-2.375 2.375a3.045 3.045 0 0 0 -.803 2.877 1 1 0 0 1 -1.943.476 5.043 5.043 0 0 1 1.332-4.767zm8.763 10.405a1 1 0 0 1 -1.23 1.577l-1.385-1.08v2.95a1 1 0 0 1 -2 0v-2.95l-1.385 1.08a1 1 0 0 1 -1.23-1.577l3.615-2.823 3.615 2.822z"/><path d="m9.69 18.852a3.92 3.92 0 0 1 -5.545-5.545l.78-.782a1 1 0 0 1 1.415 1.415l-.781.78c-.75.75-.75 1.967 0 2.718.75.75 2.19.812 2.941.062l2.5-2.5c.752-.752.708-1.781.454-2.814a1 1 0 0 1 1.942-.476 5.043 5.043 0 0 1 -1.332 4.767z"/></g></svg>