<svg xmlns="http://www.w3.org/2000/svg" width="24" height="25" fill="none" viewBox="0 0 24 25">
  <path fill="#222F3E" d="M11 19a1 1 0 1 0 2 0v-3.157l1.455.947a1 1 0 1 0 1.09-1.677L12 12.808l-3.545 2.305a1 1 0 0 0 1.09 1.677L11 15.843V19Z"/>
  <path fill="#222F3E" d="M9.6 4c.334 0 .646.17.832.452l1.303 1.983H18.4c.69 0 1.35.278 1.838.772.488.495.762 1.166.762 1.865v8.29c0 .7-.274 1.37-.762 1.866A2.58 2.58 0 0 1 18.4 20H16v-2.028h2.4a.596.596 0 0 0 .424-.179.614.614 0 0 0 .176-.43v-8.29a.613.613 0 0 0-.176-.43.596.596 0 0 0-.424-.18h-7.2a.996.996 0 0 1-.832-.451L9.064 6.029H5.6a.596.596 0 0 0-.424.178.614.614 0 0 0-.176.43v10.725c0 .162.063.317.176.431a.596.596 0 0 0 .424.179H8V20H5.6a2.58 2.58 0 0 1-1.838-.773A2.657 2.657 0 0 1 3 17.363V6.638c0-.7.274-1.37.762-1.866A2.581 2.581 0 0 1 5.6 4h4Z"/>
</svg>
