<svg xmlns="http://www.w3.org/2000/svg" width="24" height="24" viewBox="0 0 24 24">
  <g fill="none" fill-rule="evenodd">
    <rect width="18" height="2" x="3" y="11" fill="#000" fill-rule="nonzero" rx="1"/>
    <path fill="#000" fill-rule="nonzero" d="M12 2C12.5522847 2 13 2.44771525 13 3L12.9999223 7.056 14.9187618 5.68626653C15.3681744 5.36525754 15.9927245 5.46934922 16.3137335 5.91876181 16.6100495 6.33360419 16.5441495 6.89767617 16.1787825 7.23448405L16.0812382 7.31373347 12 10.2289036 7.91876181 7.31373347C7.46934922 6.99272448 7.36525754 6.36817439 7.68626653 5.91876181 7.98258252 5.50391942 8.53753708 5.38331496 8.97463653 5.61969738L9.08123819 5.68626653 10.9999223 7.056 11 3C11 2.44771525 11.4477153 2 12 2zM12 13.7710964L16.0812382 16.6862665C16.5306508 17.0072755 16.6347425 17.6318256 16.3137335 18.0812382 16.0174175 18.4960806 15.4624629 18.616685 15.0253635 18.3803026L14.9187618 18.3137335 12.9999223 16.9420964 13 21C13 21.5128358 12.6139598 21.9355072 12.1166211 21.9932723L12 22C11.4477153 22 11 21.5522847 11 21L11 21 10.9999223 16.9420964 9.08123819 18.3137335C8.66639581 18.6100495 8.10232383 18.5441495 7.76551595 18.1787825L7.68626653 18.0812382C7.38995054 17.6663958 7.4558505 17.1023238 7.82121748 16.765516L7.91876181 16.6862665 12 13.7710964z"/>
  </g>
</svg>
