<svg xmlns="http://www.w3.org/2000/svg" width="24" height="24" viewBox="0 0 24 24"><g id="visualblocks" fill="none" fill-rule="evenodd" stroke="none" stroke-width="1"><path id="Shape" fill="#000" d="M9,19 L9,21 L7,21 L7,19 L9,19 Z M5,19 L5,21 C3.9,21 3,20.1 3,19 L5,19 Z M13,19 L13,21 L11,21 L11,19 L13,19 Z M21,19 C21,20.1 20.1,21 19,21 L19,19 L21,19 Z M17,19 L17,21 L15,21 L15,19 L17,19 Z M15,7 C15.5522847,7 16,7.44771525 16,8 C16,8.55228475 15.5522847,9 15,9 L15,16 C15,16.5522847 14.5522847,17 14,17 C13.4477153,17 13,16.5522847 13,16 L13,9 L12,9 L12,16 C12,16.5522847 11.5522847,17 11,17 C10.4477153,17 10,16.5522847 10,16 L9.99899589,12 C8.61874551,11.9994573 7.5,10.8803772 7.5,9.5 C7.5,8.1745166 8.53153594,7.08996133 9.83562431,7.00531768 L10,7 L15,7 Z M5,15 L5,17 L3,17 L3,15 L5,15 Z M21,15 L21,17 L19,17 L19,15 L21,15 Z M5,11 L5,13 L3,13 L3,11 L5,11 Z M21,11 L21,13 L19,13 L19,11 L21,11 Z M5,7 L5,9 L3,9 L3,7 L5,7 Z M21,7 L21,9 L19,9 L19,7 L21,7 Z M5,3 L5,5 L3,5 C3,3.9 3.9,3 5,3 Z M13,3 L13,5 L11,5 L11,3 L13,3 Z M19,3 C20.1,3 21,3.9 21,5 L19,5 L19,3 Z M9,3 L9,5 L7,5 L7,3 L9,3 Z M17,3 L17,5 L15,5 L15,3 L17,3 Z"/></g></svg>