<svg xmlns="http://www.w3.org/2000/svg" width="24" height="24" viewBox="0 0 24 24"><g id="visualchars" fill="none" fill-rule="evenodd" stroke="none" stroke-width="1"><path id="shape" fill="#000" d="M10,5 L17,5 C17.5522847,5 18,5.44771525 18,6 C18,6.55228475 17.5522847,7 17,7 L16,7 L16,18 C16,18.5522847 15.5522847,19 15,19 C14.4477153,19 14,18.5522847 14,18 L14,7 L12,7 L12,18 C12,18.5522847 11.5522847,19 11,19 C10.4477153,19 10,18.5522847 10,18 L10,12 C9.52083094,12 9.06771047,11.9062509 8.640625,11.71875 C8.21353953,11.5416658 7.84114742,11.2942724 7.5234375,10.9765625 C7.20572758,10.6588526 6.95833422,10.2864605 6.78125,9.859375 C6.59374906,9.43228953 6.5,8.97916906 6.5,8.5 C6.5,8.02083094 6.59374906,7.56771047 6.78125,7.140625 C6.95833422,6.71353953 7.20572758,6.34114742 7.5234375,6.0234375 C7.84114742,5.70572758 8.21353953,5.45833422 8.640625,5.28125 C9.06771047,5.09374906 9.52083094,5 10,5 Z"/></g></svg>