<svg fill="none" height="24" viewBox="0 0 24 24" width="24" xmlns="http://www.w3.org/2000/svg"><path d="m11.935 21.096c-1.383 0-2.562-.488-3.537-1.463s-1.462-2.154-1.462-3.537c0-.8.175-1.546.525-2.238a5.067 5.067 0 0 1 1.475-1.762v-6c0-.834.291-1.542.875-2.125a2.893 2.893 0 0 1 2.124-.875c.834 0 1.542.291 2.125.875.584.583.875 1.291.875 2.125v6a5.08 5.08 0 0 1 1.475 1.762 4.89 4.89 0 0 1 .526 2.238c0 1.383-.488 2.562-1.463 3.537s-2.154 1.463-3.538 1.463zm-3-5h6c0-.484-.104-.934-.312-1.35a2.907 2.907 0 0 0 -.887-1.05l-.8-.6v-7a.967.967 0 0 0 -.288-.713.967.967 0 0 0 -.713-.287.968.968 0 0 0 -.712.287.968.968 0 0 0 -.288.713v7l-.8.6a2.902 2.902 0 0 0 -.887 1.05 2.977 2.977 0 0 0 -.312 1.35z" fill="#222f3e"/></svg>