<?xml version="1.0" encoding="UTF-8"?>
<svg width="24px" height="24px" viewBox="0 0 24 24" version="1.1" xmlns="http://www.w3.org/2000/svg" xmlns:xlink="http://www.w3.org/1999/xlink">
    <!-- Generator: Sketch 51.2 (57519) - http://www.bohemiancoding.com/sketch -->
    <title>icon-warning</title>
    <desc>Created with Sketch.</desc>
    <defs></defs>
    <g stroke="none" stroke-width="1" fill="none" fill-rule="evenodd">
        <path d="M19.78125,18.3125 C20.041668,18.7708356 20.0755218,19.166665 19.8828125,19.5 C19.6901032,19.833335 19.3281277,20 18.796875,20 L5.203125,20 C4.67187234,20 4.3098968,19.833335 4.1171875,19.5 C3.9244782,19.166665 3.95833203,18.7708356 4.21875,18.3125 L11.046875,4.703125 C11.1822923,4.46354047 11.3307284,4.28645891 11.4921875,4.171875 C11.6536466,4.05729109 11.8229158,4 12,4 C12.1770842,4 12.3463534,4.05729109 12.5078125,4.171875 C12.6692716,4.28645891 12.8177077,4.46354047 12.953125,4.703125 L19.78125,18.3125 Z M12,18 C12.2812514,18 12.5182282,17.9036468 12.7109375,17.7109375 C12.9036468,17.5182282 13,17.2812514 13,17 C13,16.7187486 12.9036468,16.4817718 12.7109375,16.2890625 C12.5182282,16.0963532 12.2812514,16 12,16 C11.7187486,16 11.4817718,16.0963532 11.2890625,16.2890625 C11.0963532,16.4817718 11,16.7187486 11,17 C11,17.2812514 11.0963532,17.5182282 11.2890625,17.7109375 C11.4817718,17.9036468 11.7187486,18 12,18 Z M12.6875,15 L13,11 C13,10.7187486 12.9036468,10.4817718 12.7109375,10.2890625 C12.5182282,10.0963532 12.2812514,10 12,10 C11.7187486,10 11.4817718,10.0963532 11.2890625,10.2890625 C11.0963532,10.4817718 11,10.7187486 11,11 L11.3125,15 L12.6875,15 Z" fill="#000000"></path>
    </g>
</svg>