<svg xmlns="http://www.w3.org/2000/svg" width="24" height="24" fill="none" viewBox="0 0 24 24">
  <path fill="#222F3E" fill-rule="evenodd" d="M12 3a9 9 0 1 1 0 18 9 9 0 0 1 0-18ZM5.072 13a7.005 7.005 0 0 0 4.717 5.642c-.055-.095-.112-.19-.167-.291A13.254 13.254 0 0 1 8.037 13H5.072Zm10.89 0a13.253 13.253 0 0 1-1.584 5.35c-.055.101-.113.197-.168.292A7.005 7.005 0 0 0 18.928 13h-2.965Zm-5.916 0a11.26 11.26 0 0 0 1.332 4.394c.214.393.43.728.622 1.004.192-.276.408-.611.622-1.004A11.26 11.26 0 0 0 13.954 13h-3.908Zm-.254-7.644A7.006 7.006 0 0 0 5.072 11h2.966a13.273 13.273 0 0 1 1.584-5.347c.056-.102.114-.2.17-.297ZM12 5.602A11.278 11.278 0 0 0 10.047 11h3.906A11.278 11.278 0 0 0 12 5.602Zm2.378.051A13.272 13.272 0 0 1 15.962 11h2.966a7.006 7.006 0 0 0-4.721-5.644c.056.097.115.195.17.297Z"/>
</svg>
