<svg fill="none" height="16" viewBox="0 0 16 16" width="16" xmlns="http://www.w3.org/2000/svg"><g fill="#222f3e"><path d="m9.993 3.003c-.793 0-1.551.329-2.109.91l-3.752 3.914a.562.562 0 0 0 -.155.387v3.16l5.545-5.784.474.51.475.51-3.086 3.22h3.24l1.477-1.545v-.002c.327-.34.57-.752.714-1.198l1.28.464a4.562 4.562 0 0 1 -1.044 1.753l-3.745 3.92c-.176.184-.385.33-.615.429-.229.1-.475.15-.722.15h-4.06c-.1 0-.2-.014-.296-.038l-1.664 1.737-.95-1.02 1.658-1.73a1.42 1.42 0 0 1 -.033-.3v-4.236c0-.53.202-1.036.558-1.407l3.752-3.914a4.237 4.237 0 0 1 3.058-1.322zm-5.042 9.367h3.019a.531.531 0 0 0 .387-.167l.9-.94h-3.244z" fill-rule="evenodd"/><path d="m12.752 1.66a.23.23 0 0 1 .438 0c.285.8.89 1.432 1.657 1.728.204.079.204.38 0 .458l-.142.059a2.88 2.88 0 0 0 -1.515 1.67l-.016.037a.23.23 0 0 1 -.405 0l-.017-.037a2.88 2.88 0 0 0 -1.515-1.67l-.142-.059c-.203-.079-.203-.38 0-.458a2.869 2.869 0 0 0 1.657-1.729z"/></g></svg>