<svg fill="none" height="16" viewBox="0 0 16 16" width="16" xmlns="http://www.w3.org/2000/svg"><g fill="#222f3e"><path d="m9.975 2.011-1.37 1.372h-2.42a3.802 3.802 0 1 0 0 7.605h2.42v1.52l3.035-2.088.02-.013.02-.013a3.799 3.799 0 0 0 1.757-2.958l.007-.251c0-.111-.006-.221-.015-.33l1.175-1.175a5.18 5.18 0 0 1 -2.181 5.88l-5.2 3.44v-2.63h-1.037a5.186 5.186 0 0 1 0-10.37h3.456c.111 0 .223.004.333.011z"/><path d="m8.35 4.822a.692.692 0 1 1 1.028.924l-.518.575h.004a.691.691 0 0 1 .514 1.154l-1.556 1.728a.692.692 0 0 1 -1.027-.924l.518-.576h-.004a.69.69 0 0 1 -.514-1.153zm4.352-3.666a.24.24 0 0 1 .448 0c.29.784.91 1.403 1.694 1.694a.239.239 0 0 1 0 .448l-.145.059c-.716.31-1.276.9-1.549 1.636l-.017.036a.24.24 0 0 1 -.414 0l-.017-.036a2.868 2.868 0 0 0 -1.549-1.636l-.145-.059a.239.239 0 0 1 0-.448 2.868 2.868 0 0 0 1.694-1.694z"/></g></svg>