<svg fill="none" height="17" viewBox="0 0 16 17" width="16" xmlns="http://www.w3.org/2000/svg"><g fill="#222f3e"><path d="m13.303 10.29a1.066 1.066 0 0 1 .752.31l.648.638c.093.104.166.22.218.346a.982.982 0 0 1 .079.379c0 .127-.023.256-.07.388a.925.925 0 0 1 -.227.354l-3.85 3.795h-2.153v-2.122l3.868-3.795a.957.957 0 0 1 .35-.224c.128-.046.256-.07.385-.07zm-3.553 4.52v.655h.665l2.817-2.805-.647-.638-2.835 2.787z" fill-rule="evenodd"/><path d="m6.6 9.4h-5.6v-1.38h5.6zm2.8-2.76h-8.4v-1.38h8.4zm0-2.76h-8.4v-1.38h8.4zm2.905-1.212c.085-.224.407-.224.491 0 .318.844.995 1.51 1.854 1.822a.255.255 0 0 1 0 .481l-.159.063a3.108 3.108 0 0 0 -1.695 1.76l-.018.039a.265.265 0 0 1 -.454 0l-.019-.039a3.108 3.108 0 0 0 -1.695-1.76l-.159-.063a.255.255 0 0 1 0-.481 3.112 3.112 0 0 0 1.854-1.822z"/></g></svg>