<svg fill="none" height="16" viewBox="0 0 16 16" width="16" xmlns="http://www.w3.org/2000/svg"><g fill="#222f3e"><path d="m15 15h-1.47l-.752-2.135h-3.395l-.753 2.135h-1.47l3.29-8.4h1.4zm-5.18-3.36h2.52l-1.26-3.57z" fill-rule="evenodd"/><path d="m5.83 2.4h3.616s-.555 1.75-1.849 3.99c-.487.844-1.452 2.03-1.452 2.03l1.68 1.715-.665 1.288-1.995-2.04-3.185 3.167-.98-.98 3.185-3.185s-.779-.875-1.111-1.4a12.134 12.134 0 0 1 -.919-1.785h1.47c.233.455.467.852.7 1.19s.84 1.015.84 1.015.785-.924 1.2-1.618a10.22 10.22 0 0 0 .935-1.987h-6.3v-1.4h3.43v-1.4h1.4zm6.493-1.242a.242.242 0 0 1 .454 0 2.9 2.9 0 0 0 1.715 1.715c.21.078.21.376 0 .454l-.147.059a2.903 2.903 0 0 0 -1.568 1.656l-.017.037a.243.243 0 0 1 -.42 0l-.017-.037a2.903 2.903 0 0 0 -1.568-1.656l-.147-.06a.242.242 0 0 1 0-.453 2.903 2.903 0 0 0 1.715-1.715z"/></g></svg>