<svg fill="none" height="16" viewBox="0 0 16 16" width="16" xmlns="http://www.w3.org/2000/svg"><g fill="#222f3e"><path d="m9.667 1.7c.201 0 .392.048.563.132-.873.745-.73 2.317.426 2.794l-.001.001.118.05c.069.032.134.071.197.114-.128.634-.662 1.109-1.303 1.109h-3.667c-.736 0-1.333-.627-1.333-1.4h-1.334v9.1h9v-7.155c.42.205.914.205 1.334 0v7.855c0 .387-.299.7-.667.7h-10.333c-.369 0-.667-.313-.667-.7v-10.5c0-.387.298-.7.667-.7h2c0-.773.597-1.4 1.333-1.4zm-3.667 2.8h3.667v-1.4h-3.667z" fill-rule="evenodd"/><path d="m10.333 10.8c.368 0 .667.313.667.7s-.299.7-.667.7h-5c-.368 0-.666-.313-.666-.7s.298-.7.666-.7zm0-2.8c.368 0 .667.313.667.7s-.299.7-.667.7h-5c-.368 0-.666-.313-.666-.7s.298-.7.666-.7zm2.451-6.842a.227.227 0 0 1 .432 0c.28.795.877 1.421 1.634 1.715.2.078.2.376 0 .454l-.14.059a2.79 2.79 0 0 0 -1.049.836 2.934 2.934 0 0 0 -.445.82l-.016.037-.038.053a.224.224 0 0 1 -.046.035c-.007.005-.016.007-.024.011-.009.004-.017.008-.026.01a.222.222 0 0 1 -.055.01.224.224 0 0 1 -.108-.022c-.008-.004-.016-.007-.023-.012a.218.218 0 0 1 -.028-.022l-.015-.013a.233.233 0 0 1 -.037-.05l-.016-.037a2.838 2.838 0 0 0 -1.493-1.656l-.14-.06c-.201-.077-.201-.375 0-.453a2.838 2.838 0 0 0 1.633-1.715z"/></g></svg>