<svg xmlns="http://www.w3.org/2000/svg" width="16" height="16" fill="none" viewBox="0 0 16 16">
  <path fill="#222F3E" d="M9.4 4.563a1.588 1.588 0 0 0 1.038 1.498v.001l.123.049c.369.16.658.462.799.836l.019.051.024.05.017.036.023.05.027.046.03.049v2.146h-1.4V5.937H8.7v3.438H7.3V5.937H5.9v3.438H4.5V5.937H2.4v6.188h11.2V7.848a1.6 1.6 0 0 0 .73-.668l.027-.047.023-.05.017-.036.024-.049.02-.05A1.48 1.48 0 0 1 15 6.242v5.882c0 .378-.137.702-.412.97a1.36 1.36 0 0 1-.988.405H2.4a1.36 1.36 0 0 1-.988-.404 1.312 1.312 0 0 1-.412-.97V5.937c0-.378.137-.701.412-.97a1.36 1.36 0 0 1 .988-.404h7Z"/>
  <path fill="#222F3E" d="M12.673 2.655a.244.244 0 0 1 .454 0c.294.78.92 1.396 1.715 1.685.21.076.21.369 0 .445l-.147.058a2.908 2.908 0 0 0-1.064.778c-.215.25-.386.536-.504.849l-.017.036a.245.245 0 0 1-.42 0l-.017-.036a2.831 2.831 0 0 0-.381-.695l-.02-.025a2.874 2.874 0 0 0-1.167-.907l-.147-.058a.236.236 0 0 1 0-.445 2.877 2.877 0 0 0 1.715-1.685Z"/>
</svg>
