<svg fill="none" height="16" viewBox="0 0 16 16" width="16" xmlns="http://www.w3.org/2000/svg"><g fill="#222f3e"><path d="m15 10.257-5.335 5.243-3.215-3.16 1.059-1.042 2.157 2.12 4.275-4.202 1.06 1.04z"/><path d="m10.118 11.167h-1.74l-.87-2.454h-3.973l-.87 2.454h-1.665l3.67-9.667h1.78l3.67 9.667zm-6.053-3.867h2.951l-1.438-4.015h-.075z" fill-rule="evenodd"/><path d="m12.305 1.668c.085-.224.407-.224.491 0 .318.844.995 1.51 1.854 1.822a.255.255 0 0 1 0 .482l-.159.062a3.108 3.108 0 0 0 -1.695 1.76l-.018.039a.265.265 0 0 1 -.454 0l-.019-.039a3.108 3.108 0 0 0 -1.695-1.76l-.159-.062a.255.255 0 0 1 0-.482 3.112 3.112 0 0 0 1.854-1.822z"/></g></svg>