<svg fill="none" height="16" viewBox="0 0 16 16" width="16" xmlns="http://www.w3.org/2000/svg"><g fill="#222f3e"><path d="m8 1c.92 0 1.799.18 2.604.502l-.132.058a1.6 1.6 0 0 0 -.996 1.038 5.6 5.6 0 1 0 3.924 3.925c.373-.118.711-.37.93-.758l.026-.048.023-.05.017-.037.024-.05.02-.052c.016-.046.035-.09.056-.134a7 7 0 1 1 -6.496-4.394z"/><path d="m8.056 7.3a.7.7 0 0 1 .7.7v.05a.7.7 0 0 1 -.7.7h-.056a.7.7 0 0 1 -.7-.7v-.05a.7.7 0 0 1 .7-.7z"/><path d="m8 4.15a3.85 3.85 0 1 1 0 7.7 3.85 3.85 0 0 1 0-7.7zm0 1.4a2.45 2.45 0 1 0 0 4.9 2.45 2.45 0 0 0 0-4.9z" fill-rule="evenodd"/><path d="m12.673 1.158a.242.242 0 0 1 .454 0 2.9 2.9 0 0 0 1.715 1.715c.21.078.21.376 0 .454l-.147.059a2.903 2.903 0 0 0 -1.568 1.656l-.017.037a.243.243 0 0 1 -.42 0l-.017-.037a2.901 2.901 0 0 0 -1.568-1.656l-.147-.06a.235.235 0 0 1 -.157-.216.262.262 0 0 1 .046-.154l.004-.006a.232.232 0 0 1 .056-.05l.01-.007a.254.254 0 0 1 .04-.02c.029-.01.056-.022.083-.033a3 3 0 0 0 .141-.062l.06-.029a2.913 2.913 0 0 0 1.432-1.591z"/></g></svg>