<svg xmlns="http://www.w3.org/2000/svg" width="16" height="16" fill="none" viewBox="0 0 16 16">
  <path fill="#222F3E" d="M8.778 14H7.222V5h1.556v9Zm-3.111-2.25H4.11v-4.5h1.556v4.5Zm6.222 0h-1.556v-4.5h1.556v4.5Zm-9.333-1.125H1v-2.25h1.556v2.25Zm12.444 0h-1.556v-2.25H15v2.25ZM12.415 2.17c.086-.226.417-.226.504 0a3.17 3.17 0 0 0 1.905 1.837.256.256 0 0 1 0 .486l-.163.063a3.162 3.162 0 0 0-1.742 1.775l-.02.04a.274.274 0 0 1-.465 0l-.02-.04a3.162 3.162 0 0 0-1.742-1.775l-.163-.063a.256.256 0 0 1 0-.486 3.17 3.17 0 0 0 1.905-1.838Z"/>
</svg>
