<svg xmlns="http://www.w3.org/2000/svg" width="16" height="16" fill="none" viewBox="0 0 16 16">
  <path fill="#222F3E" d="M4.111 15a2.996 2.996 0 0 1-2.197-.914A2.996 2.996 0 0 1 1 11.89c0-.856.305-1.588.914-2.197a2.996 2.996 0 0 1 2.197-.914c.856 0 1.588.304 2.197.914.61.609.914 1.341.914 2.197 0 .855-.304 1.588-.914 2.197a2.991 2.991 0 0 1-2.197.914Zm0-1.556c.428 0 .794-.155 1.099-.466a1.51 1.51 0 0 0 .457-1.09 1.5 1.5 0 0 0-.457-1.098 1.498 1.498 0 0 0-1.099-.457c-.428 0-.794.153-1.098.457a1.498 1.498 0 0 0-.457 1.099c0 .415.152.778.457 1.089.304.31.67.466 1.098.466ZM11.889 15a2.996 2.996 0 0 1-2.197-.914 2.996 2.996 0 0 1-.914-2.197c0-.856.304-1.588.914-2.197a2.996 2.996 0 0 1 2.197-.914c.855 0 1.588.304 2.197.914.61.609.914 1.341.914 2.197 0 .855-.305 1.588-.914 2.197-.61.61-1.342.914-2.197.914Zm0-1.556c.428 0 .794-.155 1.099-.466a1.51 1.51 0 0 0 .456-1.09c0-.427-.152-.793-.457-1.098a1.498 1.498 0 0 0-1.098-.457c-.428 0-.794.153-1.099.457a1.501 1.501 0 0 0-.457 1.099c0 .415.153.778.457 1.089.305.31.671.466 1.099.466ZM4.111 7.222a2.996 2.996 0 0 1-2.197-.914A2.996 2.996 0 0 1 1 4.111c0-.855.305-1.588.914-2.197A2.996 2.996 0 0 1 4.11 1c.856 0 1.588.305 2.197.914.61.61.914 1.342.914 2.197 0 .856-.304 1.588-.914 2.197a2.991 2.991 0 0 1-2.197.914Zm0-1.555c.428 0 .794-.156 1.099-.467a1.51 1.51 0 0 0 .457-1.089c0-.428-.153-.794-.457-1.098a1.498 1.498 0 0 0-1.099-.457c-.428 0-.794.152-1.098.457-.305.304-.457.67-.457 1.098 0 .415.152.778.457 1.089.304.311.67.467 1.098.467Zm7.442-4.433a.359.359 0 0 1 .672 0 4.3 4.3 0 0 0 2.541 2.54.359.359 0 0 1 0 .673l-.218.087a4.301 4.301 0 0 0-2.323 2.454l-.025.055a.36.36 0 0 1-.622 0l-.025-.055a4.301 4.301 0 0 0-2.324-2.454l-.217-.087a.359.359 0 0 1 0-.672 4.3 4.3 0 0 0 2.54-2.541Z"/>
</svg>
