<svg fill="none" height="16" viewBox="0 0 16 16" width="16" xmlns="http://www.w3.org/2000/svg"><g fill="#222f3e"><path d="m8.03 1.75c1.481 0 2.681 1.215 2.681 2.715 0 .706-.266 1.348-.702 1.831a4.498 4.498 0 0 1 1.16.842c.717-.067 1.467-.01 2.343.151.298.056.52.306.547.608l.003.06v5.348a.684.684 0 0 1 -.232.513.664.664 0 0 1 -.534.158c-1.001-.146-1.737-.157-2.456-.02-.725.138-1.477.436-2.502.97l-.024.01a.665.665 0 0 1 -.538.014.666.666 0 0 1 -.03-.014l-.022-.01c-1.025-.534-1.778-.832-2.502-.97-.72-.137-1.455-.126-2.456.02a.664.664 0 0 1 -.534-.158.684.684 0 0 1 -.232-.513v-5.347l.003-.061a.676.676 0 0 1 .547-.608c.874-.161 1.622-.218 2.338-.152a4.58 4.58 0 0 1 1.164-.841 2.725 2.725 0 0 1 -.702-1.831c0-1.5 1.2-2.716 2.68-2.716zm-2.74 6.814c-.577-.118-1.182-.13-1.95-.027v4.002c.76-.067 1.439-.05 2.13.081.619.118 1.226.327 1.89.623v-3.86c-.807-.43-1.44-.689-2.07-.817zm7.431-.027c-.768-.103-1.373-.09-1.95.027-.629.128-1.262.388-2.07.817v3.863c.664-.297 1.272-.505 1.891-.624.69-.131 1.37-.149 2.13-.08v-4.003zm-4.71-1.357a3.066 3.066 0 0 0 -1.416.358c.463.174.932.398 1.436.667a12 12 0 0 1 1.432-.666 3.065 3.065 0 0 0 -1.452-.36zm.02-4.073c-.74 0-1.34.608-1.34 1.358s.6 1.357 1.34 1.357 1.34-.608 1.34-1.357c0-.75-.6-1.358-1.34-1.358z" fill-rule="evenodd"/><path d="m12.773 1.153a.23.23 0 0 1 .434 0c.281.77.881 1.378 1.642 1.663a.236.236 0 0 1 0 .44l-.14.058a2.8 2.8 0 0 0 -1.502 1.606l-.016.036a.23.23 0 0 1 -.402 0l-.016-.036a2.8 2.8 0 0 0 -1.502-1.606l-.14-.057a.236.236 0 0 1 0-.44 2.797 2.797 0 0 0 1.642-1.664z"/></g></svg>