<svg height="24" viewBox="0 0 24 24" width="24" xmlns="http://www.w3.org/2000/svg"><g clip-rule="evenodd" fill-rule="evenodd"><path d="m9.986 5.445a1 1 0 0 1 .832-.445h4.364a1 1 0 0 1 .832.445l1.158 1.737h2.373a2.455 2.455 0 0 1 2.455 2.454v8a2.454 2.454 0 0 1 -2.454 2.455h-13.091a2.455 2.455 0 0 1 -2.455-2.455v-8a2.455 2.455 0 0 1 2.455-2.454h2.373zm1.367 1.555-1.157 1.737a1 1 0 0 1 -.832.445h-2.91a.455.455 0 0 0 -.454.454v8a.455.455 0 0 0 .455.455h13.09a.455.455 0 0 0 .455-.455v-8a.455.455 0 0 0 -.454-.454h-2.91a1 1 0 0 1 -.832-.445l-1.157-1.737z"/><path d="m13 11.364a1.91 1.91 0 1 0 0 3.818 1.91 1.91 0 0 0 0-3.818zm-3.91 1.909a3.91 3.91 0 1 1 7.819 0 3.91 3.91 0 0 1 -7.818 0z"/></g></svg>