<svg height="24" viewBox="0 0 24 24" width="24" xmlns="http://www.w3.org/2000/svg"><path clip-rule="evenodd" d="m6.404 9.255-2.947-1.906a1 1 0 0 1 0-1.68l3.883-2.509a1 1 0 0 1 1.086 0l3.574 2.311 3.575-2.31a1 1 0 0 1 1.086 0l3.882 2.509a1 1 0 0 1 0 1.68l-2.947 1.905 2.947 1.905a1 1 0 0 1 0 1.68l-2.827 1.827.006 1.385c.002.355-.172.687-.464.889l-4.414 3.041a1.073 1.073 0 0 1 -1.22-.002l-4.446-3.082c-.288-.2-.46-.527-.462-.877l-.005-1.078-3.254-2.103a1 1 0 0 1 0-1.68zm2.956 0 2.64-1.707 2.64 1.707-2.64 1.705zm-.502 5.814.002.383 3.377 2.342 3.337-2.299-.001-.147-3.573-2.31-3.142 2.032zm-.976-9.878-2.04 1.319 2.04 1.319 2.04-1.32zm8.236 0-2.04 1.319 2.04 1.319 2.04-1.32zm-2.04 6.809 2.04-1.319 2.04 1.319-2.04 1.319-2.04-1.32zm-8.236 0 2.04-1.319 2.04 1.319-2.04 1.319-2.04-1.32z" fill-rule="evenodd"/></svg>