<svg xmlns="http://www.w3.org/2000/svg" width="24" height="24" viewBox="0 0 24 24">
  <path fill-rule="evenodd" d="M12.358 3C11.573 3 11 3.652 11 4.368v3.276a5.002 5.002 0 0 0-8 4v.024l.001.025c.035.694.591 1.318 1.367 1.318h3.267A4.976 4.976 0 0 0 6.642 16c0 2.756 2.227 5 4.99 5h.024l.025-.001c.695-.035 1.319-.591 1.319-1.367v-3.264c.836.628 1.875 1 3 1 2.761 0 5-2.242 5-5.01 0-.787-.656-1.358-1.369-1.358h-3.274a4.996 4.996 0 0 0-3.999-8ZM13 10.93V5.069A2.997 2.997 0 0 1 15.358 8 3.004 3.004 0 0 1 13 10.93Zm-2.067.081H5.067A3.003 3.003 0 0 1 8 8.643a3.004 3.004 0 0 1 2.933 2.368ZM13.067 13A3.004 3.004 0 0 0 16 15.368 3.003 3.003 0 0 0 18.932 13h-5.865Zm-4.425 3A3.004 3.004 0 0 1 11 13.07v5.863A2.997 2.997 0 0 1 8.642 16Z" clip-rule="evenodd"/>
</svg>
