<svg fill="none" height="24" viewBox="0 0 24 24" width="24" xmlns="http://www.w3.org/2000/svg"><g clip-rule="evenodd" fill="#222f3e" fill-rule="evenodd"><path d="m12 15v2a5 5 0 0 0 0-10v2a3 3 0 1 0 0 6zm0 0a3 3 0 1 0 0-6z"/><path d="m5 21c-.55 0-1.02-.196-1.413-.587a1.926 1.926 0 0 1 -.587-1.413v-14c0-.55.196-1.02.587-1.413a1.926 1.926 0 0 1 1.413-.587h14c.55 0 1.02.196 1.413.587.39.393.587.863.587 1.413v14c0 .55-.196 1.02-.587 1.413a1.926 1.926 0 0 1 -1.413.587zm7-2h7v-14h-7v2a5 5 0 0 0 0 10z"/></g></svg>