<svg xmlns="http://www.w3.org/2000/svg" width="24" height="24" fill="none" viewBox="0 0 24 24">
  <path fill="#222F3E" d="M12 10c.283 0 .52-.096.713-.287A.967.967 0 0 0 13 9a.967.967 0 0 0-.287-.713A.968.968 0 0 0 12 8a.968.968 0 0 0-.713.287A.967.967 0 0 0 11 9c0 .283.096.52.287.713.192.191.43.287.713.287Zm0 6c-.65 0-1.238-.18-1.762-.537A3.046 3.046 0 0 1 9.1 14.05a1.91 1.91 0 0 0-.225.012 3.033 3.033 0 0 1-2.45-.912 3.033 3.033 0 0 1-.925-2.225A2.974 2.974 0 0 1 6.2 9a3.37 3.37 0 0 1-.5-.912 2.974 2.974 0 0 1-.175-1.013c0-.867.304-1.608.912-2.225a2.992 2.992 0 0 1 2.438-.912c.067.008.142.012.225.012a3.046 3.046 0 0 1 1.138-1.413A3.056 3.056 0 0 1 12 2c.65 0 1.238.18 1.762.538.525.358.905.829 1.138 1.412.083 0 .158-.004.225-.013a2.992 2.992 0 0 1 2.438.912 3.06 3.06 0 0 1 .912 2.226c0 .35-.054.688-.163 1.013A2.838 2.838 0 0 1 17.8 9c.217.283.383.588.5.912.117.325.175.663.175 1.013 0 .867-.304 1.608-.913 2.225a2.992 2.992 0 0 1-2.437.912 1.835 1.835 0 0 0-.225-.012 3.046 3.046 0 0 1-1.138 1.412A3.056 3.056 0 0 1 12 16Zm0 7a8.65 8.65 0 0 1 .713-3.488 9.192 9.192 0 0 1 1.937-2.862 9.192 9.192 0 0 1 2.862-1.937A8.646 8.646 0 0 1 21 14a8.646 8.646 0 0 1-.712 3.488 9.192 9.192 0 0 1-1.938 2.862 9.192 9.192 0 0 1-2.863 1.938A8.646 8.646 0 0 1 12 23Zm2.45-2.45a6.838 6.838 0 0 0 2.5-1.6 6.838 6.838 0 0 0 1.6-2.5c-.95.35-1.783.883-2.5 1.6a6.838 6.838 0 0 0-1.6 2.5ZM12 23a8.646 8.646 0 0 0-.713-3.488A9.192 9.192 0 0 0 9.35 16.65a9.192 9.192 0 0 0-2.862-1.937A8.646 8.646 0 0 0 3 14a8.65 8.65 0 0 0 .712 3.488A9.193 9.193 0 0 0 5.65 20.35a9.192 9.192 0 0 0 2.862 1.938A8.646 8.646 0 0 0 12 23Zm-2.45-2.45a6.838 6.838 0 0 1-2.5-1.6 6.839 6.839 0 0 1-1.6-2.5c.95.35 1.783.883 2.5 1.6a6.839 6.839 0 0 1 1.6 2.5Zm5.8-8.475c.317 0 .588-.112.813-.337.224-.226.337-.496.337-.813 0-.233-.063-.438-.188-.613a1.306 1.306 0 0 0-.487-.412l-.875-.425a3.023 3.023 0 0 1-.15.537 3.764 3.764 0 0 1-.225.488 2.45 2.45 0 0 1-.3.425 3.998 3.998 0 0 1-.375.375l.8.575a.85.85 0 0 0 .288.15c.108.033.229.05.362.05Zm-.4-3.55.875-.425c.2-.1.358-.242.475-.425.117-.183.175-.383.175-.6a1.13 1.13 0 0 0-.325-.813 1.067 1.067 0 0 0-.8-.337c-.133 0-.25.017-.35.05-.1.033-.2.083-.3.15l-.825.575c.133.117.262.242.387.375s.23.275.313.425c.083.15.158.313.225.487.067.175.117.355.15.538ZM10.975 6.2A2.673 2.673 0 0 1 12 6a2.673 2.673 0 0 1 1.025.2l.125-1.1c.033-.3-.07-.558-.313-.775A1.217 1.217 0 0 0 12 4c-.317 0-.596.108-.838.325-.241.217-.345.475-.312.775l.125 1.1ZM12 14c.317 0 .596-.108.838-.325.241-.217.345-.475.312-.775l-.125-1.1A2.675 2.675 0 0 1 12 12a2.675 2.675 0 0 1-1.025-.2l-.125 1.1c-.033.3.07.558.313.775.241.217.52.325.837.325ZM9.05 8.525c.033-.183.083-.363.15-.538.067-.175.142-.337.225-.487.083-.15.183-.292.3-.425.117-.133.242-.258.375-.375l-.8-.575a.86.86 0 0 0-.288-.15 1.23 1.23 0 0 0-.362-.05c-.317 0-.588.112-.813.338a1.108 1.108 0 0 0-.337.812c0 .217.063.417.188.6s.287.325.487.425l.875.425Zm-.4 3.525c.133 0 .25-.013.35-.038.1-.024.2-.079.3-.162l.825-.55a5.472 5.472 0 0 1-.387-.375 2.142 2.142 0 0 1-.313-.425 3.756 3.756 0 0 1-.225-.488 3.028 3.028 0 0 1-.15-.537l-.875.425c-.2.1-.358.242-.475.425a1.096 1.096 0 0 0-.175.6c.017.317.13.583.337.8.209.217.471.325.788.325Z"/>
</svg>
