<svg fill="none" height="24" viewBox="0 0 24 24" width="24" xmlns="http://www.w3.org/2000/svg"><g fill="#222f3e"><path d="m5.25 21c-.55 0-1.02-.196-1.413-.587a1.926 1.926 0 0 1 -.587-1.413v-14c0-.55.196-1.02.587-1.413a1.926 1.926 0 0 1 1.413-.587h7.75v2h-7.75v14h14v-8h2v8c0 .55-.196 1.02-.587 1.413a1.926 1.926 0 0 1 -1.413.587z"/><path d="m11 9a4.085 4.085 0 0 0 4 4 4.085 4.085 0 0 0 -4 4 4.085 4.085 0 0 0 -4-4 4.085 4.085 0 0 0 4-4zm5.467-6c.198 2.129 2.263 4.146 4.533 4.5-2.27.354-4.335 2.371-4.533 4.5-.218-2.337-2.18-4.143-4.467-4.5 2.287-.357 4.249-2.163 4.467-4.5z"/></g></svg>