<svg height="24" viewBox="0 0 24 24" width="24" xmlns="http://www.w3.org/2000/svg"><path clip-rule="evenodd" d="m10.1 9.003a3.976 3.976 0 1 1 4.418 6.611 3.976 3.976 0 0 1 -4.418-6.61zm2.21 1.33a1.976 1.976 0 1 0 0 3.952 1.976 1.976 0 0 0 0-3.952z" fill-rule="evenodd"/><path d="m16 9.333a1.334 1.334 0 1 0 0-2.667 1.334 1.334 0 0 0 0 2.667z"/><path clip-rule="evenodd" d="m3 6a3 3 0 0 1 3-3h12a3 3 0 0 1 3 3v12a3 3 0 0 1 -3 3h-12a3 3 0 0 1 -3-3zm3-1a1 1 0 0 0 -1 1v12a1 1 0 0 0 1 1h12a1 1 0 0 0 1-1v-12a1 1 0 0 0 -1-1z" fill-rule="evenodd"/></svg>