<svg xmlns="http://www.w3.org/2000/svg" width="24" height="24" fill="none" viewBox="0 0 24 24">
  <path fill="#222F3E" fill-rule="evenodd" d="M12 20.472a6 6 0 1 1-5.86-10.178 6 6 0 1 1 11.72 0A6 6 0 1 1 12 20.472Zm-1.103-7.63a5.98 5.98 0 0 0-.15.258 4.29 4.29 0 0 1-2.011-1.323c.825.143 1.57.522 2.161 1.065Zm2.357.258a5.955 5.955 0 0 0-.151-.258 4.273 4.273 0 0 1 2.161-1.065 4.29 4.29 0 0 1-2.01 1.323Zm-1.086 1.898a6.25 6.25 0 0 1-.336 0A4.299 4.299 0 0 0 12 17.542a4.276 4.276 0 0 0 .168-2.544Zm.935 4.16a6.022 6.022 0 0 0 .757-4.452 6.018 6.018 0 0 0 3.394-2.806A4.288 4.288 0 0 1 16 20.286a4.27 4.27 0 0 1-2.897-1.128Zm-2.206 0A4.286 4.286 0 1 1 6.746 11.9a6.017 6.017 0 0 0 3.394 2.806 6.022 6.022 0 0 0 .757 4.452Zm-3.065-9.156a4.286 4.286 0 1 1 8.336 0A5.978 5.978 0 0 0 12 11.527a5.978 5.978 0 0 0-4.168-1.525Z" clip-rule="evenodd"/>
</svg>
