<svg fill="none" height="25" viewBox="0 0 24 25" width="24" xmlns="http://www.w3.org/2000/svg"><g fill="#222f3e"><path d="m11.458 11.766a1 1 0 0 1 1.942-.476 5.043 5.043 0 0 1 -1.332 4.767l-2.375 2.375a3.92 3.92 0 1 1 -5.545-5.545l.781-.781a1 1 0 0 1 1.415 1.414l-.781.78a1.92 1.92 0 1 0 2.716 2.717l2.375-2.374a3.043 3.043 0 0 0 .804-2.877z"/><path d="m10.123 11.814a1 1 0 0 1 -1.943.476 5.043 5.043 0 0 1 1.332-4.767l2.375-2.375a3.92 3.92 0 0 1 5.545 5.545l-.781.781a1 1 0 0 1 -1.414-1.414l.78-.78a1.92 1.92 0 1 0 -2.716-2.717l-2.375 2.374a3.043 3.043 0 0 0 -.803 2.877zm5.667 7.186a1 1 0 1 0 2 0v-2.95l1.385 1.08a1 1 0 0 0 1.23-1.577l-3.615-2.823-3.615 2.822a1 1 0 0 0 1.23 1.577l1.385-1.08z"/></g></svg>