<svg xmlns="http://www.w3.org/2000/svg" width="24" height="24" viewBox="0 0 24 24">
  <path fill-rule="evenodd" d="M14.823 17.354a2 2 0 0 1-1.297.718c-3.694.469-6.184-1.414-7.734-3.568-1.422-1.976-2.198-4.36-2.64-5.717L3.1 8.62A2 2 0 0 1 5 6h2.466c.437 0 .852.142 1.19.393A2 2 0 0 1 9.846 6h3.428c.58 0 1.103.247 1.469.642A2 2 0 0 1 16.21 6h2.362a2 2 0 0 1 1.933 2.51c-.389 1.475-1.058 2.64-1.714 3.6a12.54 12.54 0 0 1 2.033 3.16A2 2 0 0 1 19 18.088h-2.599a2 2 0 0 1-1.306-.486 6.873 6.873 0 0 1-.272-.248Zm.451-2.466c-.336-.37-.697-.707-1.174-.935a2.923 2.923 0 0 0-.826-.249v2.384c-.6.076-1.157.072-1.675 0a5.623 5.623 0 0 1-.325-.055c-3.04-.606-4.647-3.595-5.582-6.033a38.124 38.124 0 0 1-.655-1.886L5 8h2.466c.144.302.287.612.43.922.253.552.506 1.103.769 1.606.586 1.123 1.218 2.001 2 2.092V9.012L9.846 8h3.428v4.132a4.946 4.946 0 0 0 .467-.377c.675-.616 1.12-1.357 1.533-2.114l.186-.342c.237-.44.475-.88.75-1.299h2.363a8.452 8.452 0 0 1-.819 2c-.389.694-.842 1.31-1.296 1.927l-.294.402A10.542 10.542 0 0 1 19 16.088h-2.599c-.305-.263-.564-.56-.82-.854a20.613 20.613 0 0 0-.307-.347Z" clip-rule="evenodd"/>
</svg>
