<svg width="24" height="24" viewBox="0 0 24 24" fill="none" xmlns="http://www.w3.org/2000/svg">
<path d="M9.5 7C9.87288 7.00002 10.2324 7.13892 10.5084 7.38962C10.7844 7.64032 10.9572 7.98484 10.993 8.356L11 8.5V15.5C11 15.8729 10.8611 16.2324 10.6104 16.5084C10.3597 16.7844 10.0152 16.9572 9.644 16.993L9.5 17H2.5C2.12712 17 1.76761 16.8611 1.49158 16.6104C1.21555 16.3597 1.0428 16.0152 1.007 15.644L1 15.5V8.5C1.00002 8.12712 1.13892 7.76761 1.38962 7.49158C1.64032 7.21555 1.98484 7.0428 2.356 7.007L2.5 7H9.5ZM8.483 9.795L8.441 9.883L7.455 12.417L6.508 9.889L6.465 9.797C6.41162 9.70579 6.33514 9.63027 6.24326 9.57806C6.15138 9.52584 6.04736 9.49877 5.94169 9.49958C5.83601 9.50039 5.73242 9.52906 5.64135 9.58268C5.55029 9.6363 5.47497 9.71298 5.423 9.805L5.381 9.898L4.498 12.363L3.561 9.888L3.519 9.799C3.44759 9.67603 3.33483 9.58242 3.20081 9.53486C3.0668 9.4873 2.92026 9.48889 2.78731 9.53933C2.65435 9.58977 2.54364 9.6858 2.4749 9.81028C2.40616 9.93476 2.38387 10.0796 2.412 10.219L2.439 10.312L3.953 14.312L3.997 14.404C4.05042 14.4951 4.12694 14.5705 4.21885 14.6226C4.31075 14.6747 4.41477 14.7016 4.5204 14.7006C4.62602 14.6996 4.72951 14.6707 4.8204 14.6168C4.91128 14.563 4.98635 14.4861 5.038 14.394L5.079 14.302L5.959 11.844L6.884 14.311L6.93 14.407C6.98313 14.4965 7.05863 14.5707 7.1491 14.6222C7.23957 14.6737 7.34189 14.7008 7.446 14.7008C7.55011 14.7008 7.65243 14.6737 7.7429 14.6222C7.83337 14.5707 7.90887 14.4965 7.962 14.407L8.005 14.317L9.559 10.317L9.587 10.224C9.61701 10.0846 9.59637 9.93901 9.52879 9.81342C9.4612 9.68783 9.35109 9.59042 9.21819 9.53866C9.0853 9.4869 8.93831 9.48417 8.80358 9.53096C8.66885 9.57775 8.5552 9.671 8.483 9.794V9.795Z" fill="black"/>
<path fill-rule="evenodd" clip-rule="evenodd" d="M7 3H14.414L19 7.586V17H17.0008L17 9H13V5H8H7H5C5 3.898 5.897 3 7 3Z" fill="black"/>
<path fill-rule="evenodd" clip-rule="evenodd" d="M15 17C15 16.4477 14.5523 16 14 16C13.4477 16 13 16.4477 13 17L13 20.1316L11.5547 19.1681C11.0952 18.8617 10.4743 18.9859 10.1679 19.4454C9.8616 19.9049 9.98577 20.5258 10.4453 20.8322L14 23.202L17.5547 20.8322C18.0142 20.5258 18.1384 19.9049 17.832 19.4454C17.5257 18.9859 16.9048 18.8617 16.4453 19.1681L15 20.1316V17Z" fill="black"/>
</svg>
