<svg width="24" height="24" viewBox="0 0 24 24" fill="none" xmlns="http://www.w3.org/2000/svg">
<path fill-rule="evenodd" clip-rule="evenodd" d="M7 3H14.414L19 7.586V17H17.0008L17 9H13V5H7V8H5V5C5 3.898 5.897 3 7 3Z" fill="black"/>
<path d="M2.63 15.24V13.3H3.51C4.17 13.3 4.65 13.15 4.97 12.85C5.29 12.55 5.45 12.14 5.45 11.61C5.45 11.09 5.3 10.7 5.01 10.41C4.7 10.15 4.28 10 3.69 10H1V15.24H2.63ZM3.03 12.24H2.63V11.07H3.09C3.39 11.07 3.59 11.12 3.71 11.24C3.81 11.35 3.87 11.49 3.87 11.66C3.87 11.82 3.81 11.96 3.68 12.07C3.55 12.18 3.34 12.23 3.02 12.23L3.03 12.24ZM8.73 15.24C9.01 15.24 9.33 15.19 9.69 15.1C9.95 15.03 10.19 14.89 10.42 14.68C10.64 14.48 10.82 14.21 10.95 13.91C11.07 13.6 11.14 13.16 11.14 12.61C11.14 12.24 11.1 11.91 11.01 11.59C10.9293 11.2841 10.7863 10.9981 10.59 10.75C10.4 10.51 10.16 10.32 9.87 10.19C9.57 10.06 9.2 10 8.72 10H6.32V15.24H8.73ZM8.33 14.05H7.93V11.19H8.33C8.76 11.19 9.06 11.29 9.24 11.49C9.42 11.69 9.51 12.08 9.51 12.63C9.51 13.05 9.47 13.36 9.39 13.54C9.32778 13.7095 9.20725 13.8513 9.05 13.94C8.91 14.01 8.67 14.05 8.33 14.05ZM13.63 15.25V13.1H15.65V12.04H13.62V11.13H16V10H12V15.24H13.62L13.63 15.25Z" fill="black"/>
<path fill-rule="evenodd" clip-rule="evenodd" d="M15 17C15 16.4477 14.5523 16 14 16C13.4477 16 13 16.4477 13 17L13 20.1316L11.5547 19.1681C11.0952 18.8617 10.4743 18.9859 10.1679 19.4454C9.8616 19.9049 9.98577 20.5258 10.4453 20.8322L14 23.202L17.5547 20.8322C18.0142 20.5258 18.1384 19.9049 17.832 19.4454C17.5257 18.9859 16.9048 18.8617 16.4453 19.1681L15 20.1316V17Z" fill="black"/>
</svg>
