<?xml version="1.0" encoding="UTF-8"?>
<svg width="24px" height="24px" viewBox="0 0 24 24" version="1.1" xmlns="http://www.w3.org/2000/svg" xmlns:xlink="http://www.w3.org/1999/xlink">
    <!-- Generator: Sketch 51.2 (57519) - http://www.bohemiancoding.com/sketch -->
    <title>icon-accessibility-check</title>
    <desc>Created with Sketch.</desc>
    <defs></defs>
    <g stroke="none" stroke-width="1" fill="none" fill-rule="evenodd">
        <path d="M12,2 C13.1,2 14,2.9 14,4 C14,5.1 13.1,6 12,6 C10.9,6 10,5.1 10,4 C10,2.9 10.9,2 12,2 Z M20,9 L15,9 L15,21 C15,21.5522847 14.5522847,22 14,22 L14,22 C13.4477153,22 13,21.5522847 13,21 L13,16 C13,15.4477153 12.5522847,15 12,15 L12,15 C11.4477153,15 11,15.4477153 11,16 L11,21 C11,21.5522847 10.5522847,22 10,22 L10,22 C9.44771525,22 9,21.5522847 9,21 L9,9 L4,9 C3.44771525,9 3,8.55228475 3,8 L3,8 C3,7.44771525 3.44771525,7 4,7 L20,7 C20.5522847,7 21,7.44771525 21,8 L21,8 C21,8.55228475 20.5522847,9 20,9 Z" fill="#000000" fill-rule="nonzero"></path>
    </g>
</svg>
