<?xml version="1.0" encoding="UTF-8"?>
<svg width="24px" height="24px" viewBox="0 0 24 24" version="1.1" xmlns="http://www.w3.org/2000/svg" xmlns:xlink="http://www.w3.org/1999/xlink">
    <!-- Generator: Sketch 51.2 (57519) - http://www.bohemiancoding.com/sketch -->
    <title>icon-browse</title>
    <desc>Created with Sketch.</desc>
    <defs></defs>
    <g stroke="none" stroke-width="1" fill="none" fill-rule="evenodd">
        <path d="M19,4 C20.11,4 21,4.9 21,6 L21,18 C21,19.1 20.1,20 19,20 L15,20 L15,18 L19,18 L19,8 L5,8 L5,18 L9,18 L9,20 L5,20 C3.89,20 3,19.1 3,18 L3,6 C3,4.9 3.89,4 5,4 L19,4 Z M11,13.4142136 L8.70710678,15.7071068 C8.31658249,16.0976311 7.68341751,16.0976311 7.29289322,15.7071068 C6.90236893,15.3165825 6.90236893,14.6834175 7.29289322,14.2928932 L11.2928932,10.2928932 C11.6834175,9.90236893 12.3165825,9.90236893 12.7071068,10.2928932 L16.7071068,14.2928932 C17.0976311,14.6834175 17.0976311,15.3165825 16.7071068,15.7071068 C16.3165825,16.0976311 15.6834175,16.0976311 15.2928932,15.7071068 L13,13.4142136 L13,20 C13,20.5522847 12.5522847,21 12,21 C11.4477153,21 11,20.5522847 11,20 L11,13.4142136 Z" fill="#000000" fill-rule="nonzero"></path>
    </g>
</svg>