<?xml version="1.0" encoding="UTF-8"?>
<svg width="24px" height="24px" viewBox="0 0 24 24" version="1.1" xmlns="http://www.w3.org/2000/svg" xmlns:xlink="http://www.w3.org/1999/xlink">
    <!-- Generator: Sketch 51.3 (57544) - http://www.bohemiancoding.com/sketch -->
    <title>icon-cancel</title>
    <desc>Created with Sketch.</desc>
    <defs></defs>
    <g stroke="none" stroke-width="1" fill="none" fill-rule="evenodd">
        <path d="M12,4.55172414 C16.1135692,4.55172414 19.4482759,7.88643083 19.4482759,12 C19.4482759,16.1135692 16.1135692,19.4482759 12,19.4482759 C7.88643083,19.4482759 4.55172414,16.1135692 4.55172414,12 C4.55600058,7.88820349 7.88820349,4.55600058 12,4.55172414 Z M12,3 C7.02943725,3 3,7.02943725 3,12 C3,16.9705627 7.02943725,21 12,21 C16.9705627,21 21,16.9705627 21,12 C21,9.61305159 20.0517884,7.32386638 18.363961,5.63603897 C16.6761336,3.94821156 14.3869484,3 12,3 Z M11.9793755,10.9233899 L14.7658654,8.13689991 L15.8631001,9.23413457 L13.0767404,12.0204942 L15.7870005,14.7301106 L14.6898961,15.8274756 L11.9795058,13.1177289 L9.32878974,15.7684449 L8.23155508,14.6712103 L10.8821408,12.0206245 L8.15558575,9.29471696 L9.25269011,8.19735201 L11.9793755,10.9233899 Z" fill="#000000" fill-rule="nonzero"></path>
    </g>
</svg>
