<?xml version="1.0" encoding="UTF-8"?>
<svg width="24px" height="24px" viewBox="0 0 24 24" version="1.1" xmlns="http://www.w3.org/2000/svg" xmlns:xlink="http://www.w3.org/1999/xlink">
    <!-- Generator: Sketch 51.2 (57519) - http://www.bohemiancoding.com/sketch -->
    <title>icon-close</title>
    <desc>Created with Sketch.</desc>
    <defs></defs>
    <g stroke="none" stroke-width="1" fill="none" fill-rule="evenodd">
        <path d="M17.2512112,8.15745915 L13.421875,12 L17.2512112,15.8425408 C17.6390628,16.2317298 17.6385208,16.8614792 17.25,17.25 C16.8614792,17.6385208 16.2317298,17.6390628 15.8425408,17.2512112 L12,13.421875 L8.15745915,17.2512112 C7.7682702,17.6390628 7.13852082,17.6385208 6.75,17.25 C6.36147918,16.8614792 6.36093722,16.2317298 6.74878876,15.8425408 L10.578125,12 L6.74878876,8.15745915 C6.36093722,7.7682702 6.36147918,7.13852082 6.75,6.75 C7.13852082,6.36147918 7.7682702,6.36093722 8.15745915,6.74878876 L12,10.578125 L15.8425408,6.74878876 C16.2317298,6.36093722 16.8614792,6.36147918 17.25,6.75 C17.6385208,7.13852082 17.6390628,7.7682702 17.2512112,8.15745915 Z" fill="#000000"></path>
    </g>
</svg>