<svg xmlns="http://www.w3.org/2000/svg" width="24" height="24" viewBox="0 0 24 24"><g id="comment-add" fill="none" fill-rule="evenodd" stroke="none" stroke-width="1"><path id="Shape" fill="#000" fill-rule="nonzero" d="M9,19.0913481 L12.0206038,17 L19,17 C19.5507153,17 20,16.5507153 20,16 L20,6 C20,5.44928475 19.5507153,5 19,5 L5,5 C4.44928475,5 4,5.44928475 4,6 L4,16 C4,16.5507153 4.44928475,17 5,17 L9,17 L9,19.0913481 Z M7,22.9086519 L7,19 L5,19 C3.34471525,19 2,17.6552847 2,16 L2,6 C2,4.34471525 3.34471525,3 5,3 L19,3 C20.6552847,3 22,4.34471525 22,6 L22,16 C22,17.6552847 20.6552847,19 19,19 L12.6453962,19 L7,22.9086519 Z"/><path id="Combined-Shape" fill="#000" fill-rule="nonzero" d="M13,10 L15,10 C15.5522847,10 16,10.4477153 16,11 C16,11.5522847 15.5522847,12 15,12 L13,12 L13,14 C13,14.5522847 12.5522847,15 12,15 C11.4477153,15 11,14.5522847 11,14 L11,12 L9,12 C8.44771525,12 8,11.5522847 8,11 C8,10.4477153 8.44771525,10 9,10 L11,10 L11,8 C11,7.44771525 11.4477153,7 12,7 C12.5522847,7 13,7.44771525 13,8 L13,10 Z"/></g></svg>