<?xml version="1.0" encoding="UTF-8"?>
<svg width="24px" height="24px" viewBox="0 0 24 24" version="1.1" xmlns="http://www.w3.org/2000/svg" xmlns:xlink="http://www.w3.org/1999/xlink">
    <!-- Generator: Sketch 51.2 (57519) - http://www.bohemiancoding.com/sketch -->
    <title>icon-crop</title>
    <desc>Created with Sketch.</desc>
    <defs></defs>
    <g stroke="none" stroke-width="1" fill="none" fill-rule="evenodd">
        <path d="M17,8 L17,15 L19,15 C19.5522847,15 20,15.4477153 20,16 L20,16 C20,16.5522847 19.5522847,17 19,17 L17,17 L17,19 C17,19.5522847 16.5522847,20 16,20 L16,20 C15.4477153,20 15,19.5522847 15,19 L15,17 L7,17 L7,9 L5,9 C4.44771525,9 4,8.55228475 4,8 L4,8 C4,7.44771525 4.44771525,7 5,7 L7,7 L7,5 C7,4.44771525 7.44771525,4 8,4 L8,4 C8.55228475,4 9,4.44771525 9,5 L9,7 L16,7 L19,4 L20,5 L17,8 Z M9,9 L9,14 L14,9 L9,9 Z M10,15 L15,15 L15,10 L10,15 Z" fill="#000000"></path>
    </g>
</svg>