<?xml version="1.0" encoding="UTF-8"?>
<svg width="24px" height="24px" viewBox="0 0 24 24" version="1.1" xmlns="http://www.w3.org/2000/svg" xmlns:xlink="http://www.w3.org/1999/xlink">
    <!-- Generator: Sketch 51.2 (57519) - http://www.bohemiancoding.com/sketch -->
    <title>icon-embed</title>
    <desc>Created with Sketch.</desc>
    <defs></defs>
    <g stroke="none" stroke-width="1" fill="none" fill-rule="evenodd">
        <path d="M4,3 L20,3 C20.5522847,3 21,3.44771525 21,4 L21,20 C21,20.5522847 20.5522847,21 20,21 L4,21 C3.44771525,21 3,20.5522847 3,20 L3,4 C3,3.44771525 3.44771525,3 4,3 Z M5,5 L5,19 L19,19 L19,5 L5,5 Z M9.7906191,7.56472793 L15.4303866,11.5931333 C15.6550929,11.7536378 15.7071387,12.0659128 15.5466342,12.2906191 C15.5145644,12.3355169 15.4752843,12.3747969 15.4303866,12.4068667 L9.7906191,16.4352721 C9.5659128,16.5957766 9.25363776,16.5437307 9.09313326,16.3190244 C9.03256157,16.2342241 9,16.1326168 9,16.0284053 L9,7.97159466 C9,7.69545229 9.22385763,7.47159466 9.5,7.47159466 C9.60421149,7.47159466 9.70581872,7.50415623 9.7906191,7.56472793 Z" fill="#000000" fill-rule="nonzero"></path>
    </g>
</svg>