<?xml version="1.0" encoding="UTF-8"?>
<svg width="24px" height="24px" viewBox="0 0 24 24" version="1.1" xmlns="http://www.w3.org/2000/svg" xmlns:xlink="http://www.w3.org/1999/xlink">
    <!-- Generator: Sketch 52.4 (67378) - http://www.bohemiancoding.com/sketch -->
    <title>icon-embed-page</title>
    <desc>Created with Sketch.</desc>
    <g stroke="none" stroke-width="1" fill="none" fill-rule="evenodd">
        <path d="M19,6.03788963 L19,5 L5,5 L5,19 L7,19 C7,16.4518319 7.7331428,14.0748985 9,12.0686282 L9,12 L9.04363583,12 C11.1848854,8.6554826 14.815582,6.3562039 19,6.03788963 Z M19,7.44993878 C18.1635865,8.19512513 17.3776112,9.82206861 16.8201348,12 L19,12 L19,7.44993878 Z M19,13 L16.5886525,13 C16.2217422,14.7613294 16,16.8087446 16,19 L19,19 L19,13 Z M15,19 C15,16.8357467 15.2034114,14.7950175 15.5632389,13 L13.0803364,13 C12.3957864,14.7590432 12,16.8053403 12,19 L15,19 Z M11,19 C11,16.8357467 11.3661405,14.7950175 12.0138301,13 L9.60538634,13 C8.58436572,14.7650402 8,16.8142771 8,19 L11,19 Z M4,3 L20,3 C20.5522847,3 21,3.44771525 21,4 L21,20 C21,20.5522847 20.5522847,21 20,21 L4,21 C3.44771525,21 3,20.5522847 3,20 L3,4 C3,3.44771525 3.44771525,3 4,3 Z M15.7860138,12 C16.2449105,10.1363923 16.8816736,8.59731656 17.6340389,7.54465979 C15.9737432,8.32694547 14.5269131,9.90796304 13.5152451,12 L15.7860138,12 Z M12.4148248,12 C13.1296045,10.3873532 14.0841217,9.01771808 15.2057548,7.99599227 C13.2151092,8.86449487 11.5057197,10.2573336 10.2520947,12 L12.4148248,12 Z" fill="#000000" fill-rule="nonzero"></path>
    </g>
</svg>