<?xml version="1.0" encoding="UTF-8"?>
<svg width="24px" height="24px" viewBox="0 0 24 24" version="1.1" xmlns="http://www.w3.org/2000/svg" xmlns:xlink="http://www.w3.org/1999/xlink">
    <!-- Generator: Sketch 51.2 (57519) - http://www.bohemiancoding.com/sketch -->
    <title>icon-gamma</title>
    <desc>Created with Sketch.</desc>
    <defs></defs>
    <g stroke="none" stroke-width="1" fill="none" fill-rule="evenodd">
        <path d="M4,3 L20,3 C20.5522847,3 21,3.44771525 21,4 L21,20 C21,20.5522847 20.5522847,21 20,21 L4,21 C3.44771525,21 3,20.5522847 3,20 L3,4 C3,3.44771525 3.44771525,3 4,3 Z M5,5 L5,19 L19,19 L19,5 L5,5 Z M11.546875,16.8203125 L11.546875,14 L9.25,8.75 C9.17708297,8.55208234 9.10416703,8.38020906 9.03125,8.234375 C8.95833297,8.08854094 8.89583359,7.97916703 8.84375,7.90625 C8.80208312,7.82291625 8.74479203,7.7682293 8.671875,7.7421875 C8.59895797,7.7161457 8.52604203,7.703125 8.453125,7.703125 C8.32812437,7.703125 8.22656289,7.71093742 8.1484375,7.7265625 C8.07031211,7.74218758 8.02083344,7.75 8,7.75 L8,6.65625 C8.07291703,6.60416641 8.16666609,6.57031258 8.28125,6.5546875 C8.39583391,6.53906242 8.49999953,6.52083344 8.59375,6.5 C8.84375125,6.5 9.06770734,6.52604141 9.265625,6.578125 C9.46354266,6.63020859 9.62499937,6.71874937 9.75,6.84375 C9.80208359,6.89583359 9.85156227,6.95833297 9.8984375,7.03125 C9.94531273,7.10416703 9.99479141,7.17708297 10.046875,7.25 C10.0989586,7.35416719 10.1484373,7.45833281 10.1953125,7.5625 C10.2421877,7.66666719 10.2760416,7.78124937 10.296875,7.90625 L12.203125,12.453125 L14.2941128,7.28141513 C14.4468772,6.90357787 14.8136532,6.65625 15.2212044,6.65625 L15.2734375,6.65625 C15.5398154,6.65625 15.7557574,6.87219197 15.7557574,7.13856989 C15.7557574,7.20288539 15.7428943,7.26655137 15.717925,7.32582206 L12.90625,14 L12.90625,16.8203125 C12.90625,17.1956935 12.6019435,17.5 12.2265625,17.5 C11.8511815,17.5 11.546875,17.1956935 11.546875,16.8203125 Z" fill="#000000" fill-rule="nonzero"></path>
    </g>
</svg>