<?xml version="1.0" encoding="UTF-8"?>
<svg width="24px" height="24px" viewBox="0 0 24 24" version="1.1" xmlns="http://www.w3.org/2000/svg" xmlns:xlink="http://www.w3.org/1999/xlink">
    <!-- Generator: Sketch 51.2 (57519) - http://www.bohemiancoding.com/sketch -->
    <title>icon-help</title>
    <desc>Created with Sketch.</desc>
    <defs></defs>
    <g stroke="none" stroke-width="1" fill="none" fill-rule="evenodd">
        <path d="M12,5.5 C11.5624978,5.5 11.1354187,5.54166625 10.71875,5.625 C10.3020813,5.70833375 9.89843945,5.83072836 9.5078125,5.9921875 C9.11718555,6.15364664 8.74479344,6.35416547 8.390625,6.59375 C8.03645656,6.82291781 7.70833484,7.09374844 7.40625,7.40625 C7.09374844,7.70833484 6.82291781,8.03645656 6.59375,8.390625 C6.35416547,8.74479344 6.15364664,9.11718555 5.9921875,9.5078125 C5.83072836,9.89843945 5.70833375,10.3020813 5.625,10.71875 C5.54166625,11.1354187 5.5,11.5624978 5.5,12 C5.5,12.4375022 5.54166625,12.8645813 5.625,13.28125 C5.70833375,13.6979187 5.83072836,14.1015605 5.9921875,14.4921875 C6.15364664,14.8828145 6.35416547,15.2552066 6.59375,15.609375 C6.82291781,15.9635434 7.09374844,16.2916652 7.40625,16.59375 C7.70833484,16.9062516 8.03645656,17.1770822 8.390625,17.40625 C8.74479344,17.6458345 9.11718555,17.8463534 9.5078125,18.0078125 C9.89843945,18.1692716 10.3020813,18.2916662 10.71875,18.375 C11.1354187,18.4583338 11.5624978,18.5 12,18.5 C12.4375022,18.5 12.8645813,18.4583338 13.28125,18.375 C13.6979187,18.2916662 14.1015605,18.1692716 14.4921875,18.0078125 C14.8828145,17.8463534 15.2552066,17.6458345 15.609375,17.40625 C15.9635434,17.1770822 16.2916652,16.9062516 16.59375,16.59375 C16.9062516,16.2916652 17.1770822,15.9635434 17.40625,15.609375 C17.6458345,15.2552066 17.8463534,14.8828145 18.0078125,14.4921875 C18.1692716,14.1015605 18.2916662,13.6979187 18.375,13.28125 C18.4583338,12.8645813 18.5,12.4375022 18.5,12 C18.5,11.5624978 18.4583338,11.1354187 18.375,10.71875 C18.2916662,10.3020813 18.1692716,9.89843945 18.0078125,9.5078125 C17.8463534,9.11718555 17.6458345,8.74479344 17.40625,8.390625 C17.1770822,8.03645656 16.9062516,7.70833484 16.59375,7.40625 C16.2916652,7.09374844 15.9635434,6.82291781 15.609375,6.59375 C15.2552066,6.35416547 14.8828145,6.15364664 14.4921875,5.9921875 C14.1015605,5.83072836 13.6979187,5.70833375 13.28125,5.625 C12.8645813,5.54166625 12.4375022,5.5 12,5.5 Z M12,4 C13.1041722,4 14.1406202,4.20833125 15.109375,4.625 C16.0885466,5.04166875 16.9401005,5.61197555 17.6640625,6.3359375 C18.3880245,7.05989945 18.9583313,7.91145344 19.375,8.890625 C19.7916687,9.85937984 20,10.8958278 20,12 C20,13.1041722 19.7916687,14.1406202 19.375,15.109375 C18.9583313,16.0885466 18.3880245,16.9401005 17.6640625,17.6640625 C16.9401005,18.3880245 16.0885466,18.9583313 15.109375,19.375 C14.1406202,19.7916687 13.1041722,20 12,20 C10.8958278,20 9.85937984,19.7916687 8.890625,19.375 C7.91145344,18.9583313 7.05989945,18.3880245 6.3359375,17.6640625 C5.61197555,16.9401005 5.04166875,16.0885466 4.625,15.109375 C4.20833125,14.1406202 4,13.1041722 4,12 C4,10.8958278 4.20833125,9.85937984 4.625,8.890625 C5.04166875,7.91145344 5.61197555,7.05989945 6.3359375,6.3359375 C7.05989945,5.61197555 7.91145344,5.04166875 8.890625,4.625 C9.85937984,4.20833125 10.8958278,4 12,4 Z" fill="#000000"></path>
        <path d="M9.62156409,9.66452906 C9.20735052,9.66452906 8.87156409,9.32874263 8.87156409,8.91452906 C8.87156409,7.760449 10.4233139,7.13993648 12.1010729,7.12801148 C13.9298656,7.11501298 15.341243,7.89893614 15.341243,9.51197344 C15.341243,10.9478978 14.887807,11.6151842 13.8184567,12.2731622 C13.6298417,12.3882265 13.5465743,12.4396298 13.4601106,12.4964008 C13.0828299,12.7441185 12.8571243,12.9749352 12.6717879,13.3483044 C12.4876185,13.7193226 12.03755,13.8707935 11.6665318,13.6866241 C11.2955136,13.5024547 11.1440427,13.0523862 11.3282121,12.681368 C11.644849,12.0434877 12.0536435,11.625436 12.6368304,11.242523 C12.7437311,11.1723333 12.8474742,11.1082897 13.032383,10.9956302 C13.6924178,10.5895065 13.841243,10.3704921 13.841243,9.51197344 C13.841243,8.96572175 13.2189911,8.62010355 12.1117342,8.62797359 C11.5897185,8.63168392 11.0590301,8.72784096 10.6765469,8.88078804 C10.5270088,8.94058525 10.4151821,9.00349269 10.3521991,9.05579971 C10.3520792,9.04446374 10.3714975,8.99504702 10.3715639,8.91494133 C10.3713286,9.32897804 10.0356324,9.66452906 9.62156409,9.66452906 Z" fill="#000000" fill-rule="nonzero"></path>
        <circle fill="#000000" cx="12" cy="16" r="1"></circle>
    </g>
</svg>