<?xml version="1.0" encoding="UTF-8"?>
<svg width="24px" height="24px" viewBox="0 0 24 24" version="1.1" xmlns="http://www.w3.org/2000/svg" xmlns:xlink="http://www.w3.org/1999/xlink">
    <!-- Generator: Sketch 51.2 (57519) - http://www.bohemiancoding.com/sketch -->
    <title>icon-edit-image</title>
    <desc>Created with Sketch.</desc>
    <defs></defs>
    <g id="icon-edit-image" stroke="none" stroke-width="1" fill="none" fill-rule="evenodd">
        <path d="M18,16 L20,16 L20,7 C20,5.9 19.1,5 18,5 L7,5 L7,7 L18,7 L18,16 Z M6,17 L23,17 L23,19 L20,19 L20,23 L18,23 L18,19 L6,19 C4.9,19 4,18.1 4,17 L4,7 L1,7 L1,5 L4,5 L4,1 L6,1 L6,17 Z M9.065,11.687 L10.338,13.729 L13.273,9.021 L17,15 L7,15 L9.065,11.687 Z" id="Shape" fill="#000000" fill-rule="nonzero"></path>
    </g>
</svg>