<?xml version="1.0" encoding="UTF-8"?>
<svg width="24px" height="24px" viewBox="0 0 24 24" version="1.1" xmlns="http://www.w3.org/2000/svg" xmlns:xlink="http://www.w3.org/1999/xlink">
    <!-- Generator: Sketch 51.2 (57519) - http://www.bohemiancoding.com/sketch -->
    <title>icon-duplicate</title>
    <desc>Created with Sketch.</desc>
    <defs></defs>
    <g id="icon-duplicate" stroke="none" stroke-width="1" fill="none" fill-rule="evenodd">
        <path d="M17,2 L5,2 C3.9,2 3,2.85909091 3,3.90909091 L3,17.0861741 L5,17.0861741 L5,3.90909091 L17,3.90909091 L17,2 Z M20,5.81818182 C21.1,5.81818182 22,6.67727273 22,7.72727273 L22,21.0909091 C22,22.1409091 21.1,23 20,23 L9,23 C7.9,23 7,22.1409091 7,21.0909091 L7,7.72727273 C7,6.67727273 7.9,5.81818182 9,5.81818182 L20,5.81818182 Z M20,21.0909091 L20,7.72727273 L9,7.72727273 L9,21.0909091 L20,21.0909091 Z M17,16 L18,16 C18.5522847,16 19,16.4477153 19,17 C19,17.5522847 18.5522847,18 18,18 L17,18 L17,19 C17,19.5522847 16.5522847,20 16,20 C15.4477153,20 15,19.5522847 15,19 L15,18 L14,18 C13.4477153,18 13,17.5522847 13,17 C13,16.4477153 13.4477153,16 14,16 L15,16 L15,15 C15,14.4477153 15.4477153,14 16,14 C16.5522847,14 17,14.4477153 17,15 L17,16 Z" id="Combined-Shape" fill="#000000" fill-rule="nonzero"></path>
    </g>
</svg>