<?xml version="1.0" encoding="UTF-8"?>
<svg width="24px" height="24px" viewBox="0 0 24 24" version="1.1" xmlns="http://www.w3.org/2000/svg" xmlns:xlink="http://www.w3.org/1999/xlink">
    <!-- Generator: Sketch 51.2 (57519) - http://www.bohemiancoding.com/sketch -->
    <title>icon-flip-vertically</title>
    <desc>Created with Sketch.</desc>
    <defs></defs>
    <g id="icon-flip-vertically" stroke="none" stroke-width="1" fill="none" fill-rule="evenodd">
        <path d="M3,15 L5,15 L5,17 L3,17 L3,15 Z M15,19 L17,19 L17,21 L15,21 L15,19 Z M19,3 C20.1,3 21,3.9 21,5 L21,9 L19,9 L19,5 L5,5 L5,9 L3,9 L3,5 C3,3.9 3.9,3 5,3 L19,3 Z M21,19 C21,20.1 20.1,21 19,21 L19,19 L21,19 Z M1,11 L23,11 L23,13 L1,13 L1,11 Z M7,19 L9,19 L9,21 L7,21 L7,19 Z M19,15 L21,15 L21,17 L19,17 L19,15 Z M11,19 L13,19 L13,21 L11,21 L11,19 Z M3,19 L5,19 L5,21 C3.9,21 3,20.1 3,19 Z" id="Shape" fill="#000000" fill-rule="nonzero"></path>
    </g>
</svg>