<?xml version="1.0" encoding="UTF-8"?>
<svg width="24px" height="24px" viewBox="0 0 24 24" version="1.1" xmlns="http://www.w3.org/2000/svg" xmlns:xlink="http://www.w3.org/1999/xlink">
    <!-- Generator: Sketch 51.2 (57519) - http://www.bohemiancoding.com/sketch -->
    <title>icon-strike-through</title>
    <desc>Created with Sketch.</desc>
    <defs></defs>
    <g id="icon-strike-through" stroke="none" stroke-width="1" fill="none" fill-rule="evenodd">
        <path d="M7.24,9.75 C6.98,9.27 6.85,8.72 6.85,8.08 C6.85,7.47 6.98,6.92 7.25,6.41 C7.51,5.91 7.88,5.48 8.36,5.12 C8.84,4.77 9.41,4.49 10.06,4.29 C10.72,4.1 11.45,4 12.24,4 C13.05,4 13.78,4.11 14.45,4.34 C15.11,4.56 15.68,4.88 16.14,5.28 C16.61,5.68 16.97,6.16 17.22,6.71 C17.2892401,6.8623282 17.3515765,7.05550289 17.4070094,7.28952409 L17.4069928,7.28952802 C17.5342884,7.82693278 17.2018292,8.36577888 16.6644244,8.49307445 C16.5889,8.51096399 16.5115496,8.52 16.4339354,8.52 L15.4416902,8.52004694 C14.9920274,8.52004694 14.5976579,8.21992851 14.4778149,7.78652996 C14.4658697,7.74333177 14.4532648,7.70448845 14.44,7.67 C14.35,7.4 14.2,7.18 14,6.99 C13.8,6.8 13.55,6.66 13.25,6.55 C12.95,6.45 12.59,6.39 12.19,6.39 C11.8,6.39 11.45,6.43 11.16,6.52 C10.87,6.61 10.63,6.73 10.44,6.88 C10.25,7.04 10.1,7.22 10,7.43 C9.9,7.64 9.85,7.86 9.85,8.09 C9.85,8.57 10.1,8.97 10.59,9.3 C10.97,9.55 11.36,9.78 12,10 L7.39,10 C7.34,9.92 7.28,9.83 7.24,9.75 Z M20,11 L4,11 C3.44771525,11 3,11.4477153 3,12 L3,12 C3,12.5522847 3.44771525,13 4,13 L12.62,13 C12.8,13.07 13.02,13.14 13.17,13.2 C13.54,13.37 13.83,13.54 14.04,13.71 C14.25,13.88 14.39,14.07 14.47,14.28 C14.54,14.48 14.58,14.71 14.58,14.97 C14.58,15.2 14.53,15.42 14.44,15.63 C14.35,15.83 14.21,16.01 14.02,16.16 C13.83,16.31 13.6,16.42 13.31,16.51 C13.02,16.59 12.68,16.64 12.3,16.64 C11.87,16.64 11.47,16.6 11.12,16.51 C10.77,16.42 10.46,16.28 10.21,16.09 C9.96,15.9 9.76,15.65 9.62,15.34 C9.57627177,15.2431732 9.53473863,15.1031765 9.49540056,14.92001 L9.49538942,14.9200124 C9.39641389,14.4591609 8.98905458,14.13 8.51769458,14.13 L7.52121044,14.1299743 C6.9689115,14.1299743 6.52118474,14.5777011 6.52118474,15.13 C6.52118474,15.1938522 6.52730019,15.2575575 6.53944735,15.3202436 C6.56981346,15.4769497 6.60333101,15.6068685 6.64,15.71 C6.8,16.16 7.01,16.56 7.29,16.92 C7.57,17.27 7.89,17.58 8.27,17.84 C8.64,18.1 9.05,18.32 9.49,18.49 C9.93,18.66 10.39,18.79 10.87,18.88 C11.35,18.96 11.83,19.01 12.31,19.01 C13.11,19.01 13.84,18.92 14.49,18.73 C15.14,18.54 15.7,18.28 16.16,17.94 C16.62,17.6 16.98,17.17 17.23,16.67 C17.48,16.17 17.61,15.6 17.61,14.96 C17.61,14.36 17.51,13.82 17.3,13.35 C17.25,13.24 17.19,13.12 17.13,13.02 L20,13.02 C20.5522847,13.02 21,12.5722847 21,12.02 L21,12 C21,11.4477153 20.5522847,11 20,11 Z" id="Shape" fill="#010101" fill-rule="nonzero"></path>
    </g>
</svg>