<?xml version="1.0" encoding="UTF-8"?>
<svg width="24px" height="24px" viewBox="0 0 24 24" version="1.1" xmlns="http://www.w3.org/2000/svg" xmlns:xlink="http://www.w3.org/1999/xlink">
    <!-- Generator: Sketch 51.2 (57519) - http://www.bohemiancoding.com/sketch -->
    <title>icon-fullscreen</title>
    <desc>Created with Sketch.</desc>
    <defs></defs>
    <g id="icon-fullscreen" stroke="none" stroke-width="1" fill="none" fill-rule="evenodd">
        <path d="M15.5908835,9.82311652 L14.1768835,8.40911652 L17.586,5 L15,5 C14.4477153,5 14,4.55228475 14,4 C14,3.44771525 14.4477153,3 15,3 L20,3 C20.5522847,3 21,3.44771525 21,4 L21,9 C21,9.55228475 20.5522847,10 20,10 C19.4477153,10 19,9.55228475 19,9 L19,6.414 L15.5908835,9.82311652 Z M15.5908835,14.1768835 L19,17.586 L19,15 C19,14.4477153 19.4477153,14 20,14 C20.5522847,14 21,14.4477153 21,15 L21,20 C21,20.5522847 20.5522847,21 20,21 L15,21 C14.4477153,21 14,20.5522847 14,20 C14,19.4477153 14.4477153,19 15,19 L17.586,19 L14.1768835,15.5908835 L15.5908835,14.1768835 Z M9.82311652,15.5908835 L6.414,19 L9,19 C9.55228475,19 10,19.4477153 10,20 C10,20.5522847 9.55228475,21 9,21 L4,21 C3.44771525,21 3,20.5522847 3,20 L3,15 C3,14.4477153 3.44771525,14 4,14 C4.55228475,14 5,14.4477153 5,15 L5,17.586 L8.40911652,14.1768835 L9.82311652,15.5908835 Z M8.40911652,9.82311652 L5,6.414 L5,9 C5,9.55228475 4.55228475,10 4,10 C3.44771525,10 3,9.55228475 3,9 L3,4 C3,3.44771525 3.44771525,3 4,3 L9,3 C9.55228475,3 10,3.44771525 10,4 C10,4.55228475 9.55228475,5 9,5 L6.414,5 L9.82311652,8.40911652 L8.40911652,9.82311652 Z" id="Shape" fill="#000000" fill-rule="nonzero"></path>
    </g>
</svg>