<?xml version="1.0" encoding="UTF-8"?>
<svg width="24px" height="24px" viewBox="0 0 24 24" version="1.1" xmlns="http://www.w3.org/2000/svg" xmlns:xlink="http://www.w3.org/1999/xlink">
    <!-- Generator: Sketch 51.2 (57519) - http://www.bohemiancoding.com/sketch -->
    <title>icon-insert-character</title>
    <desc>Created with Sketch.</desc>
    <defs></defs>
    <g stroke="none" stroke-width="1" fill="none" fill-rule="evenodd">
        <path d="M15,18 L19,18 L20,16 L20,20 L14,20 L14,16.65625 C14.5104192,16.4374989 14.9791645,16.1406269 15.40625,15.765625 C15.8333355,15.3906231 16.2031234,14.9557316 16.515625,14.4609375 C16.8281266,13.9661434 17.0677075,13.4270863 17.234375,12.84375 C17.4114592,12.2604137 17.5,11.6458366 17.5,11 C17.5,10.1666625 17.3541681,9.38542031 17.0625,8.65625 C16.7812486,7.92707969 16.3906275,7.29427352 15.890625,6.7578125 C15.3906225,6.22135148 14.807295,5.79687656 14.140625,5.484375 C13.473955,5.18229016 12.7604205,5.03125 12,5.03125 C11.2395795,5.03125 10.526045,5.18229016 9.859375,5.484375 C9.192705,5.79687656 8.6093775,6.22135148 8.109375,6.7578125 C7.6093725,7.29427352 7.21875141,7.92707969 6.9375,8.65625 C6.64583187,9.38542031 6.5,10.1666625 6.5,11 C6.5,11.6458366 6.58854078,12.2604137 6.765625,12.84375 C6.9322925,13.4270863 7.17187344,13.9661434 7.484375,14.4609375 C7.79687656,14.9557316 8.16666453,15.3906231 8.59375,15.765625 C9.02083547,16.1406269 9.48958078,16.4374989 10,16.65625 L10,20 L4,20 L4,16 L5,18 L9,18 L9,17.484375 C8.27082969,17.223957 7.59896141,16.8802105 6.984375,16.453125 C6.36978859,16.0156228 5.84114805,15.5156278 5.3984375,14.953125 C4.95572695,14.3906222 4.61458453,13.776045 4.375,13.109375 C4.12499875,12.442705 4,11.739587 4,11 C4,10.0312452 4.20833125,9.12500422 4.625,8.28125 C5.04166875,7.42707906 5.61197555,6.68229484 6.3359375,6.046875 C7.05989945,5.41145516 7.91145344,4.91146016 8.890625,4.546875 C9.85937984,4.18228984 10.8958278,4 12,4 C13.1041722,4 14.1406202,4.18228984 15.109375,4.546875 C16.0885466,4.91146016 16.9401005,5.41145516 17.6640625,6.046875 C18.3880245,6.68229484 18.9583313,7.42707906 19.375,8.28125 C19.7916687,9.12500422 20,10.0312452 20,11 C20,11.739587 19.8750013,12.442705 19.625,13.109375 C19.3854155,13.776045 19.044273,14.3906222 18.6015625,14.953125 C18.158852,15.5156278 17.6302114,16.0156228 17.015625,16.453125 C16.4010386,16.8802105 15.7291703,17.223957 15,17.484375 L15,18 Z" fill="#000000"></path>
    </g>
</svg>