<?xml version="1.0" encoding="UTF-8"?>
<svg width="24px" height="24px" viewBox="0 0 24 24" version="1.1" xmlns="http://www.w3.org/2000/svg" xmlns:xlink="http://www.w3.org/1999/xlink">
    <!-- Generator: Sketch 51.2 (57519) - http://www.bohemiancoding.com/sketch -->
    <title>icon-invert</title>
    <desc>Created with Sketch.</desc>
    <defs></defs>
    <g stroke="none" stroke-width="1" fill="none" fill-rule="evenodd">
        <path d="M17.953125,19.34375 L16.546875,17.953125 C16.2760403,18.2656266 15.97396,18.5468737 15.640625,18.796875 C15.30729,19.0468763 14.9479186,19.2604158 14.5625,19.4375 C14.1770814,19.6145842 13.7760437,19.7552078 13.359375,19.859375 C12.9322895,19.9531255 12.4947939,20 12.046875,20 C11.2343709,20 10.4687536,19.8489598 9.75,19.546875 C9.03124641,19.2343734 8.39844023,18.8125027 7.8515625,18.28125 C7.30468477,17.7499973 6.86979328,17.1302119 6.546875,16.421875 C6.22395672,15.7031214 6.05729172,14.9270875 6.046875,14.09375 L6.046875,13.796875 C6.05729172,13.390623 6.10937453,12.9791687 6.203125,12.5625 C6.28645875,12.156248 6.40364508,11.7526062 6.5546875,11.3515625 C6.70572992,10.9505188 6.87499906,10.5572936 7.0625,10.171875 C7.26041766,9.78645641 7.47395719,9.41146016 7.703125,9.046875 L4.703125,6.046875 L5.40625,5.34375 L8.25,8.203125 L17.15625,17.09375 L18.703125,18.65625 L17.953125,19.34375 Z M18,13.796875 L18,14.09375 C18,14.4687519 17.9557296,14.841144 17.8671875,15.2109375 C17.7786454,15.580731 17.6718756,15.9270817 17.546875,16.25 L16.34375,15.046875 C16.3958336,14.8697908 16.4348957,14.7031258 16.4609375,14.546875 C16.4869793,14.3906242 16.5,14.2239592 16.5,14.046875 L16.5,13.84375 C16.4895833,13.437498 16.4218756,13.0052106 16.296875,12.546875 C16.1718744,12.0989561 15.9947928,11.6302108 15.765625,11.140625 C15.5364572,10.6510392 15.2604183,10.1458359 14.9375,9.625 C14.604165,9.11458078 14.2239605,8.58854437 13.796875,8.046875 C13.4739567,7.65103969 13.1562516,7.28125172 12.84375,6.9375 C12.5312484,6.59374828 12.2500013,6.29687625 12,6.046875 C11.7499987,6.29687625 11.4687516,6.59374828 11.15625,6.9375 C10.8437484,7.28125172 10.5260433,7.65103969 10.203125,8.046875 C10.1510414,8.11979203 10.0911462,8.20312453 10.0234375,8.296875 C9.95572883,8.39062547 9.89583359,8.47395797 9.84375,8.546875 L8.75,7.453125 C9.13541859,6.94270578 9.52083141,6.47396047 9.90625,6.046875 C10.3020853,5.61978953 10.6536443,5.25520984 10.9609375,4.953125 C11.2682307,4.65104016 11.5156241,4.4166675 11.703125,4.25 L12,4 L12.921875,4.828125 C13.5260447,5.39062781 14.2005171,6.13020375 14.9453125,7.046875 C15.6901079,7.96354625 16.3749969,9.01041078 17,10.1875 C17.6250031,11.3541725 17.9583331,12.5572855 18,13.796875 Z" fill="#000000"></path>
    </g>
</svg>