<?xml version="1.0" encoding="UTF-8"?>
<svg width="24px" height="24px" viewBox="0 0 24 24" version="1.1" xmlns="http://www.w3.org/2000/svg" xmlns:xlink="http://www.w3.org/1999/xlink">
    <!-- Generator: Sketch 51.2 (57519) - http://www.bohemiancoding.com/sketch -->
    <title>icon-italic</title>
    <desc>Created with Sketch.</desc>
    <defs></defs>
    <g stroke="none" stroke-width="1" fill="none" fill-rule="evenodd">
        <path d="M16.7460938,4.72265625 L16.5703125,5.5625 L16.3066406,5.5625 C15.6686166,5.5625 15.2096368,5.6829415 14.9296875,5.92382812 C14.6497382,6.16471475 14.460938,6.52278408 14.3632812,6.99804688 L12.2929688,16.8027344 C12.2343747,17.0826837 12.2050781,17.2682287 12.2050781,17.359375 C12.2050781,17.8932318 12.6868441,18.1601562 13.6503906,18.1601562 L13.9042969,18.1601562 L13.7285156,19 L7.90820312,19 L8.06445312,18.1601562 L8.328125,18.1601562 C9.43490137,18.1601562 10.0891917,17.6816454 10.2910156,16.7246094 L12.3710938,6.91992188 C12.4231773,6.6725248 12.4492188,6.48697979 12.4492188,6.36328125 C12.4492188,5.82942441 11.9674527,5.5625 11.0039062,5.5625 L10.75,5.5625 L10.9257812,4.72265625 L16.7460938,4.72265625 Z" fill="#000000"></path>
    </g>
</svg>