<?xml version="1.0" encoding="UTF-8"?>
<svg width="48px" height="48px" viewBox="0 0 48 48" version="1.1" xmlns="http://www.w3.org/2000/svg" xmlns:xlink="http://www.w3.org/1999/xlink">
    <!-- Generator: Sketch 51.2 (57519) - http://www.bohemiancoding.com/sketch -->
    <title>icon-list-bull-circle</title>
    <desc>Created with Sketch.</desc>
    <defs></defs>
    <g stroke="none" stroke-width="1" fill="none" fill-rule="evenodd">
        <path d="M11,16 C12.1045695,16 13,15.1045695 13,14 C13,12.8954305 12.1045695,12 11,12 C9.8954305,12 9,12.8954305 9,14 C9,15.1045695 9.8954305,16 11,16 Z M11,17 C9.34314575,17 8,15.6568542 8,14 C8,12.3431458 9.34314575,11 11,11 C12.6568542,11 14,12.3431458 14,14 C14,15.6568542 12.6568542,17 11,17 Z" fill="#000000" fill-rule="nonzero"></path>
        <path d="M11,26 C12.1045695,26 13,25.1045695 13,24 C13,22.8954305 12.1045695,22 11,22 C9.8954305,22 9,22.8954305 9,24 C9,25.1045695 9.8954305,26 11,26 Z M11,27 C9.34314575,27 8,25.6568542 8,24 C8,22.3431458 9.34314575,21 11,21 C12.6568542,21 14,22.3431458 14,24 C14,25.6568542 12.6568542,27 11,27 Z" fill="#000000" fill-rule="nonzero"></path>
        <path d="M11,36 C12.1045695,36 13,35.1045695 13,34 C13,32.8954305 12.1045695,32 11,32 C9.8954305,32 9,32.8954305 9,34 C9,35.1045695 9.8954305,36 11,36 Z M11,37 C9.34314575,37 8,35.6568542 8,34 C8,32.3431458 9.34314575,31 11,31 C12.6568542,31 14,32.3431458 14,34 C14,35.6568542 12.6568542,37 11,37 Z" fill="#000000" fill-rule="nonzero"></path>
        <rect fill="#000000" opacity="0.2" x="18" y="12" width="22" height="4"></rect>
        <rect fill="#000000" opacity="0.2" x="18" y="22" width="22" height="4"></rect>
        <rect fill="#000000" opacity="0.2" x="18" y="32" width="22" height="4"></rect>
    </g>
</svg>