<?xml version="1.0" encoding="UTF-8"?>
<svg width="48px" height="48px" viewBox="0 0 48 48" version="1.1" xmlns="http://www.w3.org/2000/svg" xmlns:xlink="http://www.w3.org/1999/xlink">
    <!-- Generator: Sketch 51.2 (57519) - http://www.bohemiancoding.com/sketch -->
    <title>icon-list-num-lower-greek</title>
    <desc>Created with Sketch.</desc>
    <defs></defs>
    <g stroke="none" stroke-width="1" fill="none" fill-rule="evenodd">
        <rect fill="#000000" opacity="0.2" x="18" y="12" width="22" height="4"></rect>
        <rect fill="#000000" opacity="0.2" x="18" y="22" width="22" height="4"></rect>
        <rect fill="#000000" opacity="0.2" x="18" y="32" width="22" height="4"></rect>
        <path d="M10.5483398,15.0620117 C11.1833496,15.0620117 11.5900879,14.5349121 11.5900879,13.7131348 C11.5900879,12.8996582 11.1958008,12.3601074 10.5939941,12.3601074 C9.9921875,12.3601074 9.60205078,12.8747559 9.60205078,13.7089844 C9.60205078,14.5432129 9.97558594,15.0620117 10.5483398,15.0620117 Z M10.2453613,16.0705566 C9.07495117,16.0705566 8.36108398,15.1865234 8.36108398,13.704834 C8.36108398,12.2480469 9.07910156,11.3474121 10.2163086,11.3474121 C10.8513184,11.3474121 11.3120117,11.6628418 11.5361328,12.2563477 L11.6108398,12.2563477 L11.6108398,11.4221191 L12.7854004,11.4221191 L12.7854004,14.576416 C12.7854004,14.9665527 12.9140625,15.0869141 13.1630859,15.0869141 C13.2336426,15.0869141 13.3208008,15.0744629 13.3789062,15.0537109 L13.3789062,15.9709473 C13.2585449,16.0124512 13.0095215,16.0415039 12.7895508,16.0415039 C12.2001953,16.0415039 11.8266602,15.8132324 11.697998,15.3193359 L11.6606445,15.2114258 L11.5859375,15.2114258 C11.3867188,15.7426758 10.8762207,16.0705566 10.2453613,16.0705566 Z M15.1469727,16.1120605 C14.7028809,16.1120605 14.4123535,15.809082 14.4123535,15.3898926 C14.4123535,14.9707031 14.7028809,14.671875 15.1469727,14.671875 C15.5952148,14.671875 15.8815918,14.9707031 15.8815918,15.3898926 C15.8815918,15.809082 15.5952148,16.1120605 15.1469727,16.1120605 Z M10.3242188,23.1071777 L10.3242188,22.185791 L10.6064453,22.185791 C11.1875,22.185791 11.5112305,21.8869629 11.5112305,21.3847656 C11.5112305,20.8742676 11.1916504,20.5629883 10.6811523,20.5629883 C10.104248,20.5629883 9.80957031,20.9448242 9.80957031,21.6794434 L9.80957031,23.7753906 C9.80957031,24.6262207 10.2287598,25.0620117 10.9052734,25.0620117 C11.4572754,25.0620117 11.8349609,24.6801758 11.8349609,24.119873 C11.8349609,23.4599609 11.4074707,23.1071777 10.6230469,23.1071777 L10.3242188,23.1071777 Z M8.60595703,21.8537598 C8.60595703,20.3637695 9.33227539,19.5751953 10.6645508,19.5751953 C11.8432617,19.5751953 12.6152344,20.1977539 12.6152344,21.21875 C12.6152344,21.7873535 12.2956543,22.2854004 11.7851562,22.5053711 L11.7851562,22.5800781 C12.6359863,22.7875977 13.0717773,23.3479004 13.0717773,24.2443848 C13.0717773,25.3525391 12.3496094,26.0705566 11.2331543,26.0705566 C10.6022949,26.0705566 10.0959473,25.7717285 9.88842773,25.298584 L9.8137207,25.298584 L9.8137207,27.519043 L8.60595703,27.519043 L8.60595703,21.8537598 Z M14.8066406,26.1120605 C14.3625488,26.1120605 14.0720215,25.809082 14.0720215,25.3898926 C14.0720215,24.9707031 14.3625488,24.671875 14.8066406,24.671875 C15.2548828,24.671875 15.5412598,24.9707031 15.5412598,25.3898926 C15.5412598,25.809082 15.2548828,26.1120605 14.8066406,26.1120605 Z M10.3076172,34.6262207 L8.04980469,29.8574219 L9.36962891,29.8574219 L11.0629883,33.3935547 L12.7646484,29.8574219 L13.9475098,29.8574219 L11.7270508,34.5390625 L11.7768555,34.6345215 C12.175295,35.4397013 12.3745117,36.038735 12.3745117,36.4316406 C12.3745117,36.8411479 12.2527681,37.1614165 12.0092773,37.3924561 C11.7657865,37.6234956 11.4309917,37.7390137 11.0048828,37.7390137 C10.1277625,37.7390137 9.68920898,37.3253622 9.68920898,36.4980469 C9.68920898,36.022133 9.8732078,35.4397007 10.2412109,34.7507324 L10.3076172,34.6262207 Z M10.9882812,35.5102539 C10.7364896,35.9197612 10.6105957,36.2338042 10.6105957,36.4523926 C10.6105957,36.7650569 10.7378731,36.9213867 10.9924316,36.9213867 C11.2663588,36.9213867 11.4033203,36.7733576 11.4033203,36.4772949 C11.4033203,36.2614735 11.2649753,35.9391297 10.9882812,35.5102539 Z M15.4748535,36.1120605 C15.0307617,36.1120605 14.7402344,35.809082 14.7402344,35.3898926 C14.7402344,34.9707031 15.0307617,34.671875 15.4748535,34.671875 C15.9230957,34.671875 16.2094727,34.9707031 16.2094727,35.3898926 C16.2094727,35.809082 15.9230957,36.1120605 15.4748535,36.1120605 Z" fill="#000000"></path>
    </g>
</svg>