<svg xmlns="http://www.w3.org/2000/svg" width="48" height="48" viewBox="0 0 48 48"><g id="list-num-default-rtl" fill="none" fill-rule="evenodd" stroke="none" stroke-width="1"><rect id="Rectangle-2" width="22" height="4" x="8" y="12" fill="#000" opacity=".2"/><rect id="Rectangle-2-Copy" width="22" height="4" x="8" y="22" fill="#000" opacity=".2"/><rect id="Rectangle-2-Copy-2" width="22" height="4" x="8" y="32" fill="#000" opacity=".2"/><polygon id="Path" fill="#000" points="37.38 17 37.38 12.23 37.31 12.23 35.84 13.24 35.84 12.08 37.39 11.01 38.64 11.01 38.64 17"/><path id="Path" fill="#000" d="M33.2653809 17.1120605C32.8212891 17.1120605 32.5307617 16.809082 32.5307617 16.3898926 32.5307617 15.9707031 32.8212891 15.671875 33.2653809 15.671875 33.713623 15.671875 34 15.9707031 34 16.3898926 34 16.809082 33.713623 17.1120605 33.2653809 17.1120605zM35.0439453 22.8039551C35.0439453 21.6459961 35.9321289 20.8574219 37.2270508 20.8574219 38.4763184 20.8574219 39.3479004 21.5754395 39.3479004 22.6047363 39.3479004 23.2563477 38.9951172 23.8166504 37.9575195 24.7919922L36.8120117 25.8835449 36.8120117 25.958252 39.4350586 25.958252 39.4350586 27 35.114502 27 35.114502 26.1242676 37.0693359 24.2109375C37.9118652 23.3891602 38.1235352 23.0778809 38.1235352 22.6877441 38.1235352 22.2062988 37.7333984 21.8659668 37.1855469 21.8659668 36.6044922 21.8659668 36.2060547 22.2478027 36.2060547 22.7998047L36.2060547 22.824707 35.0439453 22.824707 35.0439453 22.8039551zM33.2653809 27.1120605C32.8212891 27.1120605 32.5307617 26.809082 32.5307617 26.3898926 32.5307617 25.9707031 32.8212891 25.671875 33.2653809 25.671875 33.713623 25.671875 34 25.9707031 34 26.3898926 34 26.809082 33.713623 27.1120605 33.2653809 27.1120605zM36.4592285 34.4018555L36.4592285 33.4680176 37.1896973 33.4680176C37.7583008 33.4680176 38.1442871 33.1359863 38.1442871 32.6462402 38.1442871 32.1647949 37.770752 31.857666 37.1855469 31.857666 36.6044922 31.857666 36.2185059 32.1855469 36.1853027 32.7043457L35.0273438 32.7043457C35.0688477 31.5712891 35.911377 30.8574219 37.21875 30.8574219 38.4472656 30.8574219 39.3312988 31.5297852 39.3312988 32.4719238 39.3312988 33.1650391 38.8955078 33.7045898 38.2272949 33.8415527L38.2272949 33.9162598C39.0490723 34.0075684 39.5637207 34.5554199 39.5637207 35.3439941 39.5637207 36.394043 38.5759277 37.1535645 37.2104492 37.1535645 35.8740234 37.1535645 34.9692383 36.4147949 34.9152832 35.2858887L36.1147461 35.2858887C36.1520996 35.7922363 36.5795898 36.1118164 37.2229004 36.1118164 37.8496094 36.1118164 38.2854004 35.7590332 38.2854004 35.2485352 38.2854004 34.7255859 37.8745117 34.4018555 37.2021484 34.4018555L36.4592285 34.4018555zM33.223877 37.1120605C32.7797852 37.1120605 32.4892578 36.809082 32.4892578 36.3898926 32.4892578 35.9707031 32.7797852 35.671875 33.223877 35.671875 33.6721191 35.671875 33.9584961 35.9707031 33.9584961 36.3898926 33.9584961 36.809082 33.6721191 37.1120605 33.223877 37.1120605z"/></g></svg>