<?xml version="1.0" encoding="UTF-8"?>
<svg width="24px" height="24px" viewBox="0 0 24 24" version="1.1" xmlns="http://www.w3.org/2000/svg" xmlns:xlink="http://www.w3.org/1999/xlink">
    <!-- Generator: Sketch 51.2 (57519) - http://www.bohemiancoding.com/sketch -->
    <title>icon-lock</title>
    <desc>Created with Sketch.</desc>
    <defs></defs>
    <g stroke="none" stroke-width="1" fill="none" fill-rule="evenodd">
        <path d="M16.25,11 C16.4583344,11 16.6354159,11.0729159 16.78125,11.21875 C16.9270841,11.3645841 17,11.5416656 17,11.75 L17,19.25 C17,19.4583344 16.9270841,19.6354159 16.78125,19.78125 C16.6354159,19.9270841 16.4583344,20 16.25,20 L7.75,20 C7.54166563,20 7.36458406,19.9270841 7.21875,19.78125 C7.07291594,19.6354159 7,19.4583344 7,19.25 L7,11.75 C7,11.5416656 7.07291594,11.3645841 7.21875,11.21875 C7.36458406,11.0729159 7.54166563,11 7.75,11 L8,11 L8,8 C8,7.17707922 8.29426789,6.47135711 8.8828125,5.8828125 C9.47135711,5.29426789 10.1770792,5 11,5 L13,5 C13.8229208,5 14.5286429,5.29426789 15.1171875,5.8828125 C15.7057321,6.47135711 16,7.17707922 16,8 L16,11 L16.25,11 Z M10,8 L10,11 L14,11 L14,8 C14,7.72916531 13.9010427,7.49479266 13.703125,7.296875 C13.5052073,7.09895734 13.2708347,7 13,7 L11,7 C10.7291653,7 10.4947927,7.09895734 10.296875,7.296875 C10.0989573,7.49479266 10,7.72916531 10,8 Z" fill="#000000"></path>
    </g>
</svg>