<?xml version="1.0" encoding="UTF-8"?>
<svg width="24px" height="24px" viewBox="0 0 24 24" version="1.1" xmlns="http://www.w3.org/2000/svg" xmlns:xlink="http://www.w3.org/1999/xlink">
    <!-- Generator: Sketch 51.2 (57519) - http://www.bohemiancoding.com/sketch -->
    <title>icon-ltr</title>
    <desc>Created with Sketch.</desc>
    <defs></defs>
    <g stroke="none" stroke-width="1" fill="none" fill-rule="evenodd">
        <path d="M11,5 L18,5 C18.5522847,5 19,5.44771525 19,6 C19,6.55228475 18.5522847,7 18,7 L17,7 L17,18 C17,18.5522847 16.5522847,19 16,19 C15.4477153,19 15,18.5522847 15,18 L15,7 L13,7 L13,18 C13,18.5522847 12.5522847,19 12,19 C11.4477153,19 11,18.5522847 11,18 L11,12 C10.5208309,12 10.0677105,11.9062509 9.640625,11.71875 C9.21353953,11.5416658 8.84114742,11.2942724 8.5234375,10.9765625 C8.20572758,10.6588526 7.95833422,10.2864605 7.78125,9.859375 C7.59374906,9.43228953 7.5,8.97916906 7.5,8.5 C7.5,8.02083094 7.59374906,7.56771047 7.78125,7.140625 C7.95833422,6.71353953 8.20572758,6.34114742 8.5234375,6.0234375 C8.84114742,5.70572758 9.21353953,5.45833422 9.640625,5.28125 C10.0677105,5.09374906 10.5208309,5 11,5 Z M4.44540608,16.1679497 L6.19733064,15 L4.44540608,13.8320503 C3.98587739,13.5256978 3.86170352,12.9048285 4.16805598,12.4452998 C4.47440844,11.9857711 5.09527778,11.8615972 5.55480647,12.1679497 L8.55480647,14.1679497 C9.14853954,14.5637718 9.14853954,15.4362282 8.55480647,15.8320503 L5.55480647,17.8320503 C5.09527778,18.1384028 4.47440844,18.0142289 4.16805598,17.5547002 C3.86170352,17.0951715 3.98587739,16.4743022 4.44540608,16.1679497 Z" fill="#000000"></path>
    </g>
</svg>