<?xml version="1.0" encoding="UTF-8"?>
<svg width="24px" height="24px" viewBox="0 0 24 24" version="1.1" xmlns="http://www.w3.org/2000/svg" xmlns:xlink="http://www.w3.org/1999/xlink">
    <!-- Generator: Sketch 51.2 (57519) - http://www.bohemiancoding.com/sketch -->
    <title>icon-non-breaking</title>
    <desc>Created with Sketch.</desc>
    <defs></defs>
    <g stroke="none" stroke-width="1" fill="none" fill-rule="evenodd">
        <path d="M11,11 L8,11 C7.44771525,11 7,10.5522847 7,10 L7,10 C7,9.44771525 7.44771525,9 8,9 L11,9 L11,6 C11,5.44771525 11.4477153,5 12,5 L12,5 C12.5522847,5 13,5.44771525 13,6 L13,9 L16,9 C16.5522847,9 17,9.44771525 17,10 L17,10 C17,10.5522847 16.5522847,11 16,11 L13,11 L13,14 C13,14.5522847 12.5522847,15 12,15 L12,15 C11.4477153,15 11,14.5522847 11,14 L11,11 Z M21,15 L21,20 L3,20 L3,15 C3,14.4477153 3.44771525,14 4,14 L4,14 C4.55228475,14 5,14.4477153 5,15 L5,18 L19,18 L19,15 C19,14.4477153 19.4477153,14 20,14 L20,14 C20.5522847,14 21,14.4477153 21,15 Z" fill="#000000"></path>
    </g>
</svg>