<?xml version="1.0" encoding="UTF-8"?>
<svg width="24px" height="24px" viewBox="0 0 24 24" version="1.1" xmlns="http://www.w3.org/2000/svg" xmlns:xlink="http://www.w3.org/1999/xlink">
    <!-- Generator: Sketch 51.2 (57519) - http://www.bohemiancoding.com/sketch -->
    <title>icon-preferences</title>
    <desc>Created with Sketch.</desc>
    <defs></defs>
    <g stroke="none" stroke-width="1" fill="none" fill-rule="evenodd">
        <path d="M20.1001233,13.4968036 L18.2050781,13.6875 C18.1347653,13.9570326 18.0468755,14.2177722 17.9414062,14.4697266 C17.835937,14.7216809 17.7187506,14.9589833 17.5898438,15.1816406 L18.8492447,16.7316725 C19.1723889,17.1293885 19.142591,17.7070184 18.7802374,18.0693719 L18.0693719,18.7802374 C17.7070184,19.142591 17.1293885,19.1723889 16.7316725,18.8492447 L15.1816406,17.5898438 C14.9589833,17.7187506 14.7216809,17.835937 14.4697266,17.9414062 C14.2177722,18.0468755 13.9570326,18.1347653 13.6875,18.2050781 L13.4968036,20.1001233 C13.445389,20.611056 13.0153417,21 12.5018286,21 L11.4981714,21 C10.9846583,21 10.554611,20.611056 10.5031964,20.1001233 L10.3125,18.2050781 C10.0429674,18.1347653 9.78222782,18.0468755 9.53027344,17.9414062 C9.27831905,17.835937 9.04101674,17.7187506 8.81835938,17.5898438 L7.26832748,18.8492447 C6.87061149,19.1723889 6.29298163,19.142591 5.93062807,18.7802374 L5.21976255,18.0693719 C4.85740899,17.7070184 4.82761109,17.1293885 5.15075533,16.7316725 L6.41015625,15.1816406 C6.28124936,14.9589833 6.16406303,14.7216809 6.05859375,14.4697266 C5.95312447,14.2177722 5.86523473,13.9570326 5.79492188,13.6875 L3.89987673,13.4968036 C3.38894402,13.445389 3,13.0153417 3,12.5018286 L3,11.4981714 C3,10.9846583 3.38894402,10.554611 3.89987673,10.5031964 L5.79492188,10.3125 C5.86523473,10.0429674 5.95312447,9.78222782 6.05859375,9.53027344 C6.16406303,9.27831905 6.28124936,9.04101674 6.41015625,8.81835938 L5.15075533,7.26832748 C4.82761109,6.87061149 4.85740899,6.29298163 5.21976255,5.93062807 L5.93062807,5.21976255 C6.29298163,4.85740899 6.87061149,4.82761109 7.26832748,5.15075533 L8.81835938,6.41015625 C9.04101674,6.28124936 9.27831905,6.16406303 9.53027344,6.05859375 C9.78222782,5.95312447 10.0429674,5.86523473 10.3125,5.79492188 L10.5031964,3.89987673 C10.554611,3.38894402 10.9846583,3 11.4981714,3 L12.5018286,3 C13.0153417,3 13.445389,3.38894402 13.4968036,3.89987673 L13.6875,5.79492188 C13.9570326,5.86523473 14.2177722,5.95312447 14.4697266,6.05859375 C14.7216809,6.16406303 14.9589833,6.28124936 15.1816406,6.41015625 L16.7316725,5.15075533 C17.1293885,4.82761109 17.7070184,4.85740899 18.0693719,5.21976255 L18.7802374,5.93062807 C19.142591,6.29298163 19.1723889,6.87061149 18.8492447,7.26832748 L17.5898438,8.81835938 C17.7187506,9.04101674 17.835937,9.27831905 17.9414062,9.53027344 C18.0468755,9.78222782 18.1347653,10.0429674 18.2050781,10.3125 L20.1001233,10.5031964 C20.611056,10.554611 21,10.9846583 21,11.4981714 L21,12.5018286 C21,13.0153417 20.611056,13.445389 20.1001233,13.4968036 Z M12,15 C13.6568542,15 15,13.6568542 15,12 C15,10.3431458 13.6568542,9 12,9 C10.3431458,9 9,10.3431458 9,12 C9,13.6568542 10.3431458,15 12,15 Z" fill="#000000"></path>
    </g>
</svg>