<?xml version="1.0" encoding="UTF-8"?>
<svg width="24px" height="24px" viewBox="0 0 24 24" version="1.1" xmlns="http://www.w3.org/2000/svg" xmlns:xlink="http://www.w3.org/1999/xlink">
    <!-- Generator: Sketch 51.2 (57519) - http://www.bohemiancoding.com/sketch -->
    <title>icon-redo</title>
    <desc>Created with Sketch.</desc>
    <defs></defs>
    <g stroke="none" stroke-width="1" fill="none" fill-rule="evenodd">
        <path d="M17.5857864,10 L12.0005018,10 C9.23048858,10 7.60637642,11.3649338 7.14696791,13.5346149 C6.74530564,15.4315738 7.40530592,17.487955 8.50614036,18.1393994 C8.98143697,18.4206672 9.13872838,19.0339838 8.85746057,19.5092804 C8.57619275,19.984577 7.96287611,20.1418684 7.48757951,19.8606006 C5.56719616,18.7241691 4.62522821,15.7892534 5.19034843,13.1203201 C5.8424824,10.0404407 8.27036918,8 12.0005018,8 L17.5857864,8 L14.2928932,4.70710678 C13.9023689,4.31658249 13.9023689,3.68341751 14.2928932,3.29289322 C14.6834175,2.90236893 15.3165825,2.90236893 15.7071068,3.29289322 L20.6884642,8.27425068 C20.8806461,8.45648695 21.0005018,8.71424658 21.0005018,9 C21.0005018,9.28575342 20.8806461,9.54351305 20.6884642,9.72574932 L15.7071068,14.7071068 C15.3165825,15.0976311 14.6834175,15.0976311 14.2928932,14.7071068 C13.9023689,14.3165825 13.9023689,13.6834175 14.2928932,13.2928932 L17.5857864,10 Z" fill="#000000" fill-rule="nonzero"></path>
    </g>
</svg>