<?xml version="1.0" encoding="UTF-8"?>
<svg width="24px" height="24px" viewBox="0 0 24 24" version="1.1" xmlns="http://www.w3.org/2000/svg" xmlns:xlink="http://www.w3.org/1999/xlink">
    <!-- Generator: Sketch 51.2 (57519) - http://www.bohemiancoding.com/sketch -->
    <title>icon-rotate-right</title>
    <desc>Created with Sketch.</desc>
    <defs></defs>
    <g stroke="none" stroke-width="1" fill="none" fill-rule="evenodd">
        <path d="M20,7.93105711 L20,5 C20,4.44771525 20.4477153,4 21,4 C21.5522847,4 22,4.44771525 22,5 L22,10.2090896 C22.0001372,10.2186835 22.0001372,10.2282771 22,10.23787 L22,11 C22,11.5522847 21.5522847,12 21,12 L15,12 C14.4477153,12 14,11.5522847 14,11 C14,10.4477153 14.4477153,10 15,10 L19.2894953,10 L16.1438653,7.08066545 C13.8833613,4.85246921 10.4323651,4.37292446 7.66181685,5.88561466 C4.89679889,7.39528536 3.47831066,10.5238881 4.17783967,13.5599436 C4.87810125,16.5991785 7.53322528,18.8181451 10.6927493,18.997747 C12.5710918,19.1045207 14.3947134,18.4749544 15.7899439,17.2662118 C16.2073671,16.9045818 16.8389146,16.9498111 17.2005446,17.3672343 C17.5621747,17.7846575 17.5169454,18.416205 17.0995221,18.777835 C15.3131561,20.3254337 12.9797815,21.1309812 10.5792433,20.9945235 C6.53541932,20.7646539 3.12964626,17.9183474 2.22890279,14.0089926 C1.32742676,10.0964583 3.15378317,6.06826582 6.70338897,4.1302184 C10.2474645,2.19519048 14.6585915,2.80815342 17.526217,5.63560855 L20,7.93105711 Z" fill="#000000" fill-rule="nonzero"></path>
    </g>
</svg>