<?xml version="1.0" encoding="UTF-8"?>
<svg width="24px" height="24px" viewBox="0 0 24 24" version="1.1" xmlns="http://www.w3.org/2000/svg" xmlns:xlink="http://www.w3.org/1999/xlink">
    <!-- Generator: Sketch 51.2 (57519) - http://www.bohemiancoding.com/sketch -->
    <title>icon-selected</title>
    <desc>Created with Sketch.</desc>
    <defs></defs>
    <g stroke="none" stroke-width="1" fill="none" fill-rule="evenodd">
        <path d="M12,21 C7.02943725,21 3,16.9705627 3,12 C3,7.02943725 7.02943725,3 12,3 C16.9705627,3 21,7.02943725 21,12 C21,16.9705627 16.9705627,21 12,21 Z M9.61,14.89 L7.03,12.31 C6.73728908,12.0172891 6.26271092,12.0172891 5.97,12.31 C5.67764027,12.6023597 5.67764027,13.0763685 5.97,13.3687283 C5.97021183,13.3689401 5.97042379,13.3691518 5.97063587,13.3693634 L9.61,17 L18.0324941,8.57750592 C18.3224501,8.2875499 18.3224501,7.81743831 18.0324941,7.52748228 C18.0316647,7.52665289 18.0308333,7.52582546 18.03,7.525 C17.7368836,7.2346489 17.2642311,7.23576892 16.9724941,7.52750592 L9.61,14.89 Z" fill="#000000"></path>
    </g>
</svg>