<?xml version="1.0" encoding="UTF-8"?>
<svg width="24px" height="24px" viewBox="0 0 24 24" version="1.1" xmlns="http://www.w3.org/2000/svg" xmlns:xlink="http://www.w3.org/1999/xlink">
    <!-- Generator: Sketch 51.3 (57544) - http://www.bohemiancoding.com/sketch -->
    <title>icon-select-all</title>
    <desc>Created with Sketch.</desc>
    <defs></defs>
    <g stroke="none" stroke-width="1" fill="none" fill-rule="evenodd">
        <path d="M3,5 L5,5 L5,3 C3.9,3 3,3.9 3,5 Z M3,13 L5,13 L5,11 L3,11 L3,13 Z M7,21 L9,21 L9,19 L7,19 L7,21 Z M3,9 L5,9 L5,7 L3,7 L3,9 Z M13,3 L11,3 L11,5 L13,5 L13,3 Z M19,3 L19,5 L21,5 C21,3.9 20.1,3 19,3 Z M5,21 L5,19 L3,19 C3,20.1 3.9,21 5,21 Z M3,17 L5,17 L5,15 L3,15 L3,17 Z M9,3 L7,3 L7,5 L9,5 L9,3 Z M11,21 L13,21 L13,19 L11,19 L11,21 Z M19,13 L21,13 L21,11 L19,11 L19,13 Z M19,21 C20.1,21 21,20.1 21,19 L19,19 L19,21 Z M19,9 L21,9 L21,7 L19,7 L19,9 Z M19,17 L21,17 L21,15 L19,15 L19,17 Z M15,21 L17,21 L17,19 L15,19 L15,21 Z M15,5 L17,5 L17,3 L15,3 L15,5 Z M7,17 L17,17 L17,7 L7,7 L7,17 Z M9,9 L15,9 L15,15 L9,15 L9,9 Z" fill="#000000" fill-rule="nonzero"></path>
    </g>
</svg>