<svg xmlns="http://www.w3.org/2000/svg" width="24" height="24" viewBox="0 0 24 24"><g id="Artboard" fill="none" fill-rule="evenodd" stroke="none" stroke-width="1"><path id="Shape" fill="#000" fill-rule="nonzero" d="M6,4 L18,4 C19.1045695,4 20,4.8954305 20,6 L20,18 C20,19.1045695 19.1045695,20 18,20 L6,20 C4.8954305,20 4,19.1045695 4,18 L4,6 C4,4.8954305 4.8954305,4 6,4 Z M9.61,14.89 L7.03,12.31 C6.73728908,12.0172891 6.26271092,12.0172891 5.97,12.31 C5.67764027,12.6023597 5.67764027,13.0763685 5.97,13.3687283 C5.97021183,13.3689401 5.97042379,13.3691518 5.97063587,13.3693634 L9.61,17 L18.0324941,8.57750592 C18.3224501,8.2875499 18.3224501,7.81743831 18.0324941,7.52748228 C18.0316647,7.52665289 18.0308333,7.52582546 18.03,7.525 C17.7368836,7.2346489 17.2642311,7.23576892 16.9724941,7.52750592 L9.61,14.89 Z"/></g></svg>