<?xml version="1.0" encoding="UTF-8"?>
<svg width="24px" height="24px" viewBox="0 0 24 24" version="1.1" xmlns="http://www.w3.org/2000/svg" xmlns:xlink="http://www.w3.org/1999/xlink">
    <!-- Generator: Sketch 51.3 (57544) - http://www.bohemiancoding.com/sketch -->
    <title>icon-strike-through</title>
    <desc>Created with Sketch.</desc>
    <defs></defs>
    <g stroke="none" stroke-width="1" fill="none" fill-rule="evenodd">
        <path d="M15.6,8.5 C15.1075019,7.83550117 14.6680853,7.3860845 14.28175,7.15175 C13.7022471,6.80024824 13,6.6 12.301,6.6 C9.6,6.6 9.5,8.34399819 9.5,8.705 C9.5,10.3191181 11.275,10.7081325 12.7,11 C17.089,11.8989518 17.3115,13.8105 17.3,14.9 C17.2851124,16.3104413 16.6,19 12.3,19 C9.4,19 7.75358956,17.5353347 7,16.4285 L8.539,15.2885 C8.88100171,15.8775029 10.08986,17.369 12.244,17.369 C13.831235,17.369 14.6730134,16.9033659 15.1225,16.12925 C15.6106774,15.2885 15.4928729,14.0368422 14.36725,13.45025 C13.6927466,13.0987482 12.8,12.8031236 11.5,12.5 C10.4660496,12.2589117 7.6,11.7 7.6,8.9 C7.6,6 10.2784657,5 12.3865,5 C15.2970223,5 16.6,6.6 17.1,7.4 L15.6,8.5 Z" fill="#000000"></path>
        <path d="M5,11 L19,11 C19.5522847,11 20,11.4477153 20,12 C20,12.5522847 19.5522847,13 19,13 L5,13 C4.44771525,13 4,12.5522847 4,12 C4,11.4477153 4.44771525,11 5,11 Z" fill="#000000" fill-rule="nonzero"></path>
    </g>
</svg>