<?xml version="1.0" encoding="UTF-8"?>
<svg width="24px" height="24px" viewBox="0 0 24 24" version="1.1" xmlns="http://www.w3.org/2000/svg" xmlns:xlink="http://www.w3.org/1999/xlink">
    <!-- Generator: Sketch 51.2 (57519) - http://www.bohemiancoding.com/sketch -->
    <title>icon-table-insert-column-before</title>
    <desc>Created with Sketch.</desc>
    <defs></defs>
    <g stroke="none" stroke-width="1" fill="none" fill-rule="evenodd">
        <path d="M9.671875,16.046875 L9.671875,16.046875 C9.30080868,16.046875 9,15.7460663 9,15.375 L9,13.203125 L6.859375,13.203125 C6.47104979,13.203125 6.15625,12.8883252 6.15625,12.5 L6.15625,12.5 C6.15625,12.1116748 6.47104979,11.796875 6.859375,11.796875 L9,11.796875 L9,9.625 C9,9.25393368 9.30080868,8.953125 9.671875,8.953125 L9.671875,8.953125 C10.0429413,8.953125 10.34375,9.25393368 10.34375,9.625 L10.34375,11.796875 L12.546875,11.796875 C12.9352002,11.796875 13.25,12.1116748 13.25,12.5 L13.25,12.5 C13.25,12.8883252 12.9352002,13.203125 12.546875,13.203125 L10.34375,13.203125 L10.34375,15.375 C10.34375,15.7460663 10.0429413,16.046875 9.671875,16.046875 Z M4,5 L20,5 L20,19 L4,19 L4,5 Z M14,18 L14,7 L5,7 L5,18 L14,18 Z M19,18 L19,15 L15,15 L15,18 L19,18 Z M19,14 L19,11 L15,11 L15,14 L19,14 Z M19,10 L19,7 L15,7 L15,10 L19,10 Z" fill="#000000"></path>
    </g>
</svg>