<?xml version="1.0" encoding="UTF-8"?>
<svg width="24px" height="24px" viewBox="0 0 24 24" version="1.1" xmlns="http://www.w3.org/2000/svg" xmlns:xlink="http://www.w3.org/1999/xlink">
    <!-- Generator: Sketch 51.2 (57519) - http://www.bohemiancoding.com/sketch -->
    <title>icon-table-delete-column</title>
    <desc>Created with Sketch.</desc>
    <defs></defs>
    <g stroke="none" stroke-width="1" fill="none" fill-rule="evenodd">
        <path d="M9,11.203125 L10,12.203125 L10,12.40625 L9,13.40625 L9,11.203125 Z M14,12.25 L15,11.25 L15,13.40625 L14,12.40625 L14,12.25 Z M20,5 L20,19 L4,19 L4,5 L20,5 Z M19,7 L15,7 L15,7.796875 L14.796875,7.59375 L14,8.40625 L14,7 L10,7 L10,8.40625 L9.203125,7.59375 L9,7.796875 L9,7 L5,7 L5,18 L9,18 L9,16.15625 L9.546875,16.703125 L10,16.25 L10,18.046875 L14,18.046875 L14,16.25 L14.75,17 L15,16.75 L15,18.046875 L19,18.046875 L19,7 Z M15.105456,10.441419 L13.25,12.296875 L15.1484375,14.1953125 C15.4806713,14.5275463 15.4806713,15.0662037 15.1484375,15.3984375 L15.1484375,15.3984375 C14.8162037,15.7306713 14.2775463,15.7306713 13.9453125,15.3984375 L12.046875,13.5 L10.191419,15.355456 C9.86348589,15.6833891 9.33180124,15.6833891 9.00386812,15.355456 C9.00257451,15.3541624 9.00128513,15.3528645 9,15.3515625 L9,15.3515625 C8.67115049,15.018386 8.67204568,14.4825005 9.00200649,14.1504246 L10.84375,12.296875 L8.8984375,10.3515625 C8.56620371,10.0193287 8.56620371,9.48067129 8.8984375,9.1484375 L8.8984375,9.1484375 C9.23067129,8.81620371 9.76932871,8.81620371 10.1015625,9.1484375 L12.046875,11.09375 L13.9004246,9.25200649 C14.2325005,8.92204568 14.768386,8.92115049 15.1015625,9.25 L15.1015625,9.25 C15.4316319,9.57578281 15.4351069,10.1074561 15.1093241,10.4375255 C15.108039,10.4388276 15.1067496,10.4401254 15.105456,10.441419 Z" fill="#000000"></path>
    </g>
</svg>