<?xml version="1.0" encoding="UTF-8"?>
<svg width="24px" height="24px" viewBox="0 0 24 24" version="1.1" xmlns="http://www.w3.org/2000/svg" xmlns:xlink="http://www.w3.org/1999/xlink">
    <!-- Generator: Sketch 51.2 (57519) - http://www.bohemiancoding.com/sketch -->
    <title>icon-table-split-cells</title>
    <desc>Created with Sketch.</desc>
    <defs></defs>
    <g stroke="none" stroke-width="1" fill="none" fill-rule="evenodd">
        <path d="M4,5 L20,5 L20,19 L4,19 L4,5 Z M10,7 L10,10 L14,10 L14,7 L10,7 Z M9,18 L9,15 L5,15 L5,18 L9,18 Z M9,14 L9,11 L5,11 L5,14 L9,14 Z M9,10 L9,7 L5,7 L5,10 L9,10 Z M19,18 L19,11 L10,11 L10,18 L19,18 Z M19,10 L19,7 L15,7 L15,10 L19,10 Z M15.453125,14.5 L17.0234375,16.0703125 C17.2866357,16.3335107 17.2866357,16.7602393 17.0234375,17.0234375 L17.0234375,17.0234375 C16.7602393,17.2866357 16.3335107,17.2866357 16.0703125,17.0234375 L14.5,15.453125 L12.9296875,17.0234375 C12.6664893,17.2866357 12.2397607,17.2866357 11.9765625,17.0234375 L11.9765625,17.0234375 C11.7133643,16.7602393 11.7133643,16.3335107 11.9765625,16.0703125 L13.546875,14.5 L11.9765625,12.9296875 C11.7133643,12.6664893 11.7133643,12.2397607 11.9765625,11.9765625 L11.9765625,11.9765625 C12.2397607,11.7133643 12.6664893,11.7133643 12.9296875,11.9765625 L14.5,13.546875 L16.0703125,11.9765625 C16.3335107,11.7133643 16.7602393,11.7133643 17.0234375,11.9765625 L17.0234375,11.9765625 C17.2866357,12.2397607 17.2866357,12.6664893 17.0234375,12.9296875 L15.453125,14.5 Z" fill="#000000"></path>
    </g>
</svg>