<?xml version="1.0" encoding="UTF-8"?>
<svg width="24px" height="24px" viewBox="0 0 24 24" version="1.1" xmlns="http://www.w3.org/2000/svg" xmlns:xlink="http://www.w3.org/1999/xlink">
    <!-- Generator: Sketch 51.2 (57519) - http://www.bohemiancoding.com/sketch -->
    <title>icon-table-top-header</title>
    <desc>Created with Sketch.</desc>
    <defs></defs>
    <g stroke="none" stroke-width="1" fill="none" fill-rule="evenodd">
        <path d="M4,5 L20,5 L20,18 L4,18 L4,5 Z M9,17 L9,14 L5,14 L5,17 L9,17 Z M9,13 L9,10 L5,10 L5,13 L9,13 Z M14,17 L14,14 L10,14 L10,17 L14,17 Z M14,13 L14,10 L10,10 L10,13 L14,13 Z M19,17 L19,14 L15,14 L15,17 L19,17 Z M19,13 L19,10 L15,10 L15,13 L19,13 Z" fill="#000000"></path>
    </g>
</svg>