<?xml version="1.0" encoding="UTF-8"?>
<svg width="24px" height="24px" viewBox="0 0 24 24" version="1.1" xmlns="http://www.w3.org/2000/svg" xmlns:xlink="http://www.w3.org/1999/xlink">
    <!-- Generator: Sketch 51.2 (57519) - http://www.bohemiancoding.com/sketch -->
    <title>icon-table-insert-column-after</title>
    <desc>Created with Sketch.</desc>
    <defs></defs>
    <g stroke="none" stroke-width="1" fill="none" fill-rule="evenodd">
        <path d="M14.328125,8.953125 L14.328125,8.953125 C14.6991913,8.953125 15,9.25393368 15,9.625 L15,11.796875 L17.140625,11.796875 C17.5289502,11.796875 17.84375,12.1116748 17.84375,12.5 L17.84375,12.5 C17.84375,12.8883252 17.5289502,13.203125 17.140625,13.203125 L15,13.203125 L15,15.375 C15,15.7460663 14.6991913,16.046875 14.328125,16.046875 L14.328125,16.046875 C13.9570587,16.046875 13.65625,15.7460663 13.65625,15.375 L13.65625,13.203125 L11.453125,13.203125 C11.0647998,13.203125 10.75,12.8883252 10.75,12.5 L10.75,12.5 C10.75,12.1116748 11.0647998,11.796875 11.453125,11.796875 L13.65625,11.796875 L13.65625,9.625 C13.65625,9.25393368 13.9570587,8.953125 14.328125,8.953125 Z M4,5 L20,5 L20,19 L4,19 L4,5 Z M9,18 L9,15 L5,15 L5,18 L9,18 Z M9,14 L9,11 L5,11 L5,14 L9,14 Z M9,10 L9,7 L5,7 L5,10 L9,10 Z M19,18 L19,7 L10,7 L10,18 L19,18 Z" fill="#000000"></path>
    </g>
</svg>