<svg xmlns="http://www.w3.org/2000/svg" width="24" height="24" viewBox="0 0 24 24"><g id="temporary-placeholder" fill="none" fill-rule="evenodd"><path id="Path-2" fill="#000" d="M9,7.58151705 L9,6 L11.5,6 L11.5,4.5 C11.5,4.22385763 11.7238576,4 12,4 C12.2761424,4 12.5,4.22385763 12.5,4.5 L12.5,6 L15,6 L15,7.58151705 C17.9318303,8.7682918 20,11.6426224 20,15 C20,19.418278 16.418278,23 12,23 C7.581722,23 4,19.418278 4,15 C4,11.6426224 6.06816966,8.7682918 9,7.58151705 Z M6.38471299,12.8843413 L6.38468977,12.8843328 C6.37984562,12.8975549 6.37559489,12.910987 6.3719503,12.9245888 C6.30440093,13.1766865 6.4540069,13.4358116 6.70610458,13.503361 C6.97372418,13.5750695 7.25211295,13.4321792 7.34986768,13.1729373 C7.37052754,13.118145 7.38966482,13.0702759 7.40727951,13.02933 C7.99325833,11.6672055 9.17528228,10.5771137 10.7163854,10.1675453 C10.9827951,10.0963704 11.1421282,9.82233943 11.072235,9.55533204 C11.0014022,9.28798263 10.7276269,9.13087097 10.4602775,9.20170383 C8.91129121,9.61270578 7.61476805,10.601926 6.81100663,11.9886533 C6.66206661,12.2448932 6.53329256,12.5089821 6.42491932,12.7790556 C6.41240259,12.8102481 6.39900048,12.8453433 6.38471299,12.8843413 Z"/><circle id="Oval-Copy-2" cx="14" cy="4" r="1" fill="#000"/><circle id="Oval-Copy-3" cx="12" cy="2" r="1" fill="#000"/><circle id="Oval-Copy-4" cx="10" cy="4" r="1" fill="#000"/></g></svg>