<?xml version="1.0" encoding="UTF-8"?>
<svg width="24px" height="24px" viewBox="0 0 24 24" version="1.1" xmlns="http://www.w3.org/2000/svg" xmlns:xlink="http://www.w3.org/1999/xlink">
    <!-- Generator: Sketch 51.2 (57519) - http://www.bohemiancoding.com/sketch -->
    <title>icon-temporary-placeholder</title>
    <desc>Created with Sketch.</desc>
    <defs></defs>
    <g id="icon-temporary-placeholder" stroke="none" stroke-width="1" fill="none" fill-rule="evenodd">
        <path d="M20.499,2.5 C19.672,2.5 18.999,3.172 18.999,4 C18.999,4.827 18.326,5.5 17.499,5.5 C16.672,5.5 15.999,4.827 15.999,4 C15.999,2.347 14.653,1 13,1 C11.346,1 10,2.347 10,4 L10,6 L8.5,6 C8.224,6 8,6.224 8,6.5 L8,7.591 C4.995,8.808 3,11.74 3,15 C3,19.411 6.589,23 11,23 C15.411,23 18.999,19.411 18.999,15 C18.999,11.74 17.005,8.808 14,7.591 L14,6.5 C14,6.224 13.776,6 13.5,6 L11,6 L11,4 C11,2.896 11.896,2 13,2 C14.103,2 14.999,2.896 14.999,4 C14.999,5.378 16.121,6.5 17.499,6.5 C18.878,6.5 19.999,5.378 19.999,4 C19.999,3.725 20.224,3.5 20.499,3.5 C20.775,3.5 20.999,3.275 20.999,3 C20.999,2.724 20.775,2.5 20.499,2.5 Z M8.141,10.898 C5.879,12.475 5.322,15.597 6.899,17.86 C7.056,18.086 7,18.396 6.773,18.555 C6.686,18.615 6.586,18.643 6.488,18.643 C6.33,18.643 6.175,18.57 6.078,18.431 C5.161,17.115 4.811,15.523 5.094,13.945 C5.375,12.367 6.255,10.994 7.57,10.078 C7.797,9.92 8.108,9.974 8.266,10.201 C8.423,10.428 8.367,10.74 8.141,10.898 Z" id="Shape" fill="#000000" fill-rule="nonzero"></path>
    </g>
</svg>