<?xml version="1.0" encoding="UTF-8"?>
<svg width="24px" height="24px" viewBox="0 0 24 24" version="1.1" xmlns="http://www.w3.org/2000/svg" xmlns:xlink="http://www.w3.org/1999/xlink">
    <!-- Generator: Sketch 51.2 (57519) - http://www.bohemiancoding.com/sketch -->
    <title>icon-translate</title>
    <desc>Created with Sketch.</desc>
    <defs></defs>
    <g stroke="none" stroke-width="1" fill="none" fill-rule="evenodd">
        <path d="M12.65625,14.25 L12.375,14.9765625 C12.1874991,15.4609399 12.0781252,15.703125 12.046875,15.703125 L9.796875,13.453125 L6.68360822,16.5663918 C6.39172657,16.8582734 5.91903567,16.8600241 5.625,16.5703125 L5.625,16.5703125 C5.33623222,16.2857913 5.33278968,15.8210488 5.61731088,15.532281 C5.62004434,15.5295067 5.62279984,15.5267543 5.62557711,15.5240239 L8.796875,12.40625 C8.34895609,11.9062475 7.94791844,11.3802111 7.59375,10.828125 C7.23958156,10.2760389 6.92708469,9.69791969 6.65625,9.09375 L8.09375,9.09375 C8.32291781,9.55208563 8.57812359,9.98176883 8.859375,10.3828125 C9.14062641,10.7838562 9.45312328,11.1718731 9.796875,11.546875 C10.3281277,10.9739555 10.7812481,10.3567741 11.15625,9.6953125 C11.5312519,9.03385086 11.8437487,8.35417016 12.09375,7.65625 L4.7265625,7.65625 C4.32529311,7.65625 4,7.33095689 4,6.9296875 L4,6.9296875 C4,6.52841811 4.32529311,6.203125 4.7265625,6.203125 L9.09375,6.203125 L9.09375,5.4765625 C9.09375,5.07529311 9.41904311,4.75 9.8203125,4.75 L9.8203125,4.75 C10.2215819,4.75 10.546875,5.07529311 10.546875,5.4765625 L10.546875,6.203125 L14.9296875,6.203125 C15.3309569,6.203125 15.65625,6.52841811 15.65625,6.9296875 L15.65625,6.9296875 C15.65625,7.33095689 15.3309569,7.65625 14.9296875,7.65625 L13.5,7.65625 C13.3645827,8.07291875 13.2031259,8.48958125 13.015625,8.90625 C12.8385408,9.32291875 12.638022,9.73176883 12.4140625,10.1328125 C12.190103,10.5338562 11.9427097,10.9270814 11.671875,11.3125 C11.4010403,11.6875019 11.1093766,12.0520816 10.796875,12.40625 L12.65625,14.25 Z M17.0029793,11.227973 L19.7470207,18.615777 C19.8441689,18.8773297 19.7108926,19.1681143 19.4493398,19.2652625 C19.3930504,19.28617 19.3334844,19.296875 19.2734375,19.296875 L19.2734375,19.296875 C18.8373843,19.296875 18.4480623,19.023687 18.2997449,18.6136329 L17.75,17.09375 L14.296875,17.09375 L13.7471301,18.6136329 C13.5988127,19.023687 13.2094907,19.296875 12.7734375,19.296875 L12.7734375,19.296875 C12.4944256,19.296875 12.2682418,19.0706912 12.2682418,18.7916793 C12.2682418,18.7316324 12.2789468,18.6720664 12.2998543,18.615777 L15.0438957,11.227973 C15.1959736,10.8185325 15.5866661,10.546875 16.0234375,10.546875 L16.0234375,10.546875 C16.4602089,10.546875 16.8509014,10.8185325 17.0029793,11.227973 Z M14.796875,15.65625 L17.203125,15.65625 L16,12.5 L14.796875,15.65625 Z" fill="#000000"></path>
    </g>
</svg>