<?xml version="1.0" encoding="UTF-8"?>
<svg width="24px" height="24px" viewBox="0 0 24 24" version="1.1" xmlns="http://www.w3.org/2000/svg" xmlns:xlink="http://www.w3.org/1999/xlink">
    <!-- Generator: Sketch 51.2 (57519) - http://www.bohemiancoding.com/sketch -->
    <title>icon-underline</title>
    <desc>Created with Sketch.</desc>
    <defs></defs>
    <g stroke="none" stroke-width="1" fill="none" fill-rule="evenodd">
        <path d="M16,5 L16,5 C16.5522847,5 17,5.44771525 17,6 L17,11.5 C17,12.1250031 16.869793,12.7083306 16.609375,13.25 C16.348957,13.8020861 15.9921898,14.281248 15.5390625,14.6875 C15.0859352,15.093752 14.5572947,15.4114572 13.953125,15.640625 C13.3385386,15.8802095 12.6875034,16 12,16 C11.3124966,16 10.6614614,15.8802095 10.046875,15.640625 C9.44270531,15.4114572 8.91406477,15.093752 8.4609375,14.6875 C8.00781023,14.281248 7.65104297,13.8020861 7.390625,13.25 C7.13020703,12.7083306 7,12.1250031 7,11.5 L7,6 C7,5.44771525 7.44771525,5 8,5 L8,5 C8.55228475,5 9,5.44771525 9,6 L9,11.5 C9,11.8125016 9.0703118,12.1145819 9.2109375,12.40625 C9.3515632,12.6979181 9.54687375,12.9635405 9.796875,13.203125 C10.0885431,13.4531263 10.4244773,13.6484368 10.8046875,13.7890625 C11.1848977,13.9296882 11.5833313,14 12,14 C12.4166687,14 12.8151023,13.9296882 13.1953125,13.7890625 C13.5755227,13.6484368 13.9114569,13.4531263 14.203125,13.203125 C14.4531263,12.9635405 14.6484368,12.6979181 14.7890625,12.40625 C14.9296882,12.1145819 15,11.8125016 15,11.5 L15,6 C15,5.44771525 15.4477153,5 16,5 Z M8,17 L16,17 C16.5522847,17 17,17.4477153 17,18 L17,18 C17,18.5522847 16.5522847,19 16,19 L8,19 C7.44771525,19 7,18.5522847 7,18 L7,18 C7,17.4477153 7.44771525,17 8,17 Z" fill="#000000"></path>
    </g>
</svg>