<?xml version="1.0" encoding="UTF-8"?>
<svg width="24px" height="24px" viewBox="0 0 24 24" version="1.1" xmlns="http://www.w3.org/2000/svg" xmlns:xlink="http://www.w3.org/1999/xlink">
    <!-- Generator: Sketch 51.2 (57519) - http://www.bohemiancoding.com/sketch -->
    <title>icon-unlock</title>
    <desc>Created with Sketch.</desc>
    <defs></defs>
    <g stroke="none" stroke-width="1" fill="none" fill-rule="evenodd">
        <path d="M16,5 C16.8229208,5 17.5286429,5.29426789 18.1171875,5.8828125 C18.7057321,6.47135711 19,7.17707922 19,8 L19,11 L17,11 L17,8 C17,7.72916531 16.9010427,7.49479266 16.703125,7.296875 C16.5052073,7.09895734 16.2708347,7 16,7 L14,7 C13.7291653,7 13.4947927,7.09895734 13.296875,7.296875 C13.0989573,7.49479266 13,7.72916531 13,8 L13,11 L13.25,11 C13.4583344,11 13.6354159,11.0729159 13.78125,11.21875 C13.9270841,11.3645841 14,11.5416656 14,11.75 L14,19.25 C14,19.4583344 13.9270841,19.6354159 13.78125,19.78125 C13.6354159,19.9270841 13.4583344,20 13.25,20 L4.75,20 C4.54166563,20 4.36458406,19.9270841 4.21875,19.78125 C4.07291594,19.6354159 4,19.4583344 4,19.25 L4,11.75 C4,11.5416656 4.07291594,11.3645841 4.21875,11.21875 C4.36458406,11.0729159 4.54166563,11 4.75,11 L11,11 L11,8 C11,7.17707922 11.2942679,6.47135711 11.8828125,5.8828125 C12.4713571,5.29426789 13.1770792,5 14,5 L16,5 Z" fill="#000000"></path>
    </g>
</svg>